<svg width="209" height="208" viewBox="0 0 209 208" fill="none" xmlns="http://www.w3.org/2000/svg">
<path d="M107.263 180.867L106.577 171.133L107.848 171.044L108.159 175.457L113.116 175.108L112.806 170.695L114.076 170.605L114.762 180.339L113.491 180.429L113.19 176.155L108.232 176.504L108.533 180.778L107.263 180.867Z" fill="white" fill-opacity="0.5"/>
<path d="M92.2173 169.798C93.1025 169.988 93.8661 170.367 94.508 170.934C95.148 171.511 95.6031 172.215 95.8734 173.046C96.1326 173.884 96.1623 174.769 95.9626 175.7C95.7628 176.63 95.3738 177.42 94.7954 178.069C94.2059 178.726 93.5021 179.181 92.6839 179.435C91.8638 179.698 91.0111 179.735 90.126 179.545C89.2317 179.353 88.4645 178.969 87.8245 178.392C87.1826 177.825 86.7311 177.127 86.4699 176.297C86.2087 175.468 86.179 174.583 86.3807 173.643C86.5824 172.704 86.9724 171.909 87.5508 171.26C88.1292 170.611 88.8285 170.155 89.6486 169.892C90.4668 169.638 91.323 169.607 92.2173 169.798ZM91.9853 170.88C91.3191 170.737 90.6881 170.764 90.0922 170.96C89.4872 171.155 88.9725 171.508 88.548 172.018C88.1143 172.526 87.8163 173.159 87.6537 173.917C87.4892 174.683 87.5014 175.383 87.6903 176.015C87.8681 176.655 88.1883 177.186 88.651 177.61C89.1137 178.034 89.6827 178.318 90.358 178.463C91.0333 178.608 91.6689 178.582 92.2647 178.386C92.8606 178.189 93.3754 177.836 93.809 177.328C94.2316 176.827 94.5251 176.193 94.6896 175.426C94.8521 174.669 94.8445 173.971 94.6667 173.331C94.4798 172.69 94.155 172.157 93.6923 171.733C93.2204 171.307 92.6514 171.023 91.9853 170.88Z" fill="white" fill-opacity="0.5"/>
<path d="M61.8232 167.767L69.1841 160.765L70.4174 161.485L68.4175 169.411L74.4076 163.814L75.6359 164.514L73.0682 174.33L71.8953 173.646L74.2279 165.427L68.0261 171.387L66.7927 170.668L69.0145 162.417L63.0081 168.459L61.8232 167.767Z" fill="white" fill-opacity="0.5"/>
<path d="M37.1299 139.92L46.9281 137.235L47.674 138.452L42.1611 144.489L50.0871 142.392L50.8376 143.59L43.9304 151.023L43.2211 149.864L49.1653 143.728L40.8811 146.044L40.1353 144.826L45.9971 138.609L37.8465 141.09L37.1299 139.92Z" fill="white" fill-opacity="0.5"/>
<path d="M33.0312 126.751L36.1769 125.888L35.2357 122.459L36.2482 122.181L37.1894 125.61L40.4296 124.721L39.3772 120.886L40.3898 120.609L41.7793 125.671L32.3558 128.258L30.9663 123.195L31.9788 122.917L33.0312 126.751Z" fill="white" fill-opacity="0.5"/>
<path d="M30.7855 86.4264L39.9143 90.8852L39.6695 92.2921L31.543 93.1802L38.8775 96.8437L38.6489 98.2392L28.5536 99.2536L28.7864 97.9157L37.3027 97.2376L29.5543 93.5021L29.7991 92.0952L38.3071 91.3019L30.5503 87.7781L30.7855 86.4264Z" fill="white" fill-opacity="0.5"/>
<path d="M45.7384 74.8169C45.313 75.6161 44.7395 76.2465 44.0179 76.7083C43.288 77.1656 42.4864 77.4103 41.6129 77.4423C40.7356 77.4616 39.8768 77.2476 39.0364 76.8003C38.1961 76.353 37.5431 75.7622 37.0775 75.028C36.608 74.2811 36.3634 73.4795 36.3435 72.623C36.3154 71.7622 36.514 70.9322 36.9394 70.133C37.3692 69.3256 37.949 68.6932 38.6789 68.2359C39.4005 67.7741 40.1958 67.5314 41.0649 67.5077C41.934 67.4839 42.7928 67.6979 43.6414 68.1496C44.49 68.6014 45.1471 69.1943 45.6127 69.9286C46.0783 70.6628 46.3251 71.4603 46.3533 72.3212C46.3731 73.1776 46.1682 74.0095 45.7384 74.8169ZM44.7621 74.2972C45.0823 73.6958 45.2295 73.0816 45.2037 72.4546C45.1823 71.8194 44.9845 71.2278 44.6102 70.6796C44.2403 70.1232 43.7134 69.6629 43.0296 69.2989C42.3375 68.9305 41.6615 68.7504 41.0016 68.7586C40.3379 68.7542 39.7387 68.9164 39.2042 69.2451C38.6698 69.5738 38.2402 70.043 37.9157 70.6527C37.5912 71.2624 37.4418 71.8807 37.4675 72.5077C37.4933 73.1346 37.6911 73.7263 38.061 74.2827C38.4271 74.8265 38.9562 75.2826 39.6482 75.651C40.332 76.015 41.0058 76.1992 41.6696 76.2037C42.3377 76.1998 42.9391 76.0336 43.4736 75.7048C44.0124 75.3679 44.4419 74.8987 44.7621 74.2972Z" fill="white" fill-opacity="0.5"/>
<path d="M57.5969 58.1839L53.106 57.1104L52.0428 58.2244L54.9292 60.9792L54.0496 61.9008L46.9905 55.1638L49.1653 52.885C49.6744 52.3516 50.194 51.9896 50.7243 51.799C51.261 51.6016 51.7717 51.56 52.2562 51.6741C52.7408 51.7882 53.1823 52.0354 53.5806 52.4156C54.0668 52.8795 54.3602 53.4305 54.4609 54.0685C54.5681 54.6997 54.415 55.3535 54.0017 56.0299L58.6505 57.08L57.5969 58.1839ZM51.3034 57.5188L52.5986 56.1617C53.0755 55.6621 53.3116 55.1713 53.3069 54.6895C53.2955 54.2013 53.0839 53.7606 52.672 53.3676C52.2534 52.968 51.8101 52.7837 51.3421 52.8144C50.8806 52.8384 50.4082 53.1035 49.9249 53.6099L48.6297 54.9671L51.3034 57.5188Z" fill="white" fill-opacity="0.5"/>
<path d="M70.5206 47.9879L64.7478 46.3633L67.1212 50.1299L66.0433 50.8091L60.8413 42.5533L61.9192 41.8741L64.3299 45.7L65.3305 39.7247L66.6926 38.8664L65.5544 45.3586L71.9301 47.0998L70.5206 47.9879Z" fill="white" fill-opacity="0.5"/>
<path d="M96.4372 29.094L97.8812 38.7446L96.6212 38.9331L95.9666 34.5578L91.0513 35.2933L91.706 39.6686L90.446 39.8571L89.002 30.2065L90.262 30.018L90.8959 34.2548L95.8112 33.5194L95.1773 29.2825L96.4372 29.094Z" fill="white" fill-opacity="0.5"/>
<path d="M112.301 38.9536C111.404 38.8334 110.613 38.5156 109.929 38.0001C109.246 37.4755 108.737 36.8094 108.403 36.0018C108.079 35.1863 107.98 34.3067 108.106 33.3631C108.233 32.4195 108.559 31.6016 109.085 30.9093C109.621 30.209 110.287 29.7003 111.083 29.3831C111.88 29.0567 112.727 28.9536 113.625 29.0738C114.531 29.1953 115.326 29.5183 116.009 30.043C116.693 30.5584 117.198 31.2193 117.523 32.0256C117.848 32.8319 117.947 33.7115 117.82 34.6643C117.692 35.6171 117.365 36.4397 116.839 37.132C116.313 37.8243 115.652 38.3336 114.855 38.66C114.059 38.9772 113.208 39.075 112.301 38.9536ZM112.448 37.8574C113.123 37.9478 113.75 37.8717 114.329 37.6291C114.917 37.3877 115.403 36.996 115.786 36.4541C116.179 35.9135 116.426 35.2592 116.529 34.4914C116.633 33.7144 116.566 33.018 116.329 32.4023C116.102 31.7786 115.741 31.2736 115.246 30.8872C114.752 30.5008 114.162 30.2617 113.478 30.17C112.793 30.0783 112.162 30.1538 111.583 30.3965C111.004 30.6391 110.519 31.0308 110.126 31.5714C109.744 32.1041 109.501 32.7589 109.397 33.536C109.294 34.3038 109.356 34.9995 109.583 35.6232C109.82 36.2482 110.185 36.7538 110.68 37.1402C111.183 37.5279 111.773 37.7669 112.448 37.8574Z" fill="white" fill-opacity="0.5"/>
<path d="M142.761 38.6038L135.97 46.1598L134.684 45.5386L136.059 37.4801L130.524 43.5288L129.245 42.9263L131.038 32.9398L132.261 33.5305L130.577 41.9063L136.294 35.4794L137.58 36.1007L136.01 44.5L141.526 38.0069L142.761 38.6038Z" fill="white" fill-opacity="0.5"/>
<path d="M169.555 64.4371L159.997 67.8796L159.158 66.7239L164.182 60.2753L156.444 62.9847L155.603 61.8485L161.908 53.8995L162.706 54.9986L157.259 61.5806L165.337 58.6244L166.176 59.7802L160.817 66.4363L168.749 63.3267L169.555 64.4371Z" fill="white" fill-opacity="0.5"/>
<path d="M174.67 77.2449L171.602 78.3515L172.808 81.6966L171.82 82.0528L170.614 78.7076L167.453 79.8474L168.802 83.5877L167.814 83.9438L166.033 79.0051L175.226 75.6903L177.007 80.629L176.019 80.9852L174.67 77.2449Z" fill="white" fill-opacity="0.5"/>
<path d="M180.059 117.271L170.61 113.539L170.744 112.117L178.776 110.597L171.178 107.518L171.297 106.109L181.282 104.308L181.155 105.66L172.717 107.002L180.734 110.121L180.6 111.542L172.18 112.998L180.188 115.905L180.059 117.271Z" fill="white" fill-opacity="0.5"/>
<path d="M166.059 130.013C166.421 129.183 166.943 128.51 167.627 127.993C168.319 127.48 169.099 127.174 169.967 127.074C170.84 126.986 171.713 127.132 172.586 127.512C173.459 127.893 174.156 128.431 174.677 129.126C175.204 129.834 175.51 130.614 175.597 131.466C175.692 132.322 175.559 133.165 175.197 133.995C174.832 134.834 174.303 135.51 173.611 136.023C172.928 136.539 172.154 136.843 171.29 136.935C170.425 137.027 169.552 136.88 168.671 136.496C167.789 136.112 167.088 135.572 166.567 134.877C166.045 134.181 165.737 133.405 165.641 132.549C165.555 131.697 165.694 130.852 166.059 130.013ZM167.073 130.455C166.801 131.08 166.702 131.704 166.777 132.327C166.848 132.958 167.091 133.533 167.507 134.05C167.92 134.576 168.481 134.993 169.191 135.303C169.91 135.616 170.598 135.743 171.255 135.683C171.917 135.635 172.502 135.427 173.009 135.058C173.516 134.688 173.907 134.187 174.183 133.554C174.459 132.92 174.56 132.292 174.485 131.669C174.411 131.046 174.167 130.472 173.755 129.946C173.347 129.432 172.784 129.019 172.066 128.706C171.355 128.396 170.669 128.265 170.007 128.313C169.341 128.369 168.755 128.582 168.248 128.951C167.737 129.329 167.345 129.83 167.073 130.455Z" fill="white" fill-opacity="0.5"/>
<path d="M155.536 147.522L160.098 148.241L161.07 147.048L157.978 144.527L158.783 143.539L166.346 149.704L164.356 152.146C163.89 152.718 163.401 153.119 162.887 153.351C162.367 153.589 161.861 153.671 161.369 153.595C160.877 153.519 160.418 153.307 159.991 152.959C159.47 152.534 159.135 152.008 158.984 151.38C158.828 150.759 158.93 150.095 159.289 149.389L154.572 148.705L155.536 147.522ZM161.863 147.693L160.677 149.148C160.241 149.683 160.044 150.191 160.086 150.671C160.136 151.156 160.381 151.579 160.823 151.939C161.271 152.305 161.728 152.454 162.192 152.386C162.65 152.327 163.1 152.025 163.542 151.483L164.728 150.028L161.863 147.693Z" fill="white" fill-opacity="0.5"/>
<path d="M143.449 158.697L149.331 159.865L146.671 156.296L147.692 155.534L153.523 163.358L152.502 164.12L149.799 160.494L149.269 166.529L147.978 167.491L148.605 160.93L142.113 159.692L143.449 158.697Z" fill="white" fill-opacity="0.5"/>
</svg>
