<svg xmlns="http://www.w3.org/2000/svg" width="24" height="24" fill="none" xmlns:v="https://vecta.io/nano"><g clip-path="url(#A)"><path d="M12 24c6.627 0 12-5.373 12-12S18.627 0 12 0 0 5.373 0 12s5.373 12 12 12z" fill="#f0f0f0"/><g fill="#d80027"><path d="M11.478 12H24a12.01 12.01 0 0 0-.413-3.13H11.478V12zm0-6.261h10.76a12.06 12.06 0 0 0-2.769-3.13h-7.991v3.13zM12 24a11.95 11.95 0 0 0 7.47-2.609H4.53A11.95 11.95 0 0 0 12 24zM1.761 18.261h20.477c.59-.962 1.047-2.014 1.348-3.13H.413a11.93 11.93 0 0 0 1.348 3.13h0z"/></g><path d="M5.559 1.874h1.094l-1.017.739.389 1.196-1.017-.739-1.017.739.336-1.033c-.896.746-1.681 1.62-2.327 2.594h.35l-.647.47-.29.513.309.952-.577-.419-.392.932.341 1.049h1.257l-1.017.739.389 1.196-1.017-.739-.609.443C.032 10.994 0 11.493 0 12h12V0C9.629 0 7.42.688 5.559 1.874h0zm.465 8.926l-1.017-.739-1.017.739.389-1.196-1.017-.739h1.257l.388-1.196.389 1.196h1.257l-1.017.739.389 1.196zm-.389-4.691l.389 1.196-1.017-.739-1.017.739.389-1.196-1.017-.739h1.257l.388-1.196.389 1.196h1.257l-1.017.739zm4.693 4.691l-1.017-.739-1.017.739.389-1.196-1.017-.739h1.257l.388-1.196.389 1.196h1.257l-1.017.739.389 1.196zm-.389-4.691l.389 1.196-1.017-.739-1.017.739.389-1.196-1.017-.739h1.257l.388-1.196.389 1.196h1.257l-1.017.739zm0-3.496l.389 1.196-1.017-.739-1.017.739.389-1.196-1.017-.739h1.257L9.311.678l.389 1.196h1.257l-1.017.739z" fill="#0052b4"/></g><defs><clipPath id="A"><path fill="#fff" d="M0 0h24v24H0z"/></clipPath></defs></svg>