<svg xmlns="http://www.w3.org/2000/svg" viewBox="0 0 500 92.6" overflow="visible">
  <path class="buzzsumo_svg_logo" d="M407.6 64.9v-.2a27.5 27.5 0 0 1 27.9-27.9 27.3 27.3 0 0 1 27.8 27.7v.2c0 15.2-11.7 27.9-27.9 27.9s-27.8-12.5-27.8-27.7zm41.7.1v-.2c0-7.5-5.9-13.9-14-13.9-8.4 0-13.8 6.3-13.8 13.7v.2c0 7.5 5.9 13.9 14 13.9 8.5 0 13.8-6.3 13.8-13.7zm-6.4-.1v-.1c0-4.1-3.2-7.5-7.6-7.5a7.2 7.2 0 0 0-7.4 7.4v.1c0 4.1 3.2 7.5 7.6 7.5a7.2 7.2 0 0 0 7.4-7.4zM325.5 41h17.1v6.7c3.1-4.1 7.6-7.8 14.5-7.8 6.5 0 11.4 2.9 14 7.9 4.2-4.9 9.2-7.9 16.3-7.9 10.3 0 16.6 6.5 16.6 17.8v32h-17.1V63.3c0-5.3-2.6-8.1-6.7-8.1s-7 2.8-7 8.1v26.5h-17.1V63.3c0-5.3-2.6-8.1-6.7-8.1-4 0-6.9 2.8-6.9 8.1v26.5h-17.1V41zM272.2 72.9V41h17.1v26.4c0 5.3 2.8 8.2 6.9 8.2 4 0 7.1-2.9 7.1-8.2V41h17.1v48.8h-17.1v-6.7a17.7 17.7 0 0 1-14.6 7.8c-10.3 0-16.5-6.9-16.5-18zM213.4 80.4l9.7-11.6a32 32 0 0 0 20.4 7.6c4.7 0 7.2-1.6 7.2-4.3v-.2c0-2.6-2.1-4.1-10.6-6-13.4-3.1-23.8-6.9-23.8-19.8v-.2c0-11.7 9.3-20.2 24.4-20.2 10.7 0 19.1 2.9 25.9 8.4l-8.7 12.3a31.4 31.4 0 0 0-17.6-6.2c-4.2 0-6.3 1.8-6.3 4.1v.2c0 2.9 2.2 4.1 10.9 6.1 14.5 3.2 23.5 7.8 23.5 19.7v.2c0 12.9-10.2 20.6-25.5 20.6a45.2 45.2 0 0 1-29.5-10.7zM163.7 77l24.5-23.1h-24.5V41h45.2v12.8L184.2 77h24.6v12.8h-45.2V77zM113.5 77L138 53.8h-24.5V41h45.2v12.8L134 77h24.6v12.8h-45.2V77zM60.2 72.9V41h17.1v26.4c0 5.3 2.8 8.2 6.9 8.2 4 0 7.1-2.9 7.1-8.2V41h17.1v48.8H91.3v-6.7a17.7 17.7 0 0 1-14.6 7.8c-10.3 0-16.5-6.9-16.5-18zM0 26.7h32.3c7.9 0 13.5 2 17.2 5.7a14 14 0 0 1 4 10.2v.2c0 7.3-4.1 11.6-9.7 14.1 7.6 2.5 12.5 6.9 12.5 15.4v.2c0 10.8-8.8 17.4-23.8 17.4H0V26.7zm28 25.1c5.3 0 8.3-1.8 8.3-5.5v-.2c0-3.4-2.7-5.4-7.9-5.4H17v11.1h11zm2.5 23.9c5.3 0 8.4-2.1 8.4-5.8v-.2c0-3.4-2.7-5.7-8.5-5.7H17v11.6h13.5z"></path>
  <path class="buzzsumo_svg_logo buzzsumo_svg_logo__radar" d="M442.1 18.5c18 0 39.4 15.9 39.4 39.2 0 3.6-2.9 6.4-6.4 6.4h-.1a4.7 4.7 0 0 1-4.6-4.2c-2-15.8-14-28.4-30.6-30.3a4.8 4.8 0 0 1-4.2-4.7v-.1c.1-3.5 3-6.3 6.5-6.3zm.4-18.5a6.4 6.4 0 0 0-6.4 6.4v.1c0 2.3 1.9 4.2 4.3 4.4a52.8 52.8 0 0 1 48.8 48.5 4.5 4.5 0 0 0 4.4 4.2h.1c3.5 0 6.4-2.9 6.4-6.4C500 23.3 469.5 0 442.5 0"></path>
</svg>