<?xml version="1.0" encoding="utf-8"?><svg version="1.1" id="Layer_1" xmlns="http://www.w3.org/2000/svg" xmlns:xlink="http://www.w3.org/1999/xlink"   viewBox="0 0 127.8 21.3" preserveAspectRatio="xMinYMid"><g> <g>  <polygon fill="#F05A2A" points="16.7,0 0,0 0,16.8 7.6,16.8 12.2,21.3 12.2,16.8 16.7,16.8   "/>  <rect x="12.2" y="2.8" fill="#FFFFFF" width="1.7" height="11.2"/>  <rect x="9.1" y="5.6" fill="#FFFFFF" width="1.7" height="8.4"/>  <rect x="5.9" y="8.4" fill="#FFFFFF" width="1.7" height="5.6"/>  <rect x="2.8" y="11.1" fill="#FFFFFF" width="1.7" height="2.9"/> </g> <g>  <path fill="#1A1A1A" d="M24.4,0v13.8h6.9v2.9h-10V0H24.4z"/>  <path fill="#1A1A1A" d="M44.3,10.6c0,3.4-2.3,6.1-6.1,6.1c-3.8,0-6.1-2.7-6.1-6.1c0-3.4,2.3-6.1,6.1-6.1   C41.9,4.5,44.3,7.3,44.3,10.6z M35,10.6c0,1.8,1.1,3.5,3.2,3.5c2.1,0,3.2-1.7,3.2-3.5c0-1.8-1.2-3.5-3.2-3.5   C36.1,7.1,35,8.9,35,10.6z"/>  <path fill="#1A1A1A" d="M56.5,14.9c-1.4,1.3-2.8,1.9-4.5,1.9c-3.4,0-6.3-2.1-6.3-6.2c0-4.2,2.8-6.2,6.3-6.2c1.7,0,3,0.5,4.3,1.7   L54.3,8C53.6,7.3,52.8,7,52,7c-2,0-3.4,1.4-3.4,3.5c0,2.2,1.5,3.4,3.3,3.4c0.9,0,1.9-0.3,2.6-1L56.5,14.9z"/>  <path fill="#1A1A1A" d="M67.1,4.6h2.8v12.1h-2.7L67,14.7c-0.7,1.4-2.5,2.1-3.8,2.1c-3.5,0-6.1-2.1-6.1-6.3c0-4.1,2.7-6.2,6.1-6.2   c1.6,0,3.1,0.7,3.8,1.9L67.1,4.6z M60,10.5c0,2.2,1.6,3.6,3.5,3.6c4.6,0,4.6-7.1,0-7.1C61.6,6.9,60,8.3,60,10.5z"/>  <path fill="#1A1A1A" d="M75.3,0.1v16.7h-2.9V0.1H75.3z"/>  <path fill="#1A1A1A" d="M89.9,5l-7,16.3h-3.2l2-4.5L77,5h3.4l1.8,5.1l1.1,3.3l1.2-3.3L86.7,5H89.9z"/>  <path fill="#1A1A1A" d="M95.6,1.7V5h3.2v2.5h-3.3v5.1c0,1.1,0.6,1.7,1.5,1.7c0.5,0,1-0.1,1.4-0.4l0.8,2.5   c-0.8,0.3-1.5,0.5-2.4,0.5c-2.6,0.1-4.2-1.4-4.2-4.3V7.5h-2.2V5h2.2V2L95.6,1.7z"/>  <path fill="#1A1A1A" d="M104.2,1.7c0,2.3-3.4,2.3-3.4,0C100.7-0.6,104.2-0.6,104.2,1.7z M101,4.9v11.8h2.9V4.9H101z"/>  <path fill="#1A1A1A" d="M116.7,14.9c-1.4,1.3-2.8,1.9-4.5,1.9c-3.4,0-6.3-2.1-6.3-6.2c0-4.2,2.8-6.2,6.3-6.2c1.7,0,3,0.5,4.3,1.7   L114.5,8C113.8,7.3,113,7,112.2,7c-2,0-3.4,1.4-3.4,3.5c0,2.2,1.5,3.4,3.3,3.4c0.9,0,1.9-0.3,2.6-1L116.7,14.9z"/>  <path fill="#1A1A1A" d="M125.6,7.7c-0.8-0.8-1.8-1.1-2.9-1.1c-1.4,0-2.2,0.4-2.2,1.2c0,0.8,0.7,1.2,2.2,1.3c2.2,0.1,5,0.6,5,3.8   c0,2.1-1.7,3.9-5.1,3.9c-1.9,0-3.7-0.3-5.5-2.1l1.4-2.1c0.8,0.9,2.8,1.6,4.1,1.6c1.1,0,2.1-0.5,2.1-1.4c0-0.8-0.7-1.1-2.3-1.2   c-2.2-0.2-4.9-1-4.9-3.7c0-2.7,2.8-3.7,5-3.7c1.8,0,3.2,0.4,4.6,1.6L125.6,7.7z"/> </g></g></svg>