<svg width="30" height="30" viewBox="0 0 15 10" fill="none" xmlns="http://www.w3.org/2000/svg">
<path d="M9.31342 5.54663L8.15514 6.70883C7.68543 7.18019 6.85898 7.19034 6.37912 6.70883L5.22078 5.54663L1.06055 9.72037C1.2154 9.79197 1.38615 9.83471 1.56766 9.83471H12.9666C13.1481 9.83471 13.3188 9.79203 13.4736 9.72039L9.31342 5.54663Z" fill="#5e60f9"/>
<path d="M12.9665 0.110352L1.56761 0.110352C1.38609 0.110352 1.21535 0.153084 1.06055 0.224692L5.50605 4.68494C5.50634 4.68524 5.5067 4.68529 5.50699 4.68559C5.50729 4.68589 5.50734 4.68629 5.50734 4.68629L6.95282 6.13655C7.10635 6.29008 7.42785 6.29008 7.58138 6.13655L9.02656 4.68654C9.02656 4.68654 9.02691 4.68589 9.02721 4.68559C9.02721 4.68559 9.02786 4.68524 9.02815 4.68494L13.4735 0.224665C13.3187 0.15303 13.1481 0.110352 12.9665 0.110352Z" fill="#5e60f9"/>
<path d="M0.48084 0.791382C0.400724 0.953398 0.351562 1.13324 0.351562 1.32589V8.61904C0.351563 8.81169 0.40067 8.99153 0.480813 9.15355L4.64826 4.9726L0.48084 0.791382Z" fill="#5e60f9"/>
<path d="M14.0521 0.791504L9.88477 4.97278L14.0521 9.15378C14.1323 8.99176 14.1814 8.81192 14.1814 8.61922V1.32607C14.1814 1.13336 14.1323 0.95352 14.0521 0.791504Z" fill="#5e60f9"/>
</svg>
