<svg width="27" height="27" viewBox="0 0 14 14" fill="none" xmlns="http://www.w3.org/2000/svg">
<path d="M11.9751 2.24613C9.2767 -0.416175 4.9022 -0.415347 2.20439 2.24801C-0.493413 4.91137 -0.492954 9.22865 2.20546 11.891C4.90386 14.5533 9.27834 14.5524 11.9761 11.8891C13.2718 10.61 13.9995 8.87533 13.9992 7.06678C13.9989 5.25852 13.2708 3.5245 11.9751 2.24613ZM10.6445 9.74801C10.6443 9.7483 10.644 9.74862 10.6436 9.74891L10.6436 9.74665L10.2936 10.0899C9.84081 10.5423 9.18146 10.7285 8.55478 10.5809C7.9234 10.4141 7.3232 10.1486 6.77693 9.79455C6.26941 9.47444 5.79908 9.10024 5.37447 8.67862C4.98378 8.29587 4.63279 7.87558 4.32666 7.42405C3.99182 6.93819 3.72679 6.40891 3.53911 5.85126C3.32397 5.19615 3.50231 4.47729 3.9998 3.99432L4.40974 3.58974C4.52371 3.47675 4.7089 3.47634 4.82335 3.58882C4.82365 3.58911 4.82397 3.5894 4.82427 3.58972L6.11848 4.867C6.23295 4.97948 6.23335 5.16225 6.11938 5.27521C6.11908 5.27551 6.11878 5.2758 6.11846 5.27612L5.35844 6.0262C5.14037 6.23907 5.11294 6.57734 5.29394 6.82171C5.56879 7.194 5.87296 7.54432 6.20357 7.86947C6.57219 8.23483 6.97291 8.56719 7.40107 8.86266C7.64846 9.03296 7.98386 9.00423 8.19789 8.79444L8.93256 8.05801C9.04653 7.94502 9.23173 7.94461 9.34618 8.05708C9.34647 8.05738 9.34677 8.05767 9.34709 8.05799L10.6436 9.33983C10.7581 9.45227 10.7585 9.63502 10.6445 9.74801Z" fill="#5e60f9"/>
</svg>
