<svg width="27" height="27" viewBox="0 0 14 14" fill="none" xmlns="http://www.w3.org/2000/svg">
<g clip-path="url(#clip0_1_17)">
<path d="M12.9802 8.80334C13.0738 8.38303 13.1222 7.94738 13.1222 7.50044C13.1222 4.1484 10.3664 1.43046 6.96592 1.43046C6.60773 1.43046 6.25598 1.46112 5.91312 1.51921C5.36291 1.17795 4.71187 0.979492 4.01403 0.979492C2.04153 0.979492 0.443359 2.55507 0.443359 4.50014C0.443359 5.14958 0.622458 5.75706 0.933863 6.28064C0.852381 6.67433 0.808817 7.08255 0.808817 7.50044C0.808817 10.8533 3.56548 13.5712 6.96512 13.5712C7.35074 13.5712 7.72749 13.5357 8.09295 13.4696C8.59636 13.7358 9.17077 13.8875 9.78148 13.8875C11.7532 13.8875 13.3513 12.3111 13.3513 10.3676C13.3513 9.80532 13.2174 9.27529 12.9802 8.80334ZM10.1235 10.4015C9.83875 10.7992 9.41844 11.1139 8.87227 11.3365C8.33256 11.5584 7.68635 11.6713 6.94898 11.6713C6.06479 11.6713 5.32338 11.5181 4.74414 11.2147C4.33027 10.9945 3.98983 10.6968 3.73086 10.3273C3.46867 9.95619 3.33717 9.5875 3.33717 9.23092C3.33717 9.00906 3.42349 8.81625 3.59371 8.65893C3.76232 8.50162 3.97853 8.42336 4.23669 8.42336C4.44806 8.42336 4.63039 8.48548 4.77883 8.60891C4.92001 8.72751 5.04183 8.90338 5.13944 9.12846C5.24835 9.37533 5.36695 9.58347 5.49199 9.74562C5.61381 9.90455 5.78726 10.0369 6.00912 10.1409C6.23259 10.2442 6.53351 10.2982 6.903 10.2982C7.41206 10.2982 7.82995 10.1909 8.14297 9.97958C8.45034 9.77386 8.59878 9.52538 8.59878 9.22204C8.59878 8.98325 8.52053 8.79447 8.3616 8.64683C8.19379 8.49194 7.97275 8.37173 7.70491 8.28864C7.42496 8.20312 7.04498 8.10954 6.57546 8.01273C5.9357 7.878 5.39276 7.71826 4.96196 7.53675C4.52067 7.35119 4.16408 7.09465 3.90431 6.77356C3.6397 6.44683 3.50578 6.03781 3.50578 5.55698C3.50578 5.09875 3.64615 4.6857 3.92367 4.32911C4.19877 3.97495 4.60054 3.69824 5.11928 3.51026C5.62995 3.3239 6.23743 3.22951 6.92559 3.22951C7.47498 3.22951 7.95822 3.29244 8.36241 3.41668C8.7682 3.54092 9.11026 3.70872 9.37891 3.91606C9.64998 4.12581 9.85166 4.34767 9.97752 4.58001C10.105 4.81397 10.1703 5.04712 10.1703 5.2722C10.1703 5.48922 10.0856 5.68687 9.91782 5.8579C9.7484 6.03135 9.53542 6.11848 9.28533 6.11848C9.05782 6.11848 8.87873 6.06282 8.75529 5.95552C8.63993 5.85467 8.51972 5.69736 8.38741 5.47308C8.23413 5.18588 8.04777 4.95918 7.83479 4.79864C7.62746 4.64294 7.28217 4.56549 6.80619 4.56549C6.3657 4.56549 6.00589 4.65262 5.73967 4.82526C5.48312 4.99065 5.35807 5.18104 5.35807 5.40693C5.35807 5.54488 5.39841 5.66025 5.48151 5.75948C5.56863 5.86597 5.69207 5.95713 5.84858 6.03458C6.00993 6.11445 6.17692 6.17899 6.34392 6.22417C6.51495 6.27096 6.80135 6.34114 7.19585 6.43069C7.69442 6.53557 8.15184 6.65416 8.55683 6.78244C8.96747 6.91071 9.32082 7.06964 9.61125 7.256C9.90572 7.44558 10.1389 7.68761 10.3051 7.97804C10.4712 8.27089 10.5551 8.62989 10.5551 9.04779C10.5543 9.54716 10.4091 10.003 10.1235 10.4015Z" fill="#5e60f9"/>
</g>
<defs>
<clipPath id="clip0_1_17">
<rect width="12.908" height="12.908" fill="#5e60f9" transform="translate(0.443359 0.979492)"/>
</clipPath>
</defs>
</svg>
