<svg width="182" height="19" viewBox="0 0 182 19" fill="none" xmlns="http://www.w3.org/2000/svg">
<g clip-path="url(#clip0_2_302)">
<path d="M170.255 10.026C170.006 10.0419 169.756 10.0528 169.512 10.0767C169.355 10.0916 169.287 10.0478 169.182 10.025C169.146 10.017 169.109 10.0011 169.076 10.0031C168.831 10.019 168.585 10.0369 168.339 10.0548C168.264 10.0936 168.216 10.1453 168.101 10.1642C167.988 10.1821 167.855 10.1821 167.73 10.191C167.565 10.202 167.399 10.2129 167.234 10.2229C167.151 10.2278 167.083 10.2467 167.056 10.2825C167.051 10.2885 167.106 10.3034 167.136 10.3124C167.236 10.3422 167.334 10.376 167.444 10.3989C167.549 10.4208 167.68 10.385 167.793 10.4128C168.046 10.4755 168.048 10.4745 168.241 10.4625C168.407 10.4516 168.572 10.4397 168.738 10.4317C168.77 10.4297 168.808 10.4446 168.843 10.4526C168.948 10.4745 169.016 10.5242 169.172 10.5053C169.289 10.4904 169.42 10.4874 169.543 10.4794C169.645 10.5083 169.743 10.5411 169.851 10.564C169.954 10.5858 169.984 10.6027 169.929 10.6316C169.879 10.6584 169.808 10.6694 169.716 10.6714C169.633 10.6724 169.55 10.6813 169.467 10.6863C169.427 10.6893 169.385 10.6913 169.345 10.6942C169.187 10.7052 169.187 10.7052 168.898 10.6415C168.785 10.6167 168.658 10.6515 168.55 10.6276C168.477 10.6117 168.414 10.5878 168.344 10.5709C168.314 10.564 168.267 10.563 168.229 10.565C168.104 10.5719 167.978 10.5769 167.858 10.5898C167.773 10.5988 167.722 10.6266 167.732 10.6545C167.735 10.6654 167.795 10.6813 167.83 10.6823C167.911 10.6843 167.996 10.6704 168.073 10.6773C168.149 10.6843 168.226 10.7042 168.282 10.7261C168.394 10.7718 168.522 10.731 168.63 10.743C168.743 10.7559 168.836 10.7957 168.943 10.8195C168.973 10.8255 169.024 10.8156 169.066 10.8126C169.189 10.8056 169.312 10.7996 169.435 10.7927C169.538 10.8215 169.648 10.8474 169.741 10.8802C169.909 10.9399 170.089 10.9627 170.307 10.9339C170.43 10.918 170.55 10.924 170.648 10.9627C170.748 11.0025 170.864 10.9985 170.992 10.9906C171.109 10.9826 171.23 10.9607 171.35 10.9886C171.611 11.0502 171.613 11.0532 171.922 11.0294C172.015 11.0224 172.085 11.0204 172.155 11.0433C172.22 11.0642 172.29 11.0821 172.358 11.102C172.481 11.095 172.606 11.088 172.729 11.0801C172.887 11.0691 172.975 11.0831 173.012 11.1388C173.035 11.1726 173.045 11.2034 173.1 11.2263C173.165 11.2541 173.235 11.2531 173.331 11.2452C173.421 11.2382 173.486 11.2273 173.524 11.1915C173.539 11.1765 173.569 11.1626 173.596 11.1507C173.619 11.1417 173.654 11.1278 173.674 11.1298C173.712 11.1338 173.762 11.1447 173.774 11.1576C173.897 11.278 173.897 11.279 174.023 11.3138C174.161 11.3526 174.303 11.3874 174.429 11.4311C174.542 11.4699 174.654 11.453 174.777 11.453C174.87 11.453 174.93 11.4789 174.923 11.5047C174.918 11.5196 174.883 11.5415 174.852 11.5435C174.607 11.5634 174.359 11.5803 174.113 11.5942C174.083 11.5962 174.045 11.5783 174.01 11.5694C173.94 11.5515 173.877 11.5236 173.802 11.5176C173.727 11.5117 173.639 11.5266 173.556 11.5316C173.474 11.5365 173.386 11.5495 173.311 11.5415C173.235 11.5336 173.175 11.5047 173.105 11.4858C173.072 11.4769 173.027 11.4639 173 11.4669C172.817 11.4908 172.681 11.458 172.551 11.4152C172.523 11.4063 172.476 11.4003 172.441 11.4023C172.15 11.4192 171.862 11.4391 171.571 11.458C171.453 11.4659 171.358 11.4311 171.333 11.3725C171.32 11.3396 171.295 11.3068 171.295 11.274C171.295 11.2143 171.157 11.1815 171.057 11.1885C170.891 11.1984 170.723 11.2064 170.56 11.2213C170.428 11.2332 170.315 11.2213 170.224 11.1855C170.119 11.1447 169.999 11.1527 169.879 11.1636C169.788 11.1716 169.763 11.2044 169.768 11.2869C169.773 11.3536 169.731 11.3744 169.568 11.3854C169.362 11.3993 169.154 11.4132 168.946 11.4242C168.913 11.4262 168.876 11.4092 168.843 11.4003C168.773 11.3824 168.71 11.3536 168.635 11.3476C168.56 11.3406 168.472 11.3555 168.389 11.3615C168.307 11.3665 168.219 11.3804 168.144 11.3734C168.068 11.3665 168.006 11.3367 167.938 11.3178C167.905 11.3088 167.865 11.2959 167.833 11.2979C167.667 11.3058 167.502 11.3178 167.336 11.3287C167.151 11.3406 167.151 11.3406 166.888 11.279C166.767 11.2511 166.647 11.273 166.529 11.281C166.404 11.2889 166.286 11.2929 166.186 11.2531C166.12 11.2273 166.048 11.2114 165.97 11.2163C165.762 11.2283 165.556 11.2432 165.348 11.2551C165.313 11.2571 165.266 11.2521 165.238 11.2432C165.105 11.2014 164.975 11.1686 164.789 11.1895C164.629 11.2074 164.456 11.2084 164.295 11.2253C164.208 11.2342 164.168 11.266 164.185 11.2909C164.195 11.3038 164.248 11.3188 164.283 11.3188C164.363 11.3197 164.451 11.3048 164.526 11.3108C164.681 11.3227 164.759 11.4063 164.962 11.3834C165.083 11.3695 165.208 11.3645 165.333 11.3605C165.366 11.3605 165.401 11.3784 165.436 11.3884C165.536 11.4152 165.624 11.45 165.77 11.4321C165.89 11.4182 166.018 11.4142 166.141 11.4063C166.336 11.3933 166.336 11.3943 166.589 11.455C166.71 11.4838 166.83 11.461 166.948 11.454C167.036 11.449 167.118 11.4391 167.186 11.453C167.294 11.4739 167.372 11.5216 167.504 11.5186C167.63 11.5157 167.753 11.5017 167.878 11.4968C167.956 11.4938 168.028 11.5097 168.091 11.5365C168.156 11.5634 168.226 11.5753 168.312 11.5694C168.434 11.5614 168.56 11.5515 168.685 11.5465C168.72 11.5455 168.76 11.5544 168.793 11.5624C168.863 11.5803 168.931 11.6012 168.999 11.6201C169.121 11.6141 169.247 11.6121 169.367 11.6002C169.46 11.5912 169.525 11.5952 169.6 11.6151C169.696 11.6419 169.773 11.6897 169.929 11.6668C170.006 11.6559 170.097 11.6589 170.174 11.6489C170.27 11.636 170.335 11.641 170.402 11.6708C170.53 11.7275 170.691 11.7285 170.856 11.7066C171.037 11.6827 171.172 11.7106 171.308 11.7543C171.45 11.8001 171.45 11.7991 171.561 11.9095C171.593 11.9413 171.686 11.9562 171.764 11.9502C171.894 11.9403 172.007 11.9453 172.102 11.983C172.203 12.0238 172.323 12.0188 172.446 12.0079C172.609 11.993 172.772 11.9801 172.904 12.0377C172.97 12.0656 173.04 12.0725 173.128 12.0656C173.376 12.0477 173.627 12.0367 173.87 12.0149C174.018 12.0009 174.103 12.0328 174.203 12.0596C174.339 12.0964 174.484 12.1292 174.486 12.2078C174.486 12.2207 174.522 12.2356 174.552 12.2446C174.617 12.2655 174.687 12.2834 174.755 12.3033C174.855 12.3331 174.953 12.358 175.091 12.342C175.211 12.3291 175.339 12.3251 175.462 12.3162C175.585 12.3072 175.697 12.3023 175.808 12.3401C175.936 12.3828 176.071 12.4236 176.216 12.4554C176.319 12.4783 176.454 12.4395 176.565 12.4703C176.632 12.4892 176.698 12.5111 176.77 12.527C176.8 12.534 176.848 12.529 176.888 12.527C176.971 12.523 177.056 12.52 177.136 12.5101C177.229 12.4992 177.299 12.5012 177.37 12.524C177.435 12.5449 177.5 12.5737 177.575 12.5797C177.688 12.5887 177.813 12.5489 177.926 12.5946C177.984 12.6175 178.056 12.6394 178.132 12.6463C178.207 12.6533 178.295 12.6384 178.375 12.6394C178.41 12.6394 178.453 12.6553 178.473 12.6682C178.485 12.6752 178.468 12.6941 178.45 12.704C178.427 12.716 178.395 12.7319 178.362 12.7339C178.114 12.7518 177.866 12.7667 177.618 12.7836C177.519 12.7902 177.37 12.7726 177.171 12.7309C177.101 12.716 177.024 12.7189 176.936 12.7259C176.818 12.7349 176.698 12.7518 176.575 12.7339C176.414 12.6662 176.216 12.6603 176.006 12.6861C175.918 12.6971 175.838 12.6971 175.773 12.6782C175.635 12.6404 175.489 12.6056 175.366 12.5608C175.271 12.526 175.226 12.523 175.186 12.5708C175.173 12.5857 175.161 12.6016 175.166 12.6155C175.181 12.6652 175.208 12.714 175.223 12.7637C175.229 12.7776 175.208 12.7935 175.196 12.8084C175.156 12.8502 175.103 12.8472 175.015 12.8124C174.928 12.7776 174.822 12.7547 174.682 12.7707C174.562 12.7846 174.431 12.7826 174.311 12.7975C174.125 12.8194 173.995 12.7876 173.862 12.7448C173.835 12.7358 173.787 12.7309 173.752 12.7329C173.378 12.7557 173.007 12.7816 172.634 12.8045C172.554 12.8094 172.481 12.7945 172.418 12.7677C172.353 12.7408 172.28 12.7269 172.2 12.7319C171.869 12.7528 171.538 12.7716 171.207 12.7975C171.072 12.8084 170.964 12.7955 170.871 12.7607C170.801 12.7349 170.736 12.7269 170.648 12.7299C170.553 12.7329 170.485 12.7428 170.438 12.7716C170.392 12.7995 170.425 12.8164 170.525 12.8383C170.633 12.8621 170.733 12.893 170.836 12.9208C170.919 12.9168 171.002 12.9089 171.082 12.9099C171.117 12.9099 171.15 12.9278 171.185 12.9377C171.285 12.9666 171.378 12.9954 171.521 12.9795C171.641 12.9656 171.769 12.9626 171.892 12.9536C172.062 12.9427 172.062 12.9427 172.338 13.0053C172.408 13.0213 172.483 13.0203 172.574 13.0113C172.651 13.0043 172.732 13.0183 172.787 13.0481C172.809 13.06 172.802 13.0799 172.754 13.1456C172.754 13.1943 172.807 13.1724 172.824 13.1406C172.852 13.0948 172.799 13.0799 172.699 13.1048C172.629 13.1227 172.594 13.1485 172.611 13.1694C172.621 13.1804 172.669 13.1943 172.754 13.1456C172.975 13.0859 173.143 13.0789 173.303 13.063C173.398 13.0541 173.459 13.058 173.534 13.0839C173.624 13.1147 173.714 13.1475 173.862 13.1316C174.023 13.1137 174.193 13.1117 174.356 13.0968C174.506 13.0829 174.584 13.1267 174.679 13.1525C174.795 13.1833 174.923 13.1485 175.028 13.1664C175.138 13.1843 175.216 13.2281 175.344 13.2361C175.529 13.2092 175.647 13.2589 175.788 13.2917C175.898 13.3166 176.028 13.2947 176.146 13.2838C176.279 13.2719 176.389 13.2838 176.482 13.3186C176.587 13.3594 176.705 13.3504 176.825 13.3415C177.106 13.3216 177.116 13.3186 177.279 13.3733C177.397 13.4131 177.51 13.3952 177.628 13.3902C177.731 13.417 177.831 13.4459 177.939 13.4698C177.966 13.4757 178.019 13.4658 178.061 13.4628C178.184 13.4548 178.31 13.4469 178.432 13.4389C178.515 13.434 178.603 13.419 178.678 13.425C178.753 13.432 178.816 13.4608 178.884 13.4797C178.951 13.4986 179.022 13.5175 179.087 13.5374C179.187 13.5672 179.282 13.5921 179.423 13.5772C179.543 13.5642 179.668 13.5602 179.794 13.5513C179.952 13.5404 179.947 13.5433 180.24 13.603C180.398 13.6358 180.561 13.596 180.721 13.5921C180.802 13.5901 180.879 13.601 180.935 13.6299C180.957 13.6418 180.95 13.6617 180.957 13.6786C180.543 13.7054 180.127 13.7283 179.719 13.7611C179.561 13.7741 179.478 13.7383 179.393 13.7084C179.252 13.6607 179.067 13.7303 178.934 13.6696C178.854 13.6328 178.738 13.612 178.6 13.6299C178.52 13.6398 178.435 13.6388 178.352 13.6478C178.142 13.6696 177.949 13.6706 177.781 13.602C177.723 13.5781 177.64 13.5652 177.58 13.5423C177.51 13.5175 177.442 13.5036 177.359 13.5085C176.986 13.5324 176.615 13.5563 176.244 13.5821C176.211 13.5841 176.179 13.599 176.151 13.61C176.081 13.6378 176.103 13.6597 176.216 13.6776C176.254 13.6836 176.284 13.6965 176.319 13.7064C176.387 13.7253 176.449 13.7552 176.525 13.7621C176.6 13.7691 176.688 13.7552 176.77 13.7502C176.853 13.7452 176.941 13.7303 177.016 13.7363C177.091 13.7432 177.154 13.7721 177.224 13.79C177.257 13.7989 177.297 13.8138 177.329 13.8128C177.495 13.8069 177.658 13.7959 177.823 13.787C177.926 13.8138 178.014 13.8526 178.137 13.8616C178.214 13.8675 178.297 13.8566 178.377 13.8586C178.412 13.8596 178.46 13.8745 178.475 13.8874C178.485 13.8954 178.453 13.9153 178.427 13.9252C178.332 13.963 178.202 13.956 178.084 13.968C177.956 13.9809 177.841 13.9769 177.743 13.9381C177.678 13.9123 177.605 13.8984 177.525 13.9033C177.317 13.9163 177.111 13.9312 176.903 13.9421C176.868 13.9441 176.825 13.9352 176.793 13.9282C176.53 13.8675 176.53 13.8655 176.344 13.8785C176.162 13.8911 176.01 13.8798 175.888 13.8447C175.853 13.8347 175.815 13.8158 175.785 13.8168C175.494 13.8327 175.206 13.8486 174.918 13.8715C174.822 13.8785 174.757 13.8785 174.687 13.8526C174.627 13.8307 174.557 13.8059 174.481 13.7999C174.404 13.7939 174.318 13.8089 174.236 13.8138C174.153 13.8188 174.065 13.8317 173.993 13.8238C173.917 13.8158 173.852 13.788 173.787 13.7681C173.719 13.7472 173.647 13.7482 173.554 13.7562C173.268 13.779 173.266 13.776 172.982 13.7144C172.95 13.7074 172.907 13.6995 172.872 13.7015C172.664 13.7134 172.458 13.7283 172.25 13.7402C172.17 13.7452 172.092 13.7323 172.037 13.7034C172.014 13.6915 172.022 13.6716 172.007 13.6328C171.989 13.6239 172.007 13.6398 172.015 13.6547C172.052 13.6527 172.097 13.6547 172.125 13.6468C172.195 13.6279 172.23 13.603 172.213 13.5821C172.203 13.5712 172.155 13.5573 172.125 13.5573C172.07 13.5573 172.022 13.5791 172.007 13.6328C171.849 13.6657 171.681 13.6726 171.518 13.6885C171.423 13.6985 171.363 13.6935 171.287 13.6676C171.197 13.6358 171.104 13.605 170.957 13.6209C170.796 13.6388 170.626 13.6418 170.46 13.6557C170.27 13.6716 170.187 13.5821 170.026 13.5841C169.861 13.5861 169.695 13.603 169.53 13.6149C169.385 13.6249 169.385 13.6249 169.084 13.5602C168.973 13.5364 168.843 13.5712 168.735 13.5463C168.663 13.5304 168.6 13.5065 168.53 13.4896C168.5 13.4827 168.452 13.4827 168.414 13.4847C168.206 13.4966 167.996 13.5046 167.795 13.5264C167.567 13.5523 167.394 13.5244 167.231 13.4658C167.026 13.4767 166.817 13.4827 166.614 13.5016C166.466 13.5155 166.381 13.4827 166.281 13.4558C166.246 13.4469 166.216 13.432 166.178 13.428C166.141 13.424 166.095 13.432 166.055 13.4349C165.89 13.4459 165.719 13.4509 165.559 13.4688C165.361 13.4916 165.286 13.4101 165.133 13.4001C165.03 13.4489 164.975 13.5155 164.772 13.5205C164.606 13.5244 164.441 13.5404 164.275 13.5513C164.193 13.5563 164.11 13.5622 164.027 13.5672C163.894 13.5762 163.832 13.6149 163.859 13.6746C163.874 13.7074 163.887 13.7402 163.899 13.7731C163.924 13.8317 163.862 13.8815 163.756 13.8884C163.466 13.9073 163.177 13.9272 162.886 13.9441C162.809 13.9491 162.733 13.9322 162.671 13.9053C162.606 13.8785 162.533 13.8665 162.453 13.8715C162.162 13.8904 161.874 13.9103 161.583 13.9272C161.55 13.9292 161.505 13.9192 161.475 13.9113C161.405 13.8934 161.337 13.8725 161.269 13.8536C161.104 13.8626 160.941 13.8685 160.778 13.8805C160.515 13.8984 160.515 13.8994 160.322 13.8447C160.287 13.8347 160.252 13.8158 160.219 13.8168C160.094 13.8208 159.971 13.8307 159.845 13.8397C159.477 13.8655 159.477 13.8655 159.369 13.8357C159.271 13.8079 159.184 13.7741 159.036 13.79C158.875 13.8079 158.705 13.8138 158.539 13.8238C158.416 13.8307 158.294 13.8387 158.171 13.8407C158.138 13.8407 158.103 13.8228 158.068 13.8128C157.968 13.782 157.87 13.7571 157.732 13.7741C157.652 13.784 157.567 13.786 157.484 13.791C157.34 13.8002 157.15 13.785 156.915 13.7452C156.88 13.7392 156.837 13.7323 156.802 13.7353C156.511 13.7532 156.223 13.7731 155.932 13.79C155.897 13.792 155.854 13.786 155.819 13.781C155.555 13.7426 155.283 13.7326 155.002 13.7512C154.841 13.7611 154.836 13.7651 154.668 13.7124C154.593 13.6895 154.533 13.6786 154.443 13.6855C154.112 13.7094 153.778 13.7253 153.45 13.7532C153.302 13.7651 153.217 13.7353 153.117 13.7084C153.081 13.6995 153.044 13.6796 153.014 13.6806C152.683 13.6995 152.352 13.7223 152.021 13.7412C151.991 13.7432 151.953 13.7233 151.918 13.7144C151.85 13.6965 151.785 13.6696 151.71 13.6637C151.632 13.6577 151.547 13.6726 151.462 13.6776C151.254 13.6905 151.254 13.6895 151.013 13.6309C150.981 13.6229 150.938 13.612 150.905 13.6139C150.574 13.6338 150.241 13.6507 149.913 13.6796C149.725 13.6955 149.597 13.6667 149.464 13.6249C149.436 13.6159 149.389 13.612 149.354 13.6139C148.98 13.6368 148.609 13.6627 148.235 13.6855C148.158 13.6905 148.082 13.6736 148.02 13.6478C147.922 13.607 147.802 13.612 147.676 13.6209C147.388 13.6418 147.385 13.6408 147.215 13.5931C147.18 13.5831 147.15 13.5702 147.112 13.5652C147.077 13.5602 147.032 13.5632 146.994 13.5652C146.829 13.5752 146.663 13.5861 146.498 13.597C146.333 13.608 146.165 13.6139 146.002 13.6309C145.801 13.6517 145.706 13.5871 145.565 13.5573C145.36 13.5702 145.149 13.5781 144.946 13.599C144.791 13.6149 144.718 13.5712 144.615 13.5483C144.58 13.5404 144.543 13.5235 144.51 13.5254C144.136 13.5473 143.763 13.5712 143.392 13.598C143.302 13.604 143.241 13.596 143.166 13.5722C142.998 13.5185 142.991 13.5205 142.71 13.5404C142.587 13.5493 142.469 13.5573 142.364 13.5165C142.271 13.4797 142.158 13.4707 142.025 13.4827C141.863 13.4976 141.695 13.5056 141.529 13.5155C141.364 13.5264 141.198 13.5414 141.033 13.5463C140.9 13.5513 140.82 13.5046 140.714 13.4807C140.682 13.4737 140.637 13.4727 140.599 13.4747C140.434 13.4837 140.263 13.4906 140.103 13.5075C139.907 13.5284 139.799 13.4737 139.661 13.4419C139.631 13.4349 139.581 13.4389 139.544 13.4419C139.253 13.4598 138.964 13.4797 138.674 13.4986C138.571 13.4717 138.465 13.4459 138.363 13.419C138.197 13.429 138.032 13.4399 137.866 13.4499C137.741 13.4578 137.613 13.4608 137.495 13.4757C137.342 13.4956 137.267 13.4489 137.164 13.426C137.129 13.418 137.092 13.4011 137.059 13.4031C136.851 13.4141 136.643 13.426 136.437 13.4429C136.242 13.4598 136.164 13.3703 136.004 13.3713C135.838 13.3713 135.668 13.3852 135.507 13.4031C135.322 13.424 135.191 13.3922 135.058 13.3494C135.031 13.3405 134.983 13.3355 134.948 13.3375C134.74 13.3494 134.534 13.3643 134.326 13.3763C134.291 13.3783 134.249 13.3733 134.214 13.3673C133.817 13.3087 133.817 13.3077 133.645 13.3196C133.522 13.3275 133.396 13.3375 133.271 13.3425C133.236 13.3444 133.193 13.3355 133.161 13.3275C132.9 13.2669 132.9 13.2659 132.712 13.2778C132.546 13.2888 132.381 13.2997 132.215 13.3106C132.113 13.2838 132.007 13.2579 131.905 13.2311C131.699 13.244 131.488 13.254 131.285 13.2719C131.19 13.2798 131.127 13.2768 131.055 13.252C130.964 13.2221 130.874 13.1873 130.724 13.2042C130.563 13.2221 130.393 13.2241 130.23 13.239C130.034 13.2569 129.954 13.1664 129.796 13.1674C129.631 13.1674 129.46 13.1814 129.3 13.1993C129.114 13.2201 128.984 13.1883 128.851 13.1456C128.823 13.1366 128.776 13.1316 128.741 13.1336C128.284 13.1625 127.831 13.1913 127.374 13.2221C127.187 13.2347 126.916 13.2231 126.56 13.1873C126.522 13.1833 126.482 13.1794 126.444 13.1814C126.279 13.1903 126.108 13.1973 125.948 13.2142C125.752 13.2351 125.645 13.1814 125.507 13.1485C125.477 13.1416 125.429 13.1456 125.389 13.1485C125.264 13.1555 125.141 13.1645 125.015 13.1724C124.85 13.1833 124.684 13.1943 124.519 13.2052C124.416 13.1794 124.311 13.1525 124.208 13.1267C124.002 13.1396 123.792 13.1466 123.589 13.1674C123.433 13.1833 123.361 13.1416 123.258 13.1177C123.223 13.1098 123.185 13.0929 123.153 13.0938C122.779 13.1157 122.405 13.1386 122.034 13.1664C121.882 13.1784 121.811 13.1336 121.709 13.1108C121.673 13.1038 121.633 13.0909 121.601 13.0929C121.353 13.1068 121.104 13.1237 120.856 13.1406C120.763 13.1472 120.614 13.13 120.41 13.0889C120.375 13.0819 120.335 13.075 120.3 13.0769C119.512 13.1267 118.728 13.1794 117.94 13.2291C117.86 13.2341 117.788 13.2191 117.725 13.1923C117.66 13.1654 117.587 13.1515 117.507 13.1565C117.176 13.1774 116.842 13.1963 116.514 13.2221C116.379 13.2331 116.271 13.2201 116.178 13.1853C116.108 13.1595 116.043 13.1495 115.955 13.1555C115.789 13.1674 115.624 13.1774 115.459 13.1883C115.293 13.1993 115.128 13.2102 114.962 13.2211C114.797 13.2321 114.629 13.238 114.466 13.2549C114.265 13.2758 114.167 13.2142 114.03 13.1833C113.781 13.1983 113.533 13.2132 113.287 13.2291C112.957 13.25 112.626 13.2729 112.295 13.2927C112.265 13.2947 112.227 13.2768 112.192 13.2679C112.089 13.243 112.014 13.2082 111.861 13.2191C111.119 13.2719 110.372 13.3166 109.627 13.3683C109.472 13.3793 109.404 13.3365 109.299 13.3136C109.264 13.3067 109.224 13.2927 109.191 13.2947C108.777 13.3196 108.364 13.3474 107.95 13.3743C107.838 13.3816 107.688 13.3647 107.501 13.3236C107.469 13.3166 107.426 13.3077 107.391 13.3096C106.852 13.3435 106.315 13.3793 105.776 13.4141C105.696 13.419 105.623 13.4051 105.558 13.3783C105.496 13.3514 105.42 13.3365 105.343 13.3415C104.846 13.3733 104.347 13.4041 103.854 13.4389C103.721 13.4489 103.61 13.4389 103.515 13.4041C103.447 13.3783 103.38 13.3673 103.294 13.3733C102.55 13.422 101.805 13.4688 101.061 13.5205C100.918 13.5304 100.818 13.5115 100.727 13.4787C100.655 13.4528 100.592 13.4479 100.502 13.4519C100.406 13.4568 100.349 13.4678 100.296 13.4976C100.228 13.5364 100.186 13.5851 100.025 13.5881C99.8598 13.5911 99.6918 13.603 99.5289 13.6199C99.3735 13.6368 99.3008 13.5921 99.203 13.5652C99.1303 13.5463 99.0626 13.5433 98.9698 13.5523C98.8846 13.5602 98.8319 13.5772 98.7818 13.609C98.6715 13.6766 98.6615 13.6766 98.5261 13.6338C98.4534 13.611 98.3882 13.5931 98.308 13.597C97.977 13.6169 97.6461 13.6388 97.3152 13.6617C97.1247 13.6746 97.1221 13.6766 96.9792 13.6269C96.909 13.602 96.8414 13.5901 96.7586 13.596C95.8486 13.6557 94.9385 13.7134 94.0285 13.776C93.8881 13.786 93.7928 13.7651 93.6925 13.7353C93.66 13.7253 93.6274 13.7114 93.5898 13.7074C93.5521 13.7034 93.5095 13.7074 93.4694 13.7094C92.8076 13.7522 92.1432 13.7929 91.4838 13.8407C91.3334 13.8516 91.2532 13.8198 91.1504 13.7939C91.1153 13.785 91.0852 13.7711 91.0476 13.7671C91.01 13.7641 90.9649 13.7711 90.9248 13.7741C90.2629 13.8168 89.5986 13.8576 88.9392 13.9053C88.7813 13.9163 88.7136 13.8745 88.6108 13.8526C88.5757 13.8447 88.5381 13.8297 88.5055 13.8317C88.2974 13.8427 88.0918 13.8576 87.8838 13.8705C87.3874 13.9033 86.891 13.9342 86.3946 13.968C86.204 13.9809 86.1213 13.8924 85.9609 13.8964C85.7528 13.9013 85.5472 13.9212 85.3391 13.9352C85.1737 13.9461 85.0082 13.956 84.8427 13.968C84.7341 13.9753 84.5444 13.9597 84.2736 13.9212C84.2385 13.9163 84.1959 13.9093 84.1608 13.9113C83.5817 13.9481 83.0001 13.9849 82.4235 14.0247C82.2906 14.0336 82.1803 14.0286 82.085 13.9918C82.0173 13.966 81.9471 13.9531 81.8644 13.959C80.9945 14.0157 80.127 14.0724 79.2571 14.1281C79.2245 14.1301 79.1819 14.1201 79.1493 14.1122C79.0791 14.0943 79.0114 14.0734 78.9437 14.0545C78.8936 14.0774 78.8284 14.0982 78.7958 14.1241C78.7507 14.1589 78.6905 14.1689 78.5952 14.1748C78.5 14.1808 78.4398 14.1788 78.3646 14.1529C78.2743 14.1211 78.1816 14.0963 78.0337 14.1062C77.1261 14.1689 76.2136 14.2255 75.3035 14.2872C75.1531 14.2971 75.0829 14.2534 74.9776 14.2305C74.9425 14.2235 74.9024 14.2126 74.8698 14.2146C74.4963 14.2375 74.1252 14.2623 73.7517 14.2862C72.7163 14.3538 71.6809 14.4185 70.648 14.4901C70.4599 14.503 70.3321 14.4781 70.1992 14.4354C70.1716 14.4264 70.124 14.4214 70.0889 14.4234C68.6398 14.5169 67.1908 14.6114 65.7442 14.7059C65.6665 14.7108 65.5913 14.6949 65.5286 14.6691C65.4634 14.6422 65.3907 14.6293 65.3105 14.6343C64.6487 14.677 63.9868 14.7198 63.3249 14.7635C63.1595 14.7745 63.157 14.7755 62.9865 14.7277C62.9514 14.7178 62.9138 14.6989 62.8862 14.7009C62.8286 14.7059 62.7734 14.7307 62.7333 14.7645C62.6932 14.8003 62.6305 14.8103 62.5377 14.8172C62.4425 14.8242 62.3798 14.8212 62.3071 14.7973C62.2143 14.7675 62.1291 14.7387 61.9787 14.7486C60.0758 14.8759 58.173 14.9982 56.2702 15.1245C56.1172 15.1345 56.0471 15.0927 55.9418 15.0698C55.9067 15.0629 55.8716 15.0529 55.834 15.0509C55.7938 15.0489 55.7512 15.0549 55.7111 15.0579C52.6074 15.2598 49.5037 15.4626 46.4 15.6645C46.2763 15.6725 46.1476 15.7069 46.0139 15.7679C45.9889 15.7789 45.9563 15.7938 45.9212 15.7958C44.971 15.8594 44.0183 15.9211 43.0657 15.9827C42.652 16.0096 42.2384 16.0374 41.8247 16.0633C41.6768 16.0722 41.6768 16.0722 41.3233 16.1796C41.2932 16.1886 41.2581 16.2005 41.223 16.2025C39.5684 16.3109 37.9137 16.4193 36.2566 16.5257C36.1262 16.5337 36.0209 16.5516 35.9608 16.5993C35.9181 16.6331 35.863 16.653 35.7803 16.659C34.622 16.7345 33.4638 16.8111 32.303 16.8847C32.1651 16.8936 32.0824 16.9215 32.0147 16.9633C31.9921 16.9772 31.9721 16.9931 31.9395 17.003C31.9094 17.012 31.8643 17.015 31.8267 17.018C30.8339 17.0826 29.8411 17.1492 28.8458 17.2109C28.6979 17.2198 28.6377 17.2566 28.565 17.2954C28.54 17.3083 28.5224 17.3262 28.4898 17.3352C28.4572 17.3431 28.4096 17.3431 28.3695 17.3451C27.5422 17.3988 26.7149 17.4535 25.8875 17.5072C25.7271 17.5023 25.692 17.5599 25.6143 17.5947C25.5867 17.6067 25.5666 17.6226 25.534 17.6305C25.499 17.6385 25.4538 17.6375 25.4112 17.6395C24.7494 17.6823 24.0875 17.728 23.4256 17.7678C23.2727 17.7767 23.2426 17.8274 23.1599 17.8622C23.1323 17.8732 23.1047 17.8901 23.0722 17.8931C22.6585 17.9219 22.2448 17.9488 21.8312 17.9746C21.6933 17.9836 21.6933 17.9826 21.4501 18.081C21.4225 18.092 21.3899 18.1039 21.3548 18.1069C20.7356 18.1486 20.1139 18.1884 19.4921 18.2292C19.4119 18.2342 19.3542 18.258 19.3166 18.2918C19.2765 18.3257 19.2189 18.3475 19.1386 18.3525C18.6422 18.3853 18.1458 18.4191 17.6495 18.449C17.5116 18.4569 17.4213 18.4818 17.3611 18.5265C17.316 18.5604 17.2609 18.5773 17.1731 18.5832C16.6767 18.615 16.1803 18.6499 15.6814 18.6777C15.536 18.6857 15.4608 18.7195 15.4007 18.7612C15.353 18.795 15.2979 18.807 15.2051 18.8129C14.2951 18.8706 13.3825 18.9283 12.475 18.9919C12.322 19.0029 12.2443 18.9681 12.144 18.9432C12.0011 18.9084 11.8683 18.8706 11.8683 18.7931C11.8683 18.7811 11.8256 18.7672 11.7956 18.7573C11.5724 18.6827 11.5724 18.6827 11.5373 18.6031C11.5173 18.5544 11.4947 18.5047 11.4772 18.4549C11.4446 18.3734 11.3643 18.3525 11.1337 18.3674C11.051 18.3724 10.9682 18.3794 10.8855 18.3833C10.7627 18.3903 10.6699 18.3575 10.6473 18.2978C10.6348 18.265 10.6198 18.2322 10.6072 18.1994C10.7326 18.1914 10.7301 18.1904 10.9507 18.0701C11.0434 18.0194 11.0434 18.0194 10.8654 17.9687C10.7978 17.9498 10.7326 17.9289 10.6599 17.911C10.6273 17.903 10.5847 17.898 10.5496 17.9C10.3415 17.912 10.1359 17.9259 9.93033 17.9398C9.70971 17.9544 9.48742 17.9279 9.26346 17.8603C9.23588 17.8523 9.19326 17.8374 9.19827 17.8294C9.22585 17.7926 9.29354 17.7767 9.37878 17.7727C9.50413 17.7668 9.62698 17.7568 9.74982 17.7489L9.99802 17.733C10.0757 17.6952 10.156 17.6584 10.2287 17.6196C10.344 17.5599 10.344 17.5579 10.186 17.5162C10.0858 17.4893 9.97796 17.4635 9.87517 17.4376C9.75233 17.4456 9.62698 17.4545 9.50413 17.4615C9.3487 17.4704 9.28602 17.4515 9.24591 17.3869C9.21081 17.3302 9.25343 17.2815 9.37377 17.2696C9.49661 17.2576 9.61193 17.2497 9.67461 17.1989C9.73478 17.1502 9.84007 17.1313 9.97044 17.1273C10.0532 17.1244 10.1359 17.1174 10.2186 17.1114C10.3264 17.1035 10.3841 17.0528 10.3615 16.9961C10.349 16.9593 10.3239 16.9285 10.2262 16.9205C9.79244 16.8857 9.78743 16.8867 9.57182 16.8191C9.55177 16.8131 9.53672 16.7952 9.54424 16.7862C9.55678 16.7713 9.58436 16.7495 9.61444 16.7465C9.90275 16.7246 10.1911 16.7047 10.4794 16.6898C10.5746 16.6848 10.6448 16.6779 10.6774 16.6411C10.7225 16.5903 10.7025 16.5436 10.6147 16.5088C10.5872 16.4979 10.542 16.4839 10.512 16.4849C10.181 16.5028 9.85261 16.5257 9.52168 16.5436C9.4916 16.5456 9.43644 16.5287 9.42391 16.5158C9.39884 16.4919 9.43644 16.4601 9.52419 16.4491C9.63951 16.4342 9.75734 16.4332 9.83506 16.3835C9.94286 16.3129 10.0757 16.2483 10.1961 16.1806C10.2161 16.1687 10.2462 16.1458 10.2412 16.1438C10.1785 16.122 10.1058 16.105 10.0406 16.0842C9.93033 16.0494 9.93033 16.0006 9.9554 15.9539C9.97545 15.9161 10.0507 15.9012 10.1434 15.9012C10.1835 15.9012 10.2337 15.9012 10.2663 15.8922C10.3515 15.8704 10.3791 15.8425 10.3365 15.8216C10.3114 15.8097 10.2663 15.7928 10.2362 15.7948C9.69968 15.8276 9.16067 15.8594 8.62667 15.9002C8.46873 15.9121 8.39603 15.8743 8.30076 15.8475C8.22806 15.8266 8.16037 15.8186 8.07011 15.8336C7.98487 15.8475 7.90214 15.8395 7.84949 15.8067C7.80688 15.7799 7.88209 15.757 8.08516 15.7311C8.12276 15.7262 8.16538 15.7232 8.19296 15.7132C8.48377 15.6058 8.48377 15.6048 8.68433 15.5909C8.87988 15.578 8.87988 15.577 8.98267 15.5193C9.0303 15.4925 9.08295 15.4656 9.12808 15.4378C9.14563 15.4268 9.17571 15.4069 9.16568 15.401C9.11053 15.3701 9.03281 15.3632 8.94757 15.3701C8.75202 15.3871 8.52138 15.3731 8.41859 15.4676C8.37848 15.5034 8.3158 15.5134 8.22555 15.5193C7.31801 15.577 6.41046 15.6387 5.50041 15.6943C5.3525 15.7033 5.28481 15.7401 5.22715 15.7809C5.17701 15.8147 5.12185 15.8246 5.02659 15.8306C4.93132 15.8365 4.85611 15.8395 4.80095 15.8067C4.76836 15.7868 4.79594 15.759 4.87115 15.7311C4.97895 15.6914 4.9589 15.6416 4.9238 15.5949C4.89873 15.5641 4.82101 15.5422 4.73828 15.5442C4.61543 15.5482 4.4976 15.5591 4.39481 15.5193C4.33465 15.4964 4.25944 15.4805 4.19175 15.4606C4.06138 15.4199 3.93102 15.3781 3.748 15.405C3.62265 15.395 3.53491 15.3592 3.43462 15.3314C3.26665 15.2856 3.25161 15.2787 3.37195 15.2299C3.50984 15.1752 3.40203 15.1036 3.47724 15.0499C3.55747 14.9923 3.66778 14.9415 3.76555 14.8878C3.79062 14.8739 3.81319 14.861 3.83826 14.8471C3.78059 14.8272 3.72795 14.8023 3.66026 14.7884C3.57251 14.7705 3.52738 14.7486 3.5324 14.687C3.51485 14.678 3.52237 14.7009 3.54243 14.7069C3.56499 14.7128 3.62014 14.7078 3.64772 14.7009C3.71792 14.682 3.75302 14.6571 3.73547 14.6362C3.72544 14.6253 3.67781 14.6114 3.64772 14.6114C3.59257 14.6114 3.54493 14.6333 3.52989 14.687C3.2491 14.7277 2.95829 14.7476 2.66747 14.7635C2.63739 14.7655 2.59978 14.7456 2.56469 14.7357C2.44936 14.7019 2.44936 14.7029 2.11092 14.6929C2.07582 14.6919 2.02818 14.678 2.01063 14.6641C1.93793 14.6034 1.94044 14.5368 1.90534 14.4722C1.97052 14.4304 2.0357 14.3896 2.10339 14.3488C2.23877 14.2663 2.41427 14.1937 2.51956 14.1032C2.497 14.0545 2.46691 14.0058 2.57722 13.966C2.8906 13.9163 2.88809 13.9163 2.97333 13.8685C3.21651 13.7333 3.45719 13.597 3.7104 13.4638C3.77809 13.429 3.77809 13.4101 3.65775 13.3952C3.62014 13.3912 3.58003 13.3902 3.53992 13.3922C3.41457 13.3991 3.28922 13.417 3.16637 13.4131C3.04353 13.4101 2.95328 13.3663 2.85299 13.3395C2.75021 13.3116 2.64742 13.2828 2.54463 13.254C2.4268 13.2569 2.30897 13.2848 2.19114 13.24C2.10089 13.2052 1.98807 13.1804 1.88528 13.1515C1.963 13.0759 2.10841 13.0183 2.22122 12.9516C2.32401 12.891 2.32652 12.892 2.60229 12.8452C2.73266 12.8234 2.77778 12.711 2.66747 12.6782C2.5346 12.6384 2.39421 12.6016 2.25883 12.5638C2.141 12.5668 2.02066 12.5936 1.90785 12.5489C1.8201 12.5151 1.71982 12.4922 1.57441 12.5051C1.32872 12.527 1.07802 12.5379 0.829825 12.5558C0.744586 12.5618 0.651827 12.5578 0.614221 12.524C0.589151 12.5002 0.661855 12.4673 0.744586 12.4604C0.869938 12.4504 0.982754 12.4385 1.04543 12.3888C1.1056 12.3391 1.21591 12.3241 1.34627 12.3172C1.38137 12.3152 1.42148 12.3033 1.43903 12.2913C1.52929 12.2336 1.62957 12.1839 1.82261 12.1859C1.90283 12.166 1.94545 12.1412 1.92038 12.1173C1.90534 12.1044 1.85269 12.0875 1.82261 12.0895C1.61452 12.0994 1.40644 12.1093 1.20337 12.1272C1.10811 12.1352 1.0354 12.1372 0.975233 12.1074C0.932613 12.0875 0.955177 12.0606 1.0354 12.0318C1.1056 12.0069 1.12565 11.9781 1.12064 11.9443C1.1081 11.8657 1.03289 11.8428 0.79222 11.8478C0.619235 11.8518 0.576616 11.8389 0.53901 11.7712C0.528982 11.7553 0.503912 11.7334 0.521461 11.7225C0.629263 11.6549 0.69946 11.5713 0.902529 11.5395C0.982754 11.5276 1.06799 11.5276 1.11813 11.5017C1.16827 11.4759 1.2134 11.446 1.26605 11.4212C1.33123 11.3913 1.37636 11.3635 1.34627 11.3446C1.29613 11.3108 1.21591 11.3078 1.12315 11.3197C1.04292 11.3297 0.957684 11.3307 0.874952 11.3367C0.727037 11.3476 0.6067 11.3217 0.589151 11.278C0.541517 11.1626 0.491377 11.0483 0.448757 10.9329C0.443743 10.919 0.456279 10.9011 0.476335 10.8891C0.546531 10.8474 0.621742 10.8076 0.694446 10.7668C0.779685 10.7201 0.915064 10.729 1.03039 10.7201C1.19334 10.7072 1.19334 10.7082 1.41146 10.6127C1.49669 10.5749 1.64461 10.5898 1.73235 10.556C1.75993 10.5451 1.80255 10.5272 1.79503 10.5172C1.785 10.5043 1.73486 10.4944 1.69726 10.4884C1.66216 10.4824 1.61954 10.4794 1.58193 10.4824C1.12565 10.5113 0.671883 10.5421 0.215604 10.5699C0.137886 10.5749 0.0526475 10.553 0.0250703 10.5222C-0.00250702 10.4934 0.00501405 10.4585 0 10.4257C0.0727037 10.385 0.155436 10.3472 0.218111 10.3034C0.265745 10.2696 0.320899 10.2547 0.416166 10.2527C0.541517 10.2497 0.664362 10.2378 0.804755 10.2288C1.06549 10.0836 1.3212 9.93149 1.60199 9.7863C1.71481 9.72763 1.68723 9.66796 1.70979 9.60531C1.73235 9.54763 1.90032 9.55658 2.01314 9.54067C2.10339 9.52675 2.13348 9.49493 2.09838 9.47305C2.07832 9.46012 2.0332 9.4452 1.9981 9.4452C1.91537 9.4452 1.83264 9.45415 1.7499 9.45913C1.66717 9.4641 1.5719 9.46111 1.50422 9.47802C1.43903 9.49393 1.39641 9.52774 1.35379 9.55658C1.30867 9.5884 1.24348 9.59934 1.14822 9.60133C1.02537 9.60332 0.902529 9.61227 0.779685 9.61923C0.644305 9.58045 0.503912 9.54266 0.373547 9.50189C0.348476 9.49393 0.343462 9.47106 0.345969 9.45614C0.350984 9.41736 0.313378 9.39349 0.230646 9.3746C0.16045 9.35869 0.102788 9.33581 0.0376054 9.31592C0.0877459 9.28907 0.1429 9.26322 0.183013 9.23438C0.270759 9.17372 0.381068 9.12996 0.571602 9.13195C0.646812 9.09317 0.706981 9.04543 0.804755 9.01858C0.897515 8.99273 1.05546 9.01858 1.12565 8.95991C1.16075 8.93107 1.2134 8.89825 1.28109 8.88632C1.38889 8.86743 1.52929 8.87737 1.59196 8.82168C1.62957 8.78986 1.68472 8.76102 1.75742 8.75306C1.84016 8.74411 1.9254 8.74213 1.98556 8.72323C2.01816 8.71329 2.05325 8.69738 2.05325 8.68345C2.05325 8.67351 2.00311 8.66058 1.96801 8.65461C1.93542 8.64765 1.8928 8.64268 1.8552 8.64467C1.72985 8.65064 1.607 8.66158 1.48165 8.66754C1.44655 8.66953 1.40644 8.66257 1.36884 8.6566C1.25853 8.64069 1.26605 8.6208 1.35379 8.585C1.44154 8.5502 1.50422 8.50545 1.57692 8.46467C1.65714 8.45771 1.75742 8.4607 1.81258 8.4418C1.90534 8.41097 1.97052 8.36622 2.04573 8.32744C2.12846 8.32147 2.2137 8.31948 2.29142 8.30855C2.32401 8.30457 2.33905 8.28269 2.36663 8.26976C2.41677 8.2449 2.45939 8.2091 2.52708 8.19717C2.63739 8.17927 2.77277 8.18623 2.83795 8.13153C2.87556 8.09971 2.93322 8.0659 3.00342 8.06391C3.19896 8.05993 3.2817 8.00524 3.38198 7.95353C3.45719 7.91474 3.61764 7.93463 3.70037 7.89585C3.75552 7.87099 3.79564 7.84016 3.85079 7.81629C3.87335 7.80635 3.92099 7.80137 3.95859 7.79839C4.16417 7.78347 4.37225 7.77254 4.57783 7.75662C4.61042 7.75364 4.6405 7.73872 4.66557 7.72679C4.71822 7.70093 4.75081 7.66513 4.81599 7.64823C4.88118 7.63132 4.97394 7.63132 5.05416 7.62635C5.31239 7.61143 5.33495 7.61541 5.45027 7.53088C5.54554 7.46227 5.77869 7.51099 5.85641 7.43542C5.90154 7.39166 5.98427 7.35586 6.13218 7.35089C6.34027 7.34393 6.54584 7.32503 6.75393 7.3121C6.93945 7.30017 6.93694 7.30017 7.1375 7.20769C7.22775 7.16592 7.36063 7.17189 7.47846 7.16393C7.60381 7.15597 7.71913 7.14404 7.7793 7.09432C7.83947 7.04559 7.94978 7.02968 8.07763 7.02272C8.19547 7.01576 8.32834 7.02073 8.4211 6.98095C8.64673 6.88548 8.64422 6.88449 8.80217 6.87454C9.05036 6.85863 9.29856 6.84272 9.54675 6.82582C9.71222 6.81488 9.8852 6.81289 10.0406 6.79101C10.1535 6.7751 10.2036 6.71941 10.2763 6.68063C10.4819 6.66571 10.6874 6.65079 10.893 6.63687C11.1813 6.61698 11.4721 6.59908 11.763 6.58019C11.8883 6.5424 11.9059 6.45886 12.1165 6.45489C12.2418 6.4529 12.3646 6.43997 12.49 6.43201C12.6981 6.41809 12.9037 6.40019 13.1117 6.39323C13.2697 6.38826 13.2973 6.33456 13.38 6.30075C13.4076 6.28881 13.4326 6.27191 13.4652 6.26892C13.7911 6.24108 14.1271 6.23511 14.4455 6.19434C14.4781 6.19036 14.5082 6.16948 14.5157 6.15456C14.5207 6.14661 14.4781 6.13169 14.4505 6.12473C14.4179 6.11677 14.3753 6.10882 14.3402 6.11081C13.3048 6.17743 12.2694 6.24506 11.234 6.31169C11.0886 6.32163 11.0886 6.32064 10.7351 6.43003C10.705 6.43898 10.6699 6.44892 10.6323 6.4519C10.4668 6.46384 10.2989 6.4708 10.1359 6.48571C10.003 6.49765 9.89272 6.48571 9.79745 6.44991C9.72976 6.42406 9.65957 6.4161 9.57433 6.41809C9.47906 6.42107 9.41639 6.43201 9.36123 6.45886C9.28853 6.49566 9.25092 6.54339 9.09799 6.55334C8.39352 6.5961 7.68905 6.64383 6.98708 6.68958C6.88931 6.67565 6.84167 6.65477 6.86674 6.62991C6.88178 6.61499 6.91187 6.5951 6.94195 6.59312C7.23026 6.57223 7.52107 6.55433 7.80938 6.53444C7.8495 6.53146 7.90465 6.53345 7.92721 6.5235C8.03752 6.47875 8.07763 6.40616 8.28572 6.40119C8.40605 6.3982 8.5289 6.38329 8.64422 6.36936C8.67681 6.36539 8.7069 6.3445 8.71442 6.32959C8.71943 6.32064 8.67681 6.30671 8.64673 6.29975C8.53642 6.27091 8.40856 6.30572 8.29825 6.28583C8.26065 6.27887 8.208 6.26892 8.20299 6.25699C8.19797 6.24605 8.24059 6.22815 8.27068 6.21721C8.29825 6.20727 8.33586 6.19832 8.37346 6.19533C8.70439 6.17246 9.03532 6.1486 9.36625 6.1307C9.50163 6.12373 9.59689 6.09887 9.65706 6.05313C9.70219 6.01932 9.75734 6.00142 9.84258 5.99644C10.4217 5.95965 11.0008 5.91888 11.5825 5.88507C11.7279 5.87711 11.8031 5.84429 11.8632 5.80153C11.9109 5.76772 11.966 5.75579 12.0588 5.74982C12.8886 5.69811 13.7134 5.64043 14.5433 5.59071C14.6962 5.58176 14.7413 5.539 14.819 5.5022C14.8466 5.49027 14.8642 5.47336 14.8993 5.46541C14.9343 5.45745 14.9795 5.45845 15.0221 5.45646C15.6839 5.4137 16.3458 5.36795 17.0102 5.32817C17.1656 5.31922 17.1957 5.2695 17.2759 5.23469C17.3035 5.22375 17.3286 5.20585 17.3611 5.20287C17.8575 5.16906 18.3539 5.13724 18.8503 5.10442C19.1812 5.08254 19.5122 5.06066 19.8431 5.03978C19.9517 5.03315 20.0796 4.99801 20.2267 4.93437C20.2517 4.92343 20.2868 4.9105 20.3194 4.90752C21.2721 4.84387 22.2223 4.78321 23.1749 4.72056C23.2552 4.71559 23.3128 4.69272 23.3529 4.65891C23.3931 4.62509 23.4507 4.60222 23.5284 4.59725C24.273 4.54753 25.0176 4.4988 25.7647 4.45206C25.9001 4.4441 25.9953 4.42024 26.0555 4.37549C26.1006 4.34168 26.1558 4.32378 26.241 4.3188C26.9856 4.27107 27.7302 4.22035 28.4773 4.17461C28.6202 4.16566 28.6904 4.13185 28.7606 4.09207C28.7857 4.07815 28.8057 4.05527 28.8358 4.05328C29.2068 4.02544 29.5754 3.9966 29.9489 3.97771C30.1044 3.96975 30.157 3.92798 30.2197 3.88821C30.2698 3.85638 30.3275 3.84544 30.4227 3.84147C30.6308 3.83252 30.8364 3.81561 31.0395 3.79871C31.0696 3.79572 31.1072 3.77384 31.1097 3.75992C31.1147 3.73407 31.057 3.71617 30.9618 3.70722C29.969 3.77185 28.9737 3.83649 27.9809 3.90113C27.8723 3.90843 27.7444 3.94356 27.5973 4.00655C27.5723 4.01748 27.5372 4.03041 27.5046 4.0334C26.5519 4.09605 25.6017 4.1577 24.6491 4.22035C24.5688 4.22533 24.5112 4.2482 24.4711 4.28201C24.431 4.31582 24.3733 4.33869 24.2956 4.34367C23.3855 4.40333 22.4755 4.46399 21.5629 4.52068C21.4275 4.52863 21.3323 4.55151 21.2721 4.59725C21.227 4.63106 21.1718 4.64896 21.0866 4.65393C20.2167 4.70962 19.3492 4.7683 18.4768 4.822C18.389 4.82697 18.3238 4.79813 18.3289 4.77227C18.3289 4.75835 18.369 4.73548 18.3991 4.73349C18.8528 4.70067 19.3041 4.66686 19.7604 4.642C19.9133 4.63405 19.9584 4.59029 20.0361 4.55349C20.0612 4.54057 20.0813 4.52366 20.1139 4.5167C20.149 4.50874 20.1941 4.50974 20.2367 4.50775C21.3122 4.43714 22.3877 4.36554 23.4658 4.29891C23.6212 4.28897 23.6513 4.24024 23.7315 4.20544C23.7591 4.1935 23.7841 4.1756 23.8167 4.17361C24.1477 4.14975 24.4786 4.12886 24.8095 4.10798C25.3886 4.07019 25.9678 4.0324 26.5494 3.99461C26.6614 3.98732 26.7892 3.95251 26.933 3.89019C26.958 3.87926 26.9931 3.86533 27.0257 3.86334C28.5575 3.7629 30.0893 3.66247 31.6211 3.56302C31.7013 3.55805 31.759 3.53518 31.7991 3.50136C31.8392 3.46855 31.8944 3.44468 31.9746 3.43871C34.0454 3.30347 36.1137 3.16822 38.1845 3.03497C38.3199 3.02602 38.4151 3.00513 38.4753 2.95839C38.5179 2.92458 38.5756 2.90668 38.6608 2.90072C40.9372 2.75254 43.2136 2.60437 45.4925 2.4552C47.0243 2.35576 48.5561 2.25432 50.0879 2.15686C50.2282 2.14791 50.3035 2.11709 50.3737 2.07631C50.3962 2.06239 50.4188 2.03952 50.4489 2.03753C50.7773 2.01267 51.1057 1.9898 51.4341 1.96692C51.5369 1.99377 51.6397 2.01963 51.7425 2.04648C51.8202 2.00869 51.8954 1.96991 51.9731 1.93212C52.4695 1.90328 52.9584 1.85853 53.4598 1.84461C53.4924 1.84461 53.5275 1.86251 53.5626 1.87245C53.7957 1.9351 53.9286 1.93013 54.0765 1.8466C54.1292 1.81676 54.1743 1.78991 54.2545 1.78494C54.5027 1.76704 54.7534 1.75511 54.9991 1.73422C55.132 1.72328 55.2423 1.73422 55.3376 1.76903C55.4053 1.79488 55.4754 1.80582 55.5582 1.79986C56.0145 1.77002 56.4682 1.74118 56.9245 1.70936C56.9571 1.70737 56.9872 1.69047 57.0123 1.67853C57.0649 1.65268 57.11 1.62483 57.1602 1.59798C57.2279 1.61489 57.3031 1.62782 57.3607 1.64969C57.4309 1.67555 57.4961 1.67555 57.5914 1.66859C59.4115 1.54826 61.2341 1.43091 63.0542 1.30959C63.2096 1.29965 63.2773 1.34141 63.3826 1.36329C63.4177 1.37125 63.4528 1.38119 63.4904 1.38318C63.5305 1.38517 63.5731 1.3792 63.6133 1.37622C64.9796 1.28672 66.3459 1.19821 67.7122 1.10871C67.8326 1.10076 67.9822 1.11733 68.161 1.15843C68.1936 1.16639 68.2362 1.17534 68.2713 1.17236C68.8931 1.13357 69.5148 1.09181 70.134 1.05203C70.2142 1.04706 70.2819 1.06297 70.3546 1.08584C70.4975 1.13059 70.5076 1.13059 70.6129 1.06496C70.663 1.03413 70.7157 1.01523 70.7984 1.00628C70.8886 0.996339 70.9613 0.999323 71.0315 1.01722C71.1318 1.04208 71.2045 1.08385 71.3575 1.07291C72.0193 1.02617 72.6837 0.987389 73.343 0.939656C73.4934 0.928717 73.5737 0.962528 73.6739 0.987389C73.709 0.996339 73.7416 1.01026 73.7792 1.01324C73.8168 1.01623 73.862 1.00927 73.9021 1.00628C74.7294 0.952583 75.5592 0.899878 76.384 0.842199C76.5395 0.83126 76.6072 0.874022 76.7125 0.8959C76.7476 0.903855 76.7877 0.917778 76.8203 0.915789C77.3167 0.884961 77.8155 0.852144 78.3119 0.819327C78.4899 0.807393 78.4899 0.808388 78.7607 0.869049C78.7933 0.877005 78.8359 0.884961 78.871 0.882972C79.4501 0.846177 80.0318 0.808388 80.6109 0.770599C80.7296 0.762643 80.9602 0.775902 81.3028 0.810377C81.3404 0.814355 81.3805 0.820321 81.4181 0.818332C82.08 0.775571 82.7444 0.733804 83.4037 0.688059C83.5366 0.679109 83.6469 0.688059 83.7422 0.722865C83.8098 0.748721 83.88 0.75966 83.9628 0.753693C84.7074 0.704965 85.4545 0.658226 86.1965 0.606514C86.3394 0.59657 86.4322 0.618448 86.5325 0.647287C86.5651 0.657231 86.5977 0.671154 86.6353 0.675131C86.6729 0.679109 86.7155 0.675131 86.7556 0.672148C87.5002 0.62342 88.2473 0.577675 88.9894 0.524969C89.1398 0.51403 89.22 0.547841 89.3203 0.572703C89.3554 0.581653 89.393 0.599553 89.4231 0.598559C89.7139 0.581653 90.0047 0.566736 90.293 0.541875C90.4484 0.527952 90.5161 0.573697 90.6214 0.595575C90.6565 0.602536 90.6966 0.617453 90.7292 0.615464C91.351 0.576681 91.9727 0.535908 92.5919 0.494141C92.6797 0.488174 92.7449 0.497124 92.8151 0.52298C92.9078 0.557786 93.0156 0.571708 93.151 0.560769C93.4393 0.537897 93.7301 0.521986 94.0184 0.503091C94.1321 0.495798 94.3627 0.509389 94.7104 0.543864C94.748 0.547841 94.7881 0.553808 94.8257 0.551819C95.3221 0.519997 95.821 0.489169 96.3149 0.454363C96.4478 0.444418 96.5581 0.454363 96.6533 0.489169C96.721 0.515025 96.7912 0.525964 96.874 0.519997C97.3302 0.490163 97.784 0.46033 98.2403 0.430496C98.4057 0.419557 98.5712 0.400663 98.7367 0.400663C98.857 0.400663 98.9448 0.449391 99.0526 0.473258C99.0826 0.480219 99.1328 0.473258 99.1729 0.470274C99.752 0.432485 100.334 0.397679 100.91 0.354918C101.061 0.343979 101.141 0.37779 101.241 0.402652C101.276 0.411602 101.314 0.429502 101.344 0.427513C101.552 0.416574 101.758 0.401657 101.966 0.388729C102.214 0.372818 102.465 0.360885 102.71 0.339007C102.911 0.321106 102.986 0.407624 103.147 0.410607C103.269 0.41359 103.395 0.396685 103.518 0.388729C103.766 0.372818 104.014 0.354918 104.262 0.340995C104.35 0.336023 104.418 0.320112 104.445 0.284312C104.45 0.277351 104.408 0.262434 104.38 0.253484C104.158 0.185861 103.935 0.159342 103.711 0.173928C103.503 0.18785 103.297 0.201772 103.089 0.213706C103.054 0.215695 103.014 0.207739 102.979 0.201772C102.878 0.184867 102.888 0.164977 102.974 0.129177C103.059 0.0933769 103.124 0.049621 103.197 0.00884851C103.299 0.0347043 103.4 0.06056 103.503 0.0864158C103.585 0.0814435 103.668 0.0754768 103.751 0.0705045C104.164 0.0446488 104.578 0.0177986 104.992 -0.00606827C105.022 -0.00805717 105.059 0.0118319 105.094 0.0217764C105.195 0.0506155 105.285 0.0754768 105.43 0.0645378C105.801 0.0356987 106.175 0.0148152 106.546 -0.0100461C106.655 -0.0173387 106.804 -0.000433035 106.995 0.040671C107.027 0.0476321 107.07 0.0555878 107.105 0.0535989C107.479 0.0307265 107.85 0.00586516 108.223 -0.0180017C108.303 -0.022974 108.381 -0.0100461 108.439 0.018793C108.461 0.0307265 108.456 0.0506155 108.552 0.213706C108.848 0.345968 109.051 0.332045 109.256 0.320112C109.344 0.31514 109.422 0.310167 109.479 0.290278C109.509 0.279339 109.547 0.263428 109.547 0.2505C109.547 0.240556 109.492 0.224645 109.457 0.222656C109.209 0.202767 108.973 0.244534 108.73 0.253484C108.617 0.257462 108.519 0.222656 108.499 0.165972C108.494 0.150061 108.486 0.133155 108.479 0.117244L108.459 0.0685156C108.361 0.0635434 108.303 0.0814435 108.261 0.115255C108.226 0.1431 108.176 0.174922 108.108 0.189839C108.04 0.20575 107.947 0.202767 107.865 0.207739C107.785 0.212711 107.697 0.225639 107.622 0.218678C107.546 0.210722 107.486 0.181883 107.416 0.163983C107.383 0.155033 107.343 0.142105 107.311 0.144094C107.022 0.161 106.737 0.177905 106.451 0.199783C106.3 0.211717 106.228 0.16995 106.13 0.144094C106.055 0.124205 105.979 0.129177 105.967 0.174922C105.934 0.284312 106.05 0.330057 106.305 0.309173C106.516 0.291273 106.707 0.28829 106.872 0.355912C106.895 0.364862 106.947 0.36884 106.98 0.366851C107.185 0.354918 107.388 0.340001 107.594 0.328068C107.632 0.326079 107.672 0.330057 107.707 0.334034C108.218 0.387735 108.218 0.388729 108.391 0.376796C108.474 0.370829 108.554 0.365857 108.547 0.2147C108.705 0.0526044 108.955 0.0416654 109.198 0.0177986C109.354 0.0028818 109.424 0.0466377 109.527 0.0695101C109.562 0.0774657 109.6 0.0933769 109.632 0.091388C110.171 0.0585711 110.708 0.0237653 111.244 -0.0130294C111.334 -0.0189961 111.4 -0.0130294 111.47 0.0128263C111.56 0.0456432 111.66 0.0665267 111.803 0.0545933C112.089 0.0307265 112.382 0.0158097 112.671 -0.00407936C112.769 -0.010709 112.918 0.00652813 113.117 0.0476321C113.15 0.0545933 113.192 0.0625489 113.227 0.06056C113.518 0.0436543 113.806 0.0227708 114.095 0.00487071C114.175 -0.000101553 114.248 0.0138208 114.31 0.040671C114.373 0.0675212 114.448 0.0814435 114.526 0.0764712C114.817 0.0585711 115.105 0.0386821 115.393 0.0207819C115.428 0.018793 115.471 0.0257542 115.504 0.0327154C115.708 0.0738194 115.856 0.0910566 115.95 0.0844269C116.155 0.0695101 116.366 0.0625489 116.569 0.0426599C116.767 0.0227708 116.87 0.0804491 117.005 0.112272C117.376 0.0893991 117.75 0.0705045 118.118 0.0426599C118.269 0.0307265 118.349 0.0635434 118.452 0.0893991C118.487 0.0983492 118.522 0.117244 118.555 0.116249C118.68 0.112272 118.803 0.101333 118.926 0.0933769C119.049 0.0854213 119.174 0.0774657 119.297 0.0695101C119.437 0.0983492 119.53 0.165972 119.73 0.1431C119.851 0.129177 119.979 0.126194 120.102 0.118238C120.224 0.110283 120.35 0.102327 120.473 0.0943714C120.555 0.0893991 120.641 0.0864158 120.721 0.0774657C120.869 0.0625489 120.941 0.111277 121.047 0.133155C121.082 0.140116 121.122 0.15205 121.154 0.150061C121.403 0.136138 121.653 0.124205 121.897 0.101333C122.085 0.0834324 122.212 0.113266 122.345 0.155033C122.373 0.163983 122.421 0.168955 122.456 0.166966C122.746 0.150061 123.035 0.129177 123.323 0.111277C123.401 0.106305 123.476 0.122216 123.539 0.148072C123.604 0.174922 123.677 0.18785 123.757 0.182878C124.045 0.164977 124.336 0.145088 124.624 0.127188C124.659 0.125199 124.702 0.133155 124.735 0.141111C125.015 0.202767 125.015 0.202767 125.181 0.191828C125.221 0.188844 125.264 0.186855 125.304 0.183872C125.509 0.16995 125.722 0.164977 125.923 0.141111C126.153 0.11426 126.321 0.148072 126.484 0.204756C126.69 0.192822 126.901 0.185861 127.101 0.165972C127.252 0.151055 127.332 0.188844 127.432 0.213706C127.467 0.222656 127.505 0.240556 127.535 0.238567C127.826 0.221661 128.117 0.206744 128.402 0.181883C128.558 0.167961 128.625 0.212711 128.731 0.235584C128.766 0.243539 128.803 0.257462 128.836 0.255473C129.001 0.247517 129.167 0.235584 129.332 0.224645C129.525 0.211717 129.525 0.212711 129.781 0.273373C129.901 0.302212 130.022 0.279339 130.14 0.272378C130.265 0.264423 130.383 0.258456 130.483 0.299229C130.546 0.325084 130.621 0.340995 130.699 0.337018C130.864 0.328068 131.032 0.319118 131.195 0.304201C131.325 0.292267 131.438 0.300223 131.534 0.337018C131.601 0.362873 131.671 0.375801 131.754 0.369835C132.125 0.345968 132.499 0.321106 132.87 0.298234C132.902 0.296245 132.948 0.305195 132.978 0.314145C133.048 0.332045 133.116 0.351934 133.183 0.371824C133.346 0.362873 133.514 0.358896 133.675 0.344973C133.845 0.331051 134 0.326079 134.133 0.380774C134.161 0.392707 134.204 0.409613 134.234 0.408618C134.359 0.40464 134.482 0.394696 134.605 0.38674C134.728 0.378785 134.853 0.370829 134.976 0.362873C135.119 0.387735 135.209 0.459335 135.409 0.436463C135.53 0.422541 135.658 0.419557 135.78 0.411602C135.903 0.403646 136.029 0.394696 136.152 0.387735C136.192 0.385746 136.237 0.380774 136.272 0.384751C136.309 0.388729 136.342 0.402651 136.375 0.412596C136.475 0.441435 136.568 0.470274 136.711 0.453369C136.831 0.439446 136.959 0.436463 137.082 0.427513C137.194 0.42022 137.342 0.437457 137.528 0.479224C137.641 0.50508 137.769 0.471269 137.876 0.493147C137.952 0.508063 138.012 0.532925 138.082 0.54983C138.112 0.556792 138.16 0.559775 138.195 0.557786C138.36 0.548836 138.528 0.539886 138.691 0.524969C138.824 0.513036 138.934 0.524969 139.027 0.560769C139.095 0.586625 139.162 0.597564 139.248 0.591597C139.661 0.563753 140.075 0.539886 140.486 0.509058C140.627 0.498119 140.739 0.515025 140.817 0.550825C140.95 0.612481 141.138 0.539886 141.276 0.589608C141.361 0.620436 141.446 0.656237 141.602 0.64132C141.888 0.615464 142.178 0.601542 142.467 0.583642C142.57 0.610492 142.672 0.637342 142.778 0.664192C142.943 0.653253 143.109 0.642314 143.274 0.63237C143.397 0.624414 143.522 0.615464 143.645 0.608503C143.685 0.606514 143.728 0.602536 143.765 0.607509C143.803 0.612481 143.833 0.625409 143.868 0.635353C144.041 0.684081 144.041 0.685076 144.327 0.665187C144.45 0.656237 144.568 0.65027 144.67 0.690048C144.766 0.726843 144.878 0.733804 145.009 0.722865C145.255 0.702976 145.503 0.688059 145.753 0.674137C145.831 0.669165 145.904 0.68607 145.969 0.711926C146.067 0.752699 146.187 0.748721 146.31 0.737782C146.473 0.723859 146.633 0.709937 146.771 0.765626C146.799 0.77756 146.841 0.794466 146.872 0.793471C147.077 0.785516 147.285 0.779549 147.486 0.760654C147.686 0.74176 147.784 0.803416 147.922 0.833249C148.128 0.820321 148.336 0.807393 148.541 0.794466C148.581 0.791482 148.629 0.782532 148.664 0.787504C148.812 0.808388 148.897 0.882972 149.1 0.860099C149.218 0.847171 149.346 0.843194 149.469 0.84021C149.501 0.84021 149.544 0.856122 149.567 0.869049C149.579 0.876011 149.567 0.894905 149.552 0.90485C149.506 0.932694 149.451 0.95855 149.411 0.987389C149.406 0.991367 149.454 1.00927 149.481 1.01722C149.549 1.03512 149.627 1.03214 149.717 1.02418C149.795 1.01722 149.875 1.03115 149.93 1.06098C149.953 1.07291 149.945 1.0928 149.898 1.15843C149.898 1.20716 149.95 1.18529 149.968 1.15346C149.995 1.10772 149.943 1.0928 149.842 1.11766C149.772 1.13556 149.737 1.16142 149.755 1.1823C149.765 1.19324 149.812 1.20716 149.898 1.15843C150.118 1.09877 150.284 1.08783 150.449 1.07689C150.492 1.07391 150.542 1.06396 150.572 1.06993C150.68 1.0938 150.78 1.12263 150.885 1.14948C151.006 1.14352 151.118 1.1286 151.236 1.16739C151.402 1.22208 151.409 1.21711 151.57 1.20617C151.652 1.2002 151.735 1.19523 151.818 1.19026C151.901 1.18529 151.966 1.2002 152.039 1.22307C152.186 1.26981 152.199 1.26981 152.297 1.20617C152.354 1.16739 152.395 1.15446 152.467 1.17236C152.708 1.23302 152.71 1.237 152.916 1.2191C153.086 1.20418 153.247 1.2002 153.372 1.25689C153.458 1.29666 153.485 1.28771 153.555 1.24595C153.736 1.13556 153.819 1.13755 154.157 1.21711C154.315 1.2549 154.478 1.21412 154.638 1.20915C154.774 1.20517 154.869 1.22904 154.879 1.29169C154.887 1.33048 154.909 1.35832 154.999 1.37125C155.034 1.37622 155.077 1.38318 155.112 1.38119C155.32 1.36926 155.526 1.35534 155.734 1.34141C155.839 1.33445 155.897 1.28771 155.877 1.22606C155.854 1.16042 155.894 1.13656 156.045 1.11766C156.135 1.10672 156.208 1.10871 156.28 1.12661C156.361 1.1465 156.338 1.1644 156.268 1.2002C156.1 1.28771 156.12 1.34141 156.336 1.40208C156.411 1.42296 156.471 1.44185 156.489 1.47268C156.499 1.48859 156.488 1.50948 156.511 1.52141C156.634 1.58804 156.804 1.6308 156.995 1.66262C157.178 1.63577 157.303 1.68052 157.444 1.71632C157.554 1.74417 157.684 1.7203 157.802 1.71036C157.935 1.69942 158.045 1.70737 158.141 1.74417C158.208 1.77002 158.279 1.78196 158.361 1.77698C158.527 1.76605 158.695 1.75908 158.858 1.74317C158.998 1.72925 159.103 1.74914 159.191 1.78295C159.301 1.82571 159.424 1.79687 159.54 1.80284C159.695 1.8098 159.773 1.89831 159.976 1.87444C160.096 1.86052 160.221 1.85555 160.347 1.85157C160.379 1.85057 160.42 1.86748 160.447 1.87941C160.58 1.93411 160.735 1.93112 160.906 1.91521C161.024 1.90427 161.139 1.89433 161.254 1.93212C161.445 1.99576 161.655 2.05145 161.856 2.11013C161.884 2.15587 161.864 2.20957 162.006 2.23642C162.082 2.25034 162.152 2.27123 162.21 2.2941C162.28 2.32095 162.345 2.32791 162.435 2.32095C162.598 2.30703 162.769 2.30404 162.929 2.28614C163.077 2.27023 163.17 2.30305 163.26 2.33388C163.333 2.35874 163.4 2.37067 163.488 2.35277C163.578 2.33587 163.644 2.34681 163.716 2.37366C163.819 2.41045 163.827 2.40647 164.168 2.41741C164.203 2.41841 164.245 2.43332 164.265 2.44625C164.275 2.45321 164.253 2.4731 164.235 2.48305C164.213 2.49498 164.178 2.5089 164.145 2.51188C163.774 2.53774 163.4 2.56061 163.029 2.58647C162.992 2.58945 162.952 2.59641 162.924 2.60636C162.894 2.6173 162.856 2.63221 162.856 2.64614C162.856 2.65608 162.906 2.66801 162.942 2.67497C163.052 2.69785 163.182 2.66304 163.29 2.6889C163.363 2.7058 163.423 2.72967 163.496 2.74558C163.526 2.75254 163.573 2.75155 163.611 2.74956C163.736 2.7426 163.859 2.73265 163.984 2.72669C164.02 2.72569 164.06 2.73564 164.092 2.74359C164.333 2.80326 164.333 2.80326 164.541 2.79033C164.624 2.78536 164.712 2.77044 164.789 2.77641C164.864 2.78238 164.93 2.80923 164.997 2.82613C165.138 2.86193 165.271 2.89674 165.281 2.9743C165.286 3.00414 165.368 3.02999 165.451 3.03198C165.531 3.03397 165.617 3.02303 165.699 3.01707C165.83 3.00911 165.979 3.02535 166.148 3.06579C166.218 3.0827 166.293 3.08469 166.384 3.07474C166.419 3.07077 166.461 3.07474 166.499 3.07972C166.622 3.09463 166.622 3.11353 166.542 3.14933C166.429 3.20203 166.439 3.20701 166.755 3.25176C166.875 3.26866 166.968 3.30048 167.068 3.32833C167.231 3.37308 167.229 3.37308 167.121 3.43175C167.096 3.44468 167.073 3.4586 167.048 3.47252C166.975 3.51131 166.918 3.55308 166.767 3.55705C166.602 3.56103 166.436 3.57694 166.271 3.58788C166.11 3.59882 166.068 3.62269 166.083 3.69031C166.1 3.77186 166.133 3.7808 166.421 3.77981C166.504 3.77981 166.577 3.78777 166.639 3.81462C166.609 3.84644 166.554 3.8713 166.474 3.87727C166.268 3.89218 166.06 3.90511 165.855 3.91804C165.689 3.92898 165.524 3.93992 165.358 3.95086C165.256 3.95782 165.19 4.00953 165.218 4.06721C165.233 4.10002 165.246 4.13284 165.258 4.16566C165.286 4.23129 165.338 4.2482 165.506 4.24521C165.549 4.24521 165.589 4.23626 165.629 4.23825C165.792 4.24521 165.87 4.32775 166.065 4.31085C166.228 4.29693 166.399 4.29394 166.559 4.27604C166.707 4.26013 166.79 4.29593 166.893 4.32278C166.928 4.33173 166.965 4.35063 166.995 4.34963C167.204 4.33869 167.412 4.32775 167.615 4.30886C167.71 4.3009 167.768 4.30687 167.843 4.33074C168.023 4.38842 168.028 4.38543 168.297 4.36753C168.492 4.35361 168.495 4.3556 168.745 4.41626C168.816 4.43317 168.891 4.43317 168.981 4.42521C169.099 4.41527 169.222 4.39935 169.345 4.41427C169.382 4.41825 169.43 4.43018 169.442 4.44311C169.45 4.45206 169.415 4.47394 169.385 4.4809C169.164 4.53261 168.906 4.52366 168.665 4.54454C168.59 4.55051 168.515 4.53162 168.452 4.50576C168.387 4.47891 168.317 4.46797 168.231 4.47294C168.066 4.48388 167.898 4.49084 167.735 4.50675C167.595 4.52068 167.497 4.4978 167.399 4.46698C167.366 4.45703 167.329 4.43814 167.296 4.43913C166.925 4.45902 166.552 4.47891 166.183 4.50675C166.035 4.51869 165.95 4.48687 165.85 4.46002C165.815 4.45107 165.78 4.43217 165.747 4.43317C165.622 4.43714 165.499 4.44808 165.373 4.45604C164.917 4.48587 164.463 4.51571 164.007 4.54355C163.977 4.54554 163.939 4.52466 163.904 4.51571C163.837 4.49781 163.766 4.4809 163.696 4.46399C163.571 4.47195 163.448 4.48189 163.323 4.48786C163.232 4.49184 163.152 4.50576 163.14 4.54355C163.132 4.56841 163.215 4.59128 163.303 4.58929C163.388 4.58731 163.473 4.57537 163.543 4.5883C163.892 4.65195 163.892 4.65294 164.11 4.64001C164.3 4.62808 164.28 4.61813 164.448 4.67283C164.521 4.6967 164.586 4.71062 164.669 4.70465C164.874 4.69073 165.083 4.67681 165.291 4.66487C165.323 4.66288 165.366 4.67283 165.398 4.68078C165.644 4.74045 165.644 4.74244 165.847 4.72752C166.113 4.70962 166.123 4.70465 166.301 4.76531C166.424 4.80708 166.537 4.77824 166.654 4.77625C166.79 4.81503 166.938 4.84984 167.061 4.8936C167.206 4.94531 167.359 4.93636 167.524 4.92144C167.647 4.9105 167.768 4.90652 167.868 4.9473C167.963 4.98509 168.078 4.98906 168.209 4.97912C168.327 4.97017 168.447 4.95127 168.57 4.97315C168.602 4.97912 168.653 4.99404 168.65 5.00299C168.648 5.01691 168.615 5.0368 168.582 5.04276C168.352 5.08354 168.099 5.08254 167.855 5.10144C167.823 5.10442 167.78 5.09348 167.748 5.08553C167.677 5.06763 167.61 5.04674 167.542 5.02785C167.419 5.03381 167.294 5.0358 167.173 5.04774C167.081 5.05669 167.01 5.05569 166.943 5.03183C166.88 5.00995 166.812 4.9831 166.737 4.97614C166.662 4.96918 166.574 4.98409 166.492 4.99006C166.409 4.99603 166.314 4.99304 166.248 5.00895C166.183 5.02486 166.143 5.05967 166.1 5.08751C166.053 5.11834 165.988 5.12829 165.892 5.13127C165.805 5.13425 165.734 5.13127 165.669 5.10243C165.642 5.0905 165.604 5.08155 165.566 5.07359C165.531 5.06663 165.491 5.05569 165.459 5.05768C165.085 5.08055 164.714 5.10542 164.341 5.12928C164.217 5.13724 164.027 5.12166 163.771 5.08254C163.736 5.07757 163.694 5.07061 163.659 5.0726C163.451 5.08453 163.245 5.09845 163.037 5.11238C162.826 5.1263 162.829 5.12431 162.47 5.06166C162.405 5.04973 162.31 5.06564 162.232 5.06365C162.069 5.05868 161.989 4.97514 161.796 4.99105C161.633 5.00498 161.462 5.00796 161.299 5.02586C161.152 5.04177 161.066 5.00696 160.966 4.98011C160.931 4.97116 160.893 4.95128 160.863 4.95326C160.49 4.97514 160.119 5 159.622 5.00299C159.499 5.00299 159.555 5.02387 159.635 5.03083C159.75 5.04177 159.788 5.02089 159.725 4.98111C159.68 4.95326 159.615 4.93934 159.562 4.9463C159.535 4.95028 159.499 4.96918 159.622 5.00299C159.753 5.04078 159.745 5.06166 159.768 5.07359C159.823 5.10243 159.901 5.11437 159.981 5.11039C160.106 5.10343 160.229 5.09348 160.354 5.08751C160.389 5.08553 160.432 5.09249 160.465 5.10044C160.74 5.1621 160.743 5.16608 161.036 5.14221C161.129 5.13525 161.197 5.13525 161.269 5.15414C161.37 5.18 161.442 5.22375 161.595 5.20983C161.798 5.19094 162.006 5.18 162.215 5.16906C162.247 5.16707 162.282 5.18497 162.32 5.19293C162.423 5.21679 162.498 5.26154 162.651 5.24265C162.769 5.22773 162.896 5.22375 163.022 5.22077C163.054 5.22077 163.105 5.23569 163.12 5.24862C163.15 5.27149 163.112 5.29834 163.027 5.31723C162.992 5.32519 162.944 5.3232 162.904 5.32618C162.739 5.33712 162.573 5.34906 162.408 5.35801C162.32 5.36298 162.237 5.37789 162.227 5.41469C162.22 5.43955 162.31 5.46143 162.395 5.45944C162.52 5.45646 162.646 5.4485 162.766 5.43557C162.979 5.4137 163.165 5.41966 163.338 5.48231C163.461 5.52607 163.453 5.51016 163.583 5.63944C163.616 5.67225 163.714 5.67524 163.799 5.67325C164.005 5.66827 164.1 5.68319 164.082 5.71402C164.06 5.75181 163.987 5.76374 163.894 5.76871C163.729 5.77667 163.563 5.7896 163.398 5.80054C163.358 5.80352 163.313 5.80949 163.275 5.8075C163.237 5.80551 163.202 5.79358 163.17 5.78463C163.1 5.76573 163.039 5.73689 162.964 5.72993C162.889 5.72297 162.801 5.73789 162.718 5.74385C162.636 5.74883 162.548 5.76374 162.473 5.75678C162.398 5.74982 162.335 5.71999 162.267 5.70209C162.235 5.69314 162.194 5.67921 162.162 5.68021C161.996 5.68816 161.831 5.70109 161.665 5.71104C161.53 5.71966 161.381 5.70341 161.217 5.66231C161.147 5.64441 161.074 5.6454 160.984 5.65336C160.783 5.66927 160.781 5.66629 160.415 5.60861C160.379 5.60264 160.337 5.59568 160.302 5.59866C159.928 5.62154 159.557 5.6464 159.186 5.67026C158.974 5.68419 158.809 5.7243 158.692 5.79059C158.562 5.86418 158.559 5.86418 158.687 5.89799C158.79 5.92584 158.883 5.96661 158.996 5.98153C159.101 5.99545 159.231 5.9507 159.344 5.99644C159.402 6.01932 159.477 6.04418 159.55 6.04716C159.665 6.05213 159.788 6.02329 159.898 6.06705C159.953 6.08893 160.036 6.1118 160.106 6.1128C160.229 6.11478 160.354 6.09887 160.477 6.09191C160.515 6.08992 160.557 6.08992 160.592 6.09489C160.63 6.10086 160.663 6.11279 160.695 6.12274C160.796 6.15655 160.903 6.17246 161.034 6.15556C161.247 6.12771 161.437 6.14163 161.603 6.20528C161.625 6.21423 161.681 6.21522 161.716 6.21125C161.806 6.2013 161.884 6.20031 161.949 6.2192C161.976 6.22716 162.016 6.24108 162.011 6.25003C162.004 6.26495 161.974 6.28484 161.941 6.28981C161.706 6.32362 161.452 6.3276 161.209 6.3455C161.177 6.34749 161.137 6.33456 161.104 6.32561C161.034 6.30671 160.974 6.27787 160.898 6.27091C160.823 6.26395 160.735 6.27688 160.653 6.28185C160.57 6.28682 160.482 6.30174 160.407 6.29577C160.332 6.28881 160.262 6.26395 160.201 6.24207C160.131 6.21721 160.064 6.21423 159.971 6.22417C159.85 6.2371 159.725 6.23909 159.602 6.24605C159.535 6.22716 159.467 6.20627 159.397 6.18837C159.364 6.17942 159.324 6.16848 159.289 6.16948C159.123 6.17743 158.958 6.18937 158.792 6.20031C158.627 6.21125 158.627 6.21125 158.346 6.14959C158.314 6.14263 158.271 6.13467 158.236 6.13666C158.028 6.1486 157.822 6.16351 157.614 6.17545C157.534 6.18042 157.461 6.1665 157.396 6.13965C157.333 6.1128 157.258 6.09788 157.18 6.10285C156.85 6.12373 156.519 6.14362 156.188 6.16848C156.055 6.17843 155.942 6.16848 155.849 6.13368C155.744 6.09291 155.626 6.10285 155.503 6.11081C155.225 6.1307 155.222 6.1297 155.044 6.07898C155.009 6.06904 154.974 6.05014 154.942 6.05114C154.653 6.06606 154.363 6.07998 154.077 6.10385C153.926 6.11677 153.846 6.08197 153.746 6.05611C153.711 6.04716 153.673 6.02827 153.643 6.03026C153.435 6.04119 153.227 6.05114 153.024 6.07103C152.821 6.09092 152.743 5.99843 152.59 5.99943C152.382 6.00042 152.176 6.02329 151.971 6.03722C151.805 6.04816 151.64 6.05909 151.474 6.07003C151.309 6.08097 151.144 6.08992 150.978 6.10285C150.89 6.10981 150.825 6.10086 150.752 6.076C150.66 6.04318 150.549 6.01733 150.449 5.98749C150.347 5.95899 150.234 5.94871 150.111 5.95667C150.071 5.95965 150.028 5.96164 149.988 5.96462C149.684 5.9865 149.684 5.98451 149.298 5.92186C149.281 5.91888 149.236 5.92982 149.218 5.93777C149.165 5.96363 149.118 5.99147 149.07 6.01832C149.003 6.00341 148.92 5.99346 148.875 5.97059C148.747 5.90595 148.544 5.99446 148.416 5.93081C148.368 5.90694 148.286 5.88606 148.21 5.88009C148.133 5.87413 148.045 5.88805 147.965 5.89402C147.757 5.90893 147.757 5.90794 147.579 5.99644C147.488 6.0402 147.358 6.03224 147.24 6.04219C147.117 6.05313 146.999 6.05909 146.897 6.01832C146.804 5.98153 146.691 5.97258 146.558 5.98451C146.395 5.99943 146.227 6.00838 146.062 6.01733C146.027 6.01932 145.984 6.01434 145.949 6.00838C145.565 5.9497 145.565 5.94871 145.38 5.96164C145.297 5.96761 145.212 5.96959 145.132 5.97854C144.996 5.99446 144.894 5.97357 144.796 5.94175C144.763 5.9318 144.726 5.91291 144.693 5.9139C144.527 5.91888 144.365 5.92783 144.202 5.93678C144.076 5.94374 143.951 5.94772 143.831 5.96164C143.63 5.98451 143.532 5.91987 143.394 5.89004C143.189 5.90297 142.981 5.91192 142.775 5.92982C142.68 5.93777 142.617 5.93479 142.544 5.91092C142.452 5.88109 142.366 5.84728 142.216 5.86219C142.015 5.88208 141.805 5.88904 141.599 5.90098C141.461 5.87015 141.361 5.8075 141.163 5.83037C141.043 5.84429 140.915 5.84728 140.792 5.85523C140.627 5.86617 140.461 5.87612 140.296 5.88805C140.118 5.89998 140.12 5.897 139.847 5.83833C139.689 5.80352 139.526 5.8423 139.366 5.84827C139.24 5.85324 139.178 5.89899 139.208 5.95766C139.238 6.01633 139.17 6.06208 139.055 6.07003C138.766 6.08893 138.476 6.10882 138.187 6.12572C138.152 6.12771 138.109 6.12075 138.077 6.11379C137.871 6.07202 137.723 6.05445 137.631 6.06108C137.425 6.076 137.214 6.08396 137.011 6.10285C136.871 6.11578 136.768 6.09489 136.678 6.06108C136.608 6.03523 136.543 6.02926 136.452 6.03523C135.46 6.10186 134.467 6.16351 133.477 6.23213C133.329 6.24207 133.243 6.21323 133.143 6.18638C133.108 6.17743 133.075 6.15854 133.04 6.15854C132.958 6.15854 132.875 6.16749 132.792 6.17346C132.421 6.19732 132.05 6.22616 131.676 6.24406C131.519 6.25202 131.476 6.29776 131.408 6.33555C131.356 6.36439 131.295 6.37632 131.2 6.3803C131.11 6.38428 131.045 6.37931 130.975 6.35345C130.884 6.31964 130.781 6.29876 130.641 6.31268C130.478 6.32859 130.31 6.33555 130.145 6.34649C130.059 6.35146 129.994 6.36936 129.967 6.40516C129.962 6.41113 130.014 6.42605 130.044 6.435C130.145 6.46483 130.24 6.49964 130.353 6.52052C130.468 6.5414 130.593 6.51754 130.714 6.51157C130.756 6.50958 130.797 6.50361 130.837 6.50461C130.874 6.50461 130.919 6.51058 130.947 6.51953C131.077 6.56428 131.218 6.5951 131.396 6.56825C131.551 6.58118 131.631 6.66372 131.829 6.64184C131.95 6.62892 132.075 6.62295 132.2 6.61798C132.233 6.61698 132.268 6.63488 132.303 6.64383C132.404 6.66869 132.484 6.70847 132.634 6.69157C132.795 6.67367 132.965 6.67068 133.128 6.65676C133.218 6.6488 133.283 6.65577 133.354 6.68162C133.444 6.71444 133.547 6.7393 133.687 6.72339C133.807 6.70947 133.935 6.70648 134.058 6.69753C134.219 6.68659 134.219 6.68759 134.504 6.74924C134.537 6.75621 134.58 6.76416 134.615 6.76217C134.823 6.75024 135.028 6.73532 135.236 6.72339C135.317 6.71842 135.394 6.73134 135.45 6.76018C135.472 6.77212 135.465 6.79201 135.472 6.80891C135.058 6.83576 134.645 6.85863 134.234 6.89145C134.078 6.90438 134.008 6.86361 133.905 6.84073C133.87 6.83278 133.833 6.81587 133.8 6.81786C133.509 6.83477 133.221 6.85267 132.932 6.87454C132.842 6.88151 132.775 6.87753 132.707 6.84869C132.534 6.77212 132.323 6.81388 132.125 6.82482C131.975 6.83278 131.927 6.86361 131.947 6.92924C131.97 7.00681 132.06 7.03067 132.291 7.01576C132.373 7.01079 132.456 7.00382 132.539 6.99985C132.619 6.99587 132.692 7.0088 132.757 7.03565C132.82 7.0625 132.895 7.07642 132.973 7.07244C133.138 7.06349 133.306 7.05454 133.466 7.03962C133.599 7.02769 133.71 7.03763 133.802 7.07443C133.908 7.1152 134.026 7.10625 134.146 7.0973C134.427 7.07741 134.429 7.07841 134.605 7.12813C134.64 7.13807 134.675 7.15697 134.707 7.15597C134.996 7.14106 135.287 7.12813 135.57 7.10426C135.718 7.09233 135.801 7.12415 135.901 7.15001C135.936 7.15896 135.971 7.17885 136.004 7.17686C136.212 7.16592 136.42 7.15498 136.623 7.13609C136.718 7.12714 136.776 7.1331 136.851 7.15697C137.036 7.21564 137.042 7.21365 137.305 7.19476C137.385 7.18879 137.473 7.17785 137.548 7.18581C137.623 7.19376 137.683 7.2226 137.753 7.2405C137.786 7.24846 137.826 7.2594 137.861 7.25741C138.027 7.24945 138.192 7.23752 138.358 7.22658C138.513 7.21564 138.513 7.21664 138.804 7.27829C138.924 7.30415 139.045 7.28227 139.162 7.27431C139.29 7.26536 139.406 7.26536 139.503 7.30415C139.601 7.34293 139.719 7.34094 139.844 7.33299C139.962 7.32503 140.083 7.30315 140.203 7.33C140.479 7.39166 140.479 7.39265 140.649 7.38072C140.897 7.36382 141.143 7.3479 141.394 7.33299C141.426 7.331 141.469 7.34293 141.501 7.35089C141.572 7.36879 141.632 7.39862 141.707 7.40558C141.782 7.41354 141.87 7.4016 141.95 7.39564C142.208 7.37674 142.226 7.36978 142.399 7.43542C142.544 7.48912 142.725 7.41155 142.86 7.47321C142.938 7.50801 143.043 7.53586 143.189 7.51895C143.309 7.50503 143.434 7.50105 143.56 7.49309C143.758 7.48017 143.758 7.48116 144.009 7.54083C144.041 7.54878 144.084 7.55873 144.116 7.55674C144.282 7.54878 144.45 7.54182 144.61 7.52392C144.798 7.50304 144.919 7.54083 145.059 7.57762C145.169 7.60646 145.3 7.58259 145.415 7.57265C145.543 7.56271 145.658 7.56569 145.753 7.60447C145.854 7.64425 145.972 7.63928 146.097 7.63132C146.215 7.62436 146.335 7.60149 146.455 7.62933C146.714 7.69099 146.714 7.69099 146.902 7.67906C147.067 7.66812 147.233 7.65618 147.398 7.64823C147.431 7.64624 147.471 7.65917 147.503 7.66812C147.574 7.68602 147.634 7.71585 147.709 7.72281C147.784 7.72977 147.872 7.71685 147.955 7.71187C148.037 7.7069 148.125 7.69198 148.2 7.69795C148.275 7.70392 148.346 7.72878 148.406 7.75066C148.476 7.77651 148.541 7.7795 148.637 7.76955C148.757 7.75662 148.882 7.75364 149.005 7.74668C149.073 7.76557 149.143 7.78447 149.208 7.80535C149.276 7.82723 149.348 7.82524 149.441 7.81828C149.75 7.79441 149.752 7.7974 150.01 7.85905C150.128 7.8869 150.251 7.86403 150.369 7.85706C150.494 7.84911 150.612 7.84513 150.71 7.88491C150.805 7.9227 150.923 7.92767 151.048 7.91574C151.128 7.90778 151.214 7.90281 151.296 7.89983C151.334 7.89883 151.379 7.90281 151.407 7.91076C151.54 7.95253 151.67 7.99032 151.853 7.96347C152.013 7.97143 152.094 8.05297 152.287 8.03706C152.45 8.02314 152.62 8.02015 152.781 8.00225C152.929 7.98634 153.034 8.01419 153.109 8.04899C153.244 8.11065 153.435 8.02711 153.57 8.08778C153.648 8.12258 153.748 8.15043 153.899 8.13551C154.064 8.1196 154.117 8.14048 154.164 8.20313C154.192 8.23893 154.187 8.26777 154.137 8.29562C154.087 8.32446 154.032 8.31948 153.951 8.28667C153.859 8.24987 153.748 8.24291 153.615 8.25087C153.485 8.25882 153.405 8.20711 153.297 8.18722C153.189 8.16634 153.061 8.20114 152.949 8.17429C152.683 8.11164 152.683 8.11164 152.502 8.12358C152.379 8.13153 152.252 8.13551 152.131 8.14943C151.988 8.16634 151.896 8.13551 151.798 8.10767C151.763 8.09772 151.728 8.07883 151.698 8.07982C151.409 8.09474 151.118 8.10866 150.833 8.13352C150.682 8.14645 150.602 8.11065 150.502 8.08579C150.467 8.07684 150.429 8.05894 150.399 8.06093C150.151 8.07485 149.905 8.09275 149.657 8.10965C149.609 8.13651 149.557 8.16236 149.511 8.1912C149.464 8.22103 149.399 8.23396 149.303 8.23297C149.145 8.23297 148.99 8.27473 148.832 8.22203C148.669 8.16833 148.657 8.17131 148.499 8.18424C148.298 8.20114 148.085 8.19717 147.897 8.23595C147.864 8.24291 147.829 8.26181 147.829 8.27573C147.829 8.28468 147.879 8.29761 147.912 8.30556C148.022 8.32943 148.15 8.29462 148.26 8.31948C148.333 8.33539 148.393 8.35926 148.466 8.37617C148.496 8.38313 148.541 8.38213 148.581 8.38114C148.624 8.38114 148.664 8.37318 148.704 8.37418C148.742 8.37517 148.782 8.38114 148.812 8.39009C148.95 8.42788 149.095 8.46268 149.218 8.50744C149.338 8.55119 149.451 8.52235 149.572 8.51937C150.053 8.58898 150.053 8.58998 150.376 8.5681C150.457 8.56312 150.539 8.55716 150.622 8.55815C150.657 8.55815 150.69 8.57605 150.725 8.586C150.825 8.61583 150.92 8.64268 151.061 8.62677C151.181 8.61285 151.309 8.60986 151.432 8.60091C151.597 8.58997 151.597 8.58997 151.878 8.65263C151.948 8.66854 152.023 8.66655 152.114 8.65859C152.191 8.65163 152.272 8.66655 152.327 8.69539C152.349 8.70732 152.342 8.72721 152.349 8.74411C152.101 8.76003 151.85 8.77097 151.61 8.79483C151.454 8.80975 151.384 8.76699 151.281 8.74411C151.246 8.73616 151.209 8.71925 151.176 8.72124C150.93 8.73616 150.685 8.75307 150.439 8.77295C150.409 8.77494 150.371 8.79782 150.369 8.81174C150.364 8.83759 150.427 8.86245 150.517 8.86146C150.637 8.86146 150.755 8.84356 150.863 8.88433C150.953 8.92013 151.066 8.93604 151.199 8.92013C151.279 8.91118 151.364 8.91118 151.444 8.90223C151.657 8.87837 151.851 8.88334 152.011 8.95096C152.134 8.96886 152.254 8.95195 152.372 8.94301C152.46 8.93604 152.545 8.92908 152.608 8.94798C152.74 8.98776 152.871 9.02753 153.054 9.00068C153.252 9.02853 153.402 9.0872 153.568 9.13493C153.646 9.15781 153.706 9.17073 153.796 9.15582C153.834 9.14985 153.879 9.14985 153.919 9.14687C154.002 9.1419 154.089 9.12698 154.164 9.13295C154.24 9.13991 154.302 9.16875 154.37 9.18665C154.403 9.1956 154.44 9.21051 154.473 9.20952C154.598 9.20455 154.721 9.1946 154.844 9.18665C154.967 9.17968 155.09 9.17272 155.212 9.16576C155.315 9.19162 155.421 9.21747 155.523 9.24333C155.689 9.23239 155.854 9.22145 156.017 9.21151C156.2 9.19957 156.2 9.20057 156.463 9.26222C156.581 9.29007 156.707 9.27217 156.819 9.25924C157.007 9.23836 157.133 9.27615 157.266 9.31592C157.293 9.32388 157.343 9.32885 157.376 9.32487C157.506 9.31095 157.619 9.32189 157.714 9.35869C157.782 9.38454 157.85 9.39648 157.933 9.3915C158.221 9.37261 158.509 9.35272 158.797 9.33581C158.83 9.33382 158.873 9.34277 158.905 9.35073C159.161 9.41139 159.163 9.41438 159.352 9.39846C159.519 9.38454 159.675 9.37858 159.808 9.43327C159.835 9.4452 159.878 9.46211 159.908 9.46111C160.114 9.45117 160.322 9.44023 160.525 9.42333C160.618 9.41537 160.683 9.41835 160.755 9.44123C160.848 9.47007 160.931 9.50487 161.084 9.49194C161.508 9.45515 161.51 9.46111 162.011 9.52973C162.047 9.5347 162.094 9.52675 162.134 9.52277C162.22 9.51283 162.282 9.52675 162.357 9.54962C162.525 9.60133 162.53 9.59835 162.691 9.58741C162.814 9.57846 162.942 9.57647 163.062 9.56155C163.247 9.53968 163.37 9.57846 163.508 9.61526C163.618 9.64409 163.746 9.62023 163.864 9.61128C163.992 9.60133 164.107 9.60432 164.203 9.64211C164.268 9.66796 164.338 9.68188 164.421 9.67691C164.709 9.65901 164.997 9.63912 165.286 9.62122C165.321 9.61923 165.363 9.62719 165.396 9.63415C165.682 9.6958 165.682 9.69879 165.965 9.67592C166.055 9.66896 166.131 9.66697 166.198 9.68785C166.263 9.70774 166.334 9.72663 166.401 9.74553C166.524 9.73857 166.649 9.73658 166.77 9.72464C166.863 9.71569 166.928 9.71967 167 9.74056C167.096 9.76741 167.173 9.81415 167.326 9.79127C167.404 9.78033 167.494 9.78332 167.572 9.77337C167.665 9.76044 167.727 9.7684 167.8 9.79426C167.89 9.82508 167.983 9.85691 168.129 9.84099C168.289 9.8231 168.46 9.82011 168.622 9.80619C168.713 9.79823 168.775 9.80619 168.848 9.83205C168.938 9.86486 169.041 9.88575 169.182 9.87282C169.467 9.84796 169.47 9.85293 169.748 9.91558C169.818 9.93149 169.894 9.9295 169.984 9.92155C170.062 9.91458 170.142 9.9295 170.197 9.95834C170.219 9.97027 170.212 9.99016 170.219 10.0071L170.255 10.026ZM147.912 1.058C147.829 1.06297 147.747 1.06893 147.626 0.982417C147.619 0.9675 147.624 0.9496 147.606 0.936672C147.566 0.909822 147.503 0.890927 147.428 0.887944C147.293 0.883966 147.13 0.917778 147.132 0.943633C147.135 0.965511 147.177 0.984406 147.26 1.00231C147.295 1.00927 147.323 1.0212 147.355 1.02916C147.451 1.05203 147.526 1.09678 147.664 1.07391C147.651 1.04308 147.639 1.01225 147.664 1.07391C147.651 1.1117 147.689 1.13855 147.779 1.14948C147.804 1.15247 147.842 1.14948 147.862 1.14451C147.94 1.12263 147.952 1.0928 147.894 1.01424C147.884 1.02717 147.894 1.05004 147.914 1.05601C147.937 1.06197 147.992 1.057 148.02 1.05004C148.09 1.03115 148.125 1.00628 148.108 0.9854C148.097 0.974461 148.05 0.960539 148.02 0.960539C147.965 0.960539 147.917 0.982417 147.909 1.058H147.912ZM168.184 12.5897C168.001 12.6086 167.79 12.6016 167.607 12.6404C167.575 12.6473 167.542 12.6652 167.539 12.6792C167.539 12.6881 167.587 12.701 167.617 12.708C167.685 12.7239 167.76 12.7189 167.848 12.714C167.981 12.707 168.058 12.7528 168.161 12.7756C168.194 12.7826 168.236 12.7876 168.272 12.7856C168.475 12.7736 168.675 12.7607 168.878 12.7468C168.913 12.7438 168.951 12.7368 168.981 12.7279C169.081 12.699 169.071 12.6792 168.973 12.6583C168.866 12.6344 168.78 12.5946 168.67 12.5757C168.515 12.5489 168.354 12.5847 168.186 12.5897H168.184ZM153.946 13.3156C153.824 13.3236 153.703 13.3315 153.58 13.3395C153.54 13.3425 153.498 13.3435 153.46 13.3474C153.382 13.3544 153.325 13.3753 153.287 13.4081C153.345 13.434 153.415 13.4489 153.493 13.4459C153.615 13.4399 153.736 13.427 153.859 13.424C153.992 13.42 154.069 13.4648 154.172 13.4877C154.205 13.4946 154.245 13.4956 154.282 13.4966C154.468 13.5006 154.581 13.4489 154.546 13.3763C154.52 13.3196 154.425 13.2858 154.31 13.2927C154.187 13.3007 154.067 13.3087 153.944 13.3166L153.946 13.3156ZM169.041 11.1199C169.071 11.103 169.104 11.091 169.119 11.0761C169.164 11.0264 169.146 10.9876 169.064 10.9478C168.963 10.8991 168.841 10.9319 168.728 10.9369C168.7 10.9379 168.67 10.9588 168.655 10.9717C168.645 10.9806 168.645 10.9995 168.66 11.0045C168.785 11.0443 168.916 11.0811 169.044 11.1199H169.041ZM147.295 8.18225C147.175 8.1902 147.052 8.19617 146.932 8.20711C146.902 8.21009 146.874 8.22899 146.857 8.24192C146.824 8.26578 146.859 8.2986 146.962 8.30158C147.08 8.30556 147.202 8.28866 147.325 8.2807C147.481 8.27075 147.571 8.23396 147.516 8.20214C147.461 8.17032 147.383 8.16435 147.295 8.18125V8.18225ZM15.328 6.05711C15.4082 6.05213 15.4909 6.04816 15.5711 6.04119C15.6463 6.03423 15.704 6.01236 15.7416 5.97954C15.6789 5.95368 15.6087 5.93976 15.531 5.94274C15.4082 5.94871 15.2878 5.95667 15.1675 5.96661C15.0923 5.97258 15.0196 5.99446 15.002 6.02827C14.987 6.05313 15.155 6.06804 15.3305 6.05711H15.328ZM136.696 5.90396C136.728 5.91291 136.761 5.93081 136.793 5.93081C136.874 5.93081 136.956 5.92484 137.031 5.9149C137.064 5.91092 137.089 5.89302 137.104 5.8791C137.114 5.87015 137.112 5.85424 137.097 5.84628C137.024 5.79855 136.733 5.81545 136.686 5.87015C136.678 5.88009 136.688 5.89302 136.693 5.90396H136.696ZM128.786 0.458341C128.793 0.474252 128.796 0.490163 128.806 0.506075C128.826 0.535908 128.881 0.557786 128.961 0.572703C129.024 0.547841 129.057 0.519997 129.054 0.490163C129.054 0.474252 129.044 0.458341 129.034 0.44243C129.014 0.412596 128.959 0.390718 128.879 0.375801C128.816 0.400663 128.783 0.428507 128.786 0.458341ZM174.84 13.4886C174.817 13.5016 174.795 13.5145 174.77 13.5264C174.837 13.5553 174.9 13.5642 174.948 13.5483C174.978 13.5384 174.995 13.5235 175.018 13.5105C174.95 13.4817 174.89 13.4737 174.84 13.4886ZM173.281 13.6239C173.313 13.6328 173.343 13.6448 173.378 13.6507C173.436 13.6607 173.489 13.6438 173.529 13.608C173.496 13.599 173.466 13.5871 173.431 13.5811C173.373 13.5712 173.321 13.5881 173.281 13.6239ZM174.268 13.4419C174.251 13.4658 174.286 13.4857 174.379 13.5026C174.401 13.4896 174.431 13.4777 174.446 13.4638C174.471 13.4409 174.429 13.42 174.339 13.4041C174.316 13.417 174.293 13.43 174.268 13.4419ZM168.976 12.3699C168.958 12.3938 168.994 12.4136 169.086 12.4305C169.109 12.4176 169.139 12.4057 169.154 12.3918C169.179 12.3689 169.136 12.348 169.046 12.3321C169.024 12.345 169.001 12.358 168.976 12.3699ZM161.766 5.33314C161.743 5.34607 161.721 5.359 161.696 5.37093C161.763 5.39977 161.826 5.40872 161.874 5.39281C161.904 5.38287 161.921 5.36795 161.944 5.35502C161.876 5.32618 161.816 5.31823 161.766 5.33314ZM154.861 1.59997C154.922 1.60693 154.972 1.59301 155.014 1.55622C154.982 1.54727 154.952 1.53533 154.917 1.52937C154.859 1.51942 154.806 1.53633 154.766 1.57213C154.799 1.58108 154.831 1.59003 154.861 1.59997ZM151.194 1.36727C151.171 1.3802 151.149 1.39313 151.123 1.40506C151.191 1.4339 151.254 1.44285 151.301 1.42694C151.332 1.41699 151.349 1.40208 151.372 1.38915C151.304 1.36031 151.244 1.35235 151.194 1.36727ZM126.321 0.458341C126.299 0.471269 126.276 0.484197 126.251 0.49613C126.319 0.524969 126.382 0.533919 126.429 0.518008C126.459 0.508063 126.477 0.493147 126.499 0.480219C126.432 0.45138 126.372 0.443424 126.321 0.458341ZM2.47193 8.54821C2.43934 8.53926 2.40674 8.53031 2.37666 8.52036C2.30396 8.54721 2.28139 8.57207 2.32151 8.59097C2.34658 8.6029 2.38418 8.60986 2.41677 8.61881C2.48948 8.59196 2.50953 8.5681 2.47193 8.54721V8.54821Z" fill="#2400FF"/>
<path d="M17.0127 5.03682C16.7244 5.05571 16.4386 5.07958 16.1503 5.09151C15.9973 5.09748 15.9422 5.14024 15.8795 5.18002C15.8294 5.21184 15.7717 5.22178 15.6789 5.22775C14.8967 5.27648 14.1171 5.32819 13.3374 5.37891C13.2396 5.36598 13.192 5.3451 13.2145 5.32023C13.2271 5.30532 13.2571 5.28443 13.2872 5.28245C13.8212 5.24565 14.3527 5.20786 14.8892 5.17902C15.0422 5.17107 15.0848 5.12731 15.1625 5.09151C15.1901 5.07958 15.2076 5.06168 15.2402 5.05472C15.2728 5.04676 15.3204 5.04775 15.363 5.04577C16.2255 4.98908 17.0879 4.93339 17.9503 4.87671C18.0481 4.88964 18.0957 4.91052 18.0731 4.93538C18.0606 4.9503 18.0305 4.97118 18.0004 4.97317C17.672 4.99704 17.3436 5.01792 17.0152 5.0388L17.0127 5.03682Z" fill="#2400FF"/>
<path d="M174.87 10.3323C174.74 10.3442 174.574 10.3611 174.439 10.3035C174.374 10.2756 174.303 10.2667 174.218 10.2726C174.095 10.2826 173.97 10.2905 173.845 10.2965C173.812 10.2975 173.769 10.2865 173.737 10.2776C173.667 10.2597 173.606 10.2299 173.531 10.2219C173.456 10.2139 173.366 10.2358 173.288 10.2309C173.185 10.2239 173.143 10.197 173.17 10.1722C173.185 10.1583 173.215 10.1384 173.248 10.1354C173.712 10.0986 173.714 10.0986 173.845 10.1344C173.945 10.1622 174.038 10.1931 174.181 10.1762C174.301 10.1622 174.429 10.1593 174.552 10.1503C174.722 10.1384 174.722 10.1394 174.998 10.202C175.068 10.2179 175.143 10.2169 175.234 10.209C175.311 10.202 175.386 10.2179 175.449 10.2448C175.409 10.2786 175.351 10.3005 175.274 10.3064C175.151 10.3164 175.025 10.3233 174.87 10.3333V10.3323Z" fill="#2400FF"/>
<path d="M170.255 10.026C170.57 10.0051 170.889 9.98724 171.205 9.96337C171.335 9.95343 171.438 9.96337 171.528 9.99818C171.626 10.035 171.736 10.032 171.857 10.025C171.932 10.021 172.004 10.037 172.055 10.0648C172.075 10.0757 172.07 10.0956 172.077 10.1115C171.801 10.1294 171.523 10.1483 171.245 10.1643C171.212 10.1662 171.172 10.1563 171.142 10.1483C171.074 10.1314 171.017 10.1016 170.944 10.0956C170.789 10.0817 170.633 10.1086 170.475 10.1135C170.4 10.1155 170.327 10.1006 170.277 10.0738C170.257 10.0628 170.262 10.0429 170.255 10.027V10.026Z" fill="#2400FF"/>
<path d="M56.0972 1.47675C56.4256 1.45487 56.754 1.43399 57.0825 1.41211C57.1802 1.42603 57.2254 1.44592 57.2053 1.47078C57.1928 1.4857 57.1627 1.50658 57.1326 1.50857C56.4758 1.55332 55.8189 1.59608 55.1646 1.63884C55.0668 1.62492 55.0217 1.60503 55.0417 1.58017C55.0543 1.56526 55.0844 1.54437 55.1144 1.54238C55.4429 1.51852 55.7713 1.49863 56.0997 1.47675H56.0972Z" fill="#2400FF"/>
<path d="M5.48788 7.00199C5.33996 7.00397 5.18453 7.04077 5.01906 7.01292C4.98647 7.00795 4.94135 6.99204 4.94385 6.98309C4.94887 6.96817 4.97895 6.94928 5.01154 6.94331C5.15444 6.91845 5.33244 6.91547 5.40515 6.84586C5.44024 6.81006 5.50543 6.79812 5.59317 6.79116C5.68593 6.78321 5.75111 6.78619 5.82382 6.80707C5.91909 6.83392 5.99931 6.88365 6.14973 6.85779C6.15725 6.8737 6.1748 6.8916 6.16728 6.90652C6.15976 6.92143 6.12717 6.93536 6.09708 6.9463C6.06951 6.95624 6.0319 6.96519 5.9968 6.96817C5.83134 6.98011 5.66838 6.99005 5.48788 7.00199Z" fill="#2400FF"/>
<path d="M135.876 6.80214C135.999 6.79418 136.126 6.79021 136.247 6.77628C136.342 6.76534 136.402 6.7723 136.477 6.79617C136.605 6.83893 136.613 6.83396 136.926 6.83993C136.961 6.83993 137.004 6.85584 137.024 6.86877C137.036 6.87573 137.019 6.89462 137.004 6.90457C136.981 6.9175 136.949 6.9344 136.919 6.9344C136.721 6.93738 136.52 6.99606 136.327 6.92843C136.229 6.89462 136.121 6.87871 135.989 6.89363C135.908 6.90258 135.826 6.90656 135.74 6.91053C135.66 6.91451 135.577 6.90357 135.527 6.87374C135.455 6.82998 135.497 6.81308 135.628 6.81606C135.708 6.81805 135.793 6.80711 135.876 6.80114V6.80214Z" fill="#2400FF"/>
<path d="M181.313 13.6578C181.471 13.6478 181.629 13.6359 181.789 13.6279C181.822 13.6259 181.862 13.6369 181.892 13.6438C182.013 13.6737 181.995 13.7244 182 13.7691C182.003 13.8159 181.724 13.8537 181.606 13.8208C181.476 13.785 181.358 13.7443 181.178 13.7662C181.107 13.7741 181.025 13.7562 180.98 13.7274C180.912 13.6856 180.95 13.6687 181.077 13.6717C181.155 13.6737 181.235 13.6627 181.316 13.6578H181.313Z" fill="#2400FF"/>
<path d="M101.72 0.121368C101.883 0.110429 102.046 0.0935237 102.209 0.0925293C102.304 0.0925293 102.352 0.124352 102.329 0.148219C102.317 0.163135 102.287 0.184019 102.257 0.186008C101.931 0.209875 101.605 0.229764 101.279 0.251642C101.184 0.237719 101.136 0.216836 101.158 0.192969C101.171 0.178052 101.201 0.158163 101.231 0.15518C101.392 0.141257 101.557 0.132307 101.72 0.121368Z" fill="#2400FF"/>
<path d="M178.187 10.4198C178.345 10.4099 178.505 10.395 178.663 10.39C178.746 10.388 178.811 10.4109 178.821 10.4368C178.826 10.4487 178.786 10.4696 178.753 10.4745C178.528 10.5084 178.285 10.5123 178.049 10.5292C177.974 10.5342 177.893 10.5183 177.848 10.4905C177.781 10.4477 177.818 10.4318 177.946 10.4348C178.024 10.4368 178.104 10.4258 178.184 10.4208L178.187 10.4198Z" fill="#2400FF"/>
<path d="M140.017 6.9363C140.098 6.93133 140.18 6.9184 140.258 6.92238C140.341 6.92735 140.393 6.95619 140.418 6.98503C140.446 7.01785 140.444 7.04868 140.418 7.07652C140.378 7.12425 140.338 7.12226 140.245 7.09044C140.103 7.04072 140.093 7.04669 139.809 7.04867C139.777 7.04867 139.737 7.03376 139.712 7.02083C139.674 7.00094 139.694 6.97011 139.779 6.95221C139.847 6.93829 139.937 6.94028 140.017 6.93431V6.9363Z" fill="#2400FF"/>
<path d="M172.313 10.0946C172.431 10.0867 172.549 10.0737 172.666 10.0737C172.749 10.0737 172.814 10.0956 172.822 10.1205C172.824 10.1324 172.787 10.1523 172.757 10.1583C172.614 10.1851 172.453 10.1871 172.298 10.196C172.225 10.2 172.145 10.1841 172.1 10.1563C172.032 10.1145 172.072 10.0956 172.195 10.1016C172.233 10.1036 172.273 10.0976 172.313 10.0946Z" fill="#2400FF"/>
<path d="M153.768 8.87452C153.593 8.88645 153.427 8.87154 153.44 8.84568C153.458 8.81187 153.53 8.78999 153.605 8.78403C153.726 8.77408 153.846 8.76613 153.969 8.76016C154.047 8.75618 154.117 8.7711 154.18 8.79695C154.142 8.82878 154.084 8.85165 154.009 8.85861C153.929 8.86557 153.849 8.86955 153.766 8.87452H153.768Z" fill="#2400FF"/>
<path d="M152.618 8.7472C152.735 8.73925 152.853 8.72632 152.971 8.72632C153.054 8.72632 153.119 8.7482 153.127 8.77306C153.129 8.78499 153.091 8.80488 153.061 8.81085C152.919 8.8377 152.758 8.83969 152.603 8.84864C152.53 8.85261 152.45 8.8367 152.405 8.80886C152.337 8.76709 152.377 8.7482 152.5 8.75416C152.537 8.75615 152.578 8.75019 152.618 8.7472Z" fill="#2400FF"/>
<path d="M138.596 6.92837C138.714 6.92042 138.832 6.90749 138.949 6.90649C139.032 6.90649 139.097 6.92837 139.105 6.95323C139.107 6.96517 139.07 6.98406 139.04 6.99102C138.894 7.01787 138.736 7.01986 138.581 7.02881C138.508 7.03279 138.428 7.01688 138.383 6.98903C138.315 6.94727 138.355 6.92837 138.478 6.93434C138.516 6.93633 138.556 6.93036 138.596 6.92738V6.92837Z" fill="#2400FF"/>
<path d="M137.937 6.86962C138.062 6.86166 138.102 6.85669 138.142 6.85669C138.217 6.85669 138.295 6.86862 138.34 6.89647C138.408 6.93823 138.368 6.95017 138.245 6.95216C138.087 6.95415 137.932 6.97503 137.774 6.97901C137.691 6.981 137.626 6.95713 137.621 6.93227C137.618 6.92033 137.656 6.89945 137.686 6.89547C137.796 6.88056 137.911 6.87161 137.939 6.86962H137.937Z" fill="#2400FF"/>
<path d="M151.597 1.02037C151.517 1.02534 151.432 1.03926 151.357 1.03429C151.256 1.02733 151.216 1.00048 151.241 0.975618C151.256 0.961695 151.284 0.941806 151.314 0.938823C151.474 0.9249 151.637 0.91595 151.798 0.906006C151.893 0.920923 151.936 0.941806 151.911 0.966667C151.896 0.98059 151.868 0.999484 151.838 1.00346C151.76 1.01341 151.678 1.0154 151.597 1.02037Z" fill="#2400FF"/>
<path d="M54.2997 1.59399C54.3774 1.59399 54.4476 1.60593 54.5077 1.63079C54.4701 1.66261 54.415 1.68349 54.3398 1.69244C54.3022 1.69642 54.2595 1.69941 54.2194 1.7004C54.1417 1.70239 54.0715 1.68847 54.0114 1.66361C54.049 1.63178 54.1066 1.6109 54.1793 1.60195C54.2169 1.59797 54.2595 1.59598 54.2997 1.59399Z" fill="#2400FF"/>
<path d="M177.329 10.4169C177.329 10.388 177.48 10.3552 177.618 10.3562C177.69 10.3562 177.766 10.3711 177.808 10.398C177.873 10.4388 177.836 10.4547 177.713 10.4517C177.638 10.4497 177.558 10.4666 177.482 10.4636C177.4 10.4606 177.349 10.4398 177.329 10.4159V10.4169Z" fill="#2400FF"/>
<path d="M140.744 7.0566C140.742 7.04566 140.729 7.03273 140.737 7.02279C140.785 6.96809 141.073 6.95119 141.148 6.99892C141.161 7.00787 141.166 7.02279 141.156 7.03174C141.14 7.04566 141.113 7.06356 141.083 7.06754C141.005 7.07748 140.925 7.08246 140.845 7.08345C140.812 7.08345 140.779 7.06654 140.747 7.0566H140.744Z" fill="#2400FF"/>
<path d="M6.38288 6.84292C6.08706 6.8638 6.08204 6.86181 6.13469 6.81209C6.18232 6.76734 6.27007 6.74049 6.39793 6.74049C6.43553 6.74049 6.47564 6.7385 6.50824 6.74248C6.54333 6.74745 6.59348 6.75739 6.601 6.76933C6.61604 6.7922 6.57342 6.81706 6.49821 6.83397C6.46562 6.84093 6.423 6.83993 6.38288 6.84192V6.84292Z" fill="#2400FF"/>
<path d="M58.0025 1.45392C57.9148 1.47083 57.8396 1.46486 57.7844 1.43304C57.7268 1.40122 57.817 1.36343 57.9699 1.35448C58.0101 1.35249 58.0527 1.34453 58.0903 1.34851C58.1279 1.35149 58.1655 1.36343 58.1881 1.37536C58.2282 1.39525 58.2031 1.4221 58.1229 1.44497C58.0928 1.45293 58.0452 1.45094 58.005 1.45392H58.0025Z" fill="#2400FF"/>
<path d="M176.808 10.3413C176.831 10.3283 176.853 10.3154 176.878 10.3035C176.971 10.3204 177.011 10.3403 176.986 10.3631C176.971 10.3771 176.941 10.389 176.918 10.4019C176.826 10.385 176.79 10.3651 176.808 10.3413Z" fill="#2400FF"/>
<path d="M10.354 18.1638C10.354 18.1518 10.3891 18.1329 10.4167 18.129C10.4693 18.122 10.5345 18.1359 10.5796 18.1638C10.6423 18.2036 10.6047 18.2244 10.4894 18.2135C10.4092 18.2055 10.354 18.1847 10.354 18.1638Z" fill="#2400FF"/>
<path d="M141.765 6.13088C141.797 6.13983 141.83 6.14878 141.86 6.15873C141.817 6.19552 141.765 6.21143 141.71 6.20149C141.674 6.19552 141.644 6.18359 141.612 6.17464C141.654 6.13784 141.705 6.12392 141.765 6.13088Z" fill="#2400FF"/>
<path d="M140.897 6.08598C140.947 6.07106 141.008 6.07902 141.078 6.10786C141.055 6.12079 141.035 6.1357 141.008 6.14565C140.96 6.16156 140.897 6.1536 140.83 6.12377C140.852 6.11084 140.875 6.09791 140.9 6.08598H140.897Z" fill="#2400FF"/>
<path d="M140.233 6.12991L140.328 6.15775C140.286 6.19454 140.235 6.21046 140.178 6.20051C140.143 6.19454 140.113 6.18261 140.08 6.17366C140.123 6.13687 140.173 6.12294 140.233 6.12991Z" fill="#2400FF"/>
<path d="M139.744 6.07716C139.782 6.09705 139.762 6.12092 139.689 6.14777C139.656 6.13882 139.619 6.13186 139.594 6.11992C139.554 6.10103 139.574 6.07617 139.649 6.04932C139.681 6.05827 139.714 6.06722 139.744 6.07716Z" fill="#2400FF"/>
</g>
<defs>
<clipPath id="clip0_2_302">
<rect width="182" height="19" fill="white"/>
</clipPath>
</defs>
</svg>
