<svg width="559" height="657" viewBox="0 0 559 657" fill="none" xmlns="http://www.w3.org/2000/svg">
<path fill-rule="evenodd" clip-rule="evenodd" d="M15.0458 591.487C15.2036 585.524 12.7761 579.576 7.45328 575.987C5.39213 574.597 2.95045 574.091 0.545776 573.67C10.3148 573.335 13.7064 563.111 15.0657 555.196C14.5936 562.294 18.3051 569.962 25.8899 570.67C18.3394 575.112 15.748 583.263 15.0458 591.487Z" fill="#FFB254"/>
<path fill-rule="evenodd" clip-rule="evenodd" d="M14.7177 303.633C14.8755 297.669 12.4479 291.722 7.12515 288.133C5.06401 286.743 2.62232 286.237 0.217651 285.816C9.98672 285.481 13.3782 275.256 14.7375 267.341C14.2655 274.44 17.977 282.108 25.5617 282.816C18.0113 287.258 15.4199 295.409 14.7177 303.633Z" fill="#FFB254"/>
<path fill-rule="evenodd" clip-rule="evenodd" d="M110.124 320.487C110.203 317.529 108.998 314.58 106.358 312.799C105.336 312.11 104.125 311.859 102.932 311.651C107.778 311.484 109.46 306.413 110.134 302.487C109.9 306.008 111.741 309.811 115.503 310.162C111.758 312.365 110.473 316.408 110.124 320.487Z" fill="#FFB254"/>
<path fill-rule="evenodd" clip-rule="evenodd" d="M168.177 18.0833C168.255 15.1254 167.051 12.1757 164.411 10.3954C163.389 9.70604 162.178 9.45506 160.985 9.24646C165.831 9.08025 167.513 4.00903 168.187 0.083252C167.953 3.60419 169.794 7.40732 173.556 7.75826C169.811 9.96137 168.525 14.0041 168.177 18.0833Z" fill="#FFB254"/>
<path fill-rule="evenodd" clip-rule="evenodd" d="M540.504 173.28C540.763 163.489 536.777 153.724 528.038 147.831C524.654 145.549 520.645 144.718 516.697 144.028C532.736 143.477 538.305 126.69 540.537 113.694C539.762 125.35 545.855 137.939 558.308 139.101C545.912 146.394 541.657 159.777 540.504 173.28Z" fill="#FFB254"/>
<path fill-rule="evenodd" clip-rule="evenodd" d="M470.144 656.021C470.504 642.435 464.973 628.886 452.847 620.709C448.151 617.542 442.588 616.389 437.11 615.431C459.366 614.668 467.093 591.374 470.189 573.341C469.114 589.514 477.569 606.983 494.849 608.595C477.648 618.715 471.744 637.285 470.144 656.021Z" fill="#FFB254"/>
</svg>
