<svg width="19" height="19" viewBox="0 0 19 19" fill="none" xmlns="http://www.w3.org/2000/svg">
<path d="M18.8428 14.3011V17.8371C18.8429 18.0903 18.747 18.3341 18.5744 18.5193C18.4018 18.7045 18.1653 18.8174 17.9128 18.8351C17.4758 18.8651 17.1188 18.8811 16.8428 18.8811C8.00577 18.8811 0.842773 11.7181 0.842773 2.8811C0.842773 2.6051 0.857773 2.2481 0.888773 1.8111C0.906496 1.55855 1.01935 1.32211 1.20458 1.14951C1.3898 0.97691 1.6336 0.880989 1.88677 0.881104H5.42277C5.54681 0.880978 5.66647 0.926963 5.7585 1.01012C5.85053 1.09329 5.90837 1.20769 5.92077 1.3311C5.94377 1.5611 5.96477 1.7441 5.98477 1.8831C6.18351 3.27003 6.59078 4.61894 7.19277 5.8841C7.28777 6.0841 7.22577 6.3231 7.04577 6.4511L4.88777 7.9931C6.20723 11.0676 8.65732 13.5176 11.7318 14.8371L13.2718 12.6831C13.3347 12.5951 13.4266 12.532 13.5313 12.5048C13.636 12.4775 13.7469 12.4879 13.8448 12.5341C15.1098 13.135 16.4584 13.5412 17.8448 13.7391C17.9838 13.7591 18.1668 13.7811 18.3948 13.8031C18.518 13.8157 18.6322 13.8737 18.7151 13.9657C18.7981 14.0577 18.8439 14.1772 18.8438 14.3011H18.8428Z" fill="#4BAE4F"/>
</svg>
