<svg width="21" height="21" viewBox="0 0 21 21" fill="none" xmlns="http://www.w3.org/2000/svg">
<path d="M0.919636 6.56761L10.1666 1.02361C10.3221 0.930362 10.4999 0.881104 10.6811 0.881104C10.8624 0.881104 11.0402 0.930362 11.1956 1.02361L20.4336 6.56861C20.5078 6.61303 20.5691 6.67589 20.6117 6.75108C20.6543 6.82626 20.6767 6.9112 20.6766 6.99761V19.7136C20.6766 19.9788 20.5713 20.2332 20.3837 20.4207C20.1962 20.6083 19.9419 20.7136 19.6766 20.7136H1.67664C1.41142 20.7136 1.15707 20.6083 0.969529 20.4207C0.781993 20.2332 0.676636 19.9788 0.676636 19.7136V6.99661C0.676618 6.9102 0.698994 6.82526 0.741581 6.75008C0.784169 6.67489 0.845515 6.61203 0.919636 6.56761ZM17.0226 7.95761L10.7376 13.3966L4.32364 7.95161L3.02964 9.47561L10.7496 16.0306L18.3306 9.47061L17.0226 7.95761V7.95761Z" fill="#FE9A03"/>
</svg>
