<svg width="1001" height="45" viewBox="0 0 1001 45" fill="none" xmlns="http://www.w3.org/2000/svg">
<g clip-path="url(#clip0_1_120)">
<rect width="1018" height="45" fill="#232325"/>
<circle cx="37.8222" cy="23.6916" r="6.70427" fill="white" fill-opacity="0.25"/>
<circle cx="60.4772" cy="23.6916" r="6.70427" fill="white" fill-opacity="0.25"/>
<circle cx="83.1327" cy="23.6913" r="6.70427" fill="white" fill-opacity="0.25"/>
<path fill-rule="evenodd" clip-rule="evenodd" d="M117.012 16.7853C117.384 17.1579 117.384 17.762 117.012 18.1345L111.455 23.6914L117.012 29.2482C117.384 29.6208 117.384 30.2249 117.012 30.5974C116.639 30.97 116.035 30.97 115.662 30.5974L109.712 24.6466C109.453 24.3881 109.374 24.0181 109.474 23.6914C109.374 23.3646 109.453 22.9946 109.712 22.7361L115.662 16.7853C116.035 16.4127 116.639 16.4127 117.012 16.7853ZM128.782 16.7853C128.41 17.1579 128.41 17.762 128.782 18.1345L134.339 23.6914L128.782 29.2482C128.41 29.6208 128.41 30.2249 128.782 30.5974C129.155 30.97 129.759 30.97 130.132 30.5974L136.082 24.6466C136.341 24.3881 136.42 24.0181 136.32 23.6914C136.42 23.3646 136.341 22.9946 136.082 22.7361L130.132 16.7853C129.759 16.4127 129.155 16.4127 128.782 16.7853Z" fill="#D9D9D9" fill-opacity="0.25"/>
</g>
<defs>
<clipPath id="clip0_1_120">
<rect width="1018" height="45" fill="white"/>
</clipPath>
</defs>
</svg>
