<svg width="19" height="19" viewBox="0 0 19 19" fill="none" xmlns="http://www.w3.org/2000/svg">
<path d="M11.1528 18.281C9.83051 18.4876 8.47812 18.379 7.20573 17.964C5.93334 17.5491 4.77691 16.8396 3.83056 15.8933C2.88421 14.9469 2.1747 13.7905 1.75978 12.5181C1.34486 11.2457 1.23626 9.89332 1.44281 8.57102C0.921541 7.57953 0.731064 6.4473 0.899218 5.33983C1.06737 4.23236 1.58534 3.2077 2.37742 2.41563C3.16949 1.62355 4.19415 1.10558 5.30162 0.937426C6.40909 0.769272 7.54132 0.959749 8.53281 1.48102C9.85511 1.27447 11.2075 1.38307 12.4799 1.79799C13.7523 2.21291 14.9087 2.92242 15.8551 3.86877C16.8014 4.81511 17.5109 5.97155 17.9258 7.24394C18.3408 8.51633 18.4494 9.86872 18.2428 11.191C18.7641 12.1825 18.9546 13.3147 18.7864 14.4222C18.6182 15.5297 18.1003 16.5543 17.3082 17.3464C16.5161 18.1385 15.4915 18.6565 14.384 18.8246C13.2765 18.9928 12.1443 18.8023 11.1528 18.281V18.281ZM9.89481 15.037H9.85481C12.7268 15.037 14.1578 13.651 14.1578 11.794C14.1578 10.596 13.6068 9.32302 11.4318 8.83602L9.44881 8.39602C8.69381 8.22402 7.82681 7.99602 7.82681 7.28102C7.82681 6.56602 8.44681 6.06802 9.55081 6.06802C11.7808 6.06802 11.5778 7.59602 12.6818 7.59602C13.2578 7.59602 13.7748 7.25402 13.7748 6.66602C13.7748 5.29602 11.5778 4.26602 9.71881 4.26602C7.69781 4.26602 5.54581 5.12502 5.54581 7.41002C5.54581 8.50802 5.93981 9.68002 8.10581 10.223L10.7948 10.894C11.6108 11.096 11.8128 11.553 11.8128 11.966C11.8128 12.653 11.1288 13.324 9.89481 13.324C7.47781 13.324 7.81681 11.467 6.52081 11.467C5.94081 11.467 5.51781 11.865 5.51781 12.438C5.51781 13.552 6.86981 15.036 9.89481 15.036V15.037Z" fill="#139CFF"/>
</svg>
