<svg width="1920" height="970" viewBox="0 0 1920 970" fill="none" xmlns="http://www.w3.org/2000/svg">
<g clip-path="url(#clip0_44_194)">
<rect width="1920" height="970" fill="white"/>
<g filter="url(#filter0_f_44_194)">
<ellipse rx="402.573" ry="132.912" transform="matrix(1 0 0 -1 920.593 -28.8348)" fill="#F4EECF" fill-opacity="0.5"/>
<path d="M1322.67 -28.8348C1322.67 -46.9652 1311.54 -64.3187 1291.22 -80.176C1270.91 -96.0285 1241.5 -110.326 1205.1 -122.343C1132.31 -146.375 1031.72 -161.247 920.593 -161.247C809.464 -161.247 708.876 -146.375 636.087 -122.343C599.69 -110.326 570.272 -96.0285 549.963 -80.176C529.649 -64.3187 518.52 -46.9652 518.52 -28.8348C518.52 -10.7045 529.649 6.64904 549.963 22.5064C570.272 38.3589 599.69 52.6567 636.087 64.6733C708.876 88.7049 809.464 103.577 920.593 103.577C1031.72 103.577 1132.31 88.7049 1205.1 64.6733C1241.5 52.6567 1270.91 38.3589 1291.22 22.5064C1311.54 6.64904 1322.67 -10.7045 1322.67 -28.8348Z" stroke="black"/>
</g>
<circle cx="174.378" cy="901.121" r="35.146" fill="#FEF9C2"/>
<path d="M1724.6 261.059V255.434H1725.56V261.059H1724.6ZM1722.27 258.723V257.769H1727.89V258.723H1722.27Z" fill="#01CBAD"/>
<path d="M1724.6 278.713V273.088H1725.56V278.713H1724.6ZM1722.27 276.378V275.423H1727.89V276.378H1722.27Z" fill="#01CBAD"/>
<path d="M1724.6 296.368V290.743H1725.56V296.368H1724.6ZM1722.27 294.033V293.078H1727.89V294.033H1722.27Z" fill="#01CBAD"/>
<path d="M1724.6 314.023V308.398H1725.56V314.023H1724.6ZM1722.27 311.688V310.734H1727.89V311.688H1722.27Z" fill="#01CBAD"/>
<path d="M1724.6 331.678V326.053H1725.56V331.678H1724.6ZM1722.27 329.343V328.388H1727.89V329.343H1722.27Z" fill="#01CBAD"/>
<path d="M1743.74 261.059V255.434H1744.69V261.059H1743.74ZM1741.4 258.723V257.769H1747.03V258.723H1741.4Z" fill="#01CBAD"/>
<path d="M1743.74 278.713V273.088H1744.69V278.713H1743.74ZM1741.4 276.378V275.423H1747.03V276.378H1741.4Z" fill="#01CBAD"/>
<path d="M1743.74 296.368V290.743H1744.69V296.368H1743.74ZM1741.4 294.033V293.078H1747.03V294.033H1741.4Z" fill="#01CBAD"/>
<path d="M1743.74 314.023V308.398H1744.69V314.023H1743.74ZM1741.4 311.688V310.734H1747.03V311.688H1741.4Z" fill="#01CBAD"/>
<path d="M1743.74 331.678V326.053H1744.69V331.678H1743.74ZM1741.4 329.343V328.388H1747.03V329.343H1741.4Z" fill="#01CBAD"/>
<path d="M1762.88 261.059V255.434H1763.83V261.059H1762.88ZM1760.54 258.723V257.769H1766.17V258.723H1760.54Z" fill="#01CBAD"/>
<path d="M1762.88 278.713V273.088H1763.83V278.713H1762.88ZM1760.54 276.378V275.423H1766.17V276.378H1760.54Z" fill="#01CBAD"/>
<path d="M1762.88 296.368V290.743H1763.83V296.368H1762.88ZM1760.54 294.033V293.078H1766.17V294.033H1760.54Z" fill="#01CBAD"/>
<path d="M1762.88 314.023V308.398H1763.83V314.023H1762.88ZM1760.54 311.688V310.734H1766.17V311.688H1760.54Z" fill="#01CBAD"/>
<path d="M1762.88 331.678V326.053H1763.83V331.678H1762.88ZM1760.54 329.343V328.388H1766.17V329.343H1760.54Z" fill="#01CBAD"/>
<path d="M1783.48 261.059V255.434H1784.43V261.059H1783.48ZM1781.14 258.723V257.769H1786.77V258.723H1781.14Z" fill="#01CBAD"/>
<path d="M1783.48 278.713V273.088H1784.43V278.713H1783.48ZM1781.14 276.378V275.423H1786.77V276.378H1781.14Z" fill="#01CBAD"/>
<path d="M1783.48 296.368V290.743H1784.43V296.368H1783.48ZM1781.14 294.033V293.078H1786.77V294.033H1781.14Z" fill="#01CBAD"/>
<path d="M1783.48 314.023V308.398H1784.43V314.023H1783.48ZM1781.14 311.688V310.734H1786.77V311.688H1781.14Z" fill="#01CBAD"/>
<path d="M1783.48 331.678V326.053H1784.43V331.678H1783.48ZM1781.14 329.343V328.388H1786.77V329.343H1781.14Z" fill="#01CBAD"/>
<path d="M1803.1 261.059V255.434H1804.06V261.059H1803.1ZM1800.77 258.723V257.769H1806.39V258.723H1800.77Z" fill="#01CBAD"/>
<path d="M1803.1 278.713V273.088H1804.06V278.713H1803.1ZM1800.77 276.378V275.423H1806.39V276.378H1800.77Z" fill="#01CBAD"/>
<path d="M1803.1 296.368V290.743H1804.06V296.368H1803.1ZM1800.77 294.033V293.078H1806.39V294.033H1800.77Z" fill="#01CBAD"/>
<path d="M1803.1 314.023V308.398H1804.06V314.023H1803.1ZM1800.77 311.688V310.734H1806.39V311.688H1800.77Z" fill="#01CBAD"/>
<path d="M1803.1 331.678V326.053H1804.06V331.678H1803.1ZM1800.77 329.343V328.388H1806.39V329.343H1800.77Z" fill="#01CBAD"/>
<path d="M1822.73 261.059V255.434H1823.68V261.059H1822.73ZM1820.39 258.723V257.769H1826.02V258.723H1820.39Z" fill="#01CBAD"/>
<path d="M1822.73 278.713V273.088H1823.68V278.713H1822.73ZM1820.39 276.378V275.423H1826.02V276.378H1820.39Z" fill="#01CBAD"/>
<path d="M1822.73 296.368V290.743H1823.68V296.368H1822.73ZM1820.39 294.033V293.078H1826.02V294.033H1820.39Z" fill="#01CBAD"/>
<path d="M1822.73 314.023V308.398H1823.68V314.023H1822.73ZM1820.39 311.688V310.734H1826.02V311.688H1820.39Z" fill="#01CBAD"/>
<path d="M1822.73 331.678V326.053H1823.68V331.678H1822.73ZM1820.39 329.343V328.388H1826.02V329.343H1820.39Z" fill="#01CBAD"/>
<path d="M75.7766 871.6V865.975H76.7312V871.6H75.7766ZM73.4414 869.265V868.31H79.0664V869.265H73.4414Z" fill="#01CBAD"/>
<path d="M75.7766 889.254V883.629H76.7312V889.254H75.7766ZM73.4414 886.919V885.964H79.0664V886.919H73.4414Z" fill="#01CBAD"/>
<path d="M75.7766 906.909V901.284H76.7312V906.909H75.7766ZM73.4414 904.574V903.62H79.0664V904.574H73.4414Z" fill="#01CBAD"/>
<path d="M75.7766 924.565V918.94H76.7312V924.565H75.7766ZM73.4414 922.229V921.275H79.0664V922.229H73.4414Z" fill="#01CBAD"/>
<path d="M75.7766 942.219V936.594H76.7312V942.219H75.7766ZM73.4414 939.884V938.929H79.0664V939.884H73.4414Z" fill="#01CBAD"/>
<path d="M94.9124 871.6V865.975H95.8669V871.6H94.9124ZM92.5771 869.265V868.31H98.2021V869.265H92.5771Z" fill="#01CBAD"/>
<path d="M94.9124 889.254V883.629H95.8669V889.254H94.9124ZM92.5771 886.919V885.964H98.2021V886.919H92.5771Z" fill="#01CBAD"/>
<path d="M94.9124 906.909V901.284H95.8669V906.909H94.9124ZM92.5771 904.574V903.62H98.2021V904.574H92.5771Z" fill="#01CBAD"/>
<path d="M94.9124 924.565V918.94H95.8669V924.565H94.9124ZM92.5771 922.229V921.275H98.2021V922.229H92.5771Z" fill="#01CBAD"/>
<path d="M94.9124 942.219V936.594H95.8669V942.219H94.9124ZM92.5771 939.884V938.929H98.2021V939.884H92.5771Z" fill="#01CBAD"/>
<path d="M114.048 871.6V865.975H115.003V871.6H114.048ZM111.713 869.265V868.31H117.338V869.265H111.713Z" fill="#01CBAD"/>
<path d="M114.048 889.254V883.629H115.003V889.254H114.048ZM111.713 886.919V885.964H117.338V886.919H111.713Z" fill="#01CBAD"/>
<path d="M114.048 906.909V901.284H115.003V906.909H114.048ZM111.713 904.574V903.62H117.338V904.574H111.713Z" fill="#01CBAD"/>
<path d="M114.048 924.565V918.94H115.003V924.565H114.048ZM111.713 922.229V921.275H117.338V922.229H111.713Z" fill="#01CBAD"/>
<path d="M114.048 942.219V936.594H115.003V942.219H114.048ZM111.713 939.884V938.929H117.338V939.884H111.713Z" fill="#01CBAD"/>
<path d="M134.652 871.6V865.975H135.606V871.6H134.652ZM132.316 869.265V868.31H137.941V869.265H132.316Z" fill="#01CBAD"/>
<path d="M134.652 889.254V883.629H135.606V889.254H134.652ZM132.316 886.919V885.964H137.941V886.919H132.316Z" fill="#01CBAD"/>
<path d="M134.652 906.909V901.284H135.606V906.909H134.652ZM132.316 904.574V903.62H137.941V904.574H132.316Z" fill="#01CBAD"/>
<path d="M134.652 924.565V918.94H135.606V924.565H134.652ZM132.316 922.229V921.275H137.941V922.229H132.316Z" fill="#01CBAD"/>
<path d="M134.652 942.219V936.594H135.606V942.219H134.652ZM132.316 939.884V938.929H137.941V939.884H132.316Z" fill="#01CBAD"/>
<path d="M154.277 871.6V865.975H155.231V871.6H154.277ZM151.941 869.265V868.31H157.566V869.265H151.941Z" fill="#01CBAD"/>
<path d="M154.277 889.254V883.629H155.231V889.254H154.277ZM151.941 886.919V885.964H157.566V886.919H151.941Z" fill="#01CBAD"/>
<path d="M154.277 906.909V901.284H155.231V906.909H154.277ZM151.941 904.574V903.62H157.566V904.574H151.941Z" fill="#01CBAD"/>
<path d="M154.277 924.565V918.94H155.231V924.565H154.277ZM151.941 922.229V921.275H157.566V922.229H151.941Z" fill="#01CBAD"/>
<path d="M154.277 942.219V936.594H155.231V942.219H154.277ZM151.941 939.884V938.929H157.566V939.884H151.941Z" fill="#01CBAD"/>
<path d="M173.902 871.6V865.975H174.856V871.6H173.902ZM171.566 869.265V868.31H177.191V869.265H171.566Z" fill="#01CBAD"/>
<path d="M173.902 889.254V883.629H174.856V889.254H173.902ZM171.566 886.919V885.964H177.191V886.919H171.566Z" fill="#01CBAD"/>
<path d="M173.902 906.909V901.284H174.856V906.909H173.902ZM171.566 904.574V903.62H177.191V904.574H171.566Z" fill="#01CBAD"/>
<path d="M173.902 924.565V918.94H174.856V924.565H173.902ZM171.566 922.229V921.275H177.191V922.229H171.566Z" fill="#01CBAD"/>
<path d="M173.902 942.219V936.594H174.856V942.219H173.902ZM171.566 939.884V938.929H177.191V939.884H171.566Z" fill="#01CBAD"/>
<path fill-rule="evenodd" clip-rule="evenodd" d="M168.931 310.432C169.085 304.634 166.724 298.852 161.55 295.362C159.546 294.011 157.172 293.519 154.834 293.11C164.332 292.784 167.629 282.844 168.95 275.148C168.492 282.05 172.1 289.505 179.474 290.193C172.133 294.511 169.614 302.436 168.931 310.432Z" fill="#00CBAD"/>
<path fill-rule="evenodd" clip-rule="evenodd" d="M1595.72 811.615C1595.92 804.146 1592.88 796.697 1586.21 792.201C1583.63 790.46 1580.57 789.827 1577.56 789.3C1589.8 788.88 1594.04 776.074 1595.75 766.16C1595.15 775.052 1599.8 784.656 1609.3 785.542C1599.85 791.105 1596.6 801.314 1595.72 811.615Z" fill="#00CBAD"/>
<path fill-rule="evenodd" clip-rule="evenodd" d="M1681.64 212.715C1681.83 205.245 1678.79 197.797 1672.13 193.301C1669.54 191.56 1666.49 190.926 1663.47 190.399C1675.71 189.98 1679.96 177.173 1681.66 167.26C1681.07 176.151 1685.72 185.755 1695.22 186.641C1685.76 192.205 1682.52 202.414 1681.64 212.715Z" fill="#FBD118"/>
<path fill-rule="evenodd" clip-rule="evenodd" d="M136.08 351.593C136.192 347.374 134.475 343.167 130.709 340.628C129.251 339.645 127.524 339.287 125.823 338.99C132.734 338.753 135.133 331.52 136.094 325.921C135.76 330.943 138.386 336.367 143.751 336.867C138.41 340.009 136.577 345.775 136.08 351.593Z" fill="#FBD118"/>
<g filter="url(#filter1_f_44_194)">
<ellipse rx="293.471" ry="298.69" transform="matrix(1 0 0 -1 1574.67 200.126)" fill="#CFF4E5" fill-opacity="0.3"/>
</g>
<g filter="url(#filter2_f_44_194)">
<circle r="258.405" transform="matrix(1 0 0 -1 258.405 28.7515)" fill="#CFF4E5" fill-opacity="0.3"/>
</g>
</g>
<defs>
<filter id="filter0_f_44_194" x="118.02" y="-561.747" width="1605.15" height="1065.82" filterUnits="userSpaceOnUse" color-interpolation-filters="sRGB">
<feFlood flood-opacity="0" result="BackgroundImageFix"/>
<feBlend mode="normal" in="SourceGraphic" in2="BackgroundImageFix" result="shape"/>
<feGaussianBlur stdDeviation="200" result="effect1_foregroundBlur_44_194"/>
</filter>
<filter id="filter1_f_44_194" x="881.195" y="-498.564" width="1386.94" height="1397.38" filterUnits="userSpaceOnUse" color-interpolation-filters="sRGB">
<feFlood flood-opacity="0" result="BackgroundImageFix"/>
<feBlend mode="normal" in="SourceGraphic" in2="BackgroundImageFix" result="shape"/>
<feGaussianBlur stdDeviation="200" result="effect1_foregroundBlur_44_194"/>
</filter>
<filter id="filter2_f_44_194" x="-400" y="-629.653" width="1316.81" height="1316.81" filterUnits="userSpaceOnUse" color-interpolation-filters="sRGB">
<feFlood flood-opacity="0" result="BackgroundImageFix"/>
<feBlend mode="normal" in="SourceGraphic" in2="BackgroundImageFix" result="shape"/>
<feGaussianBlur stdDeviation="200" result="effect1_foregroundBlur_44_194"/>
</filter>
<clipPath id="clip0_44_194">
<rect width="1920" height="970" fill="white"/>
</clipPath>
</defs>
</svg>
