<svg width="17" height="16" viewBox="0 0 17 16" fill="none" xmlns="http://www.w3.org/2000/svg">
<path d="M5.01327 0.267774C5.20619 0.327318 5.40292 0.375907 5.56821 0.502618C5.88117 0.743178 6.05027 1.05805 6.06742 1.45247C6.08743 1.90834 6.10696 2.36374 6.17365 2.8158C6.24938 3.32693 6.39467 3.82139 6.52757 4.31918C6.63903 4.73647 6.529 5.10278 6.26415 5.44147C5.82591 6.00167 5.40435 6.5752 4.9723 7.14016C4.928 7.1978 4.94801 7.234 4.97468 7.28449C5.89927 9.04415 7.22208 10.4146 8.96694 11.374C9.27942 11.5455 9.27704 11.5512 9.56047 11.3359C10.083 10.9386 10.6032 10.538 11.1272 10.1436C11.4258 9.91874 11.764 9.85872 12.1237 9.94827C12.5357 10.0512 12.9397 10.1845 13.3593 10.2598C13.8785 10.3532 14.4016 10.3994 14.9289 10.4103C15.5548 10.4237 15.9959 10.7486 16.1626 11.3154C16.1998 11.4412 16.2093 11.5712 16.2093 11.7017C16.2093 12.5944 16.2103 13.4871 16.2093 14.3798C16.2083 15.1672 15.6772 15.6841 14.8913 15.6755C12.7768 15.6526 10.7613 15.1958 8.85643 14.2774C7.04536 13.4042 5.4839 12.1995 4.18252 10.6642C2.65917 8.86742 1.63836 6.81909 1.1301 4.51734C0.965279 3.77232 0.863344 3.01873 0.825712 2.25656C0.792844 2.07554 0.84143 1.89119 0.799988 1.71066V1.25907C0.853339 0.896088 1.04673 0.626947 1.34779 0.424972C1.4845 0.333035 1.63741 0.298738 1.79317 0.265869H5.01374L5.01327 0.267774Z" fill="black"/>
</svg>
