<svg width="70" height="70" viewBox="0 0 70 70" fill="none" xmlns="http://www.w3.org/2000/svg">
<circle cx="35" cy="35" r="35" fill="#00C39E"/>
<path d="M46.5003 24.8173C46.4861 22.5591 44.7818 20.869 42.5188 20.8548C42.0312 20.85 41.5388 20.8406 41.0512 20.8548C40.8429 20.8642 40.786 20.7932 40.7908 20.5896C40.805 20.1683 40.7718 19.7422 40.8003 19.3209C40.8429 18.6723 40.5777 18.2367 39.9765 18H39.4463C38.8119 18.2036 38.5846 18.5018 38.5468 19.1883C38.5373 19.3067 38.542 19.4297 38.5373 19.5528C38.5373 19.8322 38.5325 20.1067 38.542 20.3861C38.5515 20.6512 38.4521 20.7885 38.1775 20.7648C38.097 20.7601 38.0212 20.7648 37.9408 20.7648H26.5738C26.4886 20.7648 26.3986 20.7601 26.3087 20.7648C26.0388 20.7837 25.9252 20.6607 25.93 20.3908C25.9347 19.9837 25.9347 19.5718 25.93 19.1599C25.9205 18.4876 25.6601 18.1562 25.0257 18H24.4907C23.8753 18.2746 23.6575 18.7622 23.7001 19.4155C23.7285 19.8038 23.6907 20.1967 23.7143 20.5849C23.7238 20.8169 23.6386 20.8642 23.4255 20.8548C22.9616 20.8406 22.4929 20.85 22.0242 20.8548C19.7091 20.8642 18.0143 22.5638 18.0143 24.8836C18.0143 30.2333 18.0427 35.5878 18.0001 40.9375C17.9859 43.2573 19.8086 45.1083 22.1141 45.061C24.718 45.0089 27.3218 45.0515 29.9257 45.0515C30.0251 45.0515 30.1245 45.0515 30.2239 45.0421C30.7447 44.9995 31.1518 44.5734 31.1803 44.0573C31.2134 43.3851 30.7352 42.9164 29.9967 42.9164C27.3739 42.9117 24.7464 42.9164 22.1189 42.9116C20.869 42.9116 20.1542 42.1968 20.1494 40.9564C20.1494 36.9844 20.1542 33.0123 20.1447 29.0403C20.1447 28.7231 20.2347 28.671 20.5234 28.671C28.335 28.6805 36.1465 28.6805 43.958 28.6805C43.9911 28.6805 44.0243 28.6852 44.0574 28.6757C44.2941 28.6379 44.3888 28.7136 44.3746 28.9787C44.3509 29.4427 44.3651 29.9114 44.3746 30.3801C44.3746 30.5221 44.3746 30.6641 44.4267 30.8062C44.5971 31.2843 45.0942 31.592 45.5771 31.5163C46.1405 31.4216 46.505 31.0003 46.505 30.3895C46.505 28.529 46.5192 26.6732 46.505 24.8173H46.5003ZM44.3699 26.3512C44.3699 26.4933 44.332 26.5595 44.1853 26.5453C44.1048 26.5359 44.029 26.5406 43.9485 26.5406H32.2691C28.3444 26.5406 24.415 26.5406 20.4903 26.5501C20.2204 26.5501 20.1258 26.498 20.1447 26.2139C20.1731 25.7263 20.1447 25.2339 20.1542 24.7463C20.1684 23.7853 20.9022 23.0278 21.8538 22.9946C22.3982 22.9757 22.9426 22.9946 23.4918 22.9852C23.6717 22.9804 23.7143 23.0372 23.7096 23.2124C23.7001 23.6906 23.7049 24.1687 23.7096 24.6469C23.7143 25.3523 24.1546 25.8257 24.789 25.821C25.4139 25.8163 25.8353 25.357 25.84 24.6611C25.8447 24.2161 25.8589 23.7711 25.8353 23.326C25.8211 23.042 25.9158 22.9804 26.1856 22.9804C30.0251 22.9899 33.8598 22.9852 37.6993 22.9899C38.007 22.9899 38.4142 22.8905 38.5988 23.042C38.7929 23.2077 38.6462 23.629 38.6556 23.9368C38.6698 24.1877 38.6556 24.4481 38.6604 24.7037C38.6746 25.357 39.1243 25.821 39.7303 25.821C40.3363 25.821 40.7861 25.3665 40.7955 24.7037C40.8003 24.2255 40.805 23.7474 40.7908 23.2692C40.786 23.0657 40.8287 22.971 41.0606 22.9804C41.5625 22.9994 42.0643 22.9804 42.5614 22.9899C43.5603 23.0041 44.2941 23.6858 44.3557 24.6848C44.3888 25.2387 44.3604 25.7973 44.3699 26.3512V26.3512Z" fill="white"/>
<path d="M52.0725 41.4298C51.2582 36.2269 46.0789 32.7141 40.947 33.8834C36.1654 34.9723 33.0597 39.4841 33.7793 44.3035C34.5036 49.1467 38.9633 52.6169 43.8396 52.1245C47.8069 51.7268 51.0167 48.9052 51.9541 45.0137C52.0441 44.6444 52.0393 44.2515 52.1956 43.8964V42.0311C52.0677 41.8465 52.1056 41.6287 52.0725 41.4298V41.4298ZM42.9353 50.0415C39.0012 50.032 35.8198 46.8458 35.8245 42.9117C35.8292 38.9728 39.0154 35.7961 42.9543 35.8055C46.8884 35.815 50.0699 39.0106 50.0604 42.9448C50.0462 46.8553 46.8411 50.0462 42.9353 50.0415V50.0415Z" fill="white"/>
<path d="M46.3866 44.8622C46.879 45.3546 46.9074 45.9842 46.4718 46.434C46.0268 46.8885 45.3782 46.8648 44.8764 46.363C44.2941 45.7854 43.707 45.2031 43.1342 44.616C42.9921 44.4693 42.9117 44.4456 42.7554 44.6066C42.1826 45.1983 41.5955 45.7759 41.0132 46.3535C40.5019 46.8601 39.8675 46.8932 39.4178 46.4387C38.9728 45.9937 39.0059 45.3498 39.503 44.848C40.0758 44.2704 40.6439 43.6928 41.2263 43.1295C41.392 42.9685 41.4062 42.8833 41.2357 42.7176C40.6203 42.1211 40.0143 41.5151 39.4178 40.9044C39.0864 40.5682 39.0106 40.1611 39.1905 39.735C39.361 39.3184 39.6971 39.1006 40.1516 39.0864C40.4877 39.0722 40.7481 39.219 40.9801 39.4462C41.5671 40.038 42.1636 40.6203 42.746 41.2216C42.8974 41.3778 42.9779 41.3825 43.1294 41.2263C43.7023 40.6345 44.2893 40.0569 44.8716 39.4746C45.3687 38.9823 46.0268 38.9539 46.4671 39.4036C46.9074 39.8486 46.879 40.483 46.3961 40.9754C45.809 41.5672 45.222 42.1589 44.6255 42.7413C44.4834 42.8738 44.4598 42.9448 44.616 43.0963C45.2172 43.6739 45.7995 44.2704 46.3866 44.8622V44.8622Z" fill="white"/>
</svg>
