<svg width="84" height="84" viewBox="0 0 84 84" fill="none" xmlns="http://www.w3.org/2000/svg">
<path d="M77.9953 43.9241C77.8628 43.9241 77.7341 43.8874 77.6226 43.8165C77.511 43.7456 77.4218 43.6459 77.364 43.5264C77.3063 43.407 77.2839 43.2744 77.2997 43.1432C77.3154 43.0119 77.3666 42.8886 77.4493 42.7849L79.3564 40.4132L75.2128 42.8059C75.0658 42.8899 74.8926 42.9174 74.7259 42.8833C74.5592 42.8492 74.4109 42.756 74.3085 42.6208C74.2061 42.4856 74.1563 42.3176 74.1668 42.1496C74.1773 41.9816 74.2508 41.8215 74.3715 41.7021L77.6042 38.5009L74.4083 40.3462C74.2613 40.4303 74.0893 40.4591 73.9226 40.4263C73.7559 40.3935 73.6076 40.3016 73.5039 40.1664C73.4003 40.0312 73.3491 39.8646 73.3596 39.6952C73.3701 39.5259 73.4423 39.3671 73.5604 39.2464L77.1304 35.637L74.1628 37.3524C74.0171 37.4377 73.8452 37.4666 73.6785 37.4364C73.5118 37.4062 73.3635 37.3144 73.2585 37.1805C73.1535 37.0466 73.101 36.8813 73.1102 36.7119C73.1194 36.5426 73.1876 36.3825 73.3058 36.2617L76.7196 32.6996L73.4738 34.5804C73.3228 34.6671 73.1456 34.6959 72.9763 34.6592C72.807 34.6224 72.6561 34.524 72.555 34.3836C72.4539 34.2431 72.408 34.0686 72.4277 33.8953C72.4474 33.7221 72.5301 33.5633 72.6613 33.4491L74.2862 32.0132L73.0262 32.7442C72.8753 32.8322 72.6968 32.8611 72.5261 32.8243C72.3555 32.7876 72.2046 32.6878 72.1035 32.5461C72.0024 32.4043 71.9578 32.2284 71.9788 32.0552C71.9998 31.8819 72.0851 31.7231 72.2177 31.6089L73.3727 30.6036L72.4119 31.164C72.2597 31.2519 72.0812 31.2808 71.9093 31.2428C71.7373 31.2047 71.5864 31.1049 71.4853 30.9606C71.3843 30.8162 71.3409 30.6403 71.3646 30.4657C71.3882 30.2912 71.4748 30.1324 71.61 30.0208L72.114 29.6008L71.82 29.7714C71.6691 29.8594 71.4893 29.8883 71.3173 29.8502C71.1454 29.8121 70.9944 29.7124 70.8947 29.568C70.7949 29.4236 70.7503 29.2478 70.7739 29.0745C70.7976 28.9013 70.8842 28.7411 71.0194 28.6296L71.6349 28.1098L71.2149 28.3513C71.0653 28.4327 70.8921 28.4576 70.7267 28.4209C70.5613 28.3841 70.413 28.2883 70.3133 28.1505C70.2135 28.0127 70.1649 27.8447 70.1807 27.6754C70.1964 27.5061 70.2713 27.3486 70.3946 27.2304L71.8449 25.9166L70.3461 26.7829C70.2017 26.8656 70.0337 26.8958 69.8696 26.8656C69.7056 26.8354 69.5586 26.7487 69.4536 26.6201C69.3486 26.4915 69.2921 26.3301 69.2961 26.1634C69.3 25.9967 69.3617 25.8379 69.4719 25.7132L72.3726 22.4332L68.8944 24.4414C68.7474 24.5254 68.5742 24.5529 68.4075 24.5188C68.2408 24.4847 68.0925 24.3915 67.9901 24.2563C67.8878 24.1211 67.8379 23.9531 67.8497 23.7838C67.8615 23.6145 67.9337 23.4557 68.0544 23.3363L70.2083 21.2153L67.6095 22.7141C67.4599 22.8007 67.284 22.8296 67.116 22.7942C66.948 22.7588 66.7971 22.6629 66.6947 22.5238C66.5923 22.3847 66.5451 22.2141 66.5608 22.0421C66.5766 21.8702 66.6566 21.7114 66.7826 21.5946L68.292 20.1941L66.3836 21.2979C66.2314 21.3872 66.0516 21.4161 65.8796 21.378C65.7077 21.3399 65.5554 21.2389 65.4544 21.0945C65.3533 20.9501 65.3113 20.7729 65.3349 20.5984C65.3586 20.4238 65.4478 20.265 65.5843 20.1534L65.6946 20.0629L65.4386 20.2099C65.2916 20.2939 65.121 20.3214 64.9556 20.2886C64.7903 20.2558 64.6419 20.1639 64.5396 20.0314C64.4372 19.8988 64.3847 19.7321 64.3939 19.5641C64.4031 19.3961 64.4726 19.236 64.5894 19.1153L67.0018 16.6478C66.8417 16.6701 66.6776 16.6359 66.5398 16.5506C66.402 16.4653 66.297 16.3354 66.2445 16.1818C66.192 16.0283 66.1933 15.8616 66.2511 15.7093C66.3088 15.5571 66.4151 15.4298 66.5556 15.3484L70.5902 13.0187C70.7359 12.9347 70.9078 12.9071 71.0732 12.9399C71.2386 12.9728 71.3869 13.0646 71.4893 13.1972C71.5916 13.3298 71.6441 13.4964 71.6349 13.6644C71.6258 13.8324 71.5562 13.9926 71.4394 14.1133L69.1569 16.4299L72.0786 14.7499C72.2308 14.6606 72.4106 14.6331 72.5826 14.6698C72.7545 14.7066 72.9054 14.8089 73.0065 14.9533C73.1076 15.0977 73.1496 15.2749 73.1259 15.4481C73.1023 15.6214 73.0144 15.7815 72.8779 15.8931L72.7637 15.9889L73.017 15.8419C73.1666 15.7552 73.3425 15.7264 73.5105 15.7618C73.6785 15.7973 73.8294 15.8931 73.9318 16.0322C74.0342 16.1713 74.0814 16.3432 74.0657 16.5139C74.0499 16.6845 73.9699 16.8446 73.8439 16.9614L72.3358 18.354L74.2324 17.2594C74.3794 17.1754 74.5526 17.1478 74.7193 17.1819C74.886 17.2161 75.0343 17.3093 75.1367 17.4444C75.2391 17.5796 75.2889 17.7476 75.2784 17.9169C75.2679 18.0863 75.1944 18.2451 75.0737 18.3645L72.9225 20.4881L75.3939 19.0614C75.5383 18.9788 75.7063 18.9486 75.8704 18.9788C76.0344 19.0089 76.1814 19.0956 76.2864 19.2242C76.3914 19.3528 76.4479 19.5143 76.4439 19.6809C76.44 19.8476 76.3783 20.0064 76.2681 20.1311L73.3596 23.4045L76.839 21.3951C76.9886 21.3137 77.1619 21.2887 77.3273 21.3255C77.4926 21.3622 77.6409 21.4581 77.7407 21.5959C77.8404 21.7337 77.8877 21.9017 77.8733 22.071C77.8588 22.2403 77.7827 22.3991 77.6593 22.5159L76.2064 23.8298L77.7591 22.9333C77.91 22.8454 78.0898 22.8165 78.2618 22.8546C78.4337 22.8926 78.5846 22.9924 78.6857 23.1368C78.7868 23.2811 78.8301 23.457 78.8064 23.6302C78.7828 23.8035 78.6949 23.9636 78.561 24.0752L77.9468 24.5949L78.3668 24.3547C78.519 24.2655 78.6988 24.2379 78.8708 24.2747C79.0427 24.3114 79.1936 24.4138 79.2947 24.5569C79.3958 24.6999 79.4378 24.8784 79.4141 25.0517C79.3905 25.2249 79.3026 25.3851 79.1661 25.4966L78.6634 25.9166L78.9613 25.7591C79.1123 25.6712 79.2908 25.6423 79.4614 25.6791C79.632 25.7158 79.7829 25.8156 79.884 25.9573C79.9851 26.0991 80.0297 26.2749 80.0087 26.4482C79.9877 26.6214 79.9024 26.7802 79.7698 26.8944L78.6135 27.8985L79.6189 27.3184C79.7685 27.2331 79.9457 27.2055 80.115 27.2423C80.2843 27.279 80.4326 27.3774 80.5337 27.5166C80.6348 27.6557 80.6807 27.8289 80.661 28.0009C80.6413 28.1728 80.5613 28.3316 80.4313 28.4471L78.8091 29.883L80.2633 29.043C80.409 28.9603 80.5796 28.9314 80.745 28.9643C80.9104 28.9971 81.0574 29.0863 81.1611 29.2189C81.2648 29.3514 81.3173 29.5155 81.3094 29.6835C81.3015 29.8515 81.2333 30.0103 81.1178 30.1324L77.7 33.6971L80.9393 31.8255C81.0863 31.7402 81.2595 31.71 81.4262 31.7428C81.5929 31.7756 81.7425 31.8675 81.8462 32.0027C81.9499 32.1379 82.0011 32.3046 81.9906 32.4752C81.9801 32.6458 81.9079 32.8046 81.7871 32.9254L78.2184 36.5413L81.6178 34.5817C81.7648 34.4991 81.9368 34.4715 82.1021 34.5056C82.2675 34.5398 82.4145 34.6329 82.5169 34.7668C82.6193 34.9007 82.6691 35.0674 82.6586 35.2367C82.6481 35.406 82.5759 35.5635 82.4565 35.6842L79.2225 38.8815L81.8829 37.3419C82.0247 37.2606 82.1901 37.2304 82.3502 37.2579C82.5103 37.2855 82.6573 37.3682 82.7636 37.4916C82.8699 37.6149 82.9303 37.7724 82.9329 37.9365C82.9356 38.1006 82.8804 38.2581 82.7794 38.3867L80.8723 40.7584L82.1139 40.0417C82.194 39.9945 82.2819 39.9643 82.3738 39.9525C82.4657 39.9407 82.5589 39.9459 82.6481 39.9696C82.7374 39.9932 82.8214 40.0339 82.8949 40.0903C82.9684 40.1467 83.0301 40.2163 83.076 40.2964C83.1219 40.3764 83.1521 40.4644 83.1639 40.5562C83.1758 40.6481 83.1692 40.7413 83.1456 40.8306C83.1219 40.9198 83.0799 41.0025 83.0235 41.076C82.9671 41.1495 82.8962 41.2099 82.8161 41.2558L78.3366 43.8414C78.2326 43.899 78.1154 43.9284 77.9966 43.9267L77.9953 43.9241Z" fill="#FFDD62"/>
<path d="M64.5081 19.6626C64.3676 19.6626 64.2298 19.6206 64.1143 19.5418C63.9988 19.4631 63.9083 19.3502 63.8571 19.2202C63.8059 19.0903 63.7941 18.9459 63.8256 18.8094C63.8571 18.6729 63.9279 18.5482 64.0316 18.4524L65.6762 16.9207L63.3399 18.2687C63.1956 18.3514 63.0276 18.3789 62.8635 18.3487C62.6994 18.3186 62.5538 18.2306 62.4488 18.102C62.3438 17.9734 62.2886 17.8119 62.2926 17.6452C62.2965 17.4786 62.3582 17.3197 62.4685 17.1964L65.1289 14.2249L61.2084 16.4863C61.0575 16.5769 60.8777 16.6071 60.7058 16.5703C60.5338 16.5336 60.3803 16.4338 60.2792 16.2907C60.1781 16.1477 60.1335 15.9705 60.1558 15.7959C60.1781 15.6214 60.2661 15.4612 60.4013 15.3484L61.1612 14.6961L59.6912 15.5466C59.5429 15.6371 59.3657 15.6699 59.1951 15.6371C59.0244 15.6043 58.8722 15.5098 58.7672 15.3707C58.6622 15.2316 58.6136 15.0596 58.6281 14.8864C58.6425 14.7131 58.7226 14.5517 58.8512 14.4349L60.8409 12.5278L57.7224 14.3286C57.5781 14.4126 57.4074 14.4427 57.2434 14.4112C57.0793 14.3797 56.931 14.2918 56.826 14.1619C56.721 14.0319 56.6672 13.8679 56.6724 13.6999C56.6777 13.5319 56.7433 13.3731 56.8575 13.2497L59.5534 10.3097L54.8822 13.0095C54.7299 13.0987 54.5501 13.1276 54.3782 13.0896C54.2063 13.0515 54.054 12.9504 53.9529 12.8061C53.8519 12.6617 53.8099 12.4845 53.8335 12.3099C53.8571 12.1354 53.9477 11.9766 54.0842 11.865L54.8533 11.2258L53.0828 12.2496C52.9384 12.3336 52.7691 12.3637 52.6037 12.3336C52.4383 12.3034 52.2913 12.2154 52.1863 12.0855C52.0813 11.9556 52.0262 11.7915 52.0314 11.6248C52.0367 11.4581 52.101 11.298 52.2139 11.1746L55.1644 7.91043L49.3959 11.2442C49.2463 11.3308 49.0678 11.3597 48.8985 11.3229C48.7292 11.2862 48.5783 11.1877 48.4772 11.0473C48.3761 10.9069 48.3302 10.7323 48.3499 10.5604C48.3696 10.3884 48.4523 10.2283 48.5835 10.1141L50.7189 8.22675L46.4192 10.7074C46.2696 10.7927 46.095 10.8202 45.927 10.7848C45.759 10.7494 45.6094 10.6536 45.5083 10.5144C45.4073 10.3753 45.3587 10.2047 45.3744 10.0341C45.3902 9.86343 45.4689 9.70331 45.5949 9.5865L48.4877 6.91556L42.4436 10.4042C42.2953 10.4921 42.1208 10.5223 41.9514 10.4895C41.7821 10.4567 41.6325 10.3622 41.5275 10.2257C41.4225 10.0892 41.3739 9.91856 41.3871 9.74662C41.4002 9.57469 41.4776 9.41456 41.6023 9.29644L45.2773 5.74875L41.5538 7.89862C41.4041 7.98656 41.2283 8.01543 41.0589 7.98131C40.8896 7.94718 40.7387 7.85006 40.635 7.71093C40.5313 7.57181 40.4841 7.39987 40.5011 7.22662C40.5182 7.05337 40.5983 6.89456 40.7256 6.77775L42.1089 5.49281L41.034 6.11362C40.9041 6.18975 40.7531 6.22125 40.6035 6.20419C40.4539 6.18712 40.3134 6.12281 40.2032 6.02043C40.0929 5.91806 40.0194 5.78156 39.9919 5.63325C39.9643 5.48493 39.9866 5.33268 40.0536 5.1975L41.3963 2.47406C41.3411 2.42681 41.2926 2.36906 41.2558 2.30606C41.1626 2.14593 41.1377 1.95431 41.1849 1.77581C41.2322 1.59731 41.3503 1.44375 41.5104 1.35056L42.3045 0.891185C42.4344 0.81506 42.5854 0.78356 42.735 0.800622C42.8846 0.817685 43.0251 0.881997 43.1353 0.984372C43.2456 1.08675 43.3191 1.22325 43.3466 1.37156C43.3742 1.51987 43.3519 1.67212 43.2849 1.80731L42.3268 3.74718L46.7631 1.1865C46.9127 1.09856 47.0886 1.06968 47.2579 1.10381C47.4272 1.13793 47.5781 1.23506 47.6805 1.37418C47.7829 1.51331 47.8314 1.68525 47.8144 1.8585C47.7973 2.03175 47.7173 2.19056 47.5899 2.30737L46.2026 3.59362L49.4944 1.68C49.6427 1.59075 49.8186 1.55925 49.9879 1.59206C50.1572 1.62487 50.3094 1.71937 50.4131 1.85718C50.5168 1.995 50.5667 2.16693 50.5523 2.33887C50.5378 2.51081 50.4591 2.67225 50.3344 2.79037L46.6594 6.342L53.2193 2.562C53.3689 2.47668 53.5434 2.44912 53.7114 2.48456C53.8794 2.52 54.0291 2.61581 54.1301 2.75493C54.2312 2.89406 54.2798 3.06468 54.264 3.23531C54.2483 3.40593 54.1695 3.56606 54.0435 3.68287L51.1508 6.34725L56.028 3.53062C56.1776 3.44268 56.3561 3.4125 56.5268 3.44925C56.6974 3.486 56.8483 3.58312 56.9507 3.72487C57.0531 3.86662 57.0977 4.04118 57.078 4.21443C57.0583 4.38768 56.9743 4.54781 56.8418 4.662L54.7076 6.54937L58.3236 4.4625C58.4679 4.37981 58.6373 4.35093 58.8013 4.38112C58.9654 4.41131 59.1124 4.49925 59.2174 4.62918C59.3224 4.75912 59.3775 4.92187 59.3723 5.08856C59.367 5.25525 59.304 5.41406 59.1924 5.53875L56.2367 8.80556L61.2308 5.922C61.383 5.83275 61.5628 5.80518 61.7334 5.84194C61.9041 5.87868 62.0563 5.98106 62.1574 6.12412C62.2584 6.26718 62.3004 6.44568 62.2768 6.61894C62.2532 6.79218 62.1653 6.95231 62.0288 7.06387L61.2623 7.69912L62.7926 6.81581C62.937 6.73181 63.1076 6.70162 63.273 6.73312C63.4384 6.76462 63.5854 6.85256 63.6904 6.9825C63.7954 7.11243 63.8492 7.2765 63.844 7.4445C63.8387 7.6125 63.7731 7.77131 63.6589 7.89468L60.963 10.8347L65.163 8.41181C65.3113 8.32125 65.4885 8.28843 65.6591 8.32125C65.8298 8.35406 65.982 8.44856 66.087 8.58637C66.192 8.72418 66.2406 8.89743 66.2261 9.07068C66.2117 9.24393 66.1316 9.40537 66.003 9.52219L64.0146 11.4279L66.9664 9.72431C67.1173 9.63768 67.2958 9.61012 67.4651 9.64687C67.6344 9.68362 67.7854 9.78337 67.8864 9.92512C67.9875 10.0669 68.0321 10.2414 68.0098 10.4147C67.9875 10.5879 67.9035 10.7467 67.7723 10.8596L67.0123 11.5119L68.2264 10.8124C68.3708 10.7297 68.5401 10.6995 68.7041 10.731C68.8682 10.7625 69.0152 10.8491 69.1202 10.9777C69.2252 11.1064 69.2803 11.2691 69.2764 11.4358C69.2724 11.6025 69.2094 11.7613 69.0979 11.886L66.4374 14.8549L70.3146 12.6144C70.4642 12.5265 70.6401 12.4976 70.8094 12.5317C70.9787 12.5659 71.1296 12.663 71.232 12.8021C71.3344 12.9412 71.3829 13.1132 71.3659 13.2864C71.3488 13.4597 71.2688 13.6185 71.1414 13.7353L66.4217 18.1309C66.4466 18.2726 66.4269 18.417 66.3653 18.5469C66.3036 18.6769 66.2051 18.7845 66.0804 18.8567L64.8624 19.5562C64.7561 19.6219 64.6328 19.6573 64.5068 19.6599L64.5081 19.6626Z" fill="#FFDD62"/>
<path d="M29.82 12.9517C29.6661 12.9506 29.5168 12.8993 29.3946 12.8058C29.2725 12.7123 29.184 12.5815 29.1427 12.4333C29.1024 12.2846 29.1125 12.1267 29.1716 11.9844C29.2307 11.8427 29.3344 11.7232 29.4682 11.6458L41.622 4.62918C41.7605 4.54818 41.9228 4.51758 42.0814 4.54256C42.2402 4.56749 42.3859 4.64493 42.4935 4.76437C42.6015 4.88324 42.665 5.0358 42.6733 5.19618C42.6812 5.35631 42.6352 5.51512 42.5407 5.64506L40.9841 7.80674L41.6364 7.43006C41.7157 7.38316 41.8037 7.3528 41.895 7.34081C41.9855 7.32899 42.0787 7.33424 42.1693 7.35787C42.2599 7.38149 42.3426 7.42218 42.4161 7.47862C42.4895 7.5346 42.5511 7.60465 42.5972 7.68468C42.6431 7.76474 42.6733 7.85268 42.6851 7.94456C42.7081 8.1291 42.6577 8.3153 42.5447 8.46299C42.4882 8.53611 42.4177 8.59724 42.3373 8.64281L38.8644 10.6496C38.7253 10.7336 38.5626 10.7664 38.4024 10.7441C38.2423 10.7218 38.094 10.6431 37.9851 10.5223C37.8762 10.4022 37.8118 10.2484 37.8026 10.0866C37.7934 9.92512 37.842 9.76499 37.9391 9.63506L39.4971 7.47206L30.1704 12.8612C30.0641 12.9229 29.9421 12.9557 29.8187 12.9544L29.82 12.9517ZM4.15143 43.5855C4.00968 43.5855 3.87186 43.5435 3.75505 43.4634C3.63819 43.3836 3.54845 43.2701 3.4978 43.1379C3.44661 43.0054 3.43743 42.861 3.47024 42.7232C3.50273 42.5855 3.57644 42.4609 3.68155 42.3662L4.79061 41.3621L2.32836 42.7849C2.1748 42.8781 1.98974 42.9096 1.81386 42.8702C1.63799 42.8308 1.48311 42.7258 1.38336 42.5762C1.28361 42.4266 1.24424 42.2441 1.27574 42.0656C1.30724 41.8871 1.40568 41.7296 1.55005 41.622L1.77318 41.4527C1.61625 41.5129 1.44281 41.5143 1.28493 41.4566C1.12709 41.3987 0.994979 41.2866 0.912176 41.1403C0.829637 40.9937 0.803057 40.8221 0.837363 40.6573C0.871488 40.4919 0.963363 40.3449 1.09593 40.2426L2.25093 39.3527L2.00286 39.4931C1.85273 39.5716 1.67913 39.5926 1.51461 39.5522C1.35055 39.5115 1.20486 39.4144 1.10774 39.2752C1.01056 39.1364 0.966327 38.9674 0.983051 38.7988C1.00055 38.6303 1.07896 38.4739 1.20355 38.3591L5.44293 34.818L2.25355 36.6529C2.09999 36.7434 1.91886 36.771 1.7443 36.7329C1.57034 36.6946 1.41769 36.5911 1.31782 36.4436C1.21795 36.2961 1.17846 36.1159 1.20749 35.9402C1.23636 35.7643 1.32955 35.6055 1.46999 35.4966L5.66999 32.1733L2.83236 33.8113C2.67897 33.8993 2.49782 33.9256 2.32574 33.8848C2.1538 33.8441 2.00286 33.7404 1.90443 33.5934C1.80599 33.4464 1.76661 33.2679 1.79418 33.0934C1.82174 32.9188 1.91493 32.7613 2.05405 32.6524L8.01674 28.0324L3.69074 30.5301C3.53455 30.6232 3.34818 30.6508 3.17099 30.6088C2.99406 30.5671 2.84047 30.4578 2.74311 30.3043C2.64604 30.1506 2.61173 29.9655 2.6473 29.7872C2.68274 29.6087 2.78774 29.4525 2.93868 29.3501L8.24249 25.6371L4.67511 27.6964C4.51775 27.7882 4.33066 27.8145 4.15405 27.7699C3.97818 27.7252 3.82461 27.6137 3.7288 27.4588C3.63278 27.3042 3.60121 27.118 3.64086 26.9404C3.68024 26.7632 3.78655 26.607 3.9388 26.5059L22.5842 14.1553L6.74361 23.3008C6.5848 23.3927 6.3958 23.4176 6.21861 23.3717C6.04143 23.3257 5.88918 23.2116 5.79468 23.0541C5.69996 22.8969 5.67118 22.7087 5.71461 22.5304C5.75793 22.3519 5.86818 22.197 6.02436 22.0999L7.98393 20.8714C7.84979 20.8886 7.71351 20.8672 7.59118 20.8095C7.46885 20.7518 7.36558 20.6603 7.29355 20.5459C7.19905 20.391 7.16755 20.2059 7.20693 20.0287C7.24543 19.8519 7.35137 19.697 7.50224 19.5969L16.4981 13.6054L11.3177 16.5939C11.163 16.685 10.9791 16.7127 10.8045 16.6714C10.6297 16.6297 10.4772 16.5232 10.3779 16.3734C10.2784 16.2237 10.2407 16.0412 10.2728 15.8643C10.3048 15.6874 10.4041 15.5298 10.5499 15.4245L17.2305 10.4711C17.0978 10.4343 16.979 10.3589 16.8892 10.2546C16.8 10.1509 16.7422 10.0209 16.7252 9.88443C16.7081 9.74793 16.7317 9.60881 16.7934 9.48543C16.8551 9.36216 16.9513 9.25954 17.0704 9.19012L25.6226 4.25512C25.7769 4.16688 25.9591 4.14105 26.1319 4.18293C26.3038 4.22493 26.4547 4.32993 26.5532 4.47956C26.6516 4.62918 26.6884 4.80899 26.6582 4.98356C26.628 5.15812 26.5322 5.31562 26.3891 5.42324L21.1956 9.27412L34.776 1.43456C34.9335 1.34531 35.1186 1.32037 35.2944 1.36499C35.4706 1.40864 35.6227 1.5194 35.7183 1.67363C35.814 1.82787 35.8455 2.01337 35.8063 2.19056C35.7682 2.36774 35.6632 2.52262 35.5136 2.62368L26.5204 8.61262L39.791 0.954181C39.9499 0.862306 40.1389 0.837369 40.316 0.883306C40.4932 0.929244 40.6455 1.04343 40.74 1.20093C40.8345 1.35843 40.8634 1.54612 40.8214 1.72462C40.779 1.90339 40.6677 2.05815 40.5116 2.15512L39.7714 2.61843L41.6128 1.55531C41.7702 1.46352 41.9573 1.43713 42.1339 1.48181C42.3097 1.52643 42.4633 1.63799 42.5591 1.79287C42.6551 1.94752 42.6867 2.13364 42.647 2.31131C42.6077 2.48849 42.5014 2.64468 42.3491 2.74574L21.8505 16.3249C21.9922 16.3406 22.1261 16.3984 22.2337 16.4916C22.3414 16.5847 22.4175 16.7094 22.4529 16.8472C22.4884 16.9854 22.4807 17.1311 22.4306 17.2646C22.3807 17.3985 22.2915 17.514 22.1747 17.5954L16.4627 21.5893C16.6162 21.5631 16.7751 21.588 16.9129 21.6615C17.0508 21.7351 17.1599 21.853 17.2226 21.9962C17.2856 22.1392 17.2987 22.2994 17.2607 22.4503C17.2225 22.6022 17.1342 22.7368 17.01 22.8322L11.0578 27.4509L13.2799 26.1673C13.4334 26.0754 13.6159 26.0452 13.7904 26.0833C13.965 26.1214 14.1186 26.2251 14.2196 26.3734C14.3204 26.5212 14.3604 26.7022 14.3312 26.8787C14.3023 27.0546 14.2065 27.2147 14.0647 27.3223L9.86474 30.6456L11.7574 29.5483C11.9096 29.4591 12.0894 29.4315 12.2614 29.4682C12.4333 29.505 12.5842 29.6074 12.6853 29.7504C12.7867 29.8943 12.8299 30.0712 12.806 30.2456C12.7821 30.42 12.693 30.5789 12.5567 30.6902L8.32255 34.23L10.6391 32.8912C10.7927 32.8033 10.9738 32.7757 11.1471 32.8164C11.3203 32.8571 11.4699 32.9608 11.5697 33.1091C11.6685 33.2563 11.7075 33.4356 11.6786 33.6105C11.6497 33.7851 11.5566 33.9426 11.4161 34.0515L10.206 34.9834C10.3628 34.9215 10.5368 34.9187 10.6956 34.9755C10.8544 35.0319 10.9869 35.1435 11.0709 35.2905C11.1542 35.4373 11.1813 35.6095 11.1471 35.7748C11.1127 35.94 11.0206 36.0875 10.8872 36.1909L10.1338 36.7723C10.2742 36.7749 10.4107 36.8182 10.5262 36.8996C10.6417 36.981 10.7297 37.0939 10.7796 37.2251C10.8295 37.3563 10.8387 37.4995 10.8058 37.6359C10.773 37.7724 10.6995 37.8958 10.5958 37.9903L9.48543 38.9957L9.62586 38.9182C9.76105 38.8382 9.91986 38.8067 10.0761 38.8277C10.2322 38.8487 10.3766 38.9222 10.4856 39.0351C10.5945 39.1479 10.6627 39.2949 10.6785 39.4511C10.6942 39.6073 10.6562 39.7648 10.5722 39.8974L9.97761 40.8594C10.0721 40.8799 10.1611 40.9201 10.2388 40.9776C10.3162 41.0353 10.3819 41.1075 10.4291 41.1915C10.4764 41.2755 10.5052 41.3595 10.5171 41.4501C10.5291 41.5413 10.5233 41.634 10.5 41.7231C10.4764 41.8123 10.4357 41.895 10.3792 41.9685C10.3231 42.0415 10.2531 42.1026 10.1732 42.1483L8.46955 43.1287C8.33436 43.2088 8.17555 43.2403 8.01936 43.2193C7.86318 43.1983 7.7188 43.1248 7.60986 43.0119C7.50093 42.8991 7.43268 42.7521 7.41693 42.5959C7.40118 42.4397 7.43924 42.2822 7.52324 42.1496L7.91305 41.5209L4.5058 43.4805C4.39945 43.547 4.27683 43.5828 4.15143 43.5842V43.5855Z" fill="#FFDD62"/>
<path d="M41.3752 83.2164C41.2543 83.2168 41.1353 83.1856 41.0301 83.1259C40.9251 83.0668 40.8371 82.9802 40.7741 82.8778C40.7111 82.7754 40.677 82.656 40.6744 82.5352C40.6717 82.4145 40.6993 82.2951 40.7557 82.1888L41.2492 81.2687L38.4182 82.9014C38.2751 82.9854 38.1058 83.0143 37.9431 82.9854C37.7803 82.9566 37.632 82.8699 37.527 82.7413C37.422 82.6127 37.3656 82.4513 37.3682 82.2859C37.3708 82.1205 37.4325 81.9604 37.5414 81.8357L39.5404 79.5467L34.6802 82.3541C34.5332 82.4394 34.3586 82.4683 34.1919 82.4342C34.0252 82.4001 33.8756 82.3069 33.7733 82.1717C33.6709 82.0365 33.6197 81.8672 33.6328 81.6979C33.6459 81.5286 33.7194 81.3684 33.8402 81.249L37.5375 77.6239L30.8647 81.4748C30.7125 81.5614 30.534 81.5876 30.3647 81.5483C30.1954 81.5089 30.0444 81.4078 29.9447 81.2648C29.8449 81.1217 29.8029 80.9458 29.8266 80.7726C29.8502 80.5993 29.9368 80.4418 30.0707 80.3289L31.9581 78.7697L28.6204 80.6964C28.476 80.7791 28.3067 80.808 28.1426 80.7778C27.9786 80.7476 27.8316 80.6584 27.7266 80.5284C27.6216 80.3985 27.5677 80.2358 27.573 80.0678C27.5782 79.8998 27.6426 79.7409 27.7554 79.6176L30.9435 76.1289L25.3431 79.3656C25.1908 79.4548 25.0123 79.4837 24.8391 79.4469C24.6658 79.4102 24.5149 79.3091 24.4138 79.1661C24.3127 79.023 24.2694 78.8458 24.2917 78.6712C24.3141 78.4967 24.4033 78.3379 24.5385 78.225L25.7749 77.1776L23.5462 78.4639C23.3979 78.5439 23.2247 78.5676 23.0606 78.5295C22.8966 78.4914 22.7509 78.3956 22.6511 78.2591C22.5514 78.1226 22.5041 77.9546 22.5186 77.7866C22.533 77.6186 22.6078 77.4611 22.7299 77.343L24.5254 75.7247L21.5709 77.4217C21.4213 77.5123 21.2441 77.5438 21.0722 77.511C20.9002 77.4782 20.748 77.3811 20.6443 77.2406C20.5406 77.1002 20.4921 76.9269 20.5104 76.7524C20.5288 76.5778 20.6102 76.4177 20.7401 76.3022L22.7443 74.4135L19.7124 76.1618C19.5681 76.2444 19.4001 76.2733 19.2373 76.2431C19.0746 76.2129 18.9276 76.1263 18.8226 75.9977C18.7176 75.8691 18.6611 75.7089 18.6637 75.5423C18.6664 75.3756 18.7281 75.2168 18.837 75.0921L21.5854 71.9788L17.283 74.4608C17.1347 74.55 16.9588 74.5815 16.7895 74.5487C16.6202 74.5159 16.4679 74.4214 16.3643 74.2836C16.2606 74.1458 16.2107 73.9738 16.2251 73.8019C16.2396 73.6299 16.3183 73.4685 16.4443 73.3504L18.354 71.5181L15.6844 73.0577C15.5387 73.1417 15.3667 73.1706 15.2014 73.1391C15.036 73.1076 14.8877 73.017 14.784 72.8844C14.6803 72.7519 14.6265 72.5865 14.6344 72.4185C14.6422 72.2505 14.7105 72.0904 14.8273 71.9683L17.2357 69.4483L13.8193 71.421C13.6684 71.5089 13.4912 71.5365 13.3206 71.5011C13.1499 71.4656 12.999 71.3659 12.8979 71.2241C12.7969 71.0824 12.7522 70.9078 12.7719 70.7346C12.7916 70.5613 12.8769 70.4025 13.0082 70.2883L13.923 69.4903L12.7207 70.1899C12.5685 70.2765 12.39 70.3041 12.2194 70.266C12.0487 70.2279 11.8978 70.1269 11.7981 69.9838C11.6983 69.8407 11.655 69.6649 11.6786 69.4903C11.7022 69.3158 11.7889 69.1583 11.9227 69.0454L12.0711 68.922L11.7784 69.09C11.6261 69.1779 11.4476 69.2068 11.2757 69.1688C11.1037 69.1307 10.9528 69.0309 10.8517 68.8866C10.7507 68.7422 10.7074 68.5663 10.731 68.3918C10.7546 68.2172 10.8412 68.0584 10.9764 67.9468L11.256 67.7106L10.8137 67.9665C10.6641 68.0492 10.4908 68.0741 10.3254 68.0361C10.1601 67.998 10.0131 67.9035 9.912 67.7657C9.81094 67.6279 9.765 67.4599 9.77944 67.2906C9.79387 67.1213 9.87 66.9624 9.99337 66.8456L11.2836 65.6762L9.66131 66.6068C9.51037 66.6934 9.33319 66.7209 9.16256 66.6842C8.99194 66.6474 8.84231 66.5477 8.74125 66.4059C8.64019 66.2642 8.59556 66.0896 8.61656 65.9177C8.63756 65.7458 8.72156 65.5856 8.85281 65.4714L9.60487 64.8231L8.82394 65.2732C8.67956 65.3559 8.50894 65.3848 8.34487 65.3546C8.18081 65.3244 8.03381 65.2352 7.92881 65.1039C7.82381 64.9727 7.77 64.8099 7.77525 64.6432C7.7805 64.4766 7.84612 64.3164 7.95769 64.1931L10.7087 61.1966L7.45631 63.0722C7.30537 63.1588 7.12687 63.1864 6.95756 63.1496C6.78825 63.1129 6.63731 63.0131 6.53625 62.8714C6.43519 62.7296 6.39187 62.5551 6.41287 62.3818C6.43387 62.2086 6.51919 62.0497 6.65044 61.9356L7.38675 61.3016L6.62944 61.7387C6.48375 61.8227 6.31312 61.8516 6.14775 61.8201C5.98237 61.7886 5.83406 61.698 5.73037 61.5668C5.62669 61.4355 5.57287 61.2701 5.57944 61.1021C5.586 60.9341 5.65425 60.774 5.76975 60.6519L8.66775 57.5715L5.53087 59.3775C5.38125 59.4681 5.20406 59.4996 5.03212 59.4667C4.86019 59.4339 4.70794 59.3368 4.60425 59.1964C4.50056 59.0559 4.452 58.8827 4.47037 58.7081C4.48875 58.5336 4.57012 58.3734 4.70006 58.2579L6.74362 56.3364L4.73681 57.4954C4.58587 57.5807 4.40869 57.6069 4.23937 57.5689C4.07006 57.5308 3.92175 57.4324 3.82069 57.2906C3.71962 57.1489 3.67631 56.9756 3.696 56.8037C3.71569 56.6318 3.79969 56.4729 3.92962 56.3587L5.04919 55.3993L4.08975 55.9519C3.9375 56.0398 3.75637 56.0674 3.58575 56.028C3.41512 55.9886 3.26287 55.8863 3.16312 55.7419C3.06337 55.5975 3.02269 55.419 3.04762 55.2444C3.07256 55.0699 3.16312 54.9124 3.29962 54.8008L3.50831 54.6315C3.35344 54.6788 3.18675 54.6709 3.03712 54.6092C2.8875 54.5475 2.76412 54.4359 2.68669 54.2929C2.60925 54.1498 2.58562 53.9858 2.61712 53.8269C2.64862 53.6681 2.73394 53.5251 2.85862 53.4214L3.48862 52.9016L3.27469 53.025C3.12769 53.109 2.95706 53.1366 2.79169 53.1038C2.62631 53.0709 2.478 52.9791 2.37562 52.8465C2.27325 52.7139 2.22075 52.5473 2.22994 52.3793C2.23912 52.2113 2.30869 52.0511 2.4255 51.9304L5.97319 48.2908L2.58562 50.2517C2.43337 50.3383 2.25356 50.3646 2.08162 50.3252C1.90969 50.2858 1.76006 50.1834 1.66162 50.0378C1.56319 49.8921 1.52119 49.7162 1.54744 49.5416C1.57369 49.3671 1.66294 49.2096 1.79944 49.0993L2.18662 48.7896C2.03175 48.8473 1.85981 48.8486 1.70362 48.7922C1.54744 48.7358 1.41619 48.6255 1.3335 48.4824C1.25081 48.3394 1.22194 48.1701 1.25212 48.006C1.28231 47.8419 1.37025 47.6962 1.49887 47.5912L1.99106 47.1988C1.85801 47.2332 1.71782 47.2283 1.58756 47.1844C1.45729 47.1406 1.34258 47.0599 1.25737 46.9521C1.15369 46.8195 1.09987 46.6554 1.10775 46.4874C1.11562 46.3194 1.18256 46.1606 1.29806 46.0373L2.2785 45.0004L1.99894 45.1605C1.88212 45.2274 1.74825 45.2603 1.61437 45.2537C1.4805 45.2471 1.34925 45.2025 1.24031 45.1238C1.13137 45.045 1.04606 44.9374 0.996187 44.8114C0.946312 44.6854 0.934499 44.5489 0.960749 44.4163L1.2285 43.0723C1.07756 43.0159 0.950249 42.9082 0.870187 42.7691C0.776999 42.6077 0.752062 42.4174 0.800624 42.2376C0.849187 42.0578 0.965999 41.9055 1.12612 41.8123L1.79944 41.4212C1.91625 41.3543 2.04881 41.3214 2.184 41.3293C2.31919 41.3372 2.44781 41.3805 2.55675 41.4593C2.66569 41.538 2.751 41.6456 2.79956 41.7716C2.84812 41.8976 2.86125 42.0328 2.835 42.1654L2.63419 43.176L5.7015 41.4054C5.84719 41.3228 6.01781 41.2939 6.18187 41.3254C6.34594 41.3569 6.49425 41.4461 6.59794 41.5774C6.70162 41.7086 6.75544 41.8727 6.74887 42.0407C6.74231 42.2087 6.67537 42.3675 6.56119 42.4896L5.58075 43.5251L9.28594 41.3871C9.4395 41.3004 9.61931 41.2729 9.78994 41.3136C9.96056 41.3543 10.1115 41.4566 10.2112 41.6023C10.311 41.748 10.3504 41.9252 10.3254 42.0998C10.3005 42.2743 10.2086 42.4318 10.0721 42.5421L9.639 42.8872C9.79519 42.8308 9.96581 42.8321 10.1207 42.8899C10.2756 42.9476 10.4055 43.0592 10.4869 43.2036C10.5682 43.3479 10.5958 43.5159 10.5643 43.6787C10.5328 43.8414 10.4449 43.9871 10.3162 44.0921L9.8385 44.4727C9.97106 44.4386 10.1089 44.4452 10.2388 44.4885C10.3687 44.5318 10.4803 44.6132 10.5643 44.7208C10.668 44.8547 10.7205 45.0214 10.71 45.1894C10.6995 45.3574 10.6299 45.5175 10.5118 45.6396L6.96412 49.2791L10.0446 47.4994C10.1968 47.4127 10.3753 47.3865 10.5459 47.4259C10.7166 47.4652 10.8662 47.565 10.9659 47.7094C11.0657 47.8537 11.1077 48.0283 11.0854 48.2016C11.0631 48.3748 10.9751 48.5323 10.8412 48.6452L10.2086 49.1676L10.4265 49.0416C10.5787 48.9536 10.7586 48.9274 10.9305 48.9667C11.1024 49.0061 11.2521 49.1072 11.3518 49.2529C11.4516 49.3986 11.4936 49.5744 11.4686 49.749C11.4437 49.9236 11.3544 50.0811 11.2179 50.1926L10.9607 50.4013C11.0981 50.3687 11.2421 50.378 11.3742 50.4278C11.5063 50.4776 11.6206 50.5657 11.7022 50.6809C11.8033 50.8226 11.8466 50.9972 11.8256 51.1704C11.8046 51.3437 11.7193 51.5025 11.5867 51.6154L10.4816 52.5669L11.277 52.1089C11.4266 52.0196 11.6038 51.9894 11.7731 52.0236C11.9424 52.0577 12.0947 52.1535 12.1984 52.2939C12.3021 52.4344 12.3493 52.6063 12.3322 52.7796C12.3152 52.9528 12.2338 53.1129 12.1052 53.2298L10.0616 55.1394L12.0737 53.9792C12.2194 53.8965 12.39 53.8676 12.5541 53.8991C12.7181 53.9306 12.8664 54.0199 12.9701 54.1511C13.0738 54.2824 13.1276 54.4464 13.1211 54.6144C13.1145 54.7824 13.0476 54.9412 12.9334 55.0633L10.0367 58.1437L13.1171 56.364C13.2681 56.2787 13.4452 56.2524 13.6146 56.2905C13.7839 56.3286 13.9322 56.427 14.0332 56.5687C14.1343 56.7105 14.1776 56.8838 14.1579 57.0557C14.1382 57.2276 14.0542 57.3864 13.9243 57.5006L13.1841 58.1385L13.9479 57.6988C14.0923 57.6161 14.2616 57.5886 14.4257 57.6201C14.5897 57.6516 14.7354 57.7395 14.8404 57.8694C14.9454 57.9994 14.9992 58.1621 14.994 58.3275C14.9887 58.4929 14.9244 58.653 14.8142 58.7764L12.0671 61.7741L15.3169 59.8986C15.4678 59.808 15.6476 59.7791 15.8196 59.8146C15.9915 59.85 16.1437 59.9498 16.2461 60.0941C16.3485 60.2385 16.3931 60.4144 16.3708 60.5876C16.3485 60.7609 16.2619 60.9223 16.1267 61.0352L15.3707 61.6862L16.2789 61.1612C16.4286 61.0798 16.6018 61.0536 16.7672 61.0916C16.9326 61.1297 17.0809 61.2242 17.1806 61.362C17.2804 61.4998 17.3289 61.6678 17.3132 61.8371C17.2974 62.0064 17.2226 62.1653 17.0992 62.2821L15.8104 63.4489L17.4405 62.5078C17.5914 62.4199 17.7712 62.391 17.9432 62.4291C18.1151 62.4671 18.2661 62.5669 18.3658 62.7113C18.4656 62.8556 18.5102 63.0315 18.4866 63.2061C18.4629 63.3806 18.375 63.5394 18.2411 63.651L17.9524 63.8925L18.4052 63.6339C18.5574 63.5486 18.7346 63.5224 18.9039 63.5604C19.0732 63.5985 19.2229 63.6996 19.3226 63.8426C19.4224 63.9857 19.4657 64.1602 19.4434 64.3322C19.4211 64.5041 19.3357 64.6629 19.2032 64.7758L19.0627 64.8939L19.4499 64.6708C19.6009 64.5829 19.7781 64.5553 19.9487 64.5908C20.1193 64.6262 20.2702 64.7259 20.3713 64.8677C20.4724 65.0094 20.517 65.184 20.4973 65.3573C20.4776 65.5305 20.3923 65.6893 20.2611 65.8035L19.341 66.6054L20.7533 65.7917C20.8989 65.7077 21.0696 65.6788 21.2349 65.7103C21.4003 65.7418 21.5486 65.8324 21.6523 65.9649C21.756 66.0975 21.8098 66.2629 21.8019 66.4309C21.7941 66.5989 21.7258 66.759 21.6103 66.8811L19.2032 69.4011L22.6498 67.4179C22.7981 67.3286 22.974 67.2971 23.1433 67.3299C23.3126 67.3628 23.4649 67.4573 23.5686 67.5951C23.6723 67.7329 23.7221 67.9048 23.7077 68.0768C23.6932 68.2487 23.6145 68.4101 23.4885 68.5283L21.5709 70.3671L24.5884 68.6241C24.7327 68.5401 24.9007 68.5112 25.0648 68.5414C25.2289 68.5716 25.3759 68.6582 25.4809 68.7868C25.5859 68.9154 25.6423 69.0769 25.6384 69.2436C25.6344 69.4103 25.5727 69.5691 25.4625 69.6937L22.7167 72.8057L27.2383 70.1951C27.3879 70.1046 27.5651 70.0731 27.7371 70.1059C27.909 70.1387 28.0612 70.2358 28.1649 70.3762C28.2686 70.5167 28.3172 70.6899 28.2988 70.8645C28.2804 71.0391 28.1991 71.1992 28.0691 71.3147L26.061 73.2008L29.5614 71.1795C29.7098 71.0981 29.883 71.0745 30.0484 71.1113C30.2137 71.148 30.3608 71.2438 30.4605 71.3816C30.5602 71.5194 30.6075 71.6874 30.5931 71.8554C30.5786 72.0234 30.5025 72.1822 30.3804 72.2991L28.5863 73.9174L31.8058 72.0628C31.9567 71.9749 32.1366 71.9473 32.3072 71.9841C32.4778 72.0208 32.6287 72.1219 32.7298 72.2649C32.8309 72.408 32.8742 72.5839 32.8519 72.7584C32.8296 72.933 32.7416 73.0905 32.6077 73.2034L31.374 74.2481L34.1552 72.6548C34.2996 72.5721 34.4689 72.5432 34.6329 72.5734C34.797 72.6036 34.944 72.6928 35.049 72.8228C35.154 72.9527 35.2091 73.1154 35.2039 73.2821C35.1986 73.4488 35.1343 73.6089 35.0228 73.7323L31.8307 77.2144L38.4943 73.3674C38.6466 73.2795 38.8264 73.2519 38.9983 73.29C39.1702 73.3281 39.3212 73.4304 39.4209 73.5748C39.5207 73.7192 39.5627 73.8964 39.5391 74.0696C39.5154 74.2429 39.4262 74.403 39.2897 74.5146L37.4023 76.0738L41.6167 73.6365C41.7637 73.5512 41.9383 73.5223 42.105 73.5564C42.2717 73.5906 42.4213 73.6838 42.5237 73.8189C42.6261 73.9541 42.6772 74.1234 42.6641 74.2928C42.651 74.4621 42.5775 74.6222 42.4567 74.7416L38.7607 78.3641L42.483 76.2169C42.6261 76.1329 42.7954 76.104 42.9581 76.1329C43.1209 76.1618 43.2692 76.2484 43.3742 76.377C43.4792 76.5056 43.5356 76.6671 43.533 76.8324C43.5304 76.9978 43.4687 77.1579 43.3597 77.2826L41.3595 79.5729L42.6628 78.8209C42.7941 78.7421 42.9476 78.7093 43.0999 78.7277C43.2521 78.7461 43.3939 78.8143 43.5028 78.9233C43.6118 79.0322 43.6839 79.1674 43.7076 79.317C43.7312 79.4666 43.7049 79.6215 43.6341 79.7554L42.6681 81.5653C42.7062 81.6056 42.7397 81.6501 42.7678 81.6979C42.861 81.858 42.8859 82.0496 42.8374 82.2294C42.7888 82.4093 42.672 82.5615 42.5119 82.6547L41.7231 83.1114C41.616 83.1759 41.4936 83.2104 41.3687 83.2112L41.3752 83.2164Z" fill="#FFDD62"/>
<path d="M43.5737 83.16C43.4214 83.16 43.2744 83.1101 43.1537 83.0196C43.0329 82.929 42.9437 82.8004 42.9017 82.6547C42.8597 82.509 42.8649 82.3541 42.9187 82.2124C42.9728 82.0708 43.0708 81.9503 43.1983 81.8685L48.9379 78.2289L42.3885 82.0089C42.2297 82.0942 42.0446 82.1166 41.8714 82.0693C41.6981 82.0221 41.5485 81.9092 41.4553 81.7543C41.3621 81.5994 41.3332 81.4157 41.3726 81.2398C41.412 81.0639 41.5183 80.9104 41.6679 80.8106L47.0991 77.3994L42.3806 80.1229C42.2376 80.2047 42.0701 80.233 41.9081 80.2029C41.7467 80.1727 41.5997 80.0874 41.4947 79.9601C41.3897 79.8328 41.3332 79.6727 41.3346 79.5086C41.3356 79.3438 41.3952 79.1847 41.5026 79.0597L43.7023 76.5161L42.3701 77.2866C42.2481 77.3574 42.1063 77.3902 41.9659 77.3784C41.8254 77.3666 41.6902 77.3141 41.58 77.2262C41.4695 77.1378 41.3886 77.0179 41.348 76.8823C41.3074 76.7468 41.3091 76.6021 41.3529 76.4676L41.7336 75.2771C41.6145 75.226 41.5121 75.1426 41.4379 75.0364C41.3637 74.9302 41.3206 74.8054 41.3136 74.676C41.3058 74.5465 41.3345 74.4173 41.3962 74.3032C41.4579 74.1893 41.5496 74.0944 41.6614 74.0289L42.4738 73.5604C42.5959 73.4895 42.7376 73.4567 42.8781 73.4685C43.0185 73.4803 43.1537 73.5328 43.2639 73.6207C43.3744 73.7091 43.4554 73.829 43.4959 73.9646C43.5365 74.1001 43.5348 74.2448 43.491 74.3794L43.2377 75.1682L46.5977 73.227C46.7407 73.1452 46.9082 73.1168 47.0702 73.1469C47.2316 73.1771 47.3786 73.2624 47.4836 73.3897C47.5886 73.5171 47.6451 73.6772 47.6437 73.8412C47.6427 74.006 47.5832 74.1651 47.4757 74.2901L45.2773 76.8456L78.897 57.4337C79.0558 57.3379 79.2474 57.309 79.4272 57.3536C79.5165 57.3757 79.6005 57.4152 79.6744 57.47C79.7483 57.5247 79.8106 57.5936 79.8577 57.6726C79.9529 57.832 79.9816 58.0224 79.9378 58.2028C79.9157 58.2921 79.8762 58.3761 79.8214 58.45C79.7667 58.5239 79.6978 58.5862 79.6189 58.6333L74.1917 62.0419L77.5609 60.0967C77.7184 60.0114 77.9034 59.9891 78.078 60.0364C78.2526 60.0836 78.4009 60.1952 78.4941 60.3487C78.5872 60.5023 78.6174 60.6861 78.5794 60.8619C78.5413 61.0378 78.4363 61.1914 78.288 61.2924L72.5484 64.932L75.9163 62.9869C76.0725 62.8989 76.2576 62.874 76.4308 62.9173C76.6041 62.9606 76.755 63.0696 76.8521 63.2218C76.9483 63.3734 76.9822 63.5564 76.9466 63.7324C76.9112 63.9082 76.8101 64.0644 76.6631 64.1681L64.6682 72.4684L71.8987 68.2933C72.054 68.2022 72.2385 68.1748 72.4135 68.2169C72.5885 68.259 72.7404 68.3673 72.8372 68.5191C72.9343 68.67 72.9711 68.8524 72.9369 69.0296C72.9028 69.2068 72.8031 69.363 72.6574 69.468L66.9244 73.5958C67.0313 73.6569 67.1198 73.7458 67.1803 73.8531C67.2735 74.0132 67.2984 74.2048 67.2512 74.3833C67.2039 74.5618 67.0858 74.7154 66.9257 74.8086L58.3852 79.7422C58.23 79.8333 58.0455 79.8607 57.8705 79.8186C57.6955 79.7765 57.5436 79.6682 57.4468 79.5165C57.3497 79.3656 57.3129 79.1831 57.3471 79.0059C57.3812 78.8287 57.4809 78.6726 57.6266 78.5676L60.5391 76.4676L50.5417 82.2347C50.3859 82.3201 50.2032 82.3427 50.0312 82.2977C49.8592 82.2531 49.7096 82.1441 49.6151 81.9945C49.5192 81.8446 49.4844 81.6636 49.5178 81.4888C49.5512 81.314 49.6504 81.1586 49.7949 81.0547L61.7833 72.7584L43.9189 83.0721C43.8144 83.131 43.6962 83.1613 43.5763 83.16H43.5737ZM66.0909 63.9673C65.9426 63.9673 65.7982 63.9201 65.6775 63.8321C65.5575 63.7445 65.4688 63.6208 65.4242 63.4791C65.3796 63.3375 65.3805 63.1856 65.4268 63.0446C65.4727 62.9042 65.5646 62.7821 65.6854 62.6955L68.9154 60.4078C68.785 60.4263 68.6521 60.4066 68.5326 60.3512C68.4131 60.2957 68.3122 60.2069 68.2421 60.0954C68.144 59.9451 68.1078 59.7626 68.1411 59.5862C68.1739 59.409 68.2723 59.2528 68.418 59.1465L70.7976 57.4179C70.665 57.4389 70.5285 57.4219 70.4038 57.3681C70.2799 57.3144 70.1735 57.2271 70.0967 57.1161C69.9982 56.9677 69.9602 56.7879 69.9891 56.6134C70.0178 56.4379 70.1127 56.2801 70.2542 56.1724L73.164 53.9411L72.24 54.474C72.0877 54.5625 71.9074 54.5899 71.7357 54.5507C71.564 54.5114 71.4135 54.4085 71.3147 54.2627C71.2149 54.117 71.1729 53.9411 71.1979 53.7666C71.2228 53.592 71.3121 53.4345 71.4486 53.3229L75.0107 50.4354L73.29 51.4277C73.1417 51.5091 72.9671 51.534 72.8017 51.4972C72.6355 51.4607 72.4884 51.3645 72.3883 51.2269C72.2887 51.0895 72.2416 50.9209 72.2557 50.7517C72.2702 50.5824 72.3476 50.4249 72.4697 50.3068L77.2695 45.9441L74.1891 47.7225C74.0473 47.8039 73.8819 47.8327 73.7218 47.8052C73.5611 47.7776 73.4153 47.6944 73.3097 47.5702C73.2034 47.4456 73.1443 47.2894 73.1417 47.1266C73.1391 46.9639 73.1929 46.8051 73.2939 46.6777L75.0409 44.4924L74.4109 44.8547C74.2846 44.9263 74.1394 44.9575 73.9948 44.9439C73.8503 44.9308 73.7138 44.8719 73.605 44.7759C73.4961 44.6801 73.4186 44.5541 73.3832 44.4137C73.3477 44.2732 73.3582 44.1249 73.4121 43.9897L73.7953 43.0264C73.7149 42.9686 73.6478 42.8943 73.5984 42.8085C73.5499 42.7232 73.5223 42.6405 73.5105 42.5499C73.4988 42.4586 73.5051 42.3659 73.5289 42.2769C73.5525 42.1877 73.5945 42.105 73.6496 42.0315C73.7047 41.958 73.7756 41.8976 73.8557 41.8517L74.5959 41.4317C74.7221 41.3596 74.8673 41.3279 75.012 41.3411C75.1572 41.3546 75.2945 41.4134 75.4044 41.5091C75.5147 41.6049 75.5921 41.7322 75.6262 41.8727C75.6604 42.0131 75.6499 42.1627 75.5961 42.2979L75.4556 42.6392L77.5753 41.4159C77.7171 41.3346 77.8824 41.3044 78.0439 41.3319C78.2053 41.3595 78.351 41.4422 78.4573 41.5656C78.5636 41.6889 78.624 41.8464 78.6266 42.0105C78.6299 42.1739 78.5756 42.3333 78.4731 42.4607L76.7222 44.6368L82.2058 41.4697C82.3541 41.3884 82.5287 41.3634 82.6941 41.4002C82.8594 41.4369 83.0064 41.5327 83.1075 41.6706C83.2086 41.8084 83.2545 41.9764 83.2401 42.1457C83.2255 42.3152 83.1494 42.4735 83.0261 42.5906L78.225 46.9534L81.9814 44.7943C82.1336 44.709 82.3121 44.6827 82.4827 44.7221C82.6533 44.7614 82.8028 44.8636 82.9014 45.0082C82.9999 45.1527 83.0415 45.3285 83.0182 45.5017C82.9946 45.675 82.9054 45.8325 82.7715 45.9441L79.2107 48.8316L81.7438 47.3694C81.8973 47.2843 82.0774 47.2604 82.2478 47.3025C82.4184 47.3445 82.5667 47.4482 82.6639 47.5939C82.761 47.7396 82.8004 47.9167 82.7728 48.0913C82.7461 48.2649 82.6546 48.422 82.5169 48.531L79.6044 50.7636L81.2424 49.8186C81.3973 49.7306 81.5811 49.7044 81.7543 49.7464C81.928 49.7883 82.0788 49.8955 82.1756 50.0456C82.2727 50.1966 82.3095 50.3764 82.278 50.5522C82.2465 50.7281 82.1481 50.8843 82.005 50.9906L79.947 52.4882L80.7975 51.9986C80.9537 51.912 81.1361 51.8884 81.3081 51.9317C81.48 51.975 81.6309 52.0826 81.7267 52.2322C81.8226 52.3819 81.858 52.563 81.8252 52.7389C81.7924 52.9147 81.6952 53.0696 81.5509 53.1759L78.8064 55.1211L79.9719 54.4491C80.0516 54.398 80.141 54.364 80.2344 54.3493C80.3278 54.3344 80.4233 54.3379 80.5153 54.3598C80.6071 54.382 80.6935 54.4226 80.7691 54.4793C80.8446 54.5359 80.9079 54.6074 80.955 54.6892C81.0022 54.7712 81.0326 54.8618 81.0442 54.9557C81.0559 55.0494 81.0483 55.1445 81.0219 55.2352C80.9957 55.3258 80.9511 55.4098 80.892 55.4833C80.8322 55.5566 80.758 55.6169 80.6741 55.6605L66.4414 63.8715C66.335 63.9335 66.214 63.9661 66.0909 63.966V63.9673Z" fill="#FFDD62"/>
<path d="M40.4657 67.7211C40.3161 67.7211 40.1704 67.6725 40.0496 67.5833C39.9289 67.494 39.8409 67.368 39.7976 67.2249C39.7543 67.0819 39.7582 66.9283 39.8081 66.7866C39.858 66.6448 39.9525 66.5241 40.0772 66.4401L48.1385 61.0326L37.3905 67.2354C37.2343 67.3208 37.0506 67.3444 36.8773 67.2984C36.7041 67.2525 36.5557 67.1436 36.4599 66.9926C36.3641 66.8417 36.3313 66.6593 36.3667 66.4847C36.4022 66.3101 36.5019 66.1539 36.6476 66.0503L49.8724 57.1187L33.9754 66.2957C33.8166 66.3823 33.6315 66.4059 33.4569 66.3587C33.2824 66.3114 33.1327 66.1999 33.0396 66.045C32.9464 65.8901 32.9162 65.7051 32.9556 65.5292C32.9949 65.3533 33.1012 65.1984 33.2522 65.0987L36.3418 63.1483L32.2087 65.5279C32.0499 65.6198 31.8609 65.6447 31.6837 65.5988C31.5066 65.5528 31.353 65.4386 31.2598 65.2811C31.1666 65.1236 31.1364 64.9359 31.1784 64.7574C31.2204 64.5789 31.332 64.4241 31.4882 64.3269L32.9779 63.3964L30.5983 64.7653C30.4395 64.8533 30.2531 64.8756 30.0786 64.8283C29.904 64.7811 29.7544 64.6682 29.6599 64.512C29.5654 64.3558 29.5378 64.1708 29.5785 63.9949C29.6192 63.819 29.7268 63.6641 29.8791 63.5657L32.2009 62.1233L29.0889 63.9201C28.9314 64.0041 28.749 64.0238 28.5771 63.9778C28.4051 63.9319 28.2581 63.8203 28.1649 63.6694C28.0717 63.5184 28.0402 63.336 28.0757 63.1614C28.1111 62.9869 28.2122 62.8333 28.3579 62.7296L45.3862 51.5918L26.8209 62.3136C26.6621 62.4041 26.4744 62.4291 26.2986 62.3831C26.1227 62.3372 25.9704 62.2243 25.8759 62.0681C25.7814 61.9119 25.7512 61.7256 25.7932 61.5471C25.8352 61.3686 25.9442 61.215 26.0977 61.1166L39.459 52.5906L25.1606 60.8501C25.0031 60.9446 24.8141 60.9735 24.6356 60.9289C24.4571 60.8843 24.3022 60.7727 24.2064 60.6165C24.1106 60.4603 24.0791 60.2713 24.1198 60.0915C24.1605 59.9117 24.2707 59.7568 24.4269 59.6571L44.7431 46.3221L23.1171 58.8066C22.9582 58.9024 22.7666 58.9299 22.5868 58.884C22.407 58.8381 22.2521 58.7239 22.1563 58.5638C22.0605 58.4036 22.0329 58.2133 22.0789 58.0335C22.1248 57.8537 22.239 57.6988 22.3991 57.603L23.6736 56.8181L22.2731 57.6227C22.1156 57.708 21.9306 57.7303 21.7573 57.6831C21.5841 57.6358 21.4357 57.5256 21.3412 57.372C21.2467 57.2184 21.2166 57.036 21.2533 56.8601C21.2901 56.6842 21.3937 56.5307 21.5421 56.4296L40.5418 44.1289L20.8018 55.5293C20.6443 55.6146 20.4592 55.6369 20.286 55.5896C20.1127 55.5424 19.9644 55.4321 19.8699 55.2786C19.7754 55.125 19.7452 54.9426 19.782 54.7667C19.8187 54.5908 19.9224 54.4373 20.0707 54.3349L38.9839 42.0945L19.6639 53.2508C19.5064 53.3387 19.32 53.3623 19.1454 53.3164C18.9709 53.2704 18.8199 53.1589 18.7254 53.0053C18.6309 52.8517 18.5994 52.6667 18.6388 52.4895C18.6782 52.3123 18.7832 52.1588 18.9328 52.0577L37.191 40.2609L18.6506 50.9552C18.4931 51.0392 18.3081 51.0602 18.1361 51.0129C17.9642 50.9657 17.8159 50.8541 17.7227 50.7019C17.6295 50.5496 17.5993 50.3659 17.6361 50.1913C17.6728 50.0168 17.7765 49.8619 17.9248 49.7608L33.6591 39.6743L18.0311 48.7029C17.8736 48.8001 17.6833 48.8303 17.5022 48.7869C17.3211 48.7436 17.1649 48.6308 17.0677 48.4733C16.9706 48.3158 16.9404 48.1241 16.9837 47.9443C17.0271 47.7645 17.1399 47.607 17.2974 47.5099L35.4834 35.6475L17.4969 46.0307C17.3394 46.1186 17.1544 46.1423 16.9798 46.0976C16.8052 46.053 16.6543 45.9414 16.5598 45.7879C16.4653 45.6343 16.4325 45.4506 16.4706 45.2734C16.5086 45.0962 16.6123 44.9413 16.7619 44.8403L34.9191 32.865L17.2331 43.0854C17.0743 43.1813 16.884 43.2101 16.7029 43.1668C16.5217 43.1235 16.3669 43.008 16.2711 42.8492C16.1752 42.6904 16.1451 42.5001 16.1897 42.3189C16.2343 42.1378 16.3485 41.9829 16.5073 41.8871L23.877 37.2212L17.3342 41.0012C17.1767 41.0983 16.9864 41.1298 16.8052 41.0865C16.6241 41.0432 16.4679 40.9316 16.3708 40.7728C16.2737 40.614 16.2422 40.425 16.2855 40.2439C16.3288 40.0628 16.4404 39.9066 16.5992 39.8094L30.3896 30.7164L17.5954 38.1032C17.4392 38.1924 17.2541 38.2187 17.0782 38.1741C16.9024 38.1294 16.7514 38.0205 16.6556 37.8683C16.5598 37.716 16.5257 37.5323 16.5611 37.3551C16.5966 37.1779 16.7002 37.0217 16.8486 36.9193L31.5052 26.8551L18.6454 34.2746C18.4879 34.3652 18.3002 34.3888 18.1243 34.3442C17.9484 34.2996 17.7962 34.1867 17.7017 34.0318C17.6072 33.8769 17.5757 33.6906 17.6164 33.5134C17.6571 33.3362 17.7634 33.1813 17.9156 33.0816L20.5052 31.4016L19.7032 31.8649C19.5471 31.9554 19.3633 31.9817 19.1887 31.9397C19.0142 31.8977 18.8619 31.7901 18.7648 31.6391C18.6677 31.4882 18.6309 31.3058 18.6651 31.1286C18.6992 30.9514 18.7989 30.7952 18.9446 30.6902L27.3092 24.6698L22.2954 27.5638C22.1406 27.6544 21.9581 27.6819 21.7836 27.6413C21.609 27.6006 21.4567 27.4956 21.3583 27.3459C21.2599 27.1963 21.2218 27.0152 21.252 26.8393C21.2822 26.6634 21.3793 26.5046 21.5224 26.3983L25.8825 23.0948C25.7709 23.037 25.6764 22.9504 25.6095 22.8441C25.5426 22.7378 25.5058 22.6144 25.5032 22.4897C25.5006 22.365 25.5307 22.239 25.5924 22.1301C25.6541 22.0211 25.7447 21.9293 25.8536 21.8663L32.8952 17.8067C33.0501 17.7161 33.2325 17.6886 33.4071 17.7293C33.5816 17.7699 33.7339 17.8749 33.8323 18.0246C33.9307 18.1742 33.9688 18.3553 33.9386 18.5312C33.9084 18.7071 33.8113 18.8659 33.6682 18.9722L31.3792 20.7008L38.6479 16.5008C38.8027 16.4141 38.9852 16.3892 39.1584 16.4325C39.3317 16.4758 39.4813 16.5821 39.5784 16.7318C39.6756 16.8814 39.711 17.0625 39.6795 17.2371C39.648 17.4116 39.5509 17.5691 39.4078 17.6741L31.0511 23.6946L43.6642 16.4141C43.8231 16.317 44.0134 16.2868 44.1932 16.3301C44.373 16.3734 44.5292 16.4876 44.6263 16.6451C44.7234 16.8026 44.7536 16.9943 44.7103 17.1741C44.667 17.3539 44.5528 17.5101 44.3953 17.6072L41.7874 19.2951L46.3181 16.6793C46.4743 16.59 46.6594 16.5638 46.8352 16.6084C47.0111 16.653 47.1621 16.7619 47.2579 16.9142C47.3537 17.0664 47.3878 17.2502 47.3524 17.4274C47.3169 17.6046 47.2132 17.7608 47.0649 17.8631L32.4122 27.9221L50.0902 17.7161C50.2477 17.6243 50.4354 17.598 50.6113 17.6426C50.7872 17.6873 50.9407 17.7988 51.0366 17.9537C51.1324 18.1086 51.1639 18.2949 51.1245 18.4721C51.0851 18.6493 50.9788 18.8055 50.8265 18.9053L37.0322 28.0048L52.7625 18.9236C52.9213 18.8331 53.109 18.8081 53.2849 18.8541C53.4607 18.9 53.613 19.0129 53.7075 19.1691C53.802 19.3253 53.8322 19.5116 53.7902 19.6901C53.7482 19.8686 53.6392 20.0222 53.4857 20.1206L46.1226 24.7748L54.6236 19.8752C54.7811 19.7807 54.9701 19.7518 55.1486 19.7951C55.3271 19.8384 55.482 19.9513 55.5791 20.1075C55.6762 20.2637 55.7064 20.4527 55.6657 20.6312C55.625 20.8097 55.5148 20.9659 55.3586 21.0656L37.1936 33.0422L57.0425 21.5828C57.1213 21.5342 57.2079 21.5027 57.2985 21.4883C57.389 21.4738 57.4822 21.4778 57.5715 21.4988C57.6607 21.5198 57.7447 21.5591 57.8196 21.6129C57.8944 21.6668 57.9574 21.735 58.0059 21.8138C58.0545 21.8925 58.086 21.9791 58.1004 22.0697C58.1149 22.1603 58.1109 22.2534 58.0899 22.3427C58.0686 22.4321 58.0298 22.5164 57.9757 22.5908C57.9219 22.6656 57.8537 22.7286 57.7749 22.7771L39.5981 34.6343L59.0769 23.3861C59.2357 23.289 59.4261 23.2601 59.6072 23.3034C59.7883 23.3468 59.9432 23.4609 60.0403 23.6198C60.1374 23.7786 60.1663 23.9689 60.123 24.15C60.0797 24.3311 59.9655 24.486 59.8067 24.5831L44.0698 34.671L60.7412 25.0464C60.8987 24.9559 61.0864 24.9323 61.2622 24.9769C61.4381 25.0215 61.5904 25.1344 61.6849 25.2893C61.7794 25.4441 61.8109 25.6305 61.7702 25.8077C61.7295 25.9849 61.6232 26.1398 61.4709 26.2395L43.2088 38.0376L62.2112 27.0664C62.37 26.9693 62.5603 26.9391 62.7401 26.9824C62.9199 27.0257 63.0761 27.1399 63.1732 27.2974C63.2704 27.4549 63.3006 27.6465 63.2572 27.8263C63.2139 28.0061 63.0997 28.1623 62.9422 28.2594L44.0199 40.5011L63.605 29.1953C63.7626 29.1047 63.9502 29.0811 64.1261 29.1257C64.302 29.1703 64.4542 29.2832 64.5487 29.4381C64.6432 29.5929 64.6747 29.7793 64.6341 29.9565C64.5934 30.1337 64.487 30.2886 64.3348 30.3883L45.3469 42.6838L64.7049 31.5079C64.8637 31.4134 65.0554 31.3845 65.2352 31.4304C65.415 31.4764 65.5699 31.5906 65.6644 31.7507C65.7589 31.9108 65.7877 32.1011 65.7418 32.2809C65.6959 32.4608 65.5817 32.6156 65.4216 32.7101L64.1366 33.5042L65.2929 32.8348C65.4504 32.7377 65.6407 32.7075 65.8219 32.7495C66.003 32.7915 66.1592 32.9057 66.2563 33.0632C66.3534 33.2207 66.3836 33.411 66.3416 33.5921C66.2996 33.7733 66.1854 33.9281 66.0279 34.0266L45.7039 47.3668L66.0555 35.6173C66.213 35.532 66.3981 35.5097 66.5713 35.5569C66.7446 35.6042 66.8942 35.7158 66.9874 35.8693C67.0806 36.0229 67.1107 36.2066 67.0727 36.3825C67.0346 36.5584 66.9296 36.7119 66.78 36.813L53.4227 45.339L66.4834 37.8013C66.6409 37.7042 66.8312 37.674 67.0123 37.7173C67.1934 37.7606 67.3496 37.8735 67.4467 38.031C67.5439 38.1885 67.5741 38.3801 67.5321 38.5599C67.4901 38.7398 67.3759 38.8973 67.2171 38.9944L50.1795 50.1375L66.7341 40.5786C66.8929 40.4828 67.0845 40.4539 67.2643 40.4998C67.4441 40.5458 67.599 40.6599 67.6948 40.8188C67.7906 40.9776 67.8195 41.1692 67.7736 41.349C67.7276 41.5288 67.6134 41.6837 67.4546 41.7795L65.1787 43.2009L66.7183 42.3071C66.8771 42.2153 67.0661 42.1903 67.2433 42.2363C67.4205 42.2822 67.5727 42.3964 67.6672 42.5539C67.7617 42.7114 67.7906 42.8991 67.7486 43.0776C67.7066 43.2561 67.5951 43.4109 67.4389 43.5081L65.9137 44.4609L66.5595 44.0882C66.7183 43.9989 66.9047 43.9753 67.0806 44.0226C67.2564 44.0698 67.4074 44.1827 67.5006 44.3376C67.5937 44.4924 67.6239 44.6801 67.5832 44.856C67.5426 45.0319 67.4336 45.1868 67.2814 45.2865L64.2009 47.2251L66.3692 45.9729C66.5267 45.8837 66.7117 45.8588 66.8863 45.9021C67.0609 45.9454 67.2131 46.0569 67.3089 46.2092C67.4047 46.3614 67.4376 46.5465 67.4008 46.7237C67.3641 46.9009 67.2604 47.0558 67.1107 47.1581L53.8965 56.0858L65.4268 49.4288C65.5843 49.3421 65.7681 49.3185 65.9413 49.3631C66.1146 49.4078 66.2642 49.518 66.36 49.6703C66.4558 49.8225 66.4886 50.0049 66.4519 50.1808C66.4151 50.3567 66.314 50.5116 66.167 50.6153L58.1031 56.028L64.0762 52.5788C64.2324 52.4908 64.4149 52.4672 64.5894 52.5105C64.764 52.5538 64.9123 52.6614 65.0094 52.8124C65.1066 52.9633 65.1407 53.1444 65.1079 53.3203C65.0751 53.4962 64.9753 53.6524 64.8309 53.7574L58.0847 58.5086L61.7137 56.4086C61.8673 56.3207 62.0497 56.2944 62.2217 56.3364C62.3936 56.3784 62.5446 56.4821 62.643 56.6304C62.7414 56.7788 62.7795 56.9573 62.7506 57.1331C62.7217 57.309 62.6272 57.4652 62.4868 57.5728L58.1057 60.9C58.2186 60.9564 58.3144 61.0431 58.3826 61.1494C58.4509 61.2557 58.4889 61.3791 58.4929 61.5051C58.4968 61.6311 58.4666 61.7558 58.4049 61.8673C58.3432 61.9789 58.2527 62.0694 58.1437 62.1324L51.1048 66.192C50.9512 66.2799 50.7688 66.3062 50.5969 66.2642C50.4249 66.2222 50.274 66.1185 50.1756 65.9702C50.0771 65.8219 50.0391 65.6434 50.0679 65.4675C50.0968 65.2916 50.1913 65.1354 50.3317 65.0278L52.6864 63.2454L45.3206 67.4966C45.1644 67.5872 44.9794 67.6148 44.8035 67.5728C44.6276 67.5308 44.4754 67.4218 44.3782 67.2696C44.2811 67.1173 44.2457 66.9336 44.2811 66.7551C44.3166 66.5766 44.4189 66.4204 44.5672 66.318L51.3201 61.5576L40.8201 67.6213C40.7137 67.6856 40.5917 67.7184 40.467 67.7198L40.4657 67.7211Z" fill="#5E6DFE"/>
<path d="M44.4951 62.0196C44.3481 62.0196 44.205 61.9736 44.0856 61.887C43.9661 61.8004 43.8769 61.6796 43.8309 61.5405C43.785 61.4014 43.7837 61.2504 43.827 61.11C43.8703 60.9696 43.9569 60.8475 44.0751 60.7583L51.3004 55.1932L39.7215 61.8778C39.5653 61.9671 39.3816 61.992 39.2083 61.95C39.0351 61.908 38.8828 61.7991 38.7857 61.6481C38.6886 61.4972 38.6531 61.3148 38.6872 61.1389C38.7214 60.963 38.8198 60.8055 38.9655 60.7018L48.8119 53.6852L36.0911 61.0286C35.9323 61.1258 35.742 61.1559 35.5622 61.1126C35.3824 61.0693 35.2262 60.9551 35.1291 60.7976C35.0319 60.6401 35.0017 60.4485 35.0451 60.2687C35.0884 60.0889 35.2012 59.9327 35.3601 59.8356L38.3775 57.876L34.1355 60.3251C33.978 60.4157 33.7916 60.4433 33.6157 60.3986C33.4399 60.354 33.2876 60.2438 33.1905 60.0902C33.0934 59.9366 33.0619 59.7503 33.0999 59.5731C33.138 59.3959 33.2443 59.2397 33.3952 59.1386L44.0882 51.9474L31.8531 59.01C31.6956 59.0979 31.5105 59.1229 31.3372 59.0769C31.164 59.031 31.0131 58.9221 30.9172 58.7685C30.8214 58.6149 30.7899 58.4325 30.8267 58.2553C30.8634 58.0781 30.9671 57.9233 31.1154 57.8209L43.2797 49.6794L29.7964 57.4639C29.6376 57.5505 29.4525 57.5728 29.2779 57.5269C29.1034 57.4809 28.9537 57.3681 28.8606 57.2132C28.7674 57.0583 28.7372 56.8733 28.7766 56.6974C28.8159 56.5215 28.9222 56.3666 29.0732 56.2669L31.8517 54.5055L28.5705 56.3981C28.413 56.4834 28.2279 56.5057 28.0547 56.4585C27.8814 56.4112 27.7318 56.2997 27.6386 56.1461C27.5454 55.9926 27.5152 55.8088 27.5533 55.6329C27.5914 55.4571 27.6964 55.3035 27.846 55.2024L32.9057 51.9829L27.4457 55.1316C27.2869 55.2248 27.0992 55.251 26.9207 55.2064C26.7422 55.1618 26.5899 55.0489 26.4941 54.8914C26.3983 54.7339 26.3681 54.5462 26.4101 54.3677C26.4521 54.1892 26.5624 54.0343 26.7172 53.9359L34.1709 49.1518L26.3222 53.6878C26.1647 53.7784 25.9783 53.8059 25.8024 53.7613C25.6266 53.7167 25.4743 53.6064 25.3772 53.4529C25.2801 53.2993 25.2486 53.1129 25.2866 52.9358C25.3247 52.7586 25.431 52.6024 25.5819 52.5013L41.0589 42.0866L24.9795 51.3673C24.822 51.4539 24.6382 51.4776 24.4637 51.4316C24.2891 51.3857 24.1408 51.2754 24.0463 51.1232C23.9518 50.9709 23.919 50.7872 23.9557 50.6113C23.9925 50.4354 24.0949 50.2806 24.2432 50.1782L37.1503 41.6483L24.0069 49.2358C23.8481 49.3251 23.6617 49.3487 23.4859 49.3014C23.31 49.2542 23.1591 49.1413 23.0659 48.9864C22.9727 48.8316 22.9425 48.6452 22.9832 48.468C23.0239 48.2908 23.1328 48.1372 23.2851 48.0375L24.4348 47.3156L23.5948 47.7973C23.4373 47.8879 23.2509 47.9154 23.0751 47.8708C22.8992 47.8262 22.7469 47.7159 22.6498 47.5624C22.5527 47.4088 22.5212 47.2224 22.5592 47.0453C22.5973 46.8681 22.7036 46.7119 22.8546 46.6108L36.7631 37.2409L23.0436 45.1631C22.8861 45.2524 22.701 45.2773 22.5264 45.234C22.3519 45.1907 22.1996 45.0791 22.1038 44.9269C22.008 44.7746 21.9752 44.5896 22.0119 44.4124C22.0487 44.2352 22.1524 44.0803 22.302 43.9779L34.9243 35.4375L22.8309 42.4213C22.7522 42.4699 22.6656 42.5014 22.575 42.5158C22.4844 42.5303 22.3912 42.5263 22.302 42.5053C22.2127 42.4843 22.1274 42.4449 22.0539 42.3911C21.9791 42.3372 21.9158 42.2689 21.8676 42.1903C21.819 42.1116 21.7875 42.0249 21.7731 41.9344C21.7586 41.8438 21.7626 41.7506 21.7836 41.6614C21.8046 41.5721 21.8439 41.4868 21.8977 41.4133C21.9517 41.3385 22.0199 41.2751 22.0986 41.2269L27.8932 37.4469L23.0462 40.2465C22.89 40.3397 22.7023 40.3673 22.5251 40.3253C22.3479 40.2833 22.1944 40.173 22.0972 40.0181C22.0001 39.8633 21.966 39.6782 22.0041 39.4997C22.0421 39.3212 22.1471 39.165 22.2981 39.0626L31.9161 32.4345L23.6394 37.212C23.4846 37.3013 23.3021 37.3275 23.1289 37.2855C22.9556 37.2435 22.8047 37.1372 22.7062 36.9889C22.6078 36.8406 22.5711 36.6581 22.6026 36.4836C22.6341 36.309 22.7312 36.1502 22.8742 36.0439L32.0394 29.2583L25.368 33.1078C25.2171 33.1944 25.0386 33.2207 24.8692 33.1826C24.6999 33.1446 24.549 33.0448 24.4492 32.9018C24.3495 32.7587 24.3049 32.5854 24.3272 32.4122C24.3495 32.2389 24.4335 32.0814 24.5661 31.9673L29.5339 27.7489C29.3803 27.7476 29.2307 27.6964 29.1086 27.6032C28.9866 27.51 28.8999 27.3774 28.8606 27.2291C28.8212 27.0808 28.8317 26.9233 28.8907 26.7803C28.9498 26.6372 29.0535 26.5191 29.1874 26.4429L35.1291 23.0134C35.28 22.9254 35.4598 22.8979 35.6304 22.9346C35.8011 22.9714 35.952 23.0724 36.0531 23.2155C36.1541 23.3586 36.1974 23.5344 36.1751 23.7077C36.1528 23.8809 36.0649 24.0411 35.931 24.1526L31.3661 28.0258L42.0669 21.8492C42.2218 21.7613 42.4042 21.7337 42.5775 21.7757C42.7507 21.8177 42.9017 21.924 43.0001 22.0723C43.0986 22.2206 43.1353 22.4031 43.1038 22.5776C43.0723 22.7522 42.9752 22.9097 42.8321 23.0173L33.6669 29.7924L46.3877 22.4477C46.5439 22.3545 46.7316 22.3269 46.9087 22.3689C47.0859 22.4109 47.2395 22.5212 47.3366 22.6761C47.4337 22.8309 47.4679 23.016 47.4298 23.1945C47.3917 23.373 47.2867 23.5292 47.1358 23.6316L37.527 30.261L49.3342 23.4439C49.4917 23.3546 49.6781 23.3297 49.854 23.3743C50.0299 23.4189 50.1808 23.5305 50.2766 23.6854C50.3724 23.8403 50.4026 24.0253 50.3646 24.2025C50.3265 24.3797 50.2189 24.5346 50.0679 24.6356L44.2785 28.4156L51.1914 24.4243C51.3489 24.3351 51.534 24.3101 51.7086 24.3534C51.8831 24.3968 52.0354 24.5083 52.1312 24.6606C52.227 24.8128 52.2598 24.9979 52.2231 25.1751C52.1863 25.3523 52.0826 25.5071 51.933 25.6095L39.3133 34.1499L53.5329 25.9376C53.6904 25.8392 53.8807 25.8077 54.0619 25.8497C54.243 25.8917 54.3992 26.0033 54.4976 26.1608C54.5961 26.3183 54.6276 26.5086 54.5856 26.6897C54.5436 26.8708 54.432 27.027 54.2745 27.1254L40.3738 36.4928L55.5712 27.72C55.7301 27.6242 55.9204 27.5953 56.1015 27.6399C56.2826 27.6846 56.4375 27.7988 56.5333 27.9576C56.6291 28.1164 56.658 28.3067 56.6134 28.4878C56.5687 28.6689 56.4546 28.8238 56.2957 28.9196L55.146 29.6428L56.5294 28.8435C56.6869 28.7556 56.8719 28.7319 57.0465 28.7766C57.2211 28.8212 57.372 28.9328 57.4665 29.0863C57.561 29.2399 57.5925 29.4236 57.5557 29.6008C57.519 29.778 57.414 29.9329 57.2644 30.0339L44.3467 38.5744L57.9836 30.7007C58.1411 30.6101 58.3275 30.5826 58.5034 30.6272C58.6792 30.6718 58.8315 30.7821 58.9286 30.9356C59.0257 31.0892 59.0572 31.2756 59.0192 31.4528C58.9811 31.6299 58.8748 31.7861 58.7239 31.8872L43.2482 42.2993L59.2436 33.0593C59.4024 32.9621 59.5927 32.9333 59.7726 32.9766C59.9524 33.0199 60.1086 33.1341 60.2057 33.2929C60.3028 33.4517 60.3317 33.642 60.2884 33.8218C60.2451 34.0016 60.1309 34.1578 59.9721 34.2549L52.5354 39.0272L59.9852 34.7261C60.144 34.6356 60.3317 34.6106 60.5076 34.6566C60.6834 34.7025 60.8357 34.8154 60.9302 34.9716C61.0247 35.1278 61.0549 35.3141 61.0129 35.4926C60.9709 35.6711 60.8619 35.8247 60.7084 35.9231L55.6264 39.1611L60.4524 36.3746C60.6112 36.288 60.7963 36.2657 60.9709 36.3116C61.1454 36.3576 61.2951 36.4704 61.3882 36.6253C61.4814 36.7802 61.5116 36.9653 61.4722 37.1411C61.4329 37.317 61.3266 37.4719 61.1756 37.5716L58.4062 39.3396L60.8829 37.9089C61.0404 37.8184 61.2268 37.7908 61.4027 37.8354C61.5786 37.8801 61.7308 37.9903 61.8279 38.1439C61.9251 38.2974 61.9566 38.4838 61.9185 38.661C61.8804 38.8382 61.7741 38.9944 61.6232 39.0954L49.4563 47.2382L61.089 40.5182C61.2465 40.4198 61.4368 40.3883 61.6179 40.4303C61.7991 40.4723 61.9552 40.5838 62.0537 40.7426C62.1521 40.9014 62.1836 41.0904 62.1416 41.2716C62.0996 41.4527 61.9881 41.6089 61.8292 41.7073L51.1389 48.8932L61.0286 43.1826C61.1874 43.0854 61.3777 43.0553 61.5576 43.0986C61.7374 43.1419 61.8936 43.2561 61.9907 43.4136C62.0878 43.5711 62.118 43.7627 62.0747 43.9425C62.0314 44.1223 61.9172 44.2785 61.7597 44.3756L58.7396 46.3352L60.7779 45.1592C60.9341 45.0699 61.1179 45.045 61.2911 45.087C61.4644 45.129 61.6166 45.2379 61.7137 45.3889C61.8109 45.5398 61.8463 45.7223 61.8122 45.8981C61.7781 46.074 61.6796 46.2302 61.5339 46.3352L51.6889 53.3505L59.7082 48.7174C59.8618 48.6294 60.0429 48.6019 60.2162 48.6426C60.3894 48.6833 60.5391 48.7869 60.6388 48.9353C60.7386 49.0836 60.7766 49.2621 60.7477 49.4366C60.7189 49.6112 60.6257 49.77 60.4852 49.8776L53.2599 55.4426L57.1659 53.1969C57.246 53.1457 57.3352 53.1129 57.4284 53.0972C57.5217 53.0816 57.6172 53.0852 57.709 53.1078C57.8009 53.1303 57.8872 53.1714 57.9626 53.2284C58.0374 53.2849 58.1017 53.3571 58.149 53.4384C58.1963 53.52 58.2265 53.6104 58.2378 53.704C58.2491 53.7977 58.2412 53.8926 58.2146 53.9831C58.1886 54.0738 58.1444 54.1582 58.0847 54.2312C58.0243 54.3047 57.9508 54.3651 57.8668 54.4084L44.8468 61.9277C44.7392 61.9894 44.6171 62.0196 44.4924 62.0169L44.4951 62.0196Z" fill="#E1EFFF"/>
<path fill-rule="evenodd" clip-rule="evenodd" d="M25.0307 79.7947C17.2646 76.3639 10.7271 70.6466 6.29212 63.4056C2.48289 57.051 0.467176 49.7829 0.459371 42.3741C0.413433 42.3111 0.387183 42.2349 0.383246 42.1562C0.379308 42.0774 0.398996 42 0.438371 41.9331L0.452808 41.9173C0.493496 32.2573 3.91125 22.9163 10.1128 15.5098C15.6516 9.03656 23.0147 4.38506 31.2388 2.16169C39.4629 -0.0616888 48.1661 0.249373 56.2117 3.05025C61.9278 5.09793 67.1132 8.39854 71.3882 12.7102C71.5184 12.7618 71.6234 12.8621 71.6809 12.9898C79.2558 20.7287 83.5376 31.1016 83.6272 41.9304C83.622 44.1997 83.4343 46.4651 83.0668 48.7056C81.6204 57.0728 77.658 64.7994 71.7084 70.8579C65.7589 76.9164 58.1044 81.0167 49.7647 82.6127C41.4251 84.2087 32.7967 83.2269 25.0307 79.7947ZM2.53181 42.6576C2.68866 51.6037 5.82838 60.2413 11.4529 67.2C15.0649 71.5798 19.5641 75.1419 24.6566 77.6527C29.7481 80.1631 35.3148 81.5634 40.9881 81.7609V74.8374C33.4491 74.6393 26.2027 71.8777 20.4435 67.0084C14.6842 62.139 10.7559 55.4531 9.30693 48.0519C8.98537 46.2722 8.81606 44.4675 8.80162 42.6576H2.53181ZM70.2712 29.0377C67.6237 23.2168 63.2955 18.3209 57.8432 14.9796C52.2097 11.5892 45.6445 10.077 39.0956 10.6611C32.5466 11.2452 26.3527 13.8955 21.4082 18.2293C16.6291 22.4951 13.2559 28.1098 11.734 34.3324C10.212 40.5549 10.6128 47.0927 12.8835 53.0827C15.1538 59.0729 19.1872 64.2338 24.4514 67.8841C29.7155 71.5345 35.9629 73.5026 42.3688 73.5289C49.64 73.3963 56.6409 70.7424 62.1718 66.0201C67.7027 61.2977 71.4249 54.8034 72.6994 47.6424C73.7638 41.3369 72.9177 34.8572 70.2699 29.0364L70.2712 29.0377ZM43.0119 81.7648C47.3577 81.7073 51.6623 80.9142 55.7432 79.4194L55.7458 79.4246C63.2147 76.5759 69.6612 71.559 74.2572 65.0186C78.8532 58.4781 81.3886 50.7129 81.5377 42.7206H75.138C75.0645 46.4914 74.3321 50.2202 72.9711 53.7377C70.5298 59.7568 66.4059 64.9464 61.0929 68.6831C55.7799 72.4198 49.5022 74.5474 43.0119 74.8099V81.7648ZM81.5377 41.2794C81.5062 39.4222 81.3474 37.569 81.0613 35.7341C80.0617 29.7133 77.7044 23.999 74.1681 19.0247L74.2822 18.9617C70.5469 13.6001 68.1778 12.0107 67.0832 11.3846C62.1167 7.20484 56.1933 4.31867 49.8409 2.98331C47.5923 2.52983 45.3079 2.27728 43.0146 2.22862V9.2085C50.0141 9.34237 56.7774 11.6917 62.3398 15.8996L66.2287 19.4171C71.8036 25.3521 74.9871 33.1388 75.1669 41.2794H81.5377ZM40.992 9.22162V2.22206H40.9881C30.7408 2.43832 20.9836 6.6497 13.7975 13.958C6.61129 21.2663 2.5649 31.093 2.52131 41.3424H8.82918C9.08118 32.8965 12.5527 24.8666 18.5312 18.8947C24.5096 12.9229 32.5447 9.46312 40.9907 9.22162H40.992Z" fill="#262626"/>
<path d="M16.1569 46.5885C17.2773 52.5314 20.4304 57.8994 25.0754 61.7721C29.7203 65.6448 35.5679 67.7809 41.6154 67.8142C46.863 67.8104 51.9947 66.2706 56.3775 63.3849C60.7604 60.4991 64.2027 56.3936 66.2799 51.5747C68.3389 46.5135 68.7329 40.9281 67.4048 35.628C66.0767 30.3278 63.0955 25.5882 58.8932 22.0959C54.7502 18.7736 49.7108 16.7617 44.4188 16.3173C39.1269 15.8728 33.8225 17.0161 29.1834 19.6009C24.4996 22.2128 20.7355 26.2059 18.4043 31.0356C16.073 35.8653 15.2882 41.2964 16.1569 46.5885ZM26.0046 23.4478C29.8182 20.082 34.6067 18.0213 39.6728 17.566C44.7389 17.1106 49.8181 18.2842 54.1708 20.916C58.4009 23.5021 61.7687 27.2851 63.8479 31.7861C65.9269 36.2867 66.6251 41.3044 65.8521 46.2013C64.9359 51.8046 62.0882 56.9108 57.8025 60.6349C53.5172 64.3584 48.0624 66.465 42.3859 66.5884C37.3975 66.5493 32.5373 65.0039 28.4423 62.1549C24.3474 59.3058 21.2089 55.286 19.4381 50.6223C17.6673 45.9586 17.3469 40.8687 18.5188 36.0198C19.6908 31.1709 22.3005 26.7892 26.0059 23.4491H26.0046V23.4478ZM61.6429 41.7322C61.6123 38.8554 60.959 36.0192 59.7279 33.4189C58.4981 30.8227 56.721 28.5298 54.5226 26.7028C51.3693 24.1624 47.5144 22.6473 43.4752 22.3611C39.4394 22.0785 35.414 23.0395 31.941 25.1147C30.5773 25.9402 29.3173 26.9299 28.1886 28.0612C28.0429 28.1374 27.9261 28.2581 27.8526 28.4051V28.4196C24.3561 32.0841 22.3755 36.9639 22.3204 42.0577C22.3112 42.1028 22.3112 42.1492 22.3204 42.1942C22.3047 44.7033 22.786 47.1906 23.7366 49.5127C24.6839 51.8277 26.0831 53.9306 27.8526 55.6986C27.8604 55.7248 27.8591 55.7537 27.8814 55.776C27.9037 55.7983 27.9313 55.7931 27.9549 55.8049C31.6837 59.5219 36.6909 61.6297 41.9239 61.6875C45.9165 61.6507 49.8081 60.4117 53.1011 58.1254C56.4027 55.8285 58.9473 52.6024 60.4117 48.8565C61.2229 46.6787 61.6393 44.3738 61.6416 42.0499C61.6626 42.0118 61.677 41.9724 61.6875 41.9304C61.6858 41.8617 61.6707 41.7939 61.6429 41.7309V41.7322ZM59.6754 45.339C59.0926 48.6968 57.5735 51.8219 55.293 54.3546C55.0397 54.0999 54.7431 53.6642 54.4097 53.5211C54.2325 53.4424 52.6116 53.613 52.8137 54.0514C53.2531 54.5489 53.7202 55.0213 54.2128 55.4662C51.1215 58.3911 47.0954 60.1285 42.8466 60.3711V58.8879C42.8466 58.3551 42.672 57.9941 42.0682 58.0624C40.8397 58.2015 41.1259 59.4169 41.1259 60.3632C36.8248 60.0679 32.7626 58.2514 29.652 55.23C30.2256 54.7483 30.7401 54.1971 31.1824 53.5894C31.1653 53.3662 30.8477 53.3662 30.6836 53.3754C30.2654 53.3811 29.8629 53.5356 29.5483 53.8112L28.9065 54.4609C27.2185 52.6374 25.9202 50.4888 25.0911 48.1464C24.4592 46.344 24.1082 44.4551 24.0502 42.546C24.0502 42.5539 24.9703 42.546 25.0622 42.546C25.3942 42.5692 25.726 42.4963 26.0177 42.336C26.4797 42.0341 26.439 41.4212 25.8129 41.4212H24.0476C24.1583 37.0805 25.7696 32.9123 28.6072 29.6257L29.3383 30.366C29.7977 30.8306 30.8188 31.1128 31.143 30.2938C31.1809 30.2188 31.1982 30.1349 31.1929 30.051C31.1876 29.967 31.1574 29.8856 31.1089 29.8174L29.7504 28.4432C29.9565 28.2476 30.156 28.0494 30.3726 27.8617C33.3913 25.2748 37.1818 23.7877 41.1337 23.6381V25.2472C41.1337 25.6384 41.2624 25.7696 41.6771 25.7644C42.0472 25.7578 42.8387 25.5583 42.8387 25.0806V23.6381C45.8524 23.7906 48.7757 24.7187 51.3253 26.3327C52.3981 27.021 53.3958 27.8199 54.3021 28.7162L53.1694 29.862C53.0355 29.9985 52.731 30.2059 52.7966 30.4264C52.8373 30.5655 53.0027 30.6206 53.1497 30.6364C53.5275 30.6764 53.9075 30.5851 54.2259 30.3778C54.3309 30.3056 55.0896 29.5431 55.0843 29.5312C58.0088 32.7878 59.7187 36.9546 59.9248 41.3267H58.8236C58.4076 41.3267 57.6187 41.4606 57.5977 42.042C57.582 42.5001 58.023 42.6379 58.3957 42.6379H59.934C59.9143 43.5435 59.8277 44.4465 59.6754 45.339Z" fill="#262626"/>
<path d="M42.4659 47.6293C42.336 47.6293 42.2087 47.5926 42.0984 47.5243C41.9882 47.4561 41.8989 47.3576 41.8399 47.2421C41.7808 47.1266 41.7572 46.9954 41.769 46.8668C41.7808 46.7381 41.8281 46.6134 41.9068 46.5098L43.4359 44.4964L39.7267 46.6371C39.5837 46.7184 39.417 46.7473 39.2542 46.7171C39.0915 46.6869 38.9458 46.6016 38.8408 46.4743C38.7358 46.347 38.6794 46.1869 38.6807 46.0228C38.682 45.8588 38.7411 45.6986 38.8487 45.5739L41.5629 42.4371L38.2948 44.3231C38.157 44.4032 37.9942 44.4347 37.8367 44.4098C37.6792 44.3848 37.5336 44.3074 37.4259 44.1893C37.3183 44.0711 37.254 43.9189 37.2448 43.7588C37.2356 43.5986 37.2816 43.4411 37.3734 43.3099L39.0928 40.8923L39.0036 40.9421C38.8434 41.0261 38.6571 41.0445 38.4838 40.9946C38.3106 40.9448 38.1636 40.8293 38.073 40.6731C37.9824 40.5169 37.9562 40.3318 37.9995 40.1559C38.0428 39.9801 38.1517 39.8291 38.304 39.732L41.1744 38.0743C41.3122 37.9943 41.475 37.9641 41.6325 37.989C41.79 38.0139 41.9344 38.0914 42.042 38.2095C42.1496 38.3276 42.2126 38.4786 42.2231 38.6387C42.2336 38.7988 42.1877 38.9563 42.0945 39.0863L40.3751 41.5052L44.4583 39.1493C44.6014 39.0679 44.7694 39.039 44.9308 39.0692C45.0922 39.0994 45.2392 39.1847 45.3442 39.312C45.4492 39.4393 45.5057 39.5994 45.5044 39.7635C45.5031 39.9276 45.444 40.0877 45.3364 40.2124L42.6247 43.3479L45.7485 41.5433C45.8889 41.4632 46.0517 41.433 46.2105 41.4593C46.3693 41.4855 46.515 41.5656 46.6213 41.6876C46.7276 41.8097 46.7893 41.9633 46.7959 42.1247C46.8024 42.2861 46.7526 42.4436 46.6554 42.5736L45.1067 44.6119C45.2707 44.5554 45.4506 44.562 45.6107 44.6303C45.7708 44.6985 45.8994 44.8245 45.9716 44.982C46.0438 45.1395 46.0543 45.3193 46.0018 45.4847C45.9493 45.6501 45.8364 45.7905 45.6868 45.8784L42.8164 47.5361C42.7101 47.5982 42.589 47.6304 42.4659 47.6293Z" fill="#BFDBF0"/>
<path d="M50.0128 37.9982L46.1081 39.9499C45.7696 39.4165 45.3253 38.9582 44.8027 38.6033C44.2801 38.2485 43.6903 38.0045 43.0697 37.8866V29.9066C43.0697 29.4866 42.1326 29.6271 41.9212 29.6782C41.5432 29.7793 41.0406 30.0037 41.0406 30.45V37.9601C39.9411 38.2591 38.9684 38.9069 38.2685 39.806C37.5687 40.7051 37.1795 41.8071 37.1595 42.9463C37.1542 43.5763 37.275 44.2011 37.5126 44.7851C37.7505 45.3688 38.1016 45.8996 38.5456 46.3469C38.9895 46.7943 39.5177 47.1494 40.0995 47.3918C40.6809 47.6333 41.3057 47.7579 41.9357 47.7579C43.2535 47.7016 44.5012 47.1487 45.4283 46.2105C46.3553 45.2722 46.8931 44.018 46.9337 42.6996C46.9337 42.6641 46.9232 42.6431 46.9232 42.6116C46.9297 42.5762 46.935 42.5394 46.9389 42.504C46.9101 42.0761 46.83 41.6522 46.7001 41.244L50.3186 39.438L50.8948 39.1492C51.2229 38.9852 51.7112 38.5219 51.3804 38.1334C51.1941 37.9719 50.9617 37.8722 50.7163 37.8472C50.4709 37.8223 50.2241 37.8761 50.0102 37.9982H50.0128ZM38.5691 42.6011C38.5775 42.1236 38.6895 41.6536 38.8976 41.2236C39.1056 40.7937 39.4047 40.4142 39.774 40.1113C40.1428 39.8081 40.5733 39.5889 41.0353 39.4682C41.4973 39.3474 41.9803 39.3291 42.4502 39.4131C42.8956 39.4161 43.3353 39.5137 43.7403 39.6992C44.1453 39.8847 44.5063 40.154 44.7996 40.4893C45.0927 40.8249 45.3112 41.2188 45.4409 41.645C45.5705 42.0712 45.6083 42.5202 45.5516 42.9621C45.1959 47.3931 38.5429 46.9455 38.5678 42.6011H38.5691Z" fill="#262626"/>
</svg>
