<svg width="84" height="84" viewBox="0 0 84 84" fill="none" xmlns="http://www.w3.org/2000/svg">
<path d="M23.3664 72.0523C23.2142 72.0523 23.0646 72.0038 22.9438 71.9119C22.8231 71.82 22.7338 71.6914 22.6918 71.5444C22.6498 71.3974 22.6577 71.2412 22.7128 71.0994C22.7679 70.9577 22.869 70.8369 22.9989 70.7569L40.7479 59.8172L19.719 71.9552C19.5602 72.0431 19.3738 72.0654 19.1993 72.0182C19.0247 71.9709 18.8751 71.8581 18.7819 71.7019C18.6887 71.5457 18.6598 71.3606 18.7005 71.1848C18.7412 71.0089 18.8488 70.854 19.0011 70.7556L46.8917 53.3807L14.7118 71.9565C14.553 72.0418 14.3679 72.0615 14.1947 72.0143C14.0214 71.967 13.8731 71.8528 13.7813 71.6992C13.6894 71.5457 13.6592 71.3606 13.6986 71.1861C13.7379 71.0115 13.8443 70.8566 13.9926 70.7569L44.3809 51.9173L9.66132 71.9539C9.5025 72.0405 9.31613 72.0615 9.14288 72.0129C8.96963 71.9644 8.82 71.8515 8.72682 71.6966C8.63363 71.5418 8.60475 71.3567 8.64544 71.1808C8.68613 71.0049 8.79375 70.8514 8.94469 70.7516L37.0598 53.5146L5.62538 71.673C5.46657 71.7596 5.28019 71.7806 5.10694 71.7334C4.93369 71.6861 4.78407 71.5719 4.69088 71.4171C4.59769 71.2622 4.56882 71.0771 4.6095 70.9013C4.65019 70.7254 4.75782 70.5718 4.90875 70.4734L39.1676 49.3959L3.26288 70.1256C3.10275 70.2148 2.91507 70.2371 2.73919 70.1899C2.56332 70.1426 2.41238 70.0271 2.31919 69.8696C2.226 69.7121 2.19844 69.5244 2.24175 69.3473C2.28507 69.1701 2.39663 69.0165 2.5515 68.9194L26.7159 54.2653L2.20369 68.418C2.04488 68.5073 1.85719 68.5322 1.68 68.4849C1.50282 68.4377 1.35188 68.3235 1.25869 68.1673C1.1655 68.0111 1.13663 67.8234 1.17863 67.6463C1.22063 67.4691 1.33088 67.3142 1.48444 67.2171L40.2321 43.3519L1.8165 65.5305C1.65638 65.6211 1.46869 65.646 1.29019 65.5988C1.11169 65.5515 0.960754 65.4373 0.867567 65.2785C0.774379 65.1197 0.745504 64.932 0.790129 64.7535C0.834754 64.575 0.946317 64.4214 1.1025 64.3256L33.1104 44.7353L1.81519 62.8044C1.65638 62.8898 1.47132 62.9094 1.29807 62.8622C1.12482 62.8149 0.976504 62.7021 0.884629 62.5472C0.792754 62.3923 0.762567 62.2086 0.801942 62.034C0.841317 61.8594 0.946317 61.7059 1.09594 61.6061L36.036 39.9591L1.81388 59.7135C1.65638 59.7909 1.47394 59.8054 1.30594 59.7555C1.13794 59.7056 0.993567 59.5941 0.904317 59.4418C0.815067 59.2896 0.784879 59.1111 0.821629 58.9391C0.858379 58.7672 0.958129 58.6149 1.10119 58.5139L19.824 47.1043L1.81388 57.5006C1.65507 57.5833 1.47132 57.6017 1.29938 57.5531C1.12744 57.5046 0.980442 57.3917 0.889879 57.2381C0.799317 57.0846 0.769129 56.9021 0.807192 56.7276C0.845254 56.553 0.948942 56.3994 1.09725 56.2997L26.6621 40.4801L1.81388 54.831C1.65507 54.915 1.47 54.9347 1.29807 54.8861C1.12613 54.8376 0.977817 54.7247 0.885942 54.5711C0.794067 54.4176 0.765192 54.2338 0.804567 54.0592C0.843942 53.8847 0.948942 53.7311 1.09857 53.6314L17.0664 43.8309L1.81257 52.6352C1.65375 52.7205 1.46869 52.7402 1.29544 52.6929C1.12219 52.6457 0.973879 52.5315 0.882004 52.3779C0.790129 52.2244 0.759942 52.0393 0.799317 51.8647C0.838692 51.6902 0.943692 51.5353 1.09332 51.4356L20.2007 39.5837L1.81125 50.2071C1.65244 50.2924 1.46738 50.3147 1.29413 50.2661C1.12088 50.2176 0.971254 50.106 0.878067 49.9524C0.784879 49.7989 0.756004 49.6138 0.795379 49.4379C0.834754 49.2621 0.941067 49.1085 1.09069 49.0088L21.6051 36.1161L1.81125 47.5427C1.65375 47.6293 1.46738 47.6516 1.29413 47.6057C1.12088 47.5598 0.969942 47.4482 0.876754 47.2933C0.783567 47.1384 0.752067 46.9547 0.790129 46.7788C0.828192 46.6029 0.933192 46.4481 1.08282 46.3483L23.7143 31.7625L1.81125 44.4097C1.65375 44.5003 1.46607 44.5239 1.29019 44.4793C1.11432 44.4347 0.962067 44.3218 0.867567 44.1669C0.773067 44.0121 0.741567 43.8257 0.782254 43.6485C0.822942 43.4713 0.929254 43.3164 1.0815 43.2167L19.4696 31.3268L1.80994 41.5236C1.64982 41.6194 1.45819 41.6469 1.27838 41.601C1.09857 41.5551 0.942379 41.4396 0.847879 41.2794C0.75338 41.1193 0.724504 40.9277 0.770442 40.7479C0.816379 40.5681 0.931879 40.4119 1.092 40.3174L2.48063 39.4551L1.80994 39.8436C1.65113 39.9368 1.46344 39.963 1.28494 39.9184C1.10644 39.8738 0.954192 39.7609 0.858379 39.6034C0.762567 39.4459 0.732379 39.2582 0.774379 39.0797C0.816379 38.9012 0.926629 38.7463 1.0815 38.6479L11.4069 32.0119L1.80863 37.5533C1.65113 37.6425 1.46475 37.6674 1.28888 37.6228C1.113 37.5782 0.962067 37.4666 0.866254 37.3118C0.770442 37.1569 0.740254 36.9718 0.778317 36.7946C0.816379 36.6174 0.924004 36.4626 1.07494 36.3615L11.5749 29.4538L1.80863 35.0936C1.64982 35.1842 1.46213 35.2091 1.28625 35.1632C1.11038 35.1173 0.958129 35.0044 0.863629 34.8482C0.769129 34.692 0.738942 34.5056 0.780942 34.3271C0.822942 34.1486 0.931879 33.9951 1.08544 33.8966L2.13807 33.2246L1.80863 33.4149C1.65113 33.5134 1.46082 33.5436 1.27969 33.5016C1.09857 33.4596 0.942379 33.3467 0.843942 33.1892C0.745504 33.0317 0.715317 32.8414 0.757317 32.6603C0.799317 32.4791 0.912192 32.3229 1.06969 32.2245L6.67013 28.5049L1.81257 31.3044C1.65507 31.3924 1.47 31.416 1.29544 31.3714C1.12088 31.3268 0.969942 31.2165 0.875442 31.0629C0.780942 30.9094 0.748129 30.7269 0.784879 30.5498C0.821629 30.3726 0.925317 30.2177 1.07363 30.1153L4.50582 27.8145L1.81257 29.3685C1.65769 29.4551 1.47525 29.4801 1.302 29.4368C1.12875 29.3934 0.979129 29.2871 0.882004 29.1375C0.784879 28.9879 0.749442 28.8068 0.780942 28.6322C0.812442 28.4576 0.909567 28.3001 1.05263 28.1951L6.27638 24.4374L1.806 27.0152C1.65507 27.1018 1.47657 27.1294 1.30594 27.0913C1.13532 27.0533 0.985692 26.9535 0.885942 26.8104C0.786192 26.6674 0.742879 26.4928 0.765192 26.3196C0.787504 26.1463 0.872817 25.9875 1.00669 25.8746L6.29869 21.4279L1.80732 24.0201C1.65769 24.1067 1.4805 24.1356 1.30988 24.0988C1.13925 24.0621 0.989629 23.9649 0.888567 23.8245C0.787504 23.6841 0.741567 23.5108 0.759942 23.3376C0.778317 23.1643 0.861004 23.0055 0.990942 22.8913L3.26288 20.8701L1.80469 21.7101C1.67475 21.7862 1.52382 21.8177 1.37419 21.8006C1.22457 21.7836 1.08544 21.7193 0.975192 21.6169C0.864942 21.5145 0.791442 21.3793 0.763879 21.231C0.736317 21.0827 0.757317 20.9304 0.824254 20.7953L1.95432 18.4866C1.7955 18.5023 1.63538 18.4629 1.5015 18.375C1.36763 18.2871 1.26788 18.1571 1.21932 18.0049C1.17075 17.8526 1.17469 17.6886 1.23244 17.5389C1.29019 17.3893 1.3965 17.2646 1.53432 17.1846L3.19332 16.2356C3.32325 16.1595 3.47419 16.128 3.62382 16.1451C3.77344 16.1621 3.91257 16.2264 4.02282 16.3288C4.13307 16.4312 4.20657 16.5664 4.23413 16.7147C4.26169 16.863 4.24069 17.0153 4.17375 17.1504L3.09094 19.3528L8.50107 16.2369C8.65069 16.1503 8.82788 16.1214 8.9985 16.1582C9.16913 16.1949 9.31875 16.2921 9.41982 16.4338C9.52088 16.5756 9.56682 16.7475 9.54844 16.9208C9.53007 17.094 9.44738 17.2528 9.31744 17.367L7.04682 19.3817L12.5068 16.2317C12.6591 16.1451 12.8376 16.1175 13.0082 16.1556C13.1788 16.1936 13.3284 16.2947 13.4295 16.4378C13.5306 16.5808 13.5726 16.7567 13.5503 16.9299C13.5279 17.1032 13.4413 17.262 13.3074 17.3749L8.00888 21.8229L17.6951 16.2383C17.85 16.1477 18.0351 16.1214 18.2096 16.1634C18.3842 16.2054 18.5364 16.3131 18.6336 16.464C18.7307 16.6149 18.7661 16.7974 18.7333 16.9746C18.7005 17.1518 18.5994 17.3079 18.4538 17.4129L13.2353 21.1601L21.7757 16.2304C21.9332 16.1398 22.1196 16.1123 22.2954 16.1569C22.4713 16.2015 22.6236 16.3118 22.7207 16.4653C22.8178 16.6189 22.8493 16.8053 22.8113 16.9824C22.7732 17.1596 22.6669 17.3158 22.5159 17.4169L19.0824 19.7203L25.1304 16.2291C25.2879 16.1306 25.4783 16.1004 25.6594 16.1424C25.8405 16.1844 25.9967 16.2973 26.0938 16.4548C26.1909 16.6123 26.2224 16.8026 26.1804 16.9838C26.1384 17.1649 26.0256 17.3211 25.8681 17.4195L20.2676 21.1431L28.7792 16.2291C28.938 16.1411 29.1231 16.1175 29.2989 16.1634C29.4748 16.2094 29.6244 16.3223 29.7189 16.4771C29.8134 16.632 29.8436 16.8171 29.8043 16.9943C29.7649 17.1714 29.6573 17.325 29.5063 17.4248L28.4537 18.0968L31.689 16.2291C31.8465 16.1346 32.0355 16.1057 32.214 16.149C32.3925 16.1923 32.5474 16.3052 32.6445 16.4614C32.7416 16.6176 32.7718 16.8066 32.7311 16.9864C32.6904 17.1662 32.5802 17.3211 32.424 17.4208L21.924 24.3285L35.9546 16.2278C36.1134 16.1306 36.3038 16.1018 36.4836 16.1451C36.6634 16.1884 36.8196 16.3026 36.9167 16.4614C37.0138 16.6202 37.0427 16.8105 36.9994 16.9916C36.9561 17.1728 36.8419 17.3276 36.6831 17.4248L26.3668 24.0621L39.9276 16.2291C40.0864 16.1333 40.278 16.1057 40.4578 16.1503C40.6376 16.1949 40.7925 16.3104 40.8883 16.4693C40.9841 16.6281 41.0117 16.8197 40.9671 16.9995C40.9224 17.1793 40.8069 17.3342 40.6481 17.43L39.2477 18.2976L42.8334 16.2264C42.9923 16.1293 43.1826 16.0991 43.3624 16.1424C43.5422 16.1858 43.6984 16.2999 43.7955 16.4574C43.8926 16.6149 43.9228 16.8066 43.8795 16.9864C43.8362 17.1662 43.722 17.3224 43.5645 17.4195L25.179 29.3068L47.8354 16.2251C47.9929 16.1346 48.1806 16.1096 48.3564 16.1556C48.5323 16.2015 48.6846 16.3131 48.7791 16.4679C48.8736 16.6228 48.9051 16.8092 48.8644 16.9864C48.8237 17.1636 48.7174 17.3184 48.5651 17.4182L25.9245 32.004L53.2599 16.2212C53.4188 16.1254 53.6104 16.0965 53.7902 16.1411C53.97 16.1858 54.1249 16.2999 54.2207 16.4601C54.3165 16.6202 54.3454 16.8092 54.3008 16.9903C54.2561 17.1714 54.1419 17.325 53.9818 17.4208L33.4661 30.3135L57.8747 16.2212C57.9534 16.1739 58.0414 16.1424 58.1319 16.1293C58.2225 16.1162 58.3157 16.1201 58.4049 16.1424C58.4942 16.1648 58.5782 16.2041 58.6517 16.2593C58.7252 16.3144 58.7882 16.3826 58.8354 16.4614C58.8827 16.5401 58.9142 16.6281 58.9273 16.7186C58.9411 16.8096 58.9367 16.9023 58.9144 16.9915C58.8921 17.0807 58.8523 17.1646 58.7974 17.2384C58.7423 17.3119 58.674 17.3749 58.5953 17.4221L39.4905 29.2714L62.097 16.2186C62.2571 16.1241 62.4474 16.0952 62.6273 16.1411C62.8071 16.1871 62.9619 16.3026 63.0564 16.4614C63.1509 16.6202 63.1798 16.8118 63.1339 16.9916C63.0879 17.1714 62.9724 17.3263 62.8136 17.4221L46.8536 27.2055L65.8901 16.2186C66.0489 16.1293 66.2366 16.1057 66.4138 16.1516C66.591 16.1976 66.7419 16.3131 66.8351 16.4693C66.9283 16.6254 66.9572 16.8131 66.9152 16.9903C66.8732 17.1675 66.7629 17.3224 66.6094 17.4195L41.0235 33.2417L70.518 16.2186C70.6768 16.1319 70.8645 16.1109 71.0391 16.1582C71.2136 16.2054 71.3633 16.3209 71.4551 16.4758C71.547 16.6307 71.5759 16.8171 71.5339 16.9943C71.4919 17.1714 71.3829 17.3237 71.2307 17.4221L52.4934 28.833L74.3544 16.212C74.5133 16.1228 74.7009 16.0991 74.8781 16.1451C75.0553 16.191 75.2049 16.3052 75.2994 16.4627C75.3939 16.6202 75.4215 16.8066 75.3795 16.9838C75.3375 17.1609 75.2273 17.3158 75.0737 17.4129L40.1363 39.0639L79.7081 16.2173C79.7869 16.17 79.8748 16.1398 79.9654 16.1267C80.0559 16.1136 80.1491 16.1188 80.2384 16.1411C80.3276 16.1634 80.4116 16.2041 80.4851 16.2593C80.5586 16.3144 80.6203 16.3839 80.6676 16.4627C80.7148 16.5414 80.745 16.6294 80.7581 16.7199C80.7713 16.8105 80.766 16.9037 80.7437 16.9929C80.7214 17.0822 80.6807 17.1662 80.6256 17.2397C80.5705 17.3134 80.5013 17.3754 80.4221 17.4221L48.4221 37.0073L82.1625 17.5232C82.2413 17.4759 82.3288 17.4446 82.4198 17.4313C82.5103 17.4182 82.6035 17.4221 82.6928 17.4458C82.782 17.4694 82.866 17.5088 82.9395 17.5626C83.013 17.6164 83.0747 17.6859 83.1219 17.766C83.1692 17.8461 83.1994 17.9327 83.2138 18.0233C83.2283 18.1138 83.223 18.207 83.1994 18.2963C83.1758 18.3855 83.1364 18.4695 83.0813 18.543C83.0266 18.6165 82.9579 18.6785 82.8791 18.7254L44.1354 42.5933L82.2334 20.5958C82.3935 20.5013 82.5838 20.4737 82.7636 20.5209C82.9434 20.5682 83.097 20.6824 83.1915 20.8425C83.286 21.0026 83.3136 21.1929 83.2663 21.3728C83.2191 21.5526 83.1049 21.7061 82.9448 21.8006L58.7974 36.4468L82.2334 22.9163C82.3922 22.8283 82.5799 22.806 82.7558 22.8533C82.9316 22.9005 83.0813 23.0147 83.1744 23.1709C83.2676 23.3271 83.2965 23.5134 83.2545 23.6906C83.2125 23.8678 83.1036 24.0214 82.95 24.1185L48.6767 45.1933L82.2334 25.8208C82.3922 25.7329 82.5799 25.7106 82.7558 25.7578C82.9316 25.8051 83.0813 25.9193 83.1744 26.0754C83.2676 26.2316 83.2965 26.418 83.2545 26.5952C83.2125 26.7724 83.1036 26.9259 82.95 27.0231L54.8284 44.2654L82.2334 28.4419C82.3922 28.3526 82.5799 28.3277 82.7571 28.3749C82.9343 28.4222 83.0852 28.5364 83.1784 28.6926C83.2716 28.8488 83.3004 29.0364 83.2584 29.2136C83.2164 29.3908 83.1062 29.5457 82.9526 29.6428L52.5709 48.4798L82.2334 31.3543C82.3922 31.2585 82.5838 31.2309 82.7636 31.2756C82.9434 31.3202 83.0983 31.4357 83.1941 31.5945C83.2899 31.7533 83.3175 31.9449 83.2729 32.1248C83.2283 32.3046 83.1128 32.4594 82.9539 32.5553L55.0515 49.9419L82.2321 34.2497C82.3922 34.1552 82.5825 34.1263 82.7623 34.1723C82.9421 34.2182 83.097 34.3324 83.1915 34.4925C83.286 34.6526 83.3149 34.8429 83.2689 35.0228C83.223 35.2026 83.1075 35.3574 82.9487 35.4519L65.2037 46.389L82.2321 36.5571C82.3922 36.4626 82.5825 36.4337 82.7623 36.4796C82.9421 36.5256 83.097 36.6398 83.1915 36.7999C83.286 36.96 83.3149 37.1503 83.2689 37.3301C83.223 37.5099 83.1075 37.6648 82.9487 37.7593L67.704 47.1739L82.2321 38.787C82.3909 38.6951 82.5799 38.6702 82.7571 38.7161C82.9343 38.7621 83.0878 38.8763 83.181 39.0338C83.2742 39.1913 83.3044 39.3789 83.2624 39.5574C83.2204 39.7359 83.1088 39.8908 82.9526 39.9879L65.0948 51.1678L82.2321 41.2742C82.3909 41.1863 82.5773 41.1639 82.7518 41.2112C82.9264 41.2584 83.076 41.3713 83.1692 41.5275C83.2624 41.6837 83.2913 41.8688 83.2506 42.0446C83.2099 42.2205 83.1023 42.3754 82.95 42.4738L69.9024 50.6258L82.2308 43.5081C82.3896 43.4175 82.5773 43.3926 82.7531 43.4385C82.929 43.4844 83.0813 43.5973 83.1758 43.7535C83.2703 43.9097 83.3004 44.0961 83.2584 44.2746C83.2164 44.4531 83.1088 44.6066 82.9539 44.7051L67.4284 54.5948L82.2294 46.0543C82.3869 45.9703 82.572 45.9493 82.7439 45.9966C82.9159 46.0438 83.0642 46.1554 83.1574 46.3076C83.2506 46.4599 83.2808 46.6436 83.244 46.8182C83.2073 46.9928 83.1036 47.1476 82.9553 47.2487L70.2542 55.3691L82.2281 48.4562C82.3856 48.3683 82.5707 48.3446 82.7453 48.3893C82.9198 48.4339 83.0708 48.5454 83.1653 48.699C83.2598 48.8526 83.2913 49.0363 83.2545 49.2135C83.2178 49.3907 83.1128 49.5456 82.9631 49.6466L68.8839 58.9286L82.2281 51.2282C82.3856 51.1442 82.5707 51.1232 82.7426 51.1704C82.9146 51.2177 83.0629 51.3293 83.1561 51.4815C83.2493 51.6338 83.2794 51.8175 83.2427 51.9921C83.2059 52.1666 83.1023 52.3215 82.9539 52.4226L78.7159 55.1303L82.2268 53.1051C82.3843 53.0197 82.5694 52.9974 82.7426 53.0447C82.9159 53.0919 83.0642 53.2022 83.1587 53.3558C83.2532 53.5093 83.2834 53.6918 83.2453 53.8676C83.2073 54.0435 83.1049 54.1971 82.9566 54.2981L79.2159 56.7144L82.2268 54.9767C82.3817 54.8914 82.5641 54.8678 82.7361 54.9111C82.908 54.9544 83.0576 55.062 83.1534 55.2116C83.2493 55.3613 83.286 55.5411 83.2532 55.7156C83.2204 55.8902 83.1246 56.0464 82.9815 56.1527L72.8844 63.3268L82.2255 57.9351C82.3817 57.8458 82.5668 57.8196 82.7413 57.8629C82.9159 57.9062 83.0681 58.0151 83.1639 58.1674C83.2598 58.3196 83.2952 58.5034 83.2598 58.6793C83.2243 58.8551 83.1233 59.0126 82.9749 59.1163L78.0111 62.5695L82.2255 60.1374C82.3791 60.0508 82.5602 60.0272 82.7321 60.0679C82.9041 60.1086 83.0524 60.2149 83.1508 60.3619C83.2493 60.5089 83.2873 60.6874 83.2584 60.8606C83.2296 61.0339 83.1364 61.1914 82.9973 61.3003L77.9573 65.1079L82.2203 62.6483C82.3699 62.5577 82.5471 62.5262 82.719 62.559C82.8909 62.5918 83.0432 62.6889 83.1469 62.8294C83.2506 62.9698 83.2991 63.1431 83.2808 63.3176C83.2624 63.4922 83.181 63.6523 83.0511 63.7678L78.8117 67.7788L82.1848 65.8311C82.3305 65.7458 82.5024 65.7156 82.6678 65.7471C82.8332 65.7786 82.9828 65.8691 83.0878 66.0004C83.1928 66.1316 83.2453 66.2983 83.2374 66.4676C83.2296 66.6369 83.1613 66.7958 83.0445 66.9178L81.4026 68.6516C81.5456 68.6739 81.6782 68.7409 81.7819 68.8419C81.8856 68.943 81.9551 69.0729 81.9814 69.216C82.0082 69.3585 81.9899 69.5058 81.9289 69.6373C81.8685 69.7686 81.7688 69.8788 81.6428 69.951L78.3169 71.8699C78.1712 71.9539 78.0006 71.9827 77.8352 71.9513C77.6698 71.9198 77.5215 71.8305 77.4178 71.6979C77.3141 71.5654 77.2603 71.4013 77.2669 71.2333C77.2734 71.0653 77.3417 70.9052 77.4572 70.7831L78.7277 69.4418L74.3597 71.9565C74.2101 72.0471 74.0329 72.0786 73.8609 72.0457C73.689 72.0129 73.5368 71.9158 73.4331 71.7754C73.3294 71.6349 73.2808 71.4617 73.2992 71.2871C73.3176 71.1126 73.3989 70.9524 73.5289 70.8369L77.7669 66.8273L68.8997 71.9565C68.7461 72.0431 68.565 72.0667 68.3931 72.0261C68.2211 71.9854 68.0728 71.8804 67.9744 71.7321C67.8759 71.5838 67.8392 71.4066 67.8668 71.232C67.8943 71.0574 67.9888 70.9013 68.1279 70.7923L73.1601 66.9874L64.5474 71.9565C64.3913 72.0431 64.2088 72.0668 64.0356 72.0221C63.8623 71.9775 63.714 71.8699 63.6182 71.7203C63.5224 71.5706 63.4883 71.3882 63.5211 71.2136C63.5539 71.0391 63.6536 70.8829 63.798 70.7779L68.7606 67.3129L60.7163 71.9565C60.5614 72.0431 60.3789 72.0668 60.207 72.0221C60.0351 71.9775 59.8854 71.8712 59.7896 71.7229C59.6938 71.5746 59.6584 71.3934 59.6899 71.2189C59.7214 71.0443 59.8185 70.8881 59.9616 70.7818L70.0547 63.609L55.6028 71.9552C55.4453 72.0405 55.2602 72.0628 55.0869 72.0156C54.9137 71.9683 54.7654 71.8581 54.6709 71.7045C54.5764 71.5509 54.5462 71.3685 54.5829 71.1926C54.6197 71.0168 54.7234 70.8632 54.8717 70.7621L58.611 68.3471L52.3556 71.9552C52.1981 72.0418 52.0131 72.0641 51.8385 72.0182C51.6639 71.9723 51.5143 71.8607 51.4211 71.7058C51.3279 71.5509 51.2964 71.3672 51.3345 71.1913C51.3726 71.0154 51.4776 70.8606 51.6272 70.7608L55.8797 68.0505L49.1046 71.9552C48.9471 72.0418 48.7633 72.0654 48.5888 72.0195C48.4142 71.9736 48.2659 71.8633 48.1714 71.7111C48.0769 71.5588 48.0441 71.3751 48.0808 71.1992C48.1176 71.0233 48.2199 70.8684 48.3683 70.7661L62.4461 61.4854L44.3126 71.9552C44.1551 72.0418 43.9688 72.0641 43.7955 72.0182C43.6223 71.9723 43.4713 71.8607 43.3781 71.7058C43.2849 71.5509 43.2534 71.3672 43.2915 71.1913C43.3296 71.0154 43.4346 70.8606 43.5842 70.7608L56.2997 62.6338L40.1415 71.9552C39.984 72.0405 39.7989 72.0628 39.6257 72.0156C39.4524 71.9683 39.3028 71.8568 39.2096 71.7032C39.1164 71.5496 39.0863 71.3659 39.1243 71.19C39.1624 71.0141 39.2674 70.8606 39.417 70.7595L54.936 60.8803L35.7499 71.9552C35.5911 72.0392 35.4073 72.0589 35.2354 72.0103C35.0634 71.9618 34.9151 71.8502 34.8233 71.6966C34.7314 71.5431 34.7012 71.3606 34.7393 71.1861C34.7773 71.0115 34.881 70.8579 35.0293 70.7569L48.0874 62.5997L31.8793 71.9565C31.7205 72.0458 31.5341 72.0694 31.3583 72.0221C31.1824 71.9749 31.0314 71.862 30.9383 71.7071C30.8451 71.5522 30.8149 71.3659 30.8556 71.1887C30.8963 71.0115 31.0052 70.8579 31.1574 70.7582L49.0206 59.5823L27.5756 71.9565C27.4168 72.0458 27.2291 72.0707 27.0519 72.0234C26.8748 71.9762 26.7251 71.862 26.6306 71.7058C26.5361 71.5496 26.5086 71.3619 26.5506 71.1848C26.5926 71.0076 26.7028 70.8527 26.8564 70.7556L42.1037 61.341L23.7103 71.9578C23.604 72.0208 23.4833 72.0549 23.3599 72.0563L23.3664 72.0523Z" fill="#E1EFFF"/>
<path d="M3.35474 18.9144C3.20511 18.9144 3.06074 18.8685 2.93999 18.7806C2.81924 18.6926 2.72999 18.5679 2.68536 18.4262C2.64074 18.2844 2.64205 18.1309 2.6893 17.9904C2.73655 17.85 2.82974 17.7266 2.9518 17.6413L5.95349 15.5334L1.78761 17.9353C1.63405 18.0233 1.45161 18.0495 1.27967 18.0075C1.10774 17.9655 0.956799 17.8618 0.858362 17.7135C0.759924 17.5652 0.721862 17.3867 0.750737 17.2108C0.779612 17.0349 0.874112 16.8788 1.01455 16.7711L5.69886 13.2129L1.78761 15.4718C1.63405 15.5584 1.45292 15.5846 1.28099 15.5439C1.10905 15.5033 0.959424 15.3983 0.860987 15.2513C0.762549 15.1043 0.724487 14.9258 0.752049 14.7512C0.779612 14.5766 0.874112 14.4191 1.01324 14.3115L2.64992 13.0515L1.78761 13.5555C1.64586 13.6369 1.4818 13.6658 1.32167 13.6382C1.16155 13.6106 1.01586 13.5279 0.909549 13.4046C0.803237 13.2812 0.742862 13.125 0.740237 12.9623C0.737612 12.7995 0.790112 12.6407 0.891174 12.5134L3.21692 9.59569L3.07649 9.67706C2.91636 9.76894 2.72605 9.79256 2.54755 9.744C2.36905 9.69544 2.2168 9.57863 2.12492 9.4185C2.03305 9.25838 2.0068 9.06806 2.05405 8.88956C2.1013 8.71106 2.2168 8.5575 2.37692 8.46431L5.69886 6.5415C5.84061 6.46013 6.00467 6.42994 6.16611 6.45619C6.32755 6.48244 6.47324 6.56513 6.57955 6.68981C6.68586 6.8145 6.74624 6.97069 6.74886 7.13344C6.75149 7.29619 6.69767 7.45631 6.59661 7.58363L4.27742 10.4974L11.2875 6.45488C11.441 6.36563 11.6235 6.33938 11.7967 6.37875C11.97 6.41813 12.1209 6.52444 12.2194 6.67144C12.3178 6.81844 12.3572 6.99956 12.3283 7.17413C12.2994 7.34869 12.2049 7.5075 12.0632 7.61513L10.4239 8.87513L14.6094 6.45356C14.763 6.36431 14.9467 6.33675 15.12 6.37744C15.2932 6.41813 15.4455 6.52313 15.5439 6.67144C15.6424 6.81975 15.6817 7.00088 15.6515 7.17675C15.6214 7.35263 15.5255 7.51013 15.3838 7.61775L10.6969 11.1733L18.879 6.45356C19.0352 6.36563 19.2189 6.33938 19.3935 6.38269C19.568 6.426 19.719 6.53494 19.8148 6.68588C19.9106 6.83681 19.946 7.01925 19.9119 7.19513C19.8778 7.371 19.7767 7.52719 19.631 7.63219L16.6359 9.73219L22.323 6.45356C22.4765 6.363 22.6577 6.33544 22.8322 6.3735C23.0068 6.41156 23.1577 6.51656 23.2575 6.66356C23.3572 6.81056 23.3979 6.99038 23.369 7.16625C23.3402 7.34213 23.247 7.50094 23.1065 7.60988L16.6005 12.726L27.4719 6.45356C27.6281 6.36694 27.8119 6.34331 27.9864 6.38663C28.161 6.42994 28.3093 6.54019 28.4051 6.69244C28.5009 6.84469 28.5337 7.02581 28.4996 7.20169C28.4655 7.37756 28.3631 7.53244 28.2174 7.63613L26.9351 8.5155L30.5077 6.45356C30.6639 6.363 30.8477 6.33675 31.0235 6.38006C31.1994 6.42338 31.3504 6.531 31.4475 6.68194C31.5446 6.83288 31.58 7.01663 31.5459 7.19381C31.5118 7.371 31.4107 7.52719 31.2637 7.63088L27.8158 10.0695L34.0882 6.45356C34.2418 6.36694 34.4229 6.34069 34.5949 6.38138C34.7668 6.42206 34.9164 6.52706 35.0149 6.67406C35.1133 6.82106 35.1514 6.99956 35.1238 7.17413C35.0962 7.34869 35.0017 7.50619 34.8626 7.61513L28.9052 12.159L38.7975 6.45225C38.9537 6.36169 39.1374 6.33544 39.312 6.37744C39.4865 6.41944 39.6388 6.52706 39.7359 6.678C39.833 6.82894 39.8698 7.01138 39.8357 7.18856C39.8015 7.36575 39.7018 7.52194 39.5561 7.62694L35.4362 10.584L42.6011 6.45225C42.7547 6.36431 42.9371 6.33806 43.1091 6.38006C43.281 6.42206 43.4319 6.52575 43.5304 6.67406C43.6288 6.82238 43.6669 7.00088 43.638 7.17675C43.6091 7.35263 43.5146 7.50881 43.3742 7.61644L37.5309 12.0527L47.2369 6.45225C47.3904 6.363 47.5729 6.33544 47.7461 6.37481C47.9194 6.41419 48.0716 6.51919 48.1701 6.66619C48.2685 6.81319 48.3092 6.993 48.2803 7.16888C48.2514 7.34475 48.1569 7.50225 48.0165 7.61119L41.7624 12.4596L52.1745 6.45225C52.328 6.36563 52.5092 6.33938 52.6811 6.38006C52.8531 6.42075 53.0027 6.52575 53.1011 6.67275C53.1996 6.81975 53.2376 6.99825 53.2101 7.17281C53.1825 7.34738 53.088 7.50488 52.9489 7.61381L46.9849 12.1721L56.8942 6.45225C57.0504 6.36431 57.2355 6.33938 57.4087 6.38269C57.582 6.426 57.7329 6.53494 57.8301 6.68719C57.9272 6.83944 57.96 7.02188 57.9245 7.19775C57.8891 7.37363 57.7881 7.52981 57.6411 7.6335L55.5909 9.04706L60.0967 6.45094C60.2503 6.36431 60.4301 6.33806 60.6021 6.37875C60.774 6.41944 60.9236 6.52181 61.0221 6.66881C61.1205 6.81581 61.1599 6.99169 61.1336 7.16625C61.1074 7.34081 61.0155 7.49831 60.879 7.60725L54.4819 12.6144L65.1551 6.45488C65.3113 6.36563 65.4951 6.34069 65.6683 6.38269C65.8416 6.42469 65.9938 6.53363 66.0909 6.68456C66.188 6.8355 66.2235 7.01794 66.1894 7.19381C66.1552 7.36969 66.0568 7.52588 65.9111 7.63088L62.2085 10.2651L68.817 6.45488C68.9706 6.36431 69.1517 6.33544 69.3249 6.37481C69.4982 6.41419 69.6504 6.51656 69.7502 6.66225C69.8499 6.80794 69.8919 6.98775 69.8644 7.16363C69.8368 7.3395 69.7449 7.49831 69.6058 7.60725L62.8687 13.0095L74.2297 6.45488C74.3859 6.36563 74.571 6.33938 74.7469 6.384C74.9227 6.42863 75.0737 6.53756 75.1695 6.68981C75.2653 6.84206 75.2994 7.02581 75.264 7.203C75.2286 7.38019 75.1249 7.53638 74.9766 7.63875L73.6864 8.52338L77.2117 6.48375C77.3653 6.39319 77.5464 6.36563 77.721 6.40369C77.8956 6.44175 78.0465 6.54675 78.1462 6.69375C78.246 6.84075 78.2867 7.02056 78.2578 7.19644C78.2289 7.37231 78.1357 7.53113 77.9953 7.64006L71.5654 12.7024L80.1819 7.72669C80.3355 7.63875 80.5166 7.6125 80.6886 7.65319C80.8605 7.69388 81.0114 7.79756 81.1099 7.94456C81.2083 8.09156 81.2477 8.27006 81.2201 8.44463C81.1926 8.61919 81.0994 8.77669 80.9602 8.88563L76.4518 12.369L81.5548 9.429C81.7044 9.33713 81.8829 9.30431 82.0549 9.33713C82.2268 9.36994 82.3804 9.46706 82.4854 9.6075C82.5904 9.74794 82.6376 9.92381 82.6192 10.0971C82.6009 10.2703 82.5182 10.4331 82.3869 10.5486L78.0977 14.6081L82.2058 12.2364C82.3515 12.1538 82.5221 12.1249 82.6862 12.1564C82.8502 12.1879 82.9986 12.2771 83.1022 12.4084C83.2059 12.5396 83.2597 12.7037 83.2532 12.8717C83.2466 13.0397 83.1797 13.1985 83.0655 13.3206L81.291 15.2106L82.2229 14.6711C82.341 14.6029 82.4775 14.5701 82.614 14.5766C82.7505 14.5832 82.8817 14.6318 82.992 14.7131C83.1019 14.7944 83.1854 14.9062 83.2322 15.0347C83.2794 15.1633 83.2873 15.3024 83.2558 15.4363L82.8581 17.1308C82.9802 17.1793 83.0865 17.262 83.1652 17.3696C83.244 17.4773 83.2886 17.6033 83.2978 17.7345C83.307 17.8658 83.2781 17.9983 83.2151 18.1138C83.1521 18.2293 83.0576 18.3264 82.9434 18.3908L82.2439 18.7924C82.1257 18.8606 81.9892 18.8934 81.8541 18.8856C81.7189 18.8777 81.5863 18.8304 81.4774 18.7491C81.3684 18.6677 81.2844 18.5561 81.2372 18.4275C81.1899 18.2989 81.1821 18.1598 81.2122 18.0272L81.5233 16.6976L77.8903 18.7976C77.7446 18.8829 77.5727 18.9131 77.4073 18.8816C77.2419 18.8501 77.0923 18.7609 76.9873 18.6283C76.8823 18.4958 76.8285 18.3304 76.8364 18.1624C76.8442 17.9944 76.9125 17.8343 77.028 17.7109L78.7999 15.8235L73.6457 18.8003C73.496 18.8908 73.3189 18.9223 73.1469 18.8895C72.975 18.8567 72.8227 18.7596 72.719 18.6191C72.6154 18.4787 72.5668 18.3054 72.5852 18.1309C72.6036 17.9563 72.6849 17.7962 72.8149 17.6807L77.1041 13.6211L68.1345 18.8016C67.9809 18.8921 67.7985 18.9197 67.6239 18.8803C67.4494 18.8409 67.2984 18.7359 67.1987 18.5876C67.0989 18.4393 67.0609 18.2595 67.0897 18.0836C67.1186 17.9078 67.2144 17.7489 67.3562 17.6413L71.8646 14.1579L63.8216 18.7884C63.6681 18.879 63.4869 18.9066 63.3124 18.8685C63.1378 18.8304 62.9869 18.7254 62.8871 18.5784C62.7874 18.4314 62.748 18.2516 62.7756 18.0758C62.8031 17.8999 62.8976 17.7411 63.0381 17.6321L69.468 12.5698L58.6884 18.7911C58.5309 18.8816 58.3459 18.9092 58.17 18.8659C57.9941 18.8226 57.8419 18.7123 57.7447 18.5588C57.6476 18.4052 57.6148 18.2201 57.6529 18.0429C57.6909 17.8658 57.7946 17.7096 57.9442 17.6072L59.2318 16.7252L55.6487 18.7937C55.4951 18.8843 55.314 18.9131 55.1407 18.8738C54.9675 18.8344 54.8152 18.732 54.7155 18.5863C54.6157 18.4406 54.5737 18.2608 54.6013 18.0849C54.6289 17.9091 54.7207 17.7503 54.8599 17.6413L61.5982 12.2325L50.2307 18.7963C50.0745 18.8856 49.8907 18.9105 49.7175 18.8685C49.5442 18.8265 49.392 18.7176 49.2949 18.5679C49.1977 18.4183 49.1623 18.2346 49.1964 18.0587C49.2306 17.8828 49.329 17.7266 49.4747 17.6216L53.1772 14.9809L46.5649 18.8003C46.4113 18.8908 46.2289 18.9197 46.0543 18.8803C45.8797 18.8409 45.7275 18.7373 45.6277 18.5889C45.528 18.4406 45.4886 18.2608 45.5162 18.0849C45.5437 17.9091 45.6396 17.7503 45.7813 17.6413L52.1745 12.6368L41.4973 18.7963C41.3411 18.8843 41.156 18.9092 40.9828 18.8659C40.8096 18.8226 40.6586 18.7136 40.5615 18.5614C40.4644 18.4091 40.4315 18.2267 40.467 18.0508C40.5024 17.8749 40.6035 17.7188 40.7505 17.6151L42.8006 16.1949L38.2922 18.7976C38.1386 18.8843 37.9575 18.9105 37.7855 18.8698C37.6136 18.8291 37.464 18.7241 37.3655 18.5771C37.2671 18.4301 37.229 18.2516 37.2566 18.0771C37.2842 17.9025 37.3787 17.745 37.5178 17.6374L43.4792 13.0804L33.5685 18.8016C33.4149 18.8895 33.2338 18.9158 33.0619 18.8751C32.8899 18.8344 32.739 18.7307 32.6405 18.5837C32.5421 18.4367 32.5027 18.2582 32.5303 18.0836C32.5579 17.9091 32.651 17.7516 32.7902 17.6426L39.056 12.7956L28.64 18.816C28.4865 18.9053 28.304 18.9328 28.1295 18.8921C27.9549 18.8514 27.804 18.7464 27.7055 18.5981C27.6071 18.4498 27.5677 18.2687 27.5979 18.0928C27.6281 17.9169 27.7239 17.7594 27.8657 17.6518L33.7102 13.209L24.0004 18.8173C23.8442 18.9079 23.6604 18.9341 23.4859 18.8921C23.3113 18.8501 23.159 18.7425 23.0619 18.5916C22.9648 18.4406 22.9281 18.2582 22.9622 18.081C22.9963 17.9038 23.096 17.7476 23.2417 17.6426L27.3577 14.6829L20.1941 18.8186C20.0405 18.9079 19.8581 18.9341 19.6849 18.8948C19.5116 18.8554 19.3607 18.7491 19.2622 18.6021C19.1638 18.4551 19.1244 18.2739 19.1533 18.0994C19.1822 17.9248 19.2767 17.766 19.4184 17.6584L25.3772 13.1079L15.4796 18.8226C15.3234 18.9118 15.1397 18.9394 14.9638 18.8961C14.7879 18.8528 14.637 18.7451 14.5399 18.5942C14.4427 18.4433 14.4073 18.2595 14.4414 18.0823C14.4755 17.9051 14.5766 17.7489 14.7236 17.6453L18.1755 15.1974L11.8952 18.8239C11.7377 18.9144 11.5526 18.942 11.3767 18.8974C11.2009 18.8528 11.0486 18.7438 10.9515 18.5903C10.8544 18.4367 10.8215 18.2516 10.8583 18.0744C10.895 17.8973 11 17.7411 11.1497 17.6387L12.4228 16.7659L8.85149 18.8186C8.69792 18.9092 8.51549 18.9381 8.34092 18.8987C8.16636 18.8593 8.01411 18.7556 7.91436 18.6073C7.81461 18.459 7.77524 18.2792 7.8028 18.1033C7.83036 17.9274 7.92617 17.7686 8.06792 17.6597L14.5714 12.5409L3.69861 18.8199C3.59379 18.8798 3.47543 18.9119 3.35474 18.9131V18.9144Z" fill="#FFDD62"/>
<path d="M14.0018 13.2471C13.8692 13.2471 13.7393 13.209 13.6277 13.1368C13.5163 13.0652 13.4272 12.9638 13.3704 12.8441C13.3139 12.7239 13.2929 12.59 13.3101 12.4582C13.3271 12.3267 13.3808 12.2025 13.4649 12.0999L13.6946 11.8204L12.5331 12.4924C12.3848 12.579 12.2115 12.6079 12.0435 12.5751C11.8751 12.5426 11.7246 12.4491 11.6209 12.3125C11.5172 12.1759 11.4677 12.0057 11.4818 11.8348C11.4949 11.6642 11.5697 11.5041 11.6931 11.3846L12.2259 10.8636L11.6747 11.1917C11.5303 11.2744 11.361 11.3032 11.1969 11.2731C11.0328 11.2429 10.8849 11.1548 10.7803 11.0246C10.6757 10.8945 10.6214 10.7311 10.6273 10.5643C10.6326 10.3976 10.6969 10.2375 10.8098 10.1141L13.1565 7.53637L11.5579 8.45906C11.4135 8.54175 11.2455 8.57194 11.0814 8.54175C10.9174 8.51156 10.7704 8.42494 10.6654 8.29631C10.56 8.16777 10.5041 8.00574 10.5079 7.83956C10.5118 7.67287 10.5735 7.51406 10.6838 7.38937L12.6735 5.13844L11.5539 5.78287C11.4151 5.86297 11.2528 5.89264 11.0946 5.86687C10.9365 5.84183 10.7918 5.76303 10.6851 5.64375C10.5788 5.52431 10.5144 5.37206 10.5066 5.21194C10.4987 5.05181 10.5446 4.89431 10.6391 4.76437L11.5776 3.4755C11.4255 3.47058 11.2792 3.41593 11.1611 3.31992C11.0431 3.22391 10.9598 3.09183 10.9239 2.94394C10.8872 2.79562 10.9003 2.64075 10.9594 2.50162C11.0189 2.36163 11.1226 2.24498 11.2547 2.16956L13.5752 0.830811C13.7141 0.750714 13.8763 0.721041 14.0346 0.746811C14.1934 0.773061 14.3378 0.850499 14.4454 0.969936C14.5529 1.08899 14.616 1.24154 14.6239 1.40175C14.6318 1.56187 14.5858 1.71937 14.4913 1.84931L13.7104 2.92162L15.687 1.78106C15.8314 1.69837 15.9994 1.66819 16.1634 1.69837C16.3275 1.72856 16.4745 1.81519 16.5795 1.94381C16.6849 2.07235 16.7408 2.23438 16.737 2.40056C16.7331 2.56725 16.6714 2.72606 16.5611 2.85075L14.5714 5.10037L16.3708 4.06219C16.5156 3.97977 16.6847 3.95096 16.8486 3.98081C17.0113 4.011 17.1596 4.10025 17.2646 4.23019C17.3692 4.35997 17.4237 4.52298 17.4182 4.68956C17.4129 4.85625 17.3486 5.01637 17.2358 5.13975L14.8877 7.71094L16.3682 6.85125C16.5165 6.76462 16.6898 6.73575 16.8578 6.76856C17.0262 6.80099 17.1767 6.8945 17.2804 7.03113C17.3841 7.16776 17.4336 7.33787 17.4195 7.50881C17.4064 7.67944 17.3316 7.83956 17.2082 7.959L16.5756 8.57719C16.7175 8.5472 16.8653 8.56234 16.9982 8.6205C17.131 8.67872 17.2428 8.7763 17.3184 8.90006C17.3933 9.02344 17.4287 9.16912 17.4169 9.3135C17.4057 9.45835 17.3503 9.59626 17.2581 9.70856L16.5585 10.5486C16.6819 10.5945 16.7908 10.6759 16.8709 10.7809C16.9509 10.8859 16.9995 11.0119 17.0113 11.1444C17.0231 11.277 16.9956 11.4082 16.9352 11.5264C16.8746 11.644 16.7817 11.7419 16.6674 11.8086L14.3509 13.1512C14.2445 13.2132 14.1236 13.2458 14.0004 13.2457L14.0018 13.2471ZM26.7894 12.9727C26.6574 12.9726 26.5281 12.9348 26.4167 12.8638C26.3051 12.7929 26.2159 12.6919 26.1594 12.5724C26.103 12.453 26.0807 12.3204 26.0964 12.1892C26.1124 12.058 26.1647 11.9339 26.2474 11.8309L27.7869 9.94087L25.6869 11.1536C25.5386 11.2376 25.3628 11.2639 25.1961 11.2284C25.0294 11.193 24.8798 11.0959 24.7787 10.9581C24.6776 10.8202 24.6304 10.6496 24.6461 10.479C24.6619 10.3084 24.7393 10.1496 24.864 10.0327L25.5426 9.41194C25.3995 9.48412 25.2341 9.50512 25.0779 9.471C24.9208 9.43643 24.7801 9.34941 24.6789 9.22425C24.5779 9.09863 24.5236 8.94182 24.5254 8.78062C24.5267 8.61919 24.5831 8.46431 24.6868 8.34094L27.2501 5.2605L25.5701 6.2265C25.4349 6.30303 25.2779 6.33207 25.1243 6.309C24.9706 6.28592 24.8291 6.21206 24.7223 6.09919C24.6156 5.98674 24.5488 5.84244 24.5319 5.68837C24.5162 5.53481 24.5516 5.37862 24.633 5.24737L25.7906 3.46631C25.6266 3.50831 25.4533 3.48994 25.3011 3.41381C25.1488 3.33769 25.032 3.20906 24.9677 3.05287C24.9035 2.8959 24.8988 2.72086 24.9546 2.56069C25.0097 2.40056 25.1213 2.26537 25.2683 2.18137L27.5979 0.830811C27.7344 0.752061 27.8919 0.721874 28.0481 0.745499C28.2043 0.769124 28.3461 0.842624 28.455 0.956811C28.5633 1.0706 28.6299 1.21771 28.644 1.37419C28.6584 1.53037 28.6204 1.68656 28.5351 1.81912L27.4155 3.55031L29.9473 2.09212C30.0891 2.00944 30.2558 1.98056 30.4172 2.00944C30.5788 2.03821 30.7254 2.12218 30.8319 2.247C30.9389 2.37216 30.998 2.53119 30.9987 2.69581C30.9994 2.86043 30.9417 3.01997 30.8359 3.14606L28.2739 6.2265L30.3988 4.99931C30.5471 4.91531 30.723 4.88906 30.8897 4.9245C31.0564 4.95994 31.206 5.05706 31.3071 5.19487C31.4081 5.33269 31.4554 5.50331 31.4396 5.67394C31.4239 5.84456 31.3464 6.00337 31.2218 6.12019L30.5091 6.7725C30.6534 6.72131 30.8096 6.71737 30.9553 6.76331C31.1012 6.80879 31.228 6.90104 31.3163 7.02581C31.4042 7.1505 31.4501 7.30012 31.4449 7.45369C31.4396 7.60725 31.3858 7.75294 31.29 7.87237L29.7504 9.76237L30.3831 9.3975C30.4631 9.35156 30.5511 9.32137 30.6416 9.30956C30.733 9.2979 30.8257 9.30414 30.9146 9.32794C31.0039 9.35156 31.0866 9.39356 31.1601 9.44869C31.2336 9.50381 31.2939 9.57469 31.3399 9.65475C31.3858 9.73481 31.416 9.82275 31.4278 9.91331C31.4395 10.0046 31.4332 10.0974 31.4094 10.1863C31.3858 10.2753 31.3448 10.3587 31.2887 10.4317C31.2326 10.5047 31.1625 10.5658 31.0826 10.6116L27.1451 12.8848C27.0367 12.9462 26.914 12.9779 26.7894 12.9767V12.9727ZM41.0353 13.0633C40.9067 13.0633 40.7807 13.0279 40.6704 12.9609C40.5608 12.8941 40.4717 12.7983 40.4132 12.684C40.3541 12.5698 40.3279 12.4412 40.3371 12.3126C40.3463 12.1844 40.3908 12.0613 40.4657 11.9569L42.3163 9.37256L39.6559 10.9121C39.5089 10.9948 39.3369 11.0211 39.1716 10.9869C39.0062 10.9528 38.8592 10.8596 38.7568 10.7257C38.6544 10.5919 38.6046 10.4239 38.6151 10.2559C38.6256 10.0879 38.6978 9.92906 38.8172 9.80831L40.4473 8.19262L39.6073 8.67694C39.4629 8.76094 39.2923 8.79112 39.1283 8.76094C38.9642 8.73075 38.8159 8.64281 38.7109 8.51287C38.6059 8.38294 38.5508 8.21887 38.556 8.05219C38.5613 7.8855 38.6256 7.72537 38.7384 7.602L40.7374 5.39175L39.6073 6.04406C39.4695 6.12281 39.3094 6.15431 39.1532 6.13069C38.997 6.10706 38.8526 6.03094 38.7437 5.91412C38.6351 5.79833 38.5694 5.64889 38.5575 5.4906C38.5455 5.33231 38.5881 5.1747 38.6781 5.04394L39.7465 3.47287C39.6086 3.49125 39.4682 3.46894 39.3435 3.40725C39.2191 3.34568 39.1155 3.24893 39.0456 3.129C38.9524 2.96887 38.9274 2.77725 38.9747 2.59875C39.0219 2.42025 39.1401 2.26669 39.3002 2.1735L41.6259 0.834749C41.7638 0.755999 41.9226 0.725811 42.0801 0.749436C42.2368 0.77233 42.381 0.848029 42.4889 0.964016C42.5968 1.08 42.6618 1.22933 42.6733 1.38731C42.6849 1.54508 42.6433 1.70216 42.5552 1.83356L41.5564 3.30225L43.8874 1.95431C44.0318 1.87031 44.2024 1.84012 44.3665 1.87031C44.5305 1.9005 44.6788 1.98844 44.7838 2.11837C44.8888 2.24831 44.9439 2.41237 44.9387 2.57906C44.9334 2.74575 44.8691 2.90587 44.7563 3.02925L42.7573 5.24081L44.4216 4.27875C44.5686 4.19606 44.7405 4.16981 44.9072 4.20394C45.0726 4.2378 45.22 4.33063 45.3219 4.46512C45.4243 4.599 45.4742 4.767 45.4637 4.935C45.4532 5.103 45.381 5.26181 45.2616 5.38256L43.6367 6.993L44.4216 6.54019C44.5601 6.46039 44.7218 6.43073 44.8796 6.45619C45.0371 6.48112 45.1815 6.55987 45.2891 6.678C45.3966 6.79618 45.4601 6.94772 45.469 7.10719C45.4777 7.2666 45.4324 7.42431 45.3403 7.55475L43.4923 10.1364L44.3875 9.618C44.467 9.57182 44.555 9.54189 44.6463 9.52995C44.7375 9.51801 44.8302 9.52429 44.919 9.54844C45.0988 9.597 45.2511 9.71381 45.3443 9.87525C45.3904 9.95485 45.4204 10.0428 45.4323 10.1341C45.4442 10.2253 45.438 10.318 45.4138 10.4068C45.3653 10.5866 45.2485 10.7389 45.087 10.8321L41.3871 12.9727C41.2794 13.0337 41.1577 13.0653 41.034 13.0646L41.0353 13.0633ZM54.4911 12.8179C54.3572 12.8179 54.2259 12.7798 54.1131 12.7076C54.0002 12.6354 53.9109 12.5331 53.8545 12.411C53.7981 12.2889 53.7784 12.1537 53.7968 12.0212C53.8155 11.8885 53.8715 11.7638 53.9582 11.6616L55.5529 9.78994L53.6038 10.9095C53.4553 10.9934 53.2814 11.0209 53.1143 10.9869C52.9474 10.9527 52.7988 10.8583 52.6969 10.7218C52.5945 10.5853 52.5459 10.416 52.5591 10.2467C52.5722 10.0774 52.6483 9.91725 52.7704 9.79912L54.0566 8.56537L53.55 8.85675C53.403 8.94075 53.2311 8.96962 53.0657 8.93681C52.9003 8.904 52.7507 8.81212 52.647 8.67825C52.5433 8.54437 52.4921 8.37769 52.5013 8.20837C52.5107 8.03964 52.5811 7.88008 52.6995 7.7595L54.3336 6.09787L53.55 6.552C53.4163 6.62916 53.2607 6.65964 53.1077 6.63862C52.9554 6.61762 52.8124 6.54675 52.7048 6.43781C52.5959 6.32823 52.5267 6.18554 52.5079 6.03225C52.4893 5.87931 52.5211 5.7245 52.5984 5.59125L53.9162 3.40462C53.8355 3.44879 53.7469 3.47652 53.6554 3.48621C53.5639 3.4959 53.4715 3.48735 53.3833 3.46106C53.2048 3.40856 53.0552 3.28781 52.9659 3.12506C52.8767 2.96231 52.857 2.77069 52.9082 2.59219C52.9338 2.50386 52.9767 2.42149 53.0344 2.34985C53.0921 2.27821 53.1634 2.21871 53.2442 2.17481L55.5699 0.830811C55.7038 0.754686 55.86 0.724499 56.0136 0.745499C56.1668 0.766638 56.3085 0.838221 56.4165 0.948936C56.5241 1.05919 56.5937 1.20225 56.6121 1.35712C56.6304 1.512 56.5963 1.66556 56.5176 1.79944L55.2011 3.98475L58.0571 2.32969C58.2041 2.24437 58.3774 2.21419 58.5428 2.247C58.7092 2.28012 58.8582 2.37187 58.9628 2.50556C59.0664 2.63944 59.1189 2.80744 59.1084 2.97675C59.0979 3.14606 59.0258 3.30619 58.9063 3.42694L57.2736 5.0925L58.3656 4.47037C58.5141 4.38648 58.6879 4.35899 58.8551 4.39294C59.022 4.42721 59.1705 4.52155 59.2725 4.65806C59.3749 4.79456 59.4234 4.96387 59.4103 5.13319C59.3972 5.3025 59.3211 5.46262 59.199 5.58075L57.9128 6.81581L58.3669 6.55462C58.5096 6.47147 58.6772 6.44179 58.8397 6.47089C59.0023 6.49999 59.1492 6.58596 59.2541 6.71344C59.3592 6.84043 59.4168 7.00009 59.4169 7.16494C59.4169 7.329 59.3565 7.48912 59.2502 7.61512L57.6555 9.4815L58.3669 9.07069C58.4463 9.02529 58.5339 8.99602 58.6247 8.98453C58.7155 8.97305 58.8076 8.97958 58.8958 9.00375C59.073 9.05231 59.2266 9.16912 59.3184 9.32925C59.4103 9.48937 59.4366 9.67969 59.3893 9.85819C59.3662 9.94684 59.3257 10.03 59.2703 10.103C59.2149 10.176 59.1456 10.2373 59.0664 10.2834L54.8389 12.7312C54.7325 12.79 54.6126 12.8199 54.4911 12.8179ZM68.9207 13.0686C68.7834 13.0686 68.6491 13.0279 68.5348 12.9517C68.4204 12.8757 68.3306 12.7681 68.2763 12.642C68.2222 12.5159 68.2067 12.3766 68.2316 12.2417C68.2566 12.1078 68.3209 11.9818 68.4167 11.8834L68.8065 11.4804L68.0282 11.9346C67.8812 12.0199 67.7079 12.0501 67.5413 12.0172C67.3746 11.9844 67.2249 11.8926 67.1213 11.7574C67.0176 11.6222 66.9664 11.4555 66.9769 11.2849C66.9873 11.115 67.0597 10.9548 67.1803 10.8347L68.5886 9.41325L67.5833 9.99337C67.4378 10.0766 67.2673 10.1046 67.1029 10.0721C66.9388 10.0393 66.7905 9.95006 66.6868 9.8175C66.5831 9.68494 66.5293 9.52087 66.5372 9.35287C66.5451 9.18487 66.612 9.02606 66.7275 8.904L68.8511 6.66356L67.5846 7.39594C67.4349 7.48387 67.2591 7.51275 67.0898 7.47862C66.9204 7.4445 66.7695 7.34737 66.6658 7.20825C66.5624 7.06913 66.5147 6.89641 66.5319 6.72394C66.549 6.55069 66.6291 6.39187 66.7564 6.27506L67.2591 5.80912C67.1557 5.81432 67.0524 5.79591 66.9572 5.75531C66.8614 5.71462 66.7774 5.65294 66.7104 5.57419C66.6025 5.45394 66.5399 5.29989 66.5332 5.13848C66.5265 4.97706 66.5761 4.81834 66.6737 4.68956L67.5557 3.51356C67.4087 3.49912 67.2696 3.43744 67.1593 3.339C67.0491 3.24056 66.9729 3.10931 66.9414 2.96494C66.9102 2.82034 66.9258 2.66954 66.9861 2.53444C67.0464 2.39925 67.1475 2.28637 67.2748 2.21287L69.6006 0.872811C69.7404 0.792675 69.9034 0.762584 70.0626 0.787499C70.2214 0.812436 70.3671 0.893811 70.4747 1.01456C70.5821 1.13501 70.6443 1.28906 70.6506 1.45031C70.6577 1.61154 70.6085 1.77023 70.5114 1.89919L69.8408 2.79562L71.6507 1.74956C71.7996 1.66264 71.9755 1.63411 72.1442 1.6695C72.3122 1.70494 72.4631 1.80075 72.5655 1.93987C72.6679 2.079 72.7151 2.25094 72.6994 2.42156C72.6836 2.59219 72.6036 2.75231 72.4776 2.86912L72.2413 3.08831L72.3266 3.03975C72.4723 2.95706 72.6429 2.92819 72.8083 2.961C72.9732 2.99287 73.121 3.08331 73.2244 3.21562C73.3277 3.3479 73.3807 3.51254 73.374 3.68025C73.3674 3.84825 73.2992 4.00706 73.1837 4.12912L71.0588 6.36825L72.3962 5.5965C72.5429 5.51091 72.7158 5.48194 72.8824 5.51506C73.049 5.54818 73.1977 5.64111 73.3005 5.77631C73.4042 5.9115 73.4554 6.07819 73.4449 6.2475C73.4348 6.41658 73.3634 6.57619 73.2441 6.69637L71.8371 8.11256L72.3975 7.78969C72.5432 7.70569 72.7151 7.67681 72.8805 7.70831C73.0459 7.73981 73.1942 7.83169 73.2992 7.96425C73.4042 8.09681 73.4554 8.2635 73.4475 8.4315C73.4392 8.60034 73.3697 8.76037 73.2519 8.88169L72.6771 9.47887C72.8346 9.46969 72.9908 9.513 73.1207 9.60356C73.2506 9.69412 73.3451 9.82537 73.3911 9.97631C73.4368 10.1272 73.4298 10.2892 73.3714 10.4357C73.3136 10.5814 73.2073 10.7047 73.0708 10.7835L69.2738 12.9741C69.1672 13.0356 69.0463 13.0677 68.9233 13.0672L68.9207 13.0686Z" fill="#E1EFFF"/>
<path d="M43.9084 83.1639C43.7587 83.1639 43.6144 83.1154 43.4936 83.0274C43.3729 82.9395 43.2849 82.8148 43.2403 82.6717C43.1957 82.5287 43.1983 82.3764 43.2469 82.236C43.2954 82.0956 43.3873 81.9735 43.5107 81.8882L52.9633 75.3493L39.7071 83.0012C39.5496 83.0904 39.3632 83.1154 39.1873 83.0707C39.0114 83.0261 38.8605 82.9146 38.7647 82.7597C38.6689 82.6048 38.6387 82.4197 38.6767 82.2426C38.7148 82.0654 38.8224 81.9105 38.9734 81.8094L47.1765 76.4426L36.6266 82.5339C36.4678 82.6297 36.2762 82.6586 36.0964 82.614C35.9166 82.5694 35.7604 82.4552 35.6646 82.2951C35.5687 82.1349 35.5399 81.9459 35.5845 81.7648C35.6291 81.5837 35.7433 81.4301 35.9034 81.3343L35.9415 81.312L34.6566 82.0522C34.4977 82.1415 34.3114 82.1651 34.1355 82.1179C33.9596 82.0706 33.8087 81.9577 33.7155 81.8029C33.6223 81.648 33.5921 81.4616 33.6328 81.2844C33.6735 81.1072 33.7824 80.9524 33.9347 80.8539L38.3158 78.0964L32.6248 81.3802C32.4673 81.4656 32.2822 81.4879 32.1077 81.4406C31.9331 81.3934 31.7861 81.2818 31.6916 81.1283C31.5971 80.9747 31.5682 80.7909 31.6063 80.6151C31.6444 80.4392 31.7494 80.2856 31.899 80.1846L42 73.7612L30.4093 80.4497C30.2505 80.535 30.0654 80.5573 29.8922 80.5101C29.7189 80.4628 29.5693 80.3499 29.4761 80.1951C29.3829 80.0402 29.3541 79.8564 29.3934 79.6806C29.4328 79.5047 29.5391 79.3511 29.6887 79.2514L36.4901 74.9923L28.6322 79.5309C28.4747 79.6176 28.2896 79.6399 28.1164 79.5939C27.9431 79.548 27.7935 79.4364 27.699 79.2842C27.6045 79.1319 27.573 78.9469 27.6111 78.771C27.6491 78.5951 27.7528 78.4403 27.9011 78.3392L47.4626 65.6092L26.1214 77.9297C25.9626 78.0255 25.7709 78.0531 25.5911 78.0071C25.4113 77.9612 25.2564 77.847 25.1606 77.6869C25.0648 77.5267 25.0372 77.3364 25.0832 77.1566C25.1291 76.9768 25.2433 76.8219 25.4034 76.7261L29.4118 74.2507L24.7918 76.9112C24.633 77.0004 24.4453 77.0254 24.2681 76.9781C24.0909 76.9309 23.94 76.8167 23.8468 76.6605C23.7536 76.5043 23.7247 76.3166 23.7667 76.1394C23.8087 75.9622 23.919 75.8074 24.0726 75.7102L27.0861 73.8544L23.5856 75.8756C23.4268 75.9688 23.2391 75.9951 23.0606 75.9504C22.8821 75.9058 22.7299 75.7929 22.6341 75.6354C22.5382 75.4779 22.5081 75.2902 22.5501 75.1117C22.5921 74.9333 22.7023 74.7771 22.8572 74.6799L43.5776 61.3659L21.7022 73.9987C21.5434 74.0841 21.3583 74.1064 21.1851 74.0591C21.0118 74.0119 20.8622 73.899 20.769 73.7441C20.6758 73.5892 20.6456 73.4055 20.6863 73.2296C20.727 73.0537 20.832 72.9002 20.9816 72.8004L35.2774 63.8321L20.3805 72.4316C20.2217 72.5209 20.034 72.5458 19.8568 72.4986C19.6796 72.4513 19.5287 72.3384 19.4355 72.1809C19.3423 72.0234 19.3134 71.8371 19.3554 71.6599C19.3974 71.4827 19.5077 71.3278 19.6612 71.2307L26.1017 67.2551L19.4053 71.1191C19.2478 71.2071 19.0601 71.2307 18.8856 71.1847C18.711 71.1388 18.5601 71.0259 18.4656 70.8711C18.3711 70.7162 18.3409 70.5311 18.3802 70.3539C18.4196 70.1768 18.5272 70.0232 18.6782 69.9234L38.5048 57.3064L18.1164 69.0782C17.9576 69.174 17.766 69.2042 17.5849 69.1596C17.4037 69.1149 17.2489 69.0007 17.1517 68.8419C17.0546 68.6831 17.0257 68.4915 17.0704 68.3104C17.115 68.1292 17.2292 67.9744 17.388 67.8772L33.348 57.8511L17.1334 67.2079C16.9746 67.2932 16.7895 67.3155 16.6162 67.2682C16.443 67.221 16.2934 67.1081 16.2002 66.9533C16.107 66.7984 16.0781 66.6146 16.1175 66.4387C16.1569 66.2629 16.2632 66.1093 16.4128 66.0096L29.4328 57.8707L16.3537 65.4216C16.1962 65.5082 16.0099 65.5305 15.8366 65.4846C15.6634 65.4386 15.5124 65.3271 15.4192 65.1722C15.3261 65.0173 15.2946 64.8336 15.3326 64.6577C15.3707 64.4818 15.4757 64.3269 15.6253 64.2272L36.7933 50.6376L15.5006 62.9291C15.3418 63.0249 15.1502 63.0538 14.9704 63.0079C14.7906 62.9619 14.6357 62.8477 14.5399 62.6889C14.4441 62.5301 14.4152 62.3385 14.4611 62.1587C14.5071 61.9789 14.6212 61.824 14.7801 61.7282L25.0845 55.3074L15.0465 61.1034C14.889 61.1874 14.7039 61.2084 14.5307 61.1612C14.3574 61.1139 14.2091 61.0011 14.1172 60.8475C14.0254 60.6939 13.9939 60.5102 14.0332 60.3356C14.0726 60.1611 14.1763 60.0062 14.3246 59.9064L28.4812 50.9762L14.6711 58.9562C14.5123 59.0454 14.3259 59.0691 14.1501 59.0218C13.9742 58.9746 13.8232 58.8617 13.7301 58.7068C13.6369 58.5519 13.6067 58.3642 13.6474 58.1884C13.6881 58.0125 13.797 57.8563 13.9492 57.7579L24.8404 50.9263L14.4651 56.9139C14.3062 56.9992 14.1212 57.0189 13.9479 56.9717C13.7747 56.9244 13.6264 56.8102 13.5345 56.6567C13.4426 56.5031 13.4124 56.3181 13.4518 56.1435C13.4912 55.9689 13.5975 55.8154 13.7458 55.7156L19.5261 52.1181L14.4112 55.0712C14.2524 55.1604 14.0661 55.1841 13.8902 55.1368C13.7143 55.0896 13.5634 54.9767 13.4702 54.8218C13.377 54.6669 13.3468 54.4806 13.3875 54.3034C13.4282 54.1262 13.5371 53.9726 13.6894 53.8729L22.9661 48.0283L14.5189 52.9016C14.3601 52.9974 14.1697 53.0276 13.9899 52.983C13.8101 52.9384 13.6539 52.8255 13.5581 52.6667C13.4623 52.5079 13.4321 52.3176 13.4767 52.1364C13.5214 51.9553 13.6342 51.8004 13.7931 51.7046L24.3259 44.9938L14.8155 50.4853C14.6593 50.5719 14.4742 50.5956 14.301 50.5509C14.1277 50.5063 13.9781 50.3961 13.8823 50.2438C13.7865 50.0916 13.7537 49.9091 13.7904 49.7332C13.8272 49.5574 13.9282 49.4025 14.0752 49.2988L30.4552 38.3053L15.6962 46.83C15.5387 46.9192 15.3523 46.9442 15.1764 46.8996C15.0006 46.8549 14.8496 46.7434 14.7538 46.5885C14.658 46.4336 14.6278 46.2486 14.6659 46.0714C14.7039 45.8942 14.8116 45.7393 14.9625 45.6382L23.7996 39.8514L16.8 43.89C16.6451 43.9779 16.4614 44.0029 16.2881 43.9596C16.1149 43.9162 15.9639 43.8099 15.8668 43.659C15.7697 43.5081 15.7342 43.3269 15.7671 43.1524C15.7999 42.9778 15.8983 42.8203 16.0427 42.7153L27.5887 34.4321L19.5156 39.0928C19.362 39.1847 19.1796 39.2136 19.0037 39.1742C18.8278 39.1348 18.6756 39.0311 18.5758 38.8828C18.4761 38.7345 18.4367 38.5534 18.4656 38.3762C18.4944 38.199 18.5902 38.0415 18.7333 37.9326L24.3561 33.5527C24.2091 33.537 24.0699 33.4766 23.9597 33.3782C23.8494 33.2797 23.7733 33.1485 23.7418 33.0041C23.7103 32.8597 23.7261 32.7088 23.7864 32.5736C23.8468 32.4384 23.9479 32.3256 24.0752 32.2521L31.6536 27.8762C31.8071 27.7896 31.9882 27.7633 32.1589 27.804C32.3295 27.8447 32.4804 27.9484 32.5789 28.0941C32.6773 28.2397 32.7167 28.4182 32.6904 28.5928C32.6642 28.7674 32.571 28.9249 32.4332 29.0338L27.5717 32.8256L39.1492 26.1424C39.3054 26.0544 39.4879 26.0295 39.6611 26.0728C39.8344 26.1161 39.9853 26.2224 40.0811 26.3734C40.1769 26.5243 40.2137 26.7041 40.1809 26.88C40.1481 27.0559 40.0496 27.2121 39.9052 27.3171L28.3618 35.5989L44.6736 26.1831C44.8311 26.0938 45.0174 26.0689 45.1933 26.1135C45.3692 26.1581 45.5201 26.2697 45.6159 26.4246C45.7117 26.5794 45.7419 26.7645 45.7039 26.9417C45.6658 27.1189 45.5582 27.2737 45.4072 27.3748L36.5689 33.1629L47.7684 26.6936C47.9259 26.6017 48.1123 26.5755 48.2882 26.6201C48.4641 26.6647 48.6163 26.775 48.7134 26.9286C48.8106 27.0821 48.8421 27.2685 48.804 27.4457C48.7659 27.6229 48.6596 27.7791 48.5087 27.8801L32.1287 38.871L51.3804 27.7567C51.5392 27.6662 51.7269 27.6412 51.9028 27.6872C52.0787 27.7331 52.2309 27.846 52.3254 28.0022C52.4199 28.1584 52.4501 28.3447 52.4081 28.5232C52.3661 28.7017 52.2585 28.8553 52.1036 28.9537L41.5669 35.6737L53.6248 28.7109C53.7836 28.6151 53.9739 28.5862 54.1551 28.6309C54.3362 28.6755 54.4911 28.7897 54.5869 28.9485C54.6827 29.1073 54.7116 29.2976 54.6669 29.4787C54.6223 29.6599 54.5081 29.8147 54.3493 29.9106L45.0712 35.7564L55.5424 29.7097C55.6212 29.6624 55.7086 29.6312 55.7996 29.6179C55.8902 29.6047 55.9834 29.6087 56.0726 29.631C56.1619 29.6533 56.2459 29.6927 56.3194 29.7478C56.3934 29.8024 56.4558 29.8711 56.5031 29.9499C56.5504 30.0287 56.5819 30.1166 56.595 30.2072C56.6088 30.2981 56.6044 30.3909 56.5821 30.4801C56.5598 30.5693 56.52 30.6532 56.4651 30.7269C56.4105 30.8009 56.3418 30.8634 56.2629 30.9107L50.4919 34.5017L57.1082 30.681C57.267 30.5852 57.4586 30.5563 57.6384 30.6009C57.8182 30.6456 57.9731 30.7597 58.0689 30.9199C58.1647 31.08 58.1936 31.269 58.149 31.4501C58.1044 31.6312 57.9902 31.7848 57.8301 31.8806L46.9468 38.7109L58.7777 31.8793C58.9365 31.7901 59.1229 31.7664 59.2987 31.8137C59.4746 31.8609 59.6256 31.9738 59.7187 32.1287C59.8119 32.2836 59.8421 32.4699 59.8014 32.6471C59.7607 32.8243 59.6518 32.9792 59.4996 33.0776L45.3311 42.0079L60.4511 33.2745C60.6099 33.1787 60.8016 33.1498 60.9814 33.1957C61.1612 33.2417 61.3161 33.3559 61.4119 33.5147C61.5077 33.6735 61.5352 33.8651 61.4906 34.0449C61.446 34.2247 61.3305 34.3796 61.1717 34.4754L50.8581 40.9014L61.7951 34.5857C61.9539 34.4886 62.1442 34.4597 62.3241 34.503C62.5039 34.5463 62.66 34.6605 62.7572 34.8193C62.8543 34.9781 62.8832 35.1684 62.8399 35.3496C62.7966 35.5307 62.6824 35.6856 62.5236 35.7827L41.3674 49.3566L63.5473 36.5597C63.7061 36.4678 63.8951 36.4429 64.0723 36.4888C64.2495 36.5347 64.403 36.6489 64.4962 36.8064C64.5894 36.9639 64.6196 37.1516 64.5776 37.3301C64.5356 37.5086 64.4241 37.6635 64.2679 37.7606L51.2479 45.8929L64.6957 38.1268C64.8546 38.031 65.0449 38.0021 65.226 38.0467C65.4071 38.0914 65.562 38.2056 65.6578 38.3644C65.7536 38.5232 65.7825 38.7135 65.7379 38.8946C65.6932 39.0757 65.5791 39.2293 65.4202 39.3264L49.4602 49.3631L65.8284 39.9131C65.9872 39.8226 66.1749 39.7976 66.3508 39.8436C66.5267 39.8895 66.6789 40.0024 66.7734 40.1586C66.8679 40.3147 66.8981 40.5011 66.8561 40.6796C66.8141 40.8581 66.7065 41.0117 66.5516 41.1101L46.7316 53.7377L66.9585 42.0591C67.1173 41.9646 67.3089 41.9357 67.4887 41.9816C67.6685 42.0276 67.8234 42.1417 67.9179 42.3019C68.0124 42.462 68.0413 42.6523 67.9954 42.8321C67.9494 43.0119 67.8352 43.1668 67.6751 43.2613L61.2255 47.2395L67.6095 43.5527C67.7683 43.4569 67.9586 43.428 68.1397 43.4726C68.3209 43.5173 68.4744 43.6314 68.5702 43.7916C68.666 43.9517 68.6949 44.1407 68.6503 44.3218C68.6057 44.5029 68.4915 44.6565 68.3314 44.7523L54.0396 53.7127L68.3025 45.4768C68.4613 45.3836 68.649 45.3574 68.8275 45.402C69.006 45.4466 69.1582 45.5595 69.2541 45.717C69.3499 45.8745 69.3801 46.0622 69.3381 46.2407C69.2961 46.4192 69.1858 46.5754 69.0309 46.6725L48.3157 59.9826L68.9876 48.0493C69.1464 47.9627 69.3328 47.9417 69.5061 47.9902C69.6793 48.0388 69.8289 48.1517 69.9221 48.3066C70.0153 48.4614 70.0442 48.6465 70.0035 48.8224C69.9628 48.9983 69.8565 49.1518 69.7042 49.2502L66.6842 51.1101L69.2764 49.6151C69.4352 49.5285 69.6216 49.5075 69.7961 49.5547C69.9707 49.602 70.119 49.7162 70.2122 49.8711C70.3054 50.0259 70.3342 50.211 70.2936 50.3869C70.2529 50.5627 70.1452 50.7163 69.9943 50.8161L65.9938 53.2875L69.4837 51.2741C69.6412 51.1875 69.8263 51.1639 69.9996 51.2111C70.1728 51.2584 70.3224 51.3686 70.4169 51.5209C70.5114 51.6731 70.5429 51.8582 70.5049 52.0341C70.4668 52.2099 70.3631 52.3648 70.2148 52.4659L50.6586 65.1971L69.6216 54.2509C69.7804 54.1616 69.9667 54.138 70.1426 54.1852C70.3185 54.2325 70.4694 54.3454 70.5626 54.5002C70.6558 54.6551 70.686 54.8428 70.6453 55.0187C70.6046 55.1946 70.4957 55.3494 70.3434 55.4492L63.5342 59.7122L69.5271 56.2564C69.6859 56.1658 69.8736 56.1409 70.0494 56.1868C70.2253 56.2327 70.3776 56.3456 70.4721 56.5018C70.5666 56.658 70.5967 56.8444 70.5547 57.0229C70.5127 57.2014 70.4038 57.3549 70.2502 57.4534L60.1624 63.8715L69.237 58.6333C69.3945 58.5493 69.5796 58.5283 69.7528 58.5756C69.9261 58.6228 70.0744 58.7357 70.1662 58.8892C70.2581 59.0428 70.2896 59.2266 70.2502 59.4011C70.2109 59.5757 70.1072 59.7306 69.9589 59.8303L65.5856 62.5852L68.8052 60.7307C68.964 60.6414 69.1504 60.6178 69.3262 60.6651C69.5021 60.7123 69.653 60.8252 69.7462 60.9801C69.8394 61.1349 69.8696 61.3213 69.8289 61.4985C69.7882 61.6757 69.6793 61.8306 69.5271 61.929L68.4718 62.5918C68.6096 62.5682 68.7514 62.5853 68.88 62.643C69.0086 62.7007 69.1149 62.7952 69.1884 62.9147C69.2842 63.0696 69.3144 63.2559 69.2751 63.4331C69.2357 63.6103 69.1281 63.7665 68.9758 63.8662L60.7701 69.2252L67.1042 65.5699C67.2604 65.4846 67.4428 65.4622 67.6147 65.5069C67.7867 65.5515 67.935 65.6591 68.0308 65.8101C68.1266 65.961 68.1607 66.1408 68.1266 66.3154C68.0925 66.4899 67.9954 66.6461 67.851 66.7498L58.4036 73.2861L64.8729 69.5586C65.0265 69.4693 65.2063 69.4417 65.3796 69.4811C65.5528 69.5205 65.7037 69.6229 65.8035 69.7699C65.9032 69.9169 65.9439 70.0941 65.9177 70.2699C65.8914 70.4458 65.7996 70.6033 65.6604 70.7136L59.5114 75.6131C59.6503 75.5939 59.7918 75.6163 59.9179 75.6775C60.0441 75.7387 60.1492 75.836 60.2201 75.957C60.312 76.1171 60.3369 76.3088 60.2897 76.4873C60.2424 76.6657 60.1243 76.8193 59.9642 76.9112L52.3845 81.2818C52.2322 81.3671 52.0524 81.3921 51.8831 81.3514C51.7138 81.3107 51.5642 81.2083 51.4657 81.0639C51.3673 80.9196 51.3266 80.7437 51.3516 80.5704C51.3765 80.3972 51.4644 80.2397 51.5996 80.1294L57.4914 75.4386L44.2549 83.0799C44.1478 83.1396 44.0269 83.1699 43.9044 83.1679L43.9084 83.1639Z" fill="#5E6DFE"/>
<path d="M41.9737 77.6488C41.8254 77.6488 41.6811 77.6029 41.5616 77.5149C41.4422 77.427 41.3529 77.3049 41.307 77.1645C41.2611 77.0241 41.2611 76.8718 41.307 76.7314C41.3529 76.5909 41.4422 76.4676 41.5616 76.3809L52.1443 68.6805L37.6425 77.0529C37.4863 77.1435 37.2999 77.1711 37.1241 77.1278C36.9482 77.0844 36.7959 76.9755 36.6988 76.8219C36.6017 76.6684 36.5676 76.4846 36.6043 76.3074C36.6411 76.1303 36.7447 75.9741 36.8931 75.8704L49.5311 67.1344L34.1696 75.999C34.0108 76.0961 33.8205 76.1263 33.6407 76.083C33.4609 76.0397 33.3047 75.9268 33.2076 75.768C33.1104 75.6092 33.0802 75.4189 33.1236 75.2391C33.1669 75.0593 33.2797 74.9031 33.4386 74.8059L41.1652 69.7961L32.0657 75.0461C31.9095 75.1314 31.7257 75.1551 31.5525 75.1104C31.3792 75.0658 31.2309 74.9556 31.1351 74.8046C31.0393 74.6537 31.0065 74.4713 31.0419 74.2967C31.0774 74.1221 31.1771 73.9659 31.3228 73.8623L47.4508 62.9646L29.3829 73.3976C29.2241 73.4869 29.0377 73.5105 28.8619 73.4633C28.686 73.416 28.5351 73.3031 28.4419 73.1483C28.3487 72.9934 28.3185 72.8057 28.3592 72.6298C28.3999 72.4539 28.5088 72.2991 28.6611 72.1993L32.4962 69.7856L28.0402 72.3568C27.8841 72.4408 27.7003 72.4618 27.5284 72.4146C27.3564 72.3673 27.2094 72.2584 27.1149 72.1074C27.0204 71.9565 26.9889 71.7754 27.0231 71.6008C27.0572 71.4263 27.1582 71.2714 27.3026 71.169L44.499 59.7358L25.9927 70.4209C25.8339 70.5127 25.6449 70.5377 25.4677 70.4918C25.2906 70.4458 25.137 70.3316 25.0438 70.1741C24.9506 70.0166 24.9204 69.8289 24.9624 69.6504C25.0044 69.4719 25.116 69.3171 25.2722 69.2199L29.9342 66.297L24.9244 69.1898C24.7669 69.2869 24.5766 69.3184 24.3954 69.2751C24.2143 69.2318 24.0581 69.1202 23.961 68.9614C23.8639 68.8026 23.8324 68.6136 23.8757 68.4324C23.919 68.2513 24.0306 68.0951 24.1894 67.998L41.559 56.5491L23.3953 67.0399C23.2365 67.1357 23.0462 67.1646 22.8651 67.1199C22.6839 67.0753 22.5291 66.9611 22.4332 66.8023C22.3374 66.6435 22.3086 66.4532 22.3532 66.2721C22.3978 66.0909 22.512 65.9361 22.6708 65.8403L30.3227 61.0116L22.5172 65.5187C22.3584 65.6145 22.1681 65.6434 21.987 65.5988C21.8059 65.5541 21.651 65.4399 21.5552 65.2811C21.4594 65.1223 21.4305 64.932 21.4751 64.7509C21.5197 64.5698 21.6339 64.4149 21.7927 64.3191L28.7398 59.9432L21.7731 63.9686C21.6156 64.0579 21.4292 64.0828 21.2546 64.0382C21.0801 63.9936 20.9278 63.8833 20.832 63.7284C20.7362 63.5736 20.7047 63.3898 20.7427 63.2126C20.7808 63.0354 20.8858 62.8806 21.0354 62.7795L38.7017 51.0759L20.8504 61.3791C20.6942 61.4539 20.5157 61.4683 20.349 61.4184C20.1823 61.3686 20.0406 61.2596 19.9513 61.1113C19.8621 60.963 19.8292 60.7871 19.8621 60.6165C19.8949 60.4459 19.9894 60.2936 20.1272 60.1899L30.2623 53.7075L20.3831 59.4103C20.2243 59.4969 20.0392 59.5206 19.8647 59.4733C19.6901 59.4261 19.5405 59.3145 19.4473 59.1596C19.3541 59.0048 19.3239 58.8197 19.3633 58.6438C19.4027 58.4679 19.509 58.3131 19.6599 58.2133L25.977 54.2141L20.1193 57.5951C19.9618 57.6831 19.7767 57.7067 19.6022 57.6621C19.4276 57.6174 19.2767 57.5059 19.1822 57.3523C19.0877 57.1987 19.0562 57.015 19.0929 56.8378C19.1297 56.6606 19.2347 56.5057 19.3843 56.4047L32.9267 47.4705L19.9867 54.9413C19.8292 55.0279 19.6442 55.0502 19.4709 55.0043C19.2977 54.9583 19.1481 54.8468 19.0536 54.6945C18.9591 54.5423 18.9276 54.3572 18.9656 54.1813C19.0037 54.0054 19.1074 53.8506 19.2557 53.7495L29.0417 47.3576L20.1547 52.4921C19.9972 52.584 19.8096 52.6103 19.6337 52.5656C19.4578 52.521 19.3042 52.4094 19.2084 52.2546C19.1126 52.0997 19.0811 51.9133 19.1205 51.7361C19.1599 51.5589 19.2662 51.4028 19.4184 51.3017L28.4983 45.2996L20.6377 49.8317C20.4802 49.9196 20.2965 49.9446 20.1219 49.8999C19.9474 49.8553 19.7977 49.7464 19.7019 49.5941C19.6061 49.4419 19.5733 49.2581 19.6087 49.0823C19.6442 48.9064 19.7466 48.7502 19.8949 48.6478L29.0706 42.3911L21.6825 46.6541C21.5276 46.7447 21.3439 46.7709 21.1706 46.7303C20.9974 46.6896 20.8451 46.5833 20.7467 46.4336C20.6482 46.284 20.6102 46.1029 20.6417 45.927C20.6732 45.7511 20.7703 45.5936 20.9147 45.4873L29.6546 38.9839L24.2353 42.1116C24.0817 42.1995 23.8993 42.2258 23.7261 42.1851C23.5528 42.1444 23.4019 42.0394 23.3034 41.8911C23.205 41.7428 23.1669 41.5629 23.1971 41.3871C23.2273 41.2112 23.3218 41.0537 23.4636 40.9474L27.2869 38.0599C27.1882 37.9985 27.1062 37.9137 27.048 37.8131C26.9548 37.653 26.9299 37.4614 26.9784 37.2816C27.027 37.1018 27.1438 36.9495 27.3039 36.8563L34.0462 32.9634C34.2011 32.8729 34.3836 32.8453 34.5581 32.8847C34.7327 32.9241 34.8849 33.0304 34.9834 33.18C35.0818 33.3296 35.1199 33.5108 35.0897 33.6866C35.0595 33.8625 34.9624 34.0213 34.8193 34.1276L33.3703 35.2223L39.3763 31.7546C39.5312 31.668 39.7123 31.6418 39.8842 31.6838C40.0562 31.7258 40.2071 31.8308 40.3042 31.9791C40.4014 32.1274 40.4394 32.3072 40.4106 32.4818C40.3817 32.6563 40.2859 32.8138 40.1441 32.9214L31.4081 39.4236L44.5686 31.8255C44.7247 31.7376 44.9098 31.7126 45.0844 31.7573C45.2589 31.8019 45.4099 31.9108 45.5044 32.0631C45.5989 32.2153 45.633 32.3991 45.5976 32.5749C45.5621 32.7508 45.4597 32.907 45.3114 33.0094L36.1331 39.2687L47.8459 32.5067C48.0034 32.4188 48.1884 32.3951 48.363 32.4398C48.5376 32.4844 48.6885 32.5959 48.783 32.7495C48.8775 32.9031 48.909 33.0868 48.8722 33.264C48.8355 33.4412 48.7305 33.5961 48.5809 33.6971L39.5036 39.6979L50.3895 33.4136C50.547 33.3244 50.7334 33.2994 50.9092 33.3441C51.0851 33.3887 51.2361 33.5003 51.3319 33.6551C51.4277 33.81 51.4579 33.9951 51.4198 34.1723C51.3817 34.3494 51.2741 34.5043 51.1232 34.6054L41.3359 40.9973L52.584 34.5043C52.7415 34.4164 52.9266 34.3928 53.1011 34.4374C53.2757 34.482 53.4266 34.5936 53.5211 34.7471C53.6156 34.9007 53.6471 35.0844 53.6104 35.2616C53.5736 35.4388 53.4686 35.5937 53.319 35.6948L39.7727 44.6329L54.8152 35.9533C54.9741 35.8628 55.1617 35.8378 55.3376 35.8838C55.5135 35.9297 55.6657 36.0426 55.7602 36.1988C55.8547 36.3549 55.8849 36.5413 55.8429 36.7198C55.8009 36.8983 55.692 37.0519 55.5384 37.1503L49.2122 41.1548L56.2524 37.0952C56.4099 37.0073 56.5976 36.9836 56.7722 37.0296C56.9467 37.0755 57.0977 37.1884 57.1922 37.3433C57.2867 37.4981 57.3169 37.6832 57.2775 37.8604C57.2381 38.0376 57.1305 38.1911 56.9796 38.2909L46.8549 44.7668L57.7198 38.4917C57.8773 38.3933 58.0676 38.3631 58.2487 38.4051C58.4299 38.4471 58.5861 38.5599 58.6832 38.7174C58.7803 38.8749 58.8118 39.0653 58.7698 39.2464C58.7278 39.4275 58.6149 39.5837 58.4574 39.6821L40.7912 51.3752L59.5048 40.572C59.6636 40.4828 59.85 40.4591 60.0259 40.5064C60.2017 40.5536 60.3527 40.6665 60.4459 40.8214C60.5391 40.9763 60.5692 41.1639 60.5286 41.3398C60.4879 41.5157 60.3789 41.6719 60.2267 41.7703L53.2836 46.1436L60.4826 41.9961C60.6414 41.9003 60.8317 41.8714 61.0129 41.916C61.194 41.9606 61.3489 42.0748 61.4447 42.2336C61.5405 42.3924 61.5694 42.5828 61.5247 42.7639C61.4801 42.945 61.3659 43.0986 61.2071 43.1957L53.5644 48.0178L61.3699 43.5107C61.5274 43.4162 61.7164 43.3873 61.8949 43.4306C62.0734 43.4739 62.2282 43.5868 62.3254 43.743C62.4225 43.8992 62.4527 44.0882 62.412 44.268C62.3713 44.4478 62.2611 44.6027 62.1049 44.7024L44.7379 56.1369L62.4697 45.8994C62.6286 45.8102 62.8149 45.7866 62.9908 45.8338C63.1667 45.8811 63.3176 45.9939 63.4108 46.1488C63.504 46.3037 63.5342 46.4914 63.4935 46.6673C63.4528 46.8431 63.3439 46.9993 63.1916 47.0978L58.5099 50.0378L63.0052 47.4429C63.1627 47.3589 63.3452 47.3379 63.5158 47.3852C63.6864 47.4324 63.8347 47.5414 63.9292 47.6923C64.0237 47.8433 64.0552 48.0244 64.0211 48.1989C63.987 48.3735 63.8859 48.5271 63.7416 48.6308L46.5386 60.0692L63.6589 50.1887C63.8164 50.1047 64.0014 50.0837 64.1747 50.1309C64.3479 50.1782 64.4962 50.2911 64.5881 50.4446C64.68 50.5982 64.7115 50.7819 64.6721 50.9565C64.6327 51.1311 64.529 51.2859 64.3807 51.3857L60.5666 53.7863L63.882 51.8726C64.0382 51.7873 64.2219 51.7637 64.3952 51.8096C64.5684 51.8556 64.7167 51.9645 64.8112 52.1154C64.9057 52.2664 64.9399 52.4488 64.9044 52.6234C64.869 52.7979 64.7692 52.9541 64.6236 53.0565L48.51 63.9489L63.9634 55.0266C64.1209 54.9347 64.3086 54.9084 64.4857 54.9531C64.6629 54.9977 64.8152 55.1092 64.911 55.2654C65.0068 55.4216 65.037 55.608 64.9976 55.7865C64.9582 55.965 64.848 56.1199 64.6957 56.2196L56.9533 61.2386L63.7376 57.3182C63.8938 57.2303 64.0789 57.2053 64.2521 57.2486C64.4254 57.2919 64.5776 57.4009 64.6734 57.5531C64.7692 57.7054 64.8034 57.8878 64.7679 58.0637C64.7325 58.2396 64.6314 58.3958 64.4844 58.4994L51.8503 67.2341L62.9107 60.8514C63.0656 60.7635 63.2494 60.7372 63.4226 60.7792C63.5959 60.8212 63.7468 60.9276 63.8439 61.0772C63.9411 61.2268 63.9778 61.4079 63.9463 61.5838C63.9148 61.7597 63.8164 61.9159 63.6733 62.0222L53.0893 69.7226L60.9945 65.1591C61.1467 65.0724 61.3252 65.0462 61.4959 65.0843C61.6665 65.1223 61.8161 65.2247 61.9159 65.3691C62.0156 65.5134 62.0576 65.6893 62.034 65.8626C62.0104 66.0358 61.9224 66.1946 61.7886 66.3062L56.2131 70.8737L56.3916 70.7713C56.4714 70.7206 56.5607 70.6866 56.6541 70.6716C56.7472 70.6558 56.8431 70.6598 56.9349 70.6821C57.0268 70.7044 57.1134 70.7451 57.1882 70.8015C57.2631 70.8579 57.3274 70.9301 57.3746 71.0115C57.4219 71.0929 57.4521 71.1834 57.4639 71.2779C57.4757 71.3724 57.4678 71.4669 57.4416 71.5575C57.4155 71.6483 57.3712 71.7328 57.3114 71.8059C57.2516 71.879 57.1776 71.9392 57.0937 71.9828L49.476 76.3796C49.3237 76.4663 49.1452 76.4925 48.9746 76.4531C48.804 76.4138 48.6544 76.3127 48.5546 76.1696C48.4549 76.0266 48.4129 75.8494 48.4365 75.6761C48.4601 75.5029 48.5481 75.3441 48.6819 75.2325L54.2587 70.6663L42.3242 77.5583C42.2179 77.6213 42.0971 77.6554 41.9737 77.6567V77.6488Z" fill="white"/>
<path d="M5.21981 71.7504C6.45892 71.9118 7.71065 71.954 8.95781 71.8764H18.7294C22.1012 76.1919 26.6227 79.4693 31.7743 81.3291C36.9255 83.1894 42.4973 83.5574 47.8485 82.3909C54.4307 80.9826 60.3304 77.3614 64.5645 72.1284H72.9921C76.2681 72.1284 79.7265 72.492 82.1061 69.72C83.2965 68.1148 83.8372 66.1198 83.6181 64.134V15.708C83.7467 14.1107 83.6863 12.5029 83.4356 10.92C82.1901 6.14644 77.4716 6.24356 73.5092 6.27244C73.5368 3.80888 73.4672 0.63 70.1768 0.63C66.8312 0.63 66.5083 3.78 66.4808 6.32756H59.6203C59.6059 3.72356 59.1859 0.657563 55.7563 0.756C52.4239 0.84 52.3267 3.92044 52.3543 6.468H45.4243C45.4243 4.01756 45.2839 0.573563 41.9947 0.573563H41.8687C38.5927 0.657563 38.5087 3.87713 38.5507 6.41156H31.4803C31.4947 3.91913 31.5079 0.559125 28.0927 0.615563C24.8167 0.657563 24.5372 3.738 24.5083 6.258H17.5927C17.5927 3.738 17.4812 0.686438 14.1212 0.728438C10.6667 0.756 10.4278 3.906 10.4002 6.51C7.37625 6.45356 4.16981 6.41156 1.95825 8.83444C0.446247 10.4724 0.389809 12.4044 0.389809 14.448V54.6984C0.389809 58.4784 0.249372 62.286 0.389809 66.066C0.418443 67.4243 0.91447 68.7312 1.79429 69.7664C2.6741 70.8016 3.88391 71.5019 5.21981 71.7491V71.7504ZM63.7954 70.896C63.6536 70.9966 63.546 71.1381 63.4869 71.3016C60.3683 75.6221 56.0144 78.897 50.9985 80.6951C40.1769 84.5316 27.8565 80.4011 20.8701 71.4696C17.498 67.0834 15.4971 61.7988 15.1186 56.2793C14.7401 50.7597 16.0008 45.2514 18.7425 40.446C21.6053 35.4521 26.0156 31.5255 31.3071 29.2596C36.5984 26.9936 42.4837 26.5121 48.0729 27.888C52.4468 28.9976 56.4837 31.1581 59.833 34.1821C63.1823 37.206 65.7427 41.0019 67.2919 45.24C68.8411 49.4782 69.3323 54.0305 68.7227 58.5015C68.1131 62.9726 66.4213 67.2272 63.7941 70.896H63.7954ZM81.5758 65.814C81.6236 67.0515 81.1796 68.2577 80.3408 69.1687C79.5013 70.0801 78.3342 70.6206 77.0963 70.6716C76.0042 70.728 74.9122 70.6716 73.8203 70.6716H65.6867C69.0913 65.8993 70.9472 60.1952 71.0062 54.3336C70.9489 48.3589 69.0165 42.5531 65.4819 37.7357C61.9474 32.9182 56.9898 29.3319 51.3082 27.4824C45.7305 25.7761 39.7779 25.7222 34.1702 27.3273C28.5625 28.9324 23.5399 32.1277 19.7098 36.5269C15.8233 41.1496 13.5083 46.8891 13.1001 52.9148C12.6921 58.9403 14.2128 64.9393 17.4418 70.0429C17.6374 70.3513 17.8474 70.6309 18.0574 70.9249H11.9818C8.63625 70.9249 4.60425 71.5404 2.89537 67.8169C2.42418 66.4414 2.25618 64.9792 2.40581 63.5329V18.648H81.5758V33.0396C81.5758 43.9451 81.9262 54.9216 81.5758 65.814ZM67.4638 4.52813C67.464 3.90606 67.7108 3.30944 68.1502 2.86913C68.5907 2.42991 69.1873 2.18327 69.8092 2.18327C70.4312 2.18327 71.0278 2.42991 71.4682 2.86913C71.9082 3.30922 72.1555 3.90587 72.156 4.52813V9.5865C72.1553 10.2087 71.9078 10.8052 71.4679 11.2451C71.0279 11.6851 70.4314 11.9326 69.8092 11.9332C69.1871 11.9326 68.5906 11.6851 68.1506 11.2451C67.7107 10.8052 67.4632 10.2087 67.4625 9.5865V4.52813H67.4638ZM53.445 4.52813C53.4376 4.21531 53.4928 3.90418 53.6073 3.61298C53.7218 3.32178 53.8933 3.05639 54.1117 2.83238C54.3299 2.60804 54.5909 2.42982 54.8793 2.3083C55.1677 2.18677 55.4775 2.12442 55.7904 2.12494C56.1033 2.12493 56.4129 2.1874 56.7013 2.30869C56.9897 2.43007 57.2508 2.60815 57.4691 2.83238C57.687 3.05681 57.8589 3.32194 57.9731 3.61331C58.0873 3.90447 58.1422 4.21548 58.1346 4.52813V9.5865C58.1188 10.1984 57.8649 10.78 57.4269 11.2075C56.9888 11.635 56.4012 11.8747 55.7891 11.8755C55.177 11.8747 54.5894 11.635 54.1514 11.2075C53.7133 10.78 53.4594 10.1984 53.4437 9.5865V4.52813H53.445ZM39.7254 4.52813C39.7178 4.21548 39.7727 3.90447 39.8869 3.61331C40.0011 3.32194 40.173 3.05681 40.3922 2.83238C40.7217 2.49523 41.1449 2.265 41.607 2.1716C42.069 2.07821 42.5485 2.12597 42.9831 2.30869C43.2715 2.43007 43.5326 2.60815 43.7509 2.83238C43.9687 3.05681 44.1407 3.32194 44.2549 3.61331C44.3691 3.90469 44.4242 4.21575 44.4163 4.52813V9.5865C44.4039 10.0426 44.2591 10.4852 43.9993 10.8603C43.7396 11.2354 43.3762 11.5268 42.9537 11.6988C42.5311 11.8708 42.0676 11.9161 41.6197 11.8291C41.1718 11.7421 40.759 11.5265 40.4316 11.2087C39.9933 10.7809 39.7395 10.1988 39.7241 9.5865V4.52813H39.7254ZM25.6633 4.52813C25.6557 4.21548 25.7106 3.90447 25.8247 3.61331C25.9389 3.32194 26.1109 3.05681 26.3287 2.83238C26.6582 2.49523 27.0815 2.265 27.5436 2.1716C28.0056 2.07821 28.4851 2.12597 28.9196 2.30869C29.208 2.43007 29.4692 2.60815 29.6874 2.83238C29.9053 3.05681 30.0772 3.32194 30.1914 3.61331C30.3056 3.90469 30.3607 4.21575 30.3529 4.52813V9.5865C30.3405 10.0426 30.1956 10.4852 29.9359 10.8603C29.6761 11.2354 29.3128 11.5268 28.8902 11.6988C28.4676 11.8708 28.0041 11.9161 27.5562 11.8291C27.1084 11.7421 26.6955 11.5265 26.3681 11.2087C25.9299 10.7809 25.676 10.1988 25.6607 9.5865V4.52813H25.6633ZM11.6432 4.52813C11.6435 4.064 11.7813 3.61038 12.0392 3.22449C12.2971 2.8386 12.6635 2.53775 13.0922 2.35988C13.377 2.24175 13.6815 2.18138 13.9899 2.18138C14.6122 2.18188 15.2088 2.42922 15.6489 2.86913C15.867 3.08669 16.0397 3.34546 16.1569 3.63038C16.2737 3.91519 16.3354 4.21969 16.3354 4.52813V9.5865C16.3347 10.2087 16.0872 10.8052 15.6473 11.2451C15.2073 11.6851 14.6108 11.9326 13.9886 11.9332C13.3664 11.9326 12.7699 11.6851 12.33 11.2451C11.89 10.8052 11.6426 10.2087 11.6419 9.5865V4.52813H11.6432ZM2.40581 12.474C2.48981 10.0524 3.93225 7.61644 6.57825 7.476C7.85268 7.41956 9.12581 7.46156 10.4002 7.476C10.3858 10.0524 10.3858 13.272 13.8718 13.272C17.2174 12.936 17.5534 10.4016 17.5954 7.74244H24.5109C24.4965 10.248 24.5529 13.3849 27.8985 13.3849C31.2441 13.0489 31.4685 10.2349 31.4829 7.58888H38.5665C38.5665 10.1089 38.7345 13.4269 42.1221 13.4269C45.4256 13.0909 45.4821 10.1364 45.4401 7.53244H52.3701V7.57444C52.3701 10.164 52.7625 13.0069 55.8836 13.2024C55.9953 13.2447 56.1156 13.2591 56.2341 13.2444C59.5245 12.9229 59.6505 10.2349 59.6361 7.67288H66.4821C66.4545 10.1509 66.4965 13.3704 69.8145 13.3704C73.1469 13.0344 73.4685 10.3884 73.5105 7.71488C74.5881 7.70044 75.6801 7.67288 76.7589 7.72931C78.0409 7.78944 79.2519 8.33508 80.1463 9.25551C81.0406 10.1759 81.5512 11.4022 81.5745 12.6853C81.6165 13.6933 81.5745 14.7013 81.5745 15.7093V17.7529H2.40581V17.1924V12.474ZM65.3953 54.3191C65.3584 50.936 64.5813 47.6019 63.1186 44.5511C61.6559 41.5003 59.543 38.8067 56.9284 36.6594C53.1654 33.6697 48.5844 31.8908 43.7899 31.5576C38.9953 31.2244 34.2124 32.3525 30.072 34.7931C28.4499 35.763 26.9511 36.9256 25.6082 38.2554C25.4349 38.3447 25.2958 38.4864 25.2079 38.6597V38.6768C21.0488 42.9825 18.6947 48.7163 18.6283 54.7024C18.6179 54.7557 18.6179 54.8105 18.6283 54.8638C18.6103 57.8142 19.1832 60.7384 20.3132 63.4639C21.4432 66.1894 23.1075 68.6611 25.2079 70.7332C25.2171 70.7634 25.2144 70.7976 25.2433 70.8238C25.2722 70.8501 25.3024 70.8435 25.3299 70.8579C29.7655 75.2236 35.7203 77.7004 41.9436 77.7682C46.6922 77.7262 51.3201 76.2681 55.2366 73.5827C59.1531 70.8973 62.1797 67.1055 63.9306 62.6916C64.8951 60.1351 65.3908 57.4256 65.394 54.6932C65.4189 54.6499 65.4373 54.6026 65.4491 54.5527C65.4473 54.472 65.429 54.3925 65.3953 54.3191ZM63.0564 58.5572C62.3597 62.5117 60.552 66.1863 57.8445 69.1517C57.5439 68.8524 57.1909 68.3392 56.7945 68.1712C56.5845 68.0794 54.6564 68.2789 54.8966 68.7947C55.4203 69.3801 55.9755 69.9352 56.5609 70.4576C52.868 73.9018 48.0841 75.9417 43.0421 76.2221V74.4791C43.0421 73.8531 42.8347 73.4291 42.1168 73.5092C40.656 73.6732 40.9972 75.1012 40.9972 76.2129C35.8816 75.8668 31.0509 73.7318 27.3512 70.182C28.0339 69.6155 28.6452 68.968 29.1716 68.2539C29.1506 67.9914 28.7739 67.9914 28.5784 68.0019C28.0822 68.0085 27.6045 68.1896 27.2291 68.5138L26.4666 69.2764C24.4627 67.1395 22.9184 64.6143 21.9292 61.8568C21.1785 59.7409 20.761 57.5213 20.6916 55.2773C20.6916 55.2864 21.7862 55.2773 21.8951 55.2773C22.2897 55.3037 22.6837 55.2181 23.0317 55.0305C23.5817 54.6761 23.5331 53.9556 22.7876 53.9556H20.6876C20.8231 48.8446 22.7411 43.9418 26.1096 40.0956L26.9784 40.9644C27.5244 41.5104 28.7398 41.8425 29.1244 40.8804C29.1703 40.7925 29.19 40.6927 29.1834 40.5943C29.1764 40.4952 29.1414 40.4 29.0824 40.32L27.4667 38.7043C27.7121 38.4746 27.9497 38.241 28.2056 38.0218C31.7962 34.9813 36.3034 33.2338 41.0051 33.0592V34.9506C41.0051 35.4099 41.1574 35.5648 41.6522 35.5583C42.0919 35.5504 43.0342 35.3154 43.0342 34.755V33.0592C46.6135 33.2375 50.0879 34.3277 53.1274 36.2263C54.4021 37.0335 55.5889 37.9718 56.6685 39.0259L55.3219 40.3725C55.1618 40.5326 54.7995 40.7768 54.8783 41.0366C54.9268 41.2007 55.1237 41.265 55.2982 41.2834C55.7469 41.3309 56.1983 41.224 56.5779 40.9802C56.9324 40.6638 57.2731 40.3323 57.5991 39.9866C61.0706 43.7968 63.1063 48.6977 63.3557 53.8466H62.0471C61.5523 53.8466 60.6139 54.0028 60.5889 54.6866C60.5706 55.2248 61.0942 55.3862 61.5379 55.3862H63.3675C63.3439 56.4506 63.2402 57.5111 63.0591 58.5598L63.0564 58.5572Z" fill="#262626"/>
<path d="M42.4659 59.4418C42.336 59.4418 42.2087 59.4051 42.0984 59.3368C41.9882 59.2686 41.8989 59.1701 41.8399 59.0546C41.7808 58.9391 41.7572 58.8079 41.769 58.6793C41.7808 58.5506 41.8281 58.4259 41.9068 58.3223L43.4359 56.3089L39.7267 58.4496C39.5837 58.5309 39.417 58.5598 39.2542 58.5296C39.0915 58.4994 38.9458 58.4141 38.8408 58.2868C38.7358 58.1595 38.6794 57.9994 38.6807 57.8353C38.682 57.6713 38.7411 57.5111 38.8487 57.3864L41.5629 54.2496L38.2948 56.1356C38.157 56.2157 37.9942 56.2472 37.8367 56.2223C37.6792 56.1973 37.5336 56.1199 37.4259 56.0018C37.3183 55.8836 37.254 55.7314 37.2448 55.5713C37.2356 55.4111 37.2816 55.2536 37.3734 55.1224L39.0928 52.7048L39.0036 52.7546C38.8434 52.8386 38.6571 52.857 38.4838 52.8071C38.3106 52.7573 38.1636 52.6418 38.073 52.4856C37.9824 52.3294 37.9562 52.1443 37.9995 51.9684C38.0428 51.7926 38.1517 51.6416 38.304 51.5445L41.1744 49.8868C41.3122 49.8068 41.475 49.7766 41.6325 49.8015C41.79 49.8264 41.9344 49.9039 42.042 50.022C42.1496 50.1401 42.2126 50.2911 42.2231 50.4512C42.2336 50.6113 42.1877 50.7688 42.0945 50.8988L40.3751 53.3177L44.4583 50.9618C44.6014 50.8804 44.7694 50.8515 44.9308 50.8817C45.0922 50.9119 45.2392 50.9972 45.3442 51.1245C45.4492 51.2518 45.5057 51.4119 45.5044 51.576C45.5031 51.7401 45.444 51.9002 45.3364 52.0249L42.6247 55.1604L45.7485 53.3558C45.8889 53.2757 46.0517 53.2455 46.2105 53.2718C46.3693 53.298 46.515 53.3781 46.6213 53.4988C46.7276 53.6196 46.7893 53.7744 46.7959 53.9359C46.8024 54.0973 46.7526 54.2548 46.6554 54.3848L45.1067 56.4231C45.2707 56.3666 45.4506 56.3732 45.6107 56.4414C45.7708 56.5097 45.8994 56.6357 45.9716 56.7932C46.0438 56.9507 46.0543 57.1305 46.0018 57.2959C45.9493 57.4613 45.8364 57.6017 45.6868 57.6896L42.8164 59.3473C42.7101 59.4094 42.589 59.4416 42.4659 59.4405V59.4418Z" fill="#BFDBF0"/>
<path d="M50.0128 49.8107L46.1081 51.7624C45.7696 51.229 45.3253 50.7707 44.8027 50.4158C44.2801 50.061 43.6903 49.817 43.0697 49.6991V41.7191C43.0697 41.2991 42.1326 41.4396 41.9212 41.4908C41.5432 41.5918 41.0406 41.8163 41.0406 42.2625V49.7726C39.9411 50.0717 38.9684 50.7194 38.2685 51.6185C37.5687 52.5176 37.1795 53.6196 37.1595 54.7588C37.1542 55.3888 37.275 56.0136 37.5126 56.5976C37.7505 57.1813 38.1016 57.7121 38.5456 58.1594C38.9895 58.6068 39.5177 58.9619 40.0995 59.2043C40.6809 59.4458 41.3057 59.5704 41.9357 59.5704C43.2535 59.5141 44.5012 58.9612 45.4283 58.023C46.3553 57.0847 46.8931 55.8305 46.9337 54.5121C46.9337 54.4766 46.9232 54.4556 46.9232 54.4241C46.9297 54.3887 46.935 54.3519 46.9389 54.3165C46.9101 53.8886 46.83 53.4647 46.7001 53.0565L50.3186 51.2505L50.8948 50.9618C51.2229 50.7977 51.7112 50.3344 51.3804 49.9459C51.1941 49.7844 50.9617 49.6847 50.7163 49.6598C50.4709 49.6348 50.2241 49.6886 50.0102 49.8107H50.0128ZM38.5691 54.4136C38.5775 53.9361 38.6895 53.4661 38.8976 53.0361C39.1056 52.6062 39.4047 52.2267 39.774 51.9238C40.1428 51.6206 40.5733 51.4014 41.0353 51.2807C41.4973 51.1599 41.9803 51.1416 42.4502 51.2256C42.8956 51.2286 43.3353 51.3262 43.7403 51.5117C44.1453 51.6972 44.5063 51.9665 44.7996 52.3018C45.0927 52.6374 45.3112 53.0313 45.4409 53.4575C45.5705 53.8838 45.6083 54.3327 45.5516 54.7746C45.1959 59.2056 38.5429 58.758 38.5678 54.4136H38.5691Z" fill="#262626"/>
</svg>
