<svg width="70" height="70" viewBox="0 0 70 70" fill="none" xmlns="http://www.w3.org/2000/svg">
<circle cx="35" cy="35" r="35" fill="#00C39E"/>
<path d="M48.3588 31.6635C47.8997 31.4982 47.716 31.3085 47.6487 30.7943C46.8835 25.0462 42.3108 20.6388 36.5627 20.0633C30.7535 19.4818 25.3911 22.9527 23.5608 28.4926C23.4628 28.7987 23.3098 28.9517 23.016 29.068C18.0209 31.0024 15.1193 36.377 16.2395 41.5741C17.3659 46.7713 21.8039 50.3584 27.1235 50.3768C30.074 50.3768 33.0245 50.3768 35.969 50.3768C38.9134 50.3768 41.8945 50.3707 44.8573 50.3768C45.6531 50.3768 46.4367 50.2911 47.208 50.1197C51.3093 49.1954 54.3823 45.5653 54.6639 41.3109C54.9394 37.0688 52.3561 33.0898 48.3588 31.6635ZM46.002 47.5426C45.5858 47.5915 45.1695 47.616 44.7533 47.616H35.9935C33.0184 47.616 30.0434 47.6221 27.0622 47.6099C23.0588 47.5977 19.6798 44.8001 18.9207 40.8885C18.1188 36.7198 20.6225 32.5817 24.6994 31.4003C25.4156 31.1922 25.7951 30.782 25.9849 30.0658C27.1479 25.5971 31.1269 22.6282 35.7363 22.7629C40.1989 22.8915 44.135 26.3378 44.839 30.733C44.9247 31.2595 44.992 31.7859 45.0042 32.3185C45.0226 33.3102 45.3838 33.7326 46.3571 33.9529C49.2954 34.6263 51.1196 36.4382 51.7746 39.3704C52.6193 43.1535 49.8341 47.0528 46.002 47.5426Z" fill="white"/>
<path d="M41.7534 39.0093C39.966 40.8028 38.1785 42.5903 36.3849 44.3778C35.7299 45.0267 34.9464 45.0205 34.2914 44.3717C32.4978 42.5842 30.7103 40.7967 28.9228 39.0031C28.2985 38.3788 28.274 37.5401 28.8433 36.9708C29.4187 36.4015 30.2451 36.4321 30.8756 37.0565C31.8795 38.0604 32.8773 39.0705 33.9608 40.154V31.4125C33.9608 30.8371 33.9608 30.2617 33.9608 29.6863C33.973 28.8844 34.5791 28.2783 35.3443 28.2845C36.1156 28.2845 36.7155 28.8966 36.7216 29.6985C36.7277 32.9919 36.7216 36.2852 36.7216 39.5786V40.0438C36.7522 40.0622 36.7767 40.0866 36.8073 40.105C36.893 40.0009 36.9726 39.8908 37.0644 39.7989C37.9826 38.8807 38.8947 37.9625 39.8129 37.0504C40.4373 36.426 41.2698 36.4015 41.8452 36.9769C42.4084 37.5524 42.3778 38.3788 41.7534 39.0093Z" fill="white"/>
</svg>
