<svg width="16" height="29" viewBox="0 0 16 29" fill="none" xmlns="http://www.w3.org/2000/svg">
<path d="M-0.00291506 14.517C-0.00291504 14.0751 0.20726 13.7428 0.516789 13.4369C3.81079 10.1891 7.09716 6.93748 10.3873 3.68589C11.4994 2.59069 12.6037 1.48795 13.7196 0.400303C14.2202 -0.0868694 14.9348 -0.128411 15.4659 0.271901C15.9742 0.653331 16.1385 1.32555 15.8633 1.89203C15.7602 2.1073 15.5882 2.26969 15.4239 2.43208C11.4573 6.35212 7.49076 10.2797 3.51273 14.1884C3.24906 14.449 3.26816 14.5661 3.52037 14.8153C7.5175 18.7467 11.4994 22.6932 15.4927 26.6283C15.8977 27.0286 16.1079 27.4705 15.9436 28.0332C15.6799 28.9471 14.5908 29.2908 13.838 28.7054C13.7387 28.6299 13.6546 28.5393 13.5667 28.4524C9.22565 24.1623 4.88459 19.8721 0.539716 15.5857C0.234008 15.2836 0.00472766 14.9588 -0.00291506 14.517Z" fill="black"/>
</svg>
