<svg width="19" height="15" viewBox="0 0 19 15" fill="none" xmlns="http://www.w3.org/2000/svg">
<path d="M18.6561 11.7366C18.6124 11.9038 18.5775 12.074 18.5234 12.238C18.1427 13.3871 17.147 14.0822 15.8795 14.0827C12.0592 14.0838 8.23892 14.0838 4.41916 14.0827C3.98485 14.0827 3.55002 14.0911 3.11727 14.0666C1.75237 13.9895 0.649925 12.8727 0.637427 11.5065C0.616597 9.20677 0.630657 6.90702 0.630137 4.60675C0.630137 4.59634 0.635344 4.58593 0.638989 4.57187C0.70096 4.57291 0.74262 4.61769 0.79053 4.64632C3.52398 6.31451 6.259 7.98062 8.98881 9.65453C9.43354 9.92684 9.84441 9.92007 10.2865 9.64933C13.0278 7.97177 15.7743 6.30202 18.5192 4.63018C18.564 4.60311 18.6108 4.57968 18.6572 4.55469V11.7361L18.6561 11.7366Z" fill="black"/>
<path d="M9.64436 0.800793C11.7269 0.800793 13.8094 0.800793 15.8919 0.800793C16.8725 0.800793 17.6474 1.19441 18.2004 2.00924C18.3457 2.22323 18.4436 2.46013 18.5233 2.7064C18.566 2.83865 18.5451 2.90738 18.4181 2.98443C16.4074 4.2059 14.4015 5.43465 12.394 6.66132C11.5248 7.19239 10.6546 7.72086 9.78809 8.25506C9.69175 8.31441 9.62561 8.32274 9.52302 8.26026C6.63178 6.49367 3.73793 4.73072 0.842522 2.9709C0.737329 2.90686 0.718581 2.84854 0.750348 2.73296C1.07218 1.57293 2.11161 0.802876 3.37965 0.800793C5.46789 0.797669 7.55612 0.799753 9.64436 0.799753V0.800793Z" fill="black"/>
</svg>
