<svg width="70" height="70" viewBox="0 0 70 70" fill="none" xmlns="http://www.w3.org/2000/svg">
<circle cx="35" cy="35" r="35" fill="#00C39E"/>
<path d="M49.6298 35.754C49.6537 36.5307 50.2159 37.1168 50.945 37.1644C51.7073 37.2168 52.2553 36.7785 52.403 36.0018V27.2725C52.322 26.9342 52.3315 26.5863 52.2267 26.2528C51.5215 24.0467 49.3725 22.4695 47.0473 22.4695C39.7284 22.4695 32.4095 22.4695 25.0906 22.479C24.6904 22.479 24.3997 22.3599 24.1186 22.0692C22.9607 20.8875 21.779 19.7249 20.6116 18.5527C20.3305 18.2716 20.0351 18.0286 19.6158 18H19.0773C18.6247 18.1715 18.2387 18.4193 18.0815 18.9101C17.867 19.5581 18.1386 20.0441 18.5913 20.4968C29.0312 30.9272 39.4711 41.3671 49.911 51.8022C50.011 51.907 50.1159 52.0118 50.2302 52.0976C50.9354 52.6551 51.9456 52.3883 52.2982 51.5592C52.3363 51.4782 52.3125 51.3781 52.403 51.3209V50.7825C52.3792 50.387 52.1457 50.1106 51.8836 49.8486C51.1356 49.0957 50.3827 48.3476 49.6346 47.5948C49.4107 47.3708 49.4154 47.3327 49.6918 47.1898C50.3541 46.8515 50.8687 46.3416 51.3309 45.7794C51.9265 45.0456 52.2696 44.1926 52.403 43.2587V42.1819C52.2267 41.2622 51.3786 40.781 50.5161 41.1288C49.9253 41.3718 49.6632 41.8483 49.6203 42.4725C49.525 43.7876 48.7626 44.6977 47.5666 44.9741C47.2474 45.0503 47.0234 44.9836 46.79 44.7454C42.7874 40.7381 38.7802 36.7356 34.7777 32.7283C34.7109 32.6616 34.6157 32.6092 34.6061 32.4901C34.7109 32.4567 34.811 32.4662 34.9111 32.4662H49.1486C49.2248 32.4662 49.3058 32.4662 49.3821 32.471C49.5298 32.4758 49.6108 32.552 49.6155 32.6997C49.6251 32.7998 49.6203 32.8998 49.6203 33.0047C49.6251 33.9195 49.606 34.8391 49.6298 35.754ZM49.5727 29.6931C49.506 29.6883 49.4345 29.6931 49.3678 29.6931C43.5451 29.6931 37.7271 29.6931 31.9044 29.6978C31.6852 29.6978 31.5328 29.6359 31.3803 29.4834C30.0652 28.154 28.7405 26.8341 27.4159 25.5142C27.3444 25.4475 27.2539 25.3999 27.1729 25.3475C27.1967 25.3141 27.2205 25.2855 27.2444 25.2569H35.1017C39.0327 25.2569 42.959 25.2569 46.89 25.2569C48.248 25.2569 49.3011 26.0241 49.6203 27.2916C49.8109 28.0349 49.687 28.8068 49.7156 29.5644C49.7204 29.674 49.6632 29.6978 49.5727 29.6931Z" fill="white"/>
<path d="M31.113 47.8282C28.5495 47.8282 25.986 47.8378 23.4225 47.8282C20.797 47.8187 18.6623 46.0748 18.1144 43.5208C18.0286 43.1253 18 42.7203 18 42.32C18 37.5742 18 32.8283 18 28.0777C18 27.6394 18.0381 27.2058 18.1334 26.7769C18.2954 26.0479 18.9387 25.6143 19.6868 25.7239C20.3443 25.8192 20.8446 26.4529 20.7636 27.1533C20.6731 27.9014 20.7112 28.6495 20.6874 29.3976C20.6779 29.6263 20.7303 29.7026 20.9733 29.6978C21.8786 29.6835 22.7887 29.6835 23.6941 29.6978C24.2944 29.7026 24.7804 30.0456 24.971 30.565C25.1712 31.1082 25.0282 31.6705 24.5851 32.0517C24.323 32.2804 24.0085 32.3804 23.6607 32.3757C22.7649 32.3757 21.8691 32.3757 20.9733 32.3709C20.7684 32.3709 20.6874 32.3995 20.6874 32.633C20.6969 35.8779 20.6874 39.1275 20.6969 42.3724C20.7017 43.9925 21.8739 45.1361 23.5178 45.1361C28.6781 45.1361 33.8433 45.1361 39.0037 45.1361C39.7279 45.1361 40.2187 45.4506 40.4236 46.0319C40.7333 46.9134 40.0948 47.8092 39.1419 47.8187C37.6171 47.8282 36.0971 47.8187 34.5723 47.8187C33.4192 47.8187 32.2661 47.8187 31.113 47.8187V47.8282Z" fill="white"/>
</svg>
