<svg width="119" height="95" viewBox="0 0 119 95" fill="none" xmlns="http://www.w3.org/2000/svg">
<path d="M21.1279 7.24357C25.2047 2.31681 29.4108 0.166956 33.8111 0.734279C38.1791 1.3016 41.1558 3.48132 42.7088 7.24357C44.2619 11.0058 43.0324 15.3055 38.9556 20.2323C35.2024 24.5619 32.3875 29.0407 30.5109 33.639C28.6343 38.2672 27.2107 42.7162 26.2724 47.0458C33.7788 47.3444 39.7968 49.6435 44.3266 53.9731C48.8563 58.3027 51.1211 63.7968 51.1211 70.4255C51.1211 77.0542 48.7592 83.0559 44.1001 87.5348C39.4086 92.0137 33.3258 94.2531 25.7871 94.2531C17.6659 94.2531 11.3243 91.7151 6.79458 86.6689C2.23251 81.6227 0 74.337 0 64.812C0 55.8841 1.48834 46.359 4.46501 36.2368C7.44169 26.1444 12.9744 16.47 21.1279 7.24357ZM88.9744 7.24357C93.0512 2.31681 97.2573 0.166956 101.658 0.734279C106.026 1.3016 109.002 3.48132 110.555 7.24357C112.108 11.0058 110.879 15.3055 106.802 20.2323C103.049 24.5619 100.234 29.0407 98.3574 33.639C96.4808 38.2672 95.0895 42.7162 94.1512 47.0458C101.658 47.3444 107.676 49.6435 112.205 53.9731C116.735 58.3027 119 63.7968 119 70.4255C119 77.0542 116.638 83.0559 111.947 87.5348C107.255 92.0137 101.172 94.2531 93.6659 94.2531C85.5124 94.2531 79.2032 91.7151 74.6734 86.6689C70.1437 81.6227 67.8789 74.337 67.8789 64.812C67.8789 55.8841 69.3672 46.359 72.3439 36.2368C75.3205 26.1444 80.8533 16.47 89.0068 7.24357H88.9744Z" fill="#F2FDF8"/>
</svg>
