<svg width="16" height="29" viewBox="0 0 16 29" fill="none" xmlns="http://www.w3.org/2000/svg">
<path d="M15.9997 14.517C15.9997 14.0751 15.7895 13.7428 15.48 13.4369C12.186 10.1891 8.89964 6.93748 5.60945 3.68589C4.49744 2.59069 3.39307 1.48795 2.27724 0.400303C1.77664 -0.0868694 1.06205 -0.128411 0.530877 0.271901C0.0226377 0.653331 -0.14168 1.32555 0.133457 1.89203C0.236634 2.1073 0.408594 2.26969 0.572912 2.43208C4.53948 6.35212 8.50604 10.2797 12.4841 14.1884C12.7477 14.449 12.7286 14.5661 12.4764 14.8153C8.47929 18.7467 4.49744 22.6932 0.504129 26.6283C0.0990659 27.0286 -0.111108 27.4705 0.0532098 28.0332C0.316883 28.9471 1.40597 29.2908 2.15877 28.7054C2.25813 28.6299 2.3422 28.5393 2.43009 28.4524C6.77115 24.1623 11.1122 19.8721 15.4571 15.5857C15.7628 15.2836 15.9921 14.9588 15.9997 14.517Z" fill="black"/>
</svg>
