<svg width="17" height="17" viewBox="0 0 17 17" fill="none" xmlns="http://www.w3.org/2000/svg">
<path d="M16.1875 10.1003C16.1415 10.0006 16.1279 9.90669 16.1509 9.80022C16.2554 9.31535 16.3055 8.82475 16.3008 8.32892C16.3087 7.81273 16.2507 7.30334 16.142 6.79916C15.3233 2.99902 11.6129 0.30537 7.52884 0.913935C7.40241 0.933246 7.30628 0.910803 7.1997 0.850782C6.13911 0.254744 5.01584 0.111736 3.84554 0.433242C1.07497 1.19473 -0.213402 4.18379 1.13035 6.71774C1.18468 6.82056 1.17946 6.91502 1.16013 7.01732C1.0013 7.87067 0.993467 8.72662 1.14028 9.57997C1.82939 13.581 5.6548 16.4636 9.93579 15.7575C10.0408 15.7402 10.1218 15.758 10.2127 15.8024C11.0554 16.2095 11.9368 16.3624 12.8673 16.211C15.5036 15.783 17.4889 12.9072 16.1875 10.1003V10.1003ZM12.3777 12.1896C11.7351 12.8806 10.9107 13.222 10.0016 13.3905C9.55283 13.4735 9.09986 13.5158 8.64219 13.5132C7.64483 13.4928 6.66784 13.3697 5.78594 12.8587C5.03465 12.4229 4.47614 11.8175 4.24208 10.9579C4.19402 10.7814 4.16998 10.6003 4.18827 10.4171C4.23529 9.95001 4.48973 9.63686 4.90874 9.52621C5.44477 9.38425 5.88677 9.51995 6.1621 9.91191C6.28174 10.0826 6.37317 10.27 6.45886 10.4589C6.92906 11.4933 7.62497 11.8806 8.95775 11.7726C9.36945 11.7392 9.76494 11.6358 10.1176 11.4072C10.5873 11.1024 10.7952 10.639 10.674 10.1833C10.5988 9.89834 10.4055 9.71358 10.1651 9.56953C9.79263 9.34667 9.37833 9.23602 8.96141 9.13477C8.17878 8.94479 7.38046 8.81848 6.6182 8.55074C6.08635 8.36336 5.58636 8.11858 5.17101 7.72923C4.00071 6.63266 4.18357 4.74016 5.54613 3.83828C6.19449 3.40926 6.92071 3.19735 7.68297 3.10236C8.79109 2.96458 9.87832 3.04808 10.9232 3.47189C11.5423 3.72345 12.0517 4.1149 12.4002 4.69319C12.5993 5.02357 12.7111 5.37848 12.6322 5.77149C12.5454 6.20521 12.2837 6.48444 11.8589 6.57943C11.4206 6.67703 11.012 6.61022 10.7179 6.224C10.6239 6.1003 10.5356 5.96877 10.4676 5.82942C10.0324 4.93432 9.27123 4.65561 8.33969 4.69945C8.07324 4.71198 7.80888 4.74799 7.55444 4.83724C7.39405 4.89309 7.24097 4.96198 7.10147 5.05958C6.52207 5.46407 6.53409 6.05176 7.13543 6.42546C7.54974 6.68277 8.01943 6.79498 8.48598 6.91033C9.33078 7.11857 10.1902 7.27045 11.0079 7.57943C11.5601 7.78768 12.0758 8.05908 12.4801 8.50272C13.3782 9.48707 13.3338 11.163 12.3777 12.1896V12.1896Z" fill="black"/>
</svg>
