<svg width="15" height="14" viewBox="0 0 15 14" fill="none" xmlns="http://www.w3.org/2000/svg">
<path d="M12.6465 2.23606C9.94809 -0.426238 5.57358 -0.42541 2.87578 2.23795C0.177973 4.90131 0.178433 9.21859 2.87684 11.8809C5.57525 14.5432 9.94973 14.5424 12.6475 11.879C13.9432 10.5999 14.6709 8.86526 14.6706 7.05671C14.6703 5.24846 13.9422 3.51444 12.6465 2.23606ZM11.3159 9.73795C11.3156 9.73824 11.3153 9.73856 11.315 9.73885L11.315 9.73659L10.9649 10.0798C10.5122 10.5323 9.85285 10.7184 9.22617 10.5708C8.59479 10.404 7.99459 10.1386 7.44832 9.78448C6.94079 9.46438 6.47046 9.09018 6.04585 8.66856C5.65517 8.2858 5.30418 7.86552 4.99805 7.41399C4.6632 6.92812 4.39818 6.39884 4.2105 5.84119C3.99535 5.18609 4.17369 4.46722 4.67118 3.98425L5.08112 3.57968C5.1951 3.46668 5.38029 3.46628 5.49474 3.57875C5.49504 3.57905 5.49536 3.57934 5.49566 3.57966L6.78986 4.85694C6.90434 4.96942 6.90474 5.15219 6.79076 5.26515C6.79047 5.26544 6.79017 5.26574 6.78984 5.26606L6.02983 6.01613C5.81176 6.22901 5.78432 6.56728 5.96532 6.81165C6.24018 7.18394 6.54434 7.53426 6.87496 7.8594C7.24357 8.22477 7.6443 8.55713 8.07245 8.8526C8.31984 9.0229 8.65525 8.99417 8.86927 8.78438L9.60395 8.04794C9.71792 7.93495 9.90311 7.93454 10.0176 8.04702C10.0179 8.04731 10.0182 8.04761 10.0185 8.04793L11.315 9.32976C11.4295 9.44221 11.4299 9.62495 11.3159 9.73795Z" fill="white"/>
</svg>
