<svg xmlns="http://www.w3.org/2000/svg" width="24" height="24" fill="none" xmlns:v="https://vecta.io/nano"><path d="M12 24c6.627 0 12-5.373 12-12S18.627 0 12 0 0 5.373 0 12s5.373 12 12 12z" fill="#f0f0f0"/><path d="M24 12c0-4.757-2.769-8.868-6.783-10.809V22.81C21.231 20.868 24 16.758 24 12zM0 12a12 12 0 0 0 6.783 10.809V1.191C2.769 3.132 0 7.243 0 12zm14.087 1.565l2.087-1.043L15.131 12v-1.043L13.044 12l1.043-2.087h-1.043L12 8.348l-1.043 1.565H9.913L10.957 12 8.87 10.957V12l-1.043.522 2.087 1.043-.522 1.043h2.087v1.565h1.043v-1.565h2.087l-.522-1.043z" fill="#d80027"/></svg>