<svg width="15" height="15" viewBox="0 0 15 15" fill="none" xmlns="http://www.w3.org/2000/svg">
<g clip-path="url(#clip0_45_2363)">
<path d="M9.31049 8.46079L8.15221 9.623C7.6825 10.0944 6.85605 10.1045 6.37619 9.623L5.21785 8.46079L1.05762 12.6345C1.21248 12.7061 1.38322 12.7489 1.56473 12.7489H12.9637C13.1452 12.7489 13.3159 12.7062 13.4707 12.6346L9.31049 8.46079Z" fill="white"/>
<path d="M12.9636 3.02445H1.56468C1.38316 3.02445 1.21242 3.06718 1.05762 3.13879L5.50312 7.59904C5.50341 7.59934 5.50377 7.59939 5.50406 7.59969C5.50436 7.59999 5.50441 7.60039 5.50441 7.60039L6.94989 9.05065C7.10342 9.20419 7.42492 9.20419 7.57845 9.05065L9.02363 7.60064C9.02363 7.60064 9.02398 7.59999 9.02428 7.59969C9.02428 7.59969 9.02493 7.59934 9.02522 7.59904L13.4706 3.13877C13.3158 3.06713 13.1451 3.02445 12.9636 3.02445Z" fill="white"/>
<path d="M0.478399 3.70553C0.398282 3.86755 0.349121 4.04739 0.349121 4.24004V11.5332C0.349121 11.7258 0.398228 11.9057 0.478372 12.0677L4.64581 7.88675L0.478399 3.70553Z" fill="white"/>
<path d="M14.0492 3.70562L9.88184 7.88689L14.0492 12.0679C14.1293 11.9059 14.1785 11.726 14.1785 11.5333V4.24018C14.1785 4.04748 14.1293 3.86763 14.0492 3.70562Z" fill="white"/>
</g>
<defs>
<clipPath id="clip0_45_2363">
<rect width="13.83" height="13.83" fill="white" transform="translate(0.349121 0.97179)"/>
</clipPath>
</defs>
</svg>
