<svg width="164" height="154" viewBox="0 0 164 154" fill="none" xmlns="http://www.w3.org/2000/svg">
<path d="M31.2464 115.03C31.229 115.151 31.0741 115.283 30.7815 115.428C30.489 115.573 30.0131 115.775 29.3538 116.035C29.1571 116.104 28.8598 116.2 28.4622 116.323C28.08 116.442 27.6591 116.572 27.1997 116.712C26.7556 116.847 26.3482 116.965 25.9773 117.064C25.6023 117.148 25.3411 117.194 25.1937 117.2C25.1937 117.2 25.1654 117.249 25.1088 117.347C25.0677 117.441 25.0637 117.55 25.0968 117.673C25.0383 117.888 24.9757 118.211 24.9092 118.643C24.858 119.071 24.7941 119.544 24.7173 120.061C24.656 120.575 24.6024 121.086 24.5565 121.595C24.5261 122.1 24.5023 122.537 24.4851 122.906C24.468 123.276 24.4759 123.522 24.509 123.646C24.4692 124.054 24.469 124.393 24.5085 124.664C24.5479 124.936 24.5352 125.105 24.4703 125.172C24.4714 125.238 24.3751 125.28 24.1814 125.299C23.9877 125.318 23.8104 125.274 23.6495 125.168C23.4268 125.079 23.2856 124.984 23.2257 124.884C23.1771 124.765 23.1614 124.521 23.1786 124.151C23.1712 123.938 23.1698 123.624 23.1746 123.208C23.1907 122.773 23.2041 122.298 23.2149 121.781C23.2412 121.261 23.2717 120.755 23.3062 120.266C23.3521 119.756 23.413 119.334 23.4889 118.999C23.5803 118.66 23.6182 118.368 23.6025 118.124C23.5826 117.864 23.5845 117.623 23.608 117.402C23.547 117.236 23.516 117.12 23.5149 117.054C23.5138 116.988 23.5508 116.879 23.6258 116.726C23.6866 116.644 23.7503 116.51 23.8171 116.327C23.8953 116.124 23.9661 115.831 24.0296 115.45C24.0346 115.283 24.0483 115.056 24.0707 114.768C24.1044 114.461 24.1304 114.156 24.1486 113.853C24.1627 113.534 24.1815 113.264 24.205 113.042C24.2285 112.821 24.2382 112.702 24.234 112.687C24.2484 112.617 24.2637 112.488 24.28 112.302C24.2922 112.099 24.2993 111.94 24.3012 111.824C24.3051 111.591 24.3039 111.401 24.2976 111.253C24.3067 111.102 24.2804 111.034 24.2185 111.051C24.1032 111.115 23.8621 111.204 23.4954 111.319C23.3182 111.4 23.1853 111.46 23.0968 111.501C23.0195 111.521 22.952 111.548 22.8943 111.58C22.7439 111.637 22.6007 111.659 22.4647 111.645C22.3286 111.632 22.242 111.556 22.2048 111.417C22.1695 111.161 22.2007 110.938 22.2984 110.746C22.4074 110.534 22.5758 110.39 22.8034 110.312C22.9033 110.252 23.013 110.198 23.1325 110.149C23.2633 110.081 23.4364 109.985 23.6516 109.861C23.9287 109.72 24.1404 109.614 24.2866 109.542C24.4442 109.45 24.5735 109.407 24.6745 109.413C24.7394 109.346 24.7965 109.281 24.8459 109.218C24.8912 109.139 24.9055 109.069 24.889 109.007C24.8683 108.93 24.8847 108.868 24.9383 108.82C25.0031 108.753 25.0819 108.707 25.1746 108.682C25.2632 108.642 25.358 108.625 25.459 108.631C25.5754 108.633 25.6672 108.666 25.7342 108.731C25.7776 108.769 25.8574 108.789 25.9739 108.791C26.0903 108.793 26.2835 108.741 26.5534 108.635C26.8346 108.51 27.2235 108.323 27.7199 108.074C27.9898 107.969 28.3293 107.844 28.7382 107.702C29.1627 107.555 29.5089 107.487 29.7768 107.497C30.0271 107.381 30.2548 107.303 30.4598 107.265C30.6762 107.207 30.8147 107.136 30.8754 107.054C31.2165 107.028 31.4607 107.013 31.6081 107.006C31.7667 106.98 31.9028 106.994 32.0162 107.046C32.0946 107.091 32.1266 107.149 32.1122 107.219C32.1092 107.269 32.1076 107.295 32.1076 107.295C32.0375 107.28 32.0473 107.286 32.137 107.312C32.2226 107.322 32.2849 107.338 32.3241 107.361C32.4447 107.378 32.5308 107.421 32.5824 107.49C32.6298 107.544 32.6618 107.602 32.6784 107.663C32.6949 107.725 32.7017 107.781 32.6986 107.832C32.7204 107.975 32.6659 108.081 32.5351 108.149C32.4001 108.202 32.0524 108.295 31.492 108.429C30.8026 108.514 30.1376 108.66 29.4968 108.865C28.8673 109.05 28.1442 109.319 27.3273 109.67C27.0224 109.769 26.7566 109.89 26.53 110.033C26.3148 110.157 26.1917 110.223 26.1608 110.232C26.099 110.248 26.0198 110.385 25.9231 110.643C25.8224 110.886 25.7562 111.226 25.7247 111.666C25.6919 111.79 25.6499 112.067 25.5988 112.494C25.5477 112.922 25.4894 113.385 25.4239 113.883C25.3739 114.377 25.3249 114.813 25.2768 115.19C25.2442 115.563 25.2165 115.769 25.1939 115.809C25.4268 115.812 25.7828 115.75 26.2619 115.621C26.7564 115.489 27.2931 115.328 27.8721 115.14C28.4624 114.932 28.9986 114.738 29.4807 114.559C29.7001 114.451 29.9293 114.348 30.1683 114.251C30.4186 114.134 30.5865 114.08 30.672 114.091C30.7617 114.116 30.8561 114.19 30.9551 114.313C31.05 114.42 31.1238 114.541 31.1765 114.676C31.2447 114.807 31.268 114.925 31.2464 115.03ZM33.4436 121.398C33.3487 121.291 33.2466 121.219 33.1373 121.182C33.0239 121.13 32.959 121.073 32.9424 121.011C32.9259 120.949 32.9016 120.889 32.8696 120.831C32.8489 120.754 32.7994 120.693 32.721 120.648C32.6189 120.576 32.5708 120.365 32.5766 120.016C32.5784 119.651 32.6233 119.2 32.7114 118.662C32.7953 118.11 32.9117 117.524 33.0605 116.904C33.1511 116.747 33.2313 116.552 33.3011 116.318C33.371 116.083 33.4285 115.927 33.4738 115.849C33.4572 115.787 33.4659 115.727 33.4999 115.668C33.5297 115.594 33.5755 115.548 33.6373 115.532L33.6001 115.393C33.5794 115.315 33.6138 115.165 33.7032 114.942C33.8081 114.716 33.9398 114.465 34.0982 114.19C34.2525 113.901 34.4187 113.624 34.5967 113.361C34.7706 113.082 34.9224 112.876 35.0521 112.742C35.3187 112.438 35.6158 112.218 35.9434 112.08C36.2864 111.939 36.6084 111.935 36.9095 112.07C36.9682 112.104 37.0662 112.16 37.2033 112.239C37.3405 112.319 37.4972 112.409 37.6735 112.511C37.8611 112.593 38.0508 112.683 38.2426 112.781L39.3051 113.316L39.1981 114.587C39.1627 115.259 39.2534 115.814 39.4702 116.253C39.7025 116.688 39.9646 117.048 40.2565 117.334C40.3793 117.484 40.5773 117.604 40.8505 117.697C41.1391 117.785 41.3957 117.816 41.6204 117.789C41.7481 117.771 41.8764 117.786 42.0053 117.834C42.1342 117.883 42.2214 117.992 42.2669 118.162C42.3082 118.316 42.3104 118.448 42.2734 118.558C42.2364 118.667 42.1448 118.758 41.9985 118.83C41.5051 119.029 40.993 119.034 40.4621 118.845C39.9466 118.652 39.4083 118.249 38.8471 117.638C38.7605 117.562 38.63 117.414 38.4556 117.196C38.2925 116.958 38.1929 116.803 38.1568 116.73C38.1157 116.824 38.0391 117.001 37.927 117.263C37.8108 117.51 37.7187 117.692 37.6508 117.81C36.8515 119.217 36.1017 120.221 35.4016 120.823C34.7127 121.406 34.0601 121.597 33.4436 121.398ZM33.9306 119.876C33.9596 119.984 34.1218 119.941 34.4174 119.745C34.7243 119.531 35.0295 119.217 35.3331 118.804C35.7386 118.215 36.1316 117.579 36.5123 116.897C36.9083 116.211 37.2066 115.593 37.407 115.042L37.6936 114.071C37.4439 113.757 37.2098 113.563 36.9912 113.489C36.784 113.395 36.6186 113.365 36.4949 113.398C36.294 113.452 36.0423 113.719 35.7398 114.197C35.4528 114.672 35.1679 115.278 34.8852 116.017C34.6026 116.755 34.3596 117.549 34.1564 118.399C34.0846 118.75 34.0262 119.088 33.9812 119.415C33.9475 119.722 33.9306 119.876 33.9306 119.876ZM45.0625 119.276C44.7358 119.231 44.4142 119.143 44.0977 119.013C43.777 118.867 43.5595 118.734 43.445 118.616C43.4077 118.477 43.4061 118.378 43.44 118.319C43.4698 118.245 43.595 118.187 43.8155 118.144C44.0473 118.082 44.4265 118.013 44.953 117.938C45.1384 117.889 45.3661 117.811 45.636 117.705C45.9059 117.6 46.1484 117.485 46.3637 117.361C46.5944 117.233 46.7128 117.118 46.7189 117.017C46.7962 116.997 46.8054 116.969 46.7466 116.935C46.6837 116.886 46.6131 116.839 46.5347 116.793C46.4729 116.81 46.3972 116.805 46.3075 116.78C46.2137 116.739 46.1359 116.726 46.074 116.743C46.0534 116.666 45.9533 116.601 45.774 116.55C45.6059 116.479 45.4364 116.434 45.2653 116.413C44.8508 116.226 44.491 116.058 44.1858 115.908C43.8765 115.742 43.7424 115.612 43.7836 115.519C43.767 115.457 43.7587 115.426 43.7587 115.426C43.7546 115.41 43.7525 115.403 43.7525 115.403C43.6444 115.432 43.4794 115.31 43.2575 115.038C43.0512 114.763 42.9149 114.501 42.8487 114.254C42.799 114.068 42.7911 113.822 42.8248 113.515C42.8543 113.192 42.9205 112.851 43.0232 112.492C43.1259 112.133 43.2508 111.827 43.3979 111.572C43.6058 111.234 43.879 110.863 44.2176 110.457C44.5522 110.036 44.8893 109.656 45.229 109.316C45.5801 108.957 45.8843 108.702 46.1418 108.55C46.391 108.367 46.6315 108.244 46.8633 108.182C47.1106 108.116 47.3414 108.112 47.5558 108.17C47.7311 108.206 47.9012 108.285 48.0662 108.406C48.2425 108.508 48.3977 108.624 48.5318 108.753C48.6772 108.864 48.7798 108.969 48.8397 109.068C48.8894 109.254 48.9298 109.467 48.9609 109.707C48.9879 109.932 48.9933 110.137 48.977 110.324C48.9761 110.506 48.9216 110.612 48.8134 110.641C48.8134 110.641 48.7923 110.655 48.7501 110.683C48.7192 110.691 48.7141 110.734 48.7347 110.811C48.7761 110.966 48.7078 111.175 48.5298 111.438C48.2899 111.717 48.068 111.909 47.8641 112.014C47.656 112.103 47.5019 112.053 47.4018 111.864C47.3389 111.815 47.2935 111.769 47.2656 111.727C47.2377 111.685 47.1929 111.672 47.1311 111.689C47.1311 111.689 47.1017 111.672 47.0429 111.638C46.9842 111.604 46.9403 111.533 46.9113 111.425C46.8948 111.363 46.9035 111.302 46.9374 111.244C46.9672 111.169 46.9821 111.132 46.9821 111.132C47.0594 111.111 47.1371 111 47.2152 110.796C47.2892 110.578 47.3457 110.355 47.3846 110.13C47.4349 109.884 47.4497 109.723 47.429 109.646C47.4042 109.553 47.3742 109.503 47.3392 109.496C47.3196 109.485 47.248 109.495 47.1243 109.529C46.9328 109.679 46.7032 109.873 46.4355 110.111C46.1678 110.348 45.9155 110.582 45.6787 110.811C45.4533 111.02 45.2953 111.204 45.2047 111.36C45.1719 111.485 45.1519 111.565 45.1447 111.6C45.1334 111.62 45.0968 111.638 45.035 111.654C45.0184 111.593 44.9726 111.638 44.8975 111.791C44.8338 111.924 44.7515 112.112 44.6508 112.354C44.5655 112.592 44.4802 112.83 44.3949 113.069C44.3209 113.287 44.2654 113.451 44.2284 113.561C44.2058 113.6 44.1919 113.703 44.187 113.87C44.1933 114.017 44.213 114.153 44.2461 114.276C44.2339 114.478 44.2768 114.608 44.3748 114.664C44.4686 114.705 44.6758 114.799 44.9964 114.945C45.6449 115.202 46.1588 115.42 46.5382 115.6C46.9176 115.78 47.2073 115.934 47.4074 116.062C47.6074 116.191 47.7415 116.321 47.8097 116.451C48.2119 116.84 48.3921 117.173 48.3501 117.449C48.3081 117.726 48.1033 118.013 47.7357 118.31C47.6019 118.429 47.3634 118.559 47.0204 118.701C46.6774 118.842 46.3204 118.963 45.9495 119.062C45.5828 119.177 45.2871 119.248 45.0625 119.276ZM54.4092 116.619C54.1763 116.616 53.98 116.594 53.8202 116.554C53.6563 116.498 53.4316 116.401 53.146 116.262C52.8943 116.065 52.6855 115.872 52.5194 115.685C52.3687 115.494 52.2407 115.263 52.1353 114.993C52.0258 114.708 51.9111 114.341 51.7911 113.893C51.7415 113.707 51.6979 113.421 51.6604 113.033C51.6384 112.641 51.62 112.232 51.6051 111.805C51.6016 111.359 51.5951 110.963 51.5854 110.618C51.5913 110.269 51.5895 110.045 51.5802 109.949C51.5727 109.735 51.4644 109.64 51.2553 109.663C51.0461 109.686 50.8199 109.738 50.5768 109.82C50.345 109.882 50.1843 109.901 50.0946 109.875C50.0286 109.876 49.9915 109.861 49.9833 109.83C49.9708 109.784 49.9646 109.761 49.9646 109.761C49.9481 109.699 49.93 109.662 49.9104 109.651C49.9022 109.62 49.8645 109.572 49.7974 109.507C49.75 109.454 49.7427 109.365 49.7755 109.24C49.8197 109.096 49.9227 108.985 50.0844 108.909C50.2152 108.84 50.3944 108.767 50.6221 108.69C50.8611 108.593 51.0939 108.472 51.3204 108.329C51.5429 108.169 51.7065 107.976 51.8114 107.75C51.8595 107.372 51.9204 106.95 51.9941 106.483C52.0679 106.016 52.1463 105.597 52.2294 105.227C52.3239 104.837 52.3916 104.596 52.4328 104.502C52.6582 104.292 52.8369 104.186 52.9688 104.184C53.0966 104.166 53.2709 104.26 53.4916 104.466C53.5978 104.554 53.6747 104.624 53.7221 104.678C53.785 104.727 53.8176 104.818 53.8198 104.95C53.822 105.082 53.7887 105.298 53.7199 105.598C53.6666 105.894 53.5748 106.324 53.4445 106.889C53.4086 107.064 53.3763 107.222 53.3476 107.362C53.3147 107.487 53.2983 107.55 53.2983 107.55C53.3642 107.548 53.459 107.531 53.5826 107.498C53.7063 107.465 53.8587 107.416 54.04 107.351C54.2018 107.274 54.4119 107.193 54.6705 107.107C54.9249 107.006 55.1336 106.95 55.2964 106.939C55.6518 106.844 55.9331 106.843 56.1404 106.936C56.3434 107.014 56.4941 107.206 56.5923 107.511C56.6687 107.673 56.657 107.783 56.5571 107.843C56.4726 107.899 56.2218 107.983 55.8045 108.095C55.6654 108.132 55.4511 108.198 55.1617 108.292C54.8722 108.386 54.5672 108.485 54.2468 108.587C53.9419 108.686 53.6777 108.781 53.4541 108.874C53.2419 108.948 53.1399 109 53.1482 109.031C53.1101 109.074 53.0722 109.242 53.0343 109.534C53.0119 109.821 52.9922 110.15 52.975 110.519C52.9692 110.868 52.9628 111.185 52.9558 111.468C52.9883 112.023 53.044 112.571 53.1228 113.113C53.2171 113.651 53.3314 114.109 53.4658 114.487C53.6001 114.865 53.7575 115.113 53.938 115.23C54.1143 115.332 54.393 115.29 54.7741 115.105C55.1511 114.905 55.4363 114.671 55.6298 114.404C55.8459 114.097 56.0389 113.921 56.2089 113.875C56.3944 113.826 56.5176 113.884 56.5785 114.05C56.6508 114.196 56.6258 114.443 56.5035 114.79C56.3925 115.118 56.2269 115.428 56.0067 115.719C55.7823 115.994 55.528 116.22 55.2437 116.396C54.9708 116.552 54.6926 116.626 54.4092 116.619ZM66.6748 113.876C65.9872 113.597 65.5351 113.362 65.3185 113.171C65.0978 112.966 64.9264 112.697 64.8045 112.365C64.6991 112.095 64.5978 111.716 64.5004 111.229C64.4185 110.737 64.3464 110.252 64.2841 109.771C64.2218 109.291 64.1829 108.929 64.1672 108.684C64.2237 108.586 64.2278 108.478 64.1792 108.358C64.142 108.219 64.1234 108.15 64.1234 108.15C64.0872 108.076 64.0875 107.861 64.1243 107.503C64.1569 107.13 64.157 106.666 64.1245 106.112C64.1853 105.101 64.2721 104.25 64.3848 103.557C64.5088 102.845 64.6499 102.227 64.8081 101.704C64.9662 101.181 65.1348 100.697 65.3137 100.252C65.7735 99.4324 66.1532 98.8088 66.4526 98.3806C66.748 97.9369 67.1062 97.5427 67.5273 97.1978C67.7868 96.9294 68.0334 96.7059 68.2671 96.5272C68.5009 96.3486 68.7131 96.2751 68.9038 96.3068C69.8188 96.2601 70.563 96.4415 71.1364 96.8509C71.7056 97.2449 72.2355 97.9559 72.726 98.984C73.0162 99.635 73.2435 100.237 73.4079 100.789C73.5836 101.322 73.6897 101.873 73.7264 102.443C73.7588 102.997 73.7131 103.631 73.5891 104.343C73.4805 105.052 73.285 105.899 73.0026 106.886C72.7472 108.098 72.385 109.189 71.916 110.159C71.4625 111.126 70.9403 111.929 70.3494 112.567C69.7781 113.218 69.1685 113.663 68.5205 113.903C67.888 114.139 67.2728 114.13 66.6748 113.876ZM67.9784 112.806C68.3214 112.664 68.6325 112.465 68.9115 112.208C69.1905 111.951 69.4643 111.612 69.7328 111.192C69.9973 110.757 70.2853 110.224 70.5969 109.594C70.8746 109.022 71.0957 108.549 71.2602 108.173C71.4361 107.778 71.5655 107.396 71.6486 107.026C71.7472 106.651 71.8117 106.212 71.8421 105.706C71.888 105.197 71.9198 104.543 71.9376 103.743C71.9371 103.246 71.9264 102.835 71.9055 102.509C71.8846 102.183 71.8467 101.887 71.7918 101.62C71.7328 101.338 71.648 101.021 71.5374 100.669C71.4422 100.314 71.3202 99.858 71.1712 99.3016C71.0854 99.043 70.959 98.787 70.7918 98.5337C70.6204 98.2649 70.4543 98.0775 70.2935 97.9716C70.0934 97.843 69.8461 97.7851 69.5513 97.7979C69.2525 97.7952 68.9538 97.9168 68.6551 98.1625C68.4904 98.2896 68.2984 98.5316 68.0793 98.8885C67.856 99.23 67.6297 99.622 67.4003 100.065C67.1709 100.507 66.959 100.953 66.7647 101.403C66.5858 101.848 66.443 102.243 66.3361 102.586C66.2406 102.91 66.2073 103.126 66.2363 103.234C66.2363 103.234 66.2389 103.275 66.2441 103.356C66.2648 103.434 66.2546 103.519 66.2135 103.613C66.0705 103.883 65.9498 104.33 65.8515 104.953C65.7686 105.571 65.7142 106.265 65.6881 107.034C65.658 107.788 65.6587 108.533 65.6903 109.27C65.7333 109.987 65.8075 110.605 65.9132 111.123C65.994 111.549 66.055 111.839 66.0964 111.994C66.1378 112.148 66.2018 112.264 66.2884 112.34C66.3709 112.4 66.5127 112.528 66.7139 112.723C66.848 112.852 67.0335 112.927 67.2706 112.946C67.5231 112.961 67.759 112.914 67.9784 112.806ZM77.1515 109.476C77.0897 109.492 76.9866 109.478 76.8423 109.434C76.7093 109.371 76.6037 109.316 76.5253 109.271C76.384 109.176 76.2814 109.071 76.2174 108.956C76.1688 108.836 76.0866 108.56 75.9708 108.127C75.8384 107.633 75.7961 107.073 75.844 106.447C75.8876 105.806 76.0084 104.895 76.2061 103.716L76.5367 101.888C76.5654 101.748 76.5947 101.64 76.6245 101.566C76.6697 101.488 76.7073 101.411 76.7371 101.337C76.7989 101.321 76.853 101.306 76.8993 101.294C76.9457 101.281 76.9689 101.275 76.9689 101.275C77.0925 101.242 77.2368 101.286 77.4018 101.407C77.5627 101.513 77.6968 101.643 77.8041 101.796C77.8579 101.997 77.8828 102.214 77.8789 102.447C77.8905 102.676 77.7919 103.05 77.5832 103.57C77.5206 103.769 77.4503 104.094 77.3724 104.546C77.31 104.994 77.2872 105.372 77.304 105.683C77.2926 105.702 77.2804 105.78 77.2671 105.916C77.2497 106.037 77.2287 106.175 77.2041 106.331C77.195 106.482 77.1761 106.628 77.1474 106.768L77.168 107.309L78.2929 105.293C78.8248 104.372 79.2734 103.697 79.6388 103.267C80.0043 102.838 80.3245 102.611 80.5996 102.587C80.8748 102.563 81.1547 102.712 81.4394 103.033C81.5931 103.174 81.7118 103.308 81.7954 103.434C81.8903 103.541 81.9744 103.701 82.0478 103.913C82.1212 104.125 82.1926 104.454 82.2621 104.899L82.6468 106.337C82.8621 106.213 83.033 106.109 83.1597 106.025C83.2822 105.926 83.4125 105.825 83.5505 105.722C83.673 105.623 83.8208 105.525 83.9938 105.429C84.1627 105.317 84.3842 105.216 84.6582 105.126C84.6966 105.331 84.6849 105.566 84.6234 105.831C84.5577 106.081 84.459 106.331 84.3273 106.582C84.1956 106.832 84.0305 107.051 83.8317 107.237C83.6485 107.418 83.4487 107.538 83.2323 107.596C83.0314 107.65 82.7805 107.61 82.4794 107.475C82.1784 107.34 81.9407 107.164 81.7663 106.946C81.659 106.792 81.5707 106.617 81.5015 106.42C81.4477 106.219 81.3484 105.849 81.2036 105.308L80.974 104.45C80.9078 104.202 80.8119 104.154 80.6863 104.303C80.5721 104.433 80.4789 104.549 80.4069 104.652C80.2289 104.915 80.0437 105.213 79.8513 105.546C79.6743 105.875 79.4918 106.214 79.3035 106.563C78.7912 107.495 78.3431 108.203 77.9592 108.687C77.5907 109.167 77.3215 109.43 77.1515 109.476ZM89.2153 106.911C88.8979 106.963 88.6944 106.976 88.6047 106.95C88.5305 106.92 88.4201 106.818 88.2736 106.641C88.1128 106.536 88.0065 106.448 87.9549 106.379C87.9188 106.306 87.9002 106.236 87.8991 106.17C87.9763 106.15 88.0459 106.131 88.1077 106.114C88.1654 106.082 88.1957 106.041 88.1988 105.991C88.1864 105.944 88.2013 105.907 88.2435 105.879C88.3012 105.847 88.363 105.831 88.429 105.829C88.7267 105.766 89.0728 105.574 89.4672 105.253C89.8728 104.912 90.2888 104.486 90.7149 103.974C91.1524 103.442 91.564 102.876 91.9499 102.276C92.211 101.643 92.395 101.154 92.5018 100.811C92.6045 100.452 92.6465 100.176 92.6278 99.9821C92.6049 99.7728 92.5362 99.609 92.4217 99.4907C92.3268 99.3836 92.0903 99.3973 91.7122 99.5319C91.33 99.651 90.9408 99.9293 90.5444 100.367C89.9916 100.962 89.5619 101.492 89.2553 101.955C88.9486 102.418 88.6853 102.92 88.4653 103.459C88.383 103.647 88.309 103.865 88.2433 104.115C88.1931 104.36 88.15 104.571 88.1141 104.746C88.0782 104.921 88.0603 105.009 88.0603 105.009C88.0768 105.071 88.0048 105.173 87.8441 105.315C87.699 105.454 87.5646 105.54 87.441 105.573C87.3709 105.558 87.2714 105.527 87.1425 105.479C87.025 105.411 86.9321 105.312 86.864 105.181C86.7351 105.133 86.6413 105.091 86.5825 105.057C86.5238 105.024 86.4784 104.978 86.4464 104.92C86.4061 104.831 86.39 104.678 86.398 104.461C86.4061 104.243 86.4062 103.904 86.3986 103.442C86.3837 103.015 86.3725 102.571 86.3648 102.109C86.3726 101.643 86.3892 101.241 86.4147 100.903C86.4401 100.565 86.4719 100.374 86.5099 100.331C86.5099 100.331 86.5222 100.253 86.5468 100.097C86.5714 99.9417 86.5589 99.7711 86.5092 99.5857C86.4905 99.3919 86.4934 99.2172 86.518 99.0615C86.558 98.9017 86.5698 98.7908 86.5532 98.729C86.6026 98.6661 86.6457 98.4557 86.6824 98.098C86.7192 97.7403 86.76 97.2738 86.8047 96.6985C86.7923 96.6522 86.8071 96.4908 86.8491 96.2145C86.8869 95.9227 86.9376 95.5861 87.0012 95.2046C87.0605 94.8077 87.1179 94.403 87.1731 93.9906C87.2397 93.5587 87.2877 93.1813 87.3173 92.8586C87.4324 92.5461 87.5074 92.2693 87.5422 92.028C87.5883 91.7672 87.6592 91.599 87.755 91.5237C87.8281 91.4875 87.9229 91.4703 88.0394 91.4722C88.1671 91.4545 88.2934 91.4621 88.4181 91.4949C88.5583 91.5236 88.6836 91.5893 88.7939 91.6923C88.861 91.7571 88.9105 91.8184 88.9425 91.8761C88.9745 91.9337 88.9824 92.0559 88.966 92.2425C88.9456 92.4136 88.8944 92.7172 88.8124 93.1534C88.7417 93.5699 88.6315 94.1793 88.4818 94.9814C88.2973 96.0248 88.1632 96.9471 88.0795 97.7481C87.9958 98.5492 87.9356 99.2528 87.8991 99.8589C87.8626 100.465 87.8209 100.99 87.7739 101.433L87.7945 101.974L88.2251 101.262C88.4114 101.03 88.6105 100.753 88.8225 100.431C89.0345 100.109 89.2238 99.8266 89.3905 99.5831C89.4893 99.4572 89.6268 99.321 89.8029 99.1743C89.9903 99.0081 90.1741 98.8594 90.3543 98.7282C90.5345 98.5971 90.6689 98.5113 90.7575 98.471C90.7997 98.4431 90.9094 98.3888 91.0866 98.3082C91.2637 98.2275 91.4837 98.152 91.7464 98.0815C92.0864 97.9903 92.3775 97.9951 92.6198 98.0957C92.8775 98.1923 93.1523 98.3836 93.4442 98.6697C93.7011 98.9487 93.8699 99.301 93.9507 99.7266C94.0274 100.137 94.0051 100.549 93.8839 100.962C93.8232 101.045 93.7687 101.15 93.7204 101.279C93.6679 101.393 93.65 101.48 93.6665 101.542C93.68 101.655 93.6009 101.916 93.4292 102.326C93.2534 102.722 93.0734 103.101 92.8893 103.465C92.6897 103.833 92.4284 104.218 92.1052 104.62C91.7778 105.006 91.4443 105.369 91.1046 105.708C90.7761 106.028 90.4853 106.272 90.2319 106.439C90.1124 106.488 89.943 106.566 89.7236 106.675C89.5001 106.768 89.3306 106.847 89.2153 106.911ZM98.3277 104.516C98.1268 104.57 97.9542 104.575 97.8099 104.531C97.681 104.483 97.513 104.412 97.3057 104.318C96.9294 104.088 96.6421 103.85 96.444 103.605C96.2418 103.345 96.1287 103.077 96.1047 102.802C96.118 102.665 96.1024 102.545 96.058 102.441C96.0249 102.318 96.0084 102.256 96.0084 102.256C95.9104 102.199 95.8748 102.159 95.9016 102.135C95.9242 102.096 95.9427 102.042 95.9571 101.971C96.0498 101.947 96.058 101.853 95.9815 101.692C95.9175 101.576 95.907 101.289 95.9498 100.83C95.9926 100.372 96.0803 99.9257 96.2128 99.4926C96.2642 99.3131 96.3495 99.0749 96.4687 98.7779C96.5838 98.4654 96.7165 98.1565 96.8666 97.8511C97.0281 97.5262 97.1809 97.2616 97.325 97.0573C97.6244 96.6291 97.9003 96.2983 98.1525 96.065C98.4048 95.8317 98.6906 95.6308 99.0098 95.4623C99.3291 95.2939 99.5506 95.1931 99.6742 95.1599C99.8133 95.1226 100.032 95.1965 100.33 95.3816C100.727 95.4408 101.031 95.5579 101.244 95.7328C101.472 95.9036 101.665 96.1915 101.823 96.5963C101.993 97.0476 102.097 97.5912 102.135 98.2271C102.184 98.8434 102.017 99.675 101.635 100.722C101.398 101.382 101.154 101.894 100.904 102.26C100.65 102.61 100.334 102.976 99.9558 103.359C99.6892 103.662 99.439 103.903 99.2053 104.082C98.9674 104.245 98.6748 104.39 98.3277 104.516ZM99.8952 101.462C100.154 100.945 100.343 100.472 100.46 100.043C100.592 99.61 100.682 99.0806 100.73 98.4548C100.746 98.2682 100.729 98.0492 100.678 97.7978C100.624 97.5309 100.552 97.2934 100.463 97.0853C100.385 96.8576 100.296 96.7407 100.195 96.7347C99.9807 96.6763 99.7484 96.7054 99.4981 96.8223C99.2437 96.9237 98.9971 97.1472 98.7583 97.4928C98.3868 98.0232 98.104 98.6374 97.9099 99.3355C97.7117 100.018 97.544 100.784 97.4067 101.632C97.3238 102.251 97.3897 102.714 97.6044 103.021C97.8303 103.308 98.1472 103.347 98.5551 103.138C98.9743 102.91 99.421 102.351 99.8952 101.462ZM106.784 101.9C106.668 101.964 106.51 102.023 106.309 102.077C106.104 102.116 105.92 102.14 105.758 102.151C105.606 102.141 105.524 102.114 105.512 102.067C105.491 101.99 105.442 101.962 105.365 101.983C105.365 101.983 105.318 101.962 105.224 101.921C105.146 101.876 105.029 101.841 104.873 101.816C104.676 101.637 104.544 101.424 104.478 101.177C104.408 100.914 104.368 100.486 104.358 99.892C104.301 99.4932 104.328 99.0056 104.439 98.4292C104.561 97.8333 104.735 97.215 104.961 96.5746C105.187 95.9342 105.443 95.3437 105.729 94.8031C106.03 94.2585 106.324 93.8401 106.61 93.5479C106.769 93.2735 107 93.0871 107.305 92.9888C107.61 92.8904 107.922 92.8812 108.242 92.9612C108.417 92.997 108.605 93.0792 108.805 93.2077C109.005 93.3363 109.201 93.4824 109.394 93.646C109.587 93.8096 109.757 93.9795 109.903 94.1555C109.995 94.3131 110.06 94.4615 110.097 94.6006C110.146 94.7201 110.187 94.8746 110.221 95.0642C110.271 95.2497 110.322 95.5341 110.375 95.9175C110.372 96.2164 110.394 96.5751 110.439 96.9936C110.501 97.4078 110.571 97.7618 110.649 98.0555C110.697 98.3574 110.784 98.5578 110.909 98.6566C111.051 98.7512 111.207 98.7175 111.379 98.5554C111.54 98.4129 111.707 98.3266 111.881 98.2965C112.051 98.2509 112.195 98.262 112.313 98.3299C112.446 98.3936 112.537 98.5182 112.587 98.7037C112.636 98.8891 112.595 99.1072 112.464 99.3579C112.343 99.5889 112.17 99.8093 111.945 100.019C111.731 100.209 111.508 100.335 111.276 100.397C111.106 100.443 110.917 100.386 110.708 100.226C110.496 100.051 110.289 99.8336 110.086 99.5731C109.895 99.293 109.716 99.0263 109.549 98.7729L109.267 98.277L108.525 99.4949C108.382 99.7652 108.235 100.02 108.084 100.259C107.944 100.479 107.861 100.634 107.835 100.724C107.795 100.883 107.686 101.062 107.507 101.259C107.343 101.452 107.102 101.666 106.784 101.9ZM106.487 100.514C106.709 100.289 106.95 99.9837 107.211 99.5988C107.468 99.1985 107.712 98.7771 107.941 98.3346C108.166 97.8766 108.346 97.464 108.479 97.0968C108.647 96.6709 108.759 96.2847 108.815 95.9383C108.872 95.5919 108.893 95.2713 108.881 94.9765C108.774 94.823 108.625 94.6722 108.437 94.5241C108.244 94.3605 108.091 94.2854 107.979 94.299C107.639 94.3902 107.334 94.704 107.063 95.2404C106.804 95.7572 106.563 96.3105 106.34 96.9004C106.299 96.9943 106.247 97.1407 106.184 97.3398C106.122 97.5388 106.057 97.7301 105.99 97.9137C105.935 98.0777 105.898 98.187 105.879 98.2416C105.849 98.3159 105.804 98.5185 105.744 98.8495C105.694 99.1608 105.647 99.4799 105.602 99.8068C105.553 100.118 105.541 100.32 105.566 100.413C105.591 100.506 105.625 100.604 105.67 100.708C105.73 100.808 105.825 100.857 105.957 100.855C106.089 100.852 106.266 100.739 106.487 100.514ZM115.519 99.5074C115.477 99.5353 115.397 99.5483 115.281 99.5464C115.164 99.5445 115.046 99.5349 114.925 99.5175C114.805 99.5002 114.725 99.4802 114.686 99.4576C114.607 99.4123 114.521 99.3362 114.426 99.2291C114.346 99.1179 114.299 98.9402 114.283 98.6959C114.263 98.4362 114.333 98.0779 114.492 97.621C114.528 97.4457 114.559 97.189 114.584 96.8509C114.61 96.5127 114.631 96.1591 114.648 95.7901C114.677 95.4015 114.7 95.0556 114.718 94.7525C114.752 94.4453 114.778 94.2314 114.795 94.1107C114.755 93.8397 114.69 93.6584 114.6 93.5668C114.52 93.4556 114.37 93.4212 114.15 93.4638C113.995 93.5053 113.867 93.523 113.766 93.5169C113.681 93.5067 113.601 93.3625 113.526 93.0843C113.499 92.8597 113.514 92.6983 113.571 92.6003C113.639 92.4827 113.735 92.3491 113.861 92.1995C113.995 92.0807 114.135 91.9852 114.281 91.9128C114.443 91.8363 114.603 91.7851 114.762 91.7591C114.92 91.7331 115.059 91.754 115.176 91.8219C115.301 91.8547 115.408 91.9751 115.496 92.1832C115.581 92.3758 115.652 92.5804 115.71 92.7967C115.784 93.009 115.843 93.1671 115.887 93.2712C116.008 93.1061 116.172 92.8801 116.376 92.5932C116.592 92.2868 116.774 92.0062 116.921 91.7513C117.123 91.515 117.371 91.2662 117.666 91.005C117.956 90.7284 118.178 90.5693 118.333 90.5279C118.503 90.4823 118.685 90.483 118.88 90.5302C119.071 90.5619 119.213 90.6312 119.308 90.7383C119.533 90.9596 119.665 91.1728 119.703 91.3779C119.757 91.5788 119.728 91.8102 119.616 92.0722C119.515 92.3146 119.359 92.5055 119.148 92.645C118.952 92.7803 118.824 92.8562 118.762 92.8728C118.669 92.8977 118.534 92.8592 118.358 92.7574C118.182 92.6556 118.074 92.5604 118.033 92.4718C118.021 92.4255 117.933 92.4988 117.769 92.6918C117.617 92.8652 117.452 93.0834 117.274 93.3465C117.091 93.5941 116.944 93.816 116.831 94.012C116.655 94.407 116.495 94.9221 116.35 95.5573C116.205 96.1925 116.037 96.9581 115.847 97.8541C115.765 98.2902 115.722 98.6578 115.719 98.9567C115.712 99.2402 115.646 99.4237 115.519 99.5074ZM127.801 96.9087C127.648 97.0162 127.53 97.0725 127.449 97.0778C127.379 97.0635 127.185 96.9911 126.869 96.8606C126.711 96.7041 126.598 96.5605 126.53 96.4297C126.473 96.2793 126.393 96.0109 126.29 95.6245C126.259 95.3844 126.231 95.0355 126.208 94.5778C126.201 94.1161 126.202 93.6269 126.213 93.1105C126.224 92.5941 126.232 92.1281 126.236 91.7127C126.257 91.2932 126.279 91.0055 126.304 90.8499C126.312 90.4499 126.276 90.2196 126.193 90.1589C126.107 90.0827 125.905 90.0706 125.587 90.1226C124.948 90.2112 124.446 90.5613 124.08 91.1731C123.713 91.7849 123.386 92.5435 123.099 93.4489C122.881 94.1203 122.789 94.675 122.824 95.113C122.869 95.5314 122.936 95.8117 123.024 95.9538C123.103 96.065 123.23 96.1056 123.404 96.0754C123.574 96.0298 123.749 95.9415 123.929 95.8103C124.125 95.675 124.29 95.548 124.424 95.4292C124.515 95.3384 124.63 95.2413 124.768 95.1381C124.917 95.0152 125.061 94.9021 125.199 94.7988C125.292 94.774 125.362 94.7883 125.409 94.8418C125.468 94.8758 125.518 94.97 125.56 95.1246C125.576 95.1864 125.614 95.2343 125.673 95.2682C125.731 95.3021 125.796 95.3263 125.866 95.3406C125.944 95.3858 125.889 95.5498 125.699 95.8325C125.525 96.1111 125.229 96.4558 124.808 96.8666C124.374 97.0992 124.01 97.2548 123.716 97.3336C123.438 97.4082 123.141 97.3803 122.824 97.2498C122.321 97.1031 121.96 96.7444 121.741 96.1737C121.533 95.5833 121.46 94.816 121.522 93.8717C121.63 93.0974 121.803 92.4463 122.043 91.9181C122.278 91.3746 122.541 90.8403 122.831 90.3152C122.877 90.2368 122.991 90.1067 123.174 89.9251C123.369 89.7238 123.621 89.5235 123.932 89.3241C124.286 89.0968 124.628 88.9221 124.96 88.8C125.292 88.6779 125.604 88.6687 125.897 88.7724C126.191 88.7596 126.367 88.7042 126.424 88.6062C126.476 88.4927 126.533 88.1793 126.594 87.6659C126.696 86.8102 126.789 85.9488 126.871 85.0818C126.95 84.1993 127.05 83.3029 127.17 82.3926C127.246 82.0575 127.279 81.8085 127.268 81.6456C127.269 81.4632 127.292 81.3328 127.338 81.2544L127.778 81.1362C127.84 81.1196 127.963 81.1447 128.146 81.2115C128.33 81.2782 128.477 81.396 128.588 81.5649C128.626 81.704 128.647 82.0297 128.651 82.542C128.652 83.0388 128.6 83.6491 128.495 84.3729C128.401 85.0111 128.309 85.657 128.219 86.3107C128.14 86.9447 128.08 87.6153 128.037 88.3225C127.995 88.8472 127.944 89.2751 127.884 89.606C127.823 89.937 127.799 90.2169 127.81 90.4457C127.825 90.8724 127.806 91.2667 127.754 91.6286C127.713 91.9709 127.686 92.2101 127.673 92.3462C127.629 92.9874 127.595 93.51 127.571 93.9141C127.543 94.3028 127.53 94.629 127.535 94.8929C127.535 95.1413 127.561 95.3913 127.611 95.6427C127.673 95.8745 127.771 96.1465 127.904 96.4587C127.921 96.5205 127.93 96.5844 127.931 96.6504C127.932 96.7163 127.889 96.8025 127.801 96.9087ZM131.887 94.6698C131.825 94.6864 131.744 94.6916 131.643 94.6856C131.553 94.6599 131.508 94.6471 131.508 94.6471C131.492 94.5853 131.448 94.5142 131.377 94.4339C131.321 94.3495 131.285 94.2764 131.268 94.2145C131.144 94.1817 131.065 94.1365 131.033 94.0788C130.997 94.0057 130.987 93.8758 131.003 93.6892C131.055 93.5098 131.112 93.2293 131.176 92.8478C131.235 92.4509 131.296 92.0287 131.358 91.5813C131.417 91.1184 131.469 90.6652 131.516 90.2219C131.563 89.7786 131.604 89.4034 131.637 89.0962C131.667 88.7735 131.681 88.5792 131.68 88.5132C131.664 88.4514 131.666 88.3679 131.688 88.2627C131.709 88.1575 131.743 88.0657 131.788 87.9873C131.882 87.846 132.012 87.803 132.176 87.8584C132.335 87.8984 132.489 88.0064 132.635 88.1825C132.793 88.3389 132.903 88.5331 132.965 88.7649C132.994 88.8731 132.991 89.1721 132.956 89.6617C132.918 90.1359 132.848 90.7097 132.746 91.3829C132.66 92.052 132.546 92.7371 132.402 93.4383C132.29 93.9487 132.22 94.274 132.191 94.4142C132.158 94.539 132.057 94.6242 131.887 94.6698ZM132.943 84.9691C132.757 85.0188 132.538 85.0032 132.284 84.9221C132.042 84.8214 131.814 84.6836 131.602 84.5087C131.401 84.3142 131.269 84.101 131.207 83.8691C131.187 83.7919 131.204 83.6712 131.259 83.5073C131.315 83.3433 131.37 83.1793 131.426 83.0153C131.481 82.8514 131.505 82.7539 131.497 82.723C131.62 82.6898 131.715 82.6727 131.781 82.6716C131.858 82.6509 131.959 82.6569 132.084 82.6897C132.357 83.0305 132.651 83.2914 132.964 83.4724C133.293 83.6492 133.48 83.8226 133.526 83.9926C133.617 84.3327 133.644 84.5573 133.607 84.6666C133.566 84.7605 133.344 84.8613 132.943 84.9691ZM143.995 91.4966C143.686 91.5796 143.414 91.5861 143.18 91.5164C142.942 91.4311 142.712 91.2526 142.49 90.9808C142.371 90.781 142.252 90.556 142.136 90.3056C142.03 90.0357 141.947 89.7849 141.885 89.553C141.818 89.3057 141.798 89.1372 141.824 89.0475C141.869 88.9691 141.863 88.8547 141.806 88.7043C141.761 88.5343 141.713 88.3565 141.664 88.171C141.566 87.8661 141.443 87.7168 141.295 87.7232C141.159 87.71 140.986 87.8061 140.776 88.0115C140.544 88.2561 140.243 88.5854 139.873 88.9993C139.499 89.3977 139.111 89.8332 138.707 90.3059C138.319 90.7744 137.958 91.2522 137.625 91.7392C137.384 92.2013 137.252 92.5432 137.229 92.7649C137.217 92.9669 137.149 93.0845 137.025 93.1177C136.918 93.2127 136.812 93.2494 136.707 93.2279C136.613 93.1868 136.472 93.1252 136.284 93.043C136.143 92.9483 136.004 92.8614 135.867 92.7823C135.726 92.6876 135.631 92.6136 135.584 92.56C135.563 92.4827 135.543 92.3142 135.523 92.0545C135.503 91.7948 135.491 91.533 135.487 91.2691C135.498 91.0011 135.508 90.8243 135.519 90.7387C135.596 90.718 135.637 90.6241 135.642 90.4571C135.662 90.286 135.71 90.0911 135.784 89.8725C135.765 89.6787 135.776 89.4107 135.817 89.0684C135.869 88.7065 135.916 88.3874 135.958 88.1111C136.075 87.6822 136.139 87.3337 136.15 87.0656C136.177 86.7935 136.156 86.4678 136.088 86.0885C136.056 86.0309 136.057 85.9726 136.091 85.9138C136.12 85.8396 136.166 85.7941 136.228 85.7776C136.319 85.6208 136.457 85.5505 136.644 85.5667C136.826 85.5675 137.012 85.6419 137.2 85.7901C137.578 86.0864 137.789 86.4438 137.835 86.8622C137.892 87.2611 137.794 87.8838 137.54 88.7304C137.498 89.0068 137.465 89.2228 137.44 89.3784C137.427 89.5145 137.431 89.6212 137.451 89.6985C137.451 89.6985 137.514 89.6237 137.64 89.474C137.781 89.3202 137.933 89.1468 138.097 88.9538C138.272 88.7413 138.411 88.5797 138.514 88.4693C138.57 88.3713 138.711 88.1845 138.935 87.909C139.16 87.6334 139.401 87.3615 139.661 87.0931C139.932 86.8051 140.14 86.625 140.286 86.5526C140.393 86.4576 140.51 86.3683 140.637 86.2846C140.76 86.1855 140.852 86.1276 140.914 86.1111C141.037 86.0779 141.21 86.106 141.433 86.1954C141.667 86.2651 141.894 86.3699 142.113 86.5098C142.329 86.6342 142.469 86.7541 142.533 86.8695C142.549 86.9313 142.566 86.9931 142.582 87.0549C142.614 87.1126 142.646 87.1703 142.678 87.228C142.794 87.4123 142.897 87.6745 142.988 88.0145C143.095 88.3504 143.17 88.6616 143.213 88.9481C143.257 89.2346 143.246 89.4114 143.181 89.4785C143.181 89.4785 143.188 89.5017 143.2 89.5481C143.224 89.5748 143.266 89.5799 143.328 89.5633C143.345 89.6252 143.355 89.6638 143.359 89.6792C143.282 89.7 143.27 89.7778 143.322 89.9128C143.371 90.0323 143.455 90.1589 143.573 90.2928C143.707 90.4225 143.833 90.5212 143.951 90.5891C144.186 90.7248 144.311 90.8819 144.325 91.0602C144.336 91.223 144.226 91.3685 143.995 91.4966ZM149.67 95.7888C149.505 95.8499 149.231 95.8817 148.851 95.8843C148.486 95.8828 148.209 95.8662 148.018 95.8345C147.776 95.7338 147.519 95.579 147.248 95.3702C146.977 95.1613 146.742 94.9344 146.544 94.6893C146.365 94.4556 146.265 94.2671 146.243 94.1238C146.226 93.996 146.335 93.9418 146.572 93.961C146.825 93.9761 147.006 94.0351 147.117 94.1381C147.301 94.2708 147.507 94.3895 147.734 94.4943C147.961 94.5992 148.177 94.6653 148.383 94.6929C148.593 94.7359 148.751 94.7351 148.855 94.6907C149.224 94.5252 149.49 94.247 149.65 93.8561C149.83 93.4766 149.956 93.0203 150.029 92.4872C150.062 92.114 150.078 91.8032 150.077 91.5548C150.097 91.3177 150.1 91.0518 150.087 90.757C150.09 90.458 150.08 90.0468 150.055 89.5232C150.046 88.9295 150.033 88.5105 150.017 88.2662C150.013 88.0023 150 87.8317 149.979 87.7545C149.959 87.6772 149.921 87.6293 149.866 87.6108C149.866 87.6108 149.781 87.6919 149.609 87.8539C149.437 88.016 149.244 88.192 149.029 88.382C148.831 88.5678 148.68 88.716 148.577 88.8264C148.181 89.0816 147.779 89.2806 147.37 89.4234C146.961 89.5662 146.631 89.6301 146.378 89.615C146.257 89.5976 146.113 89.5205 145.943 89.3837C145.79 89.2427 145.647 89.0821 145.516 88.9019C145.397 88.7021 145.324 88.5228 145.298 88.3641C145.28 88.2363 145.3 88.0322 145.358 87.7518C145.415 87.4713 145.484 87.1712 145.564 86.8516C145.659 86.5278 145.744 86.2566 145.818 86.0379C145.903 85.7997 145.962 85.6764 145.992 85.6681C146.054 85.6516 146.079 85.6201 146.067 85.5737C146.07 85.5232 146.063 85.467 146.046 85.4052C146.045 85.3393 146.126 85.1768 146.288 84.9178C146.462 84.6393 146.701 84.2936 147.005 83.8809C147.413 83.2412 147.799 82.732 148.161 82.3531C148.523 81.9743 148.886 81.7197 149.249 81.5893C149.361 81.5758 149.463 81.5566 149.556 81.5317C149.664 81.5027 149.718 81.4882 149.718 81.4882C149.718 81.4882 149.773 81.5066 149.882 81.5436C150.003 81.5609 150.158 81.5855 150.349 81.6171C150.606 81.6477 150.858 81.754 151.105 81.9361C151.349 82.1028 151.564 82.3184 151.751 82.5831C151.949 82.8281 152.093 83.0877 152.183 83.3617C152.258 83.7059 152.27 84.0589 152.218 84.4208C152.181 84.7785 152.099 84.9663 151.971 84.984C151.843 85.0017 151.703 85.0972 151.551 85.2706C151.414 85.4398 151.354 85.5554 151.37 85.6172C151.387 85.679 151.384 85.7625 151.363 85.8677C151.357 85.9687 151.295 86.1425 151.179 86.389C151.184 86.4704 151.194 86.6915 151.208 87.0523C151.233 87.3934 151.255 87.7851 151.274 88.2273C151.293 88.6695 151.309 89.0709 151.323 89.4317C151.348 89.7728 151.365 89.9919 151.374 90.0887C151.376 90.1547 151.374 90.3042 151.37 90.5371C151.378 90.7505 151.37 91.001 151.348 91.2886C151.341 91.5721 151.322 91.8422 151.291 92.0989C151.35 92.5637 151.354 92.9188 151.303 93.1642C151.273 93.4209 151.184 93.7096 151.038 94.0304C150.91 94.479 150.712 94.855 150.446 95.1584C150.183 95.4773 149.925 95.6875 149.67 95.7888ZM146.635 88.254C146.707 88.4003 146.93 88.3984 147.304 88.2484C147.674 88.0829 148.025 87.8479 148.358 87.5434C148.652 87.2822 148.924 87.0602 149.173 86.8774C149.422 86.6946 149.574 86.4882 149.629 86.2583C149.68 86.0788 149.716 85.9035 149.736 85.7324C149.757 85.5613 149.774 85.3164 149.788 84.9979C149.787 84.9319 149.807 84.852 149.848 84.7581C149.901 84.6447 149.956 84.5719 150.013 84.5399C150.071 84.5079 150.133 84.4913 150.199 84.4902C150.28 84.4849 150.381 84.4909 150.502 84.5083C150.571 84.4566 150.604 84.3649 150.602 84.2329C150.615 84.0968 150.586 83.9557 150.514 83.8094C150.469 83.7053 150.353 83.5792 150.164 83.4311C149.975 83.2829 149.758 83.1838 149.513 83.1336C149.248 83.0721 148.998 83.2219 148.764 83.583C148.529 83.9442 148.241 84.3857 147.901 84.9078C147.632 85.3277 147.383 85.7589 147.154 86.2015C146.924 86.644 146.751 87.0468 146.633 87.4098C146.53 87.7686 146.531 88.05 146.635 88.254ZM43.4684 143.731C43.3489 143.78 43.168 143.754 42.9258 143.653C42.6835 143.553 42.4427 143.427 42.2035 143.276C42.0065 143.097 41.7955 142.772 41.5704 142.302C41.3607 141.829 41.1701 141.333 40.9985 140.816C40.7324 141.616 40.4795 142.28 40.2399 142.808C40.0003 143.336 39.7668 143.764 39.5394 144.09C39.3233 144.396 39.1019 144.621 38.8754 144.765C38.7487 144.848 38.6328 144.879 38.5277 144.858C38.4184 144.821 38.3184 144.757 38.2276 144.665C38.1368 144.573 38.0218 144.422 37.8824 144.211C37.7544 143.98 37.663 143.731 37.6081 143.465C37.4903 143.148 37.3601 142.786 37.2175 142.377C37.0904 141.963 36.9653 141.558 36.8423 141.16C36.7306 140.743 36.639 140.37 36.5676 140.041C36.4961 139.713 36.4691 139.488 36.4865 139.367C36.4545 139.31 36.4303 139.25 36.4137 139.188C36.3972 139.126 36.3889 139.095 36.3889 139.095C36.3218 139.03 36.2532 138.867 36.1828 138.604C36.1238 138.322 36.0823 138.043 36.0583 137.768C36.0344 137.492 36.0296 137.32 36.0439 137.25C36.0583 137.18 36.0845 137.123 36.1226 137.079C36.1761 137.032 36.2395 136.99 36.3126 136.954C36.5568 136.938 36.7053 136.998 36.758 137.133C36.8126 137.151 36.8714 137.185 36.9343 137.234C36.9931 137.268 37.0513 137.269 37.109 137.237C37.1636 137.256 37.2317 137.387 37.3134 137.63C37.4105 137.869 37.5025 138.151 37.5894 138.475C37.6153 138.634 37.6546 138.781 37.7073 138.916C37.7599 139.051 37.7853 139.176 37.7834 139.293C37.8041 139.37 37.8573 139.538 37.9431 139.797C38.0247 140.04 38.1084 140.291 38.1942 140.549C38.248 140.75 38.3127 141.023 38.3882 141.367C38.4597 141.696 38.5243 141.968 38.5823 142.185C38.7114 142.481 38.8038 142.672 38.8595 142.756C38.9265 142.821 38.9982 142.81 39.0743 142.723C39.1588 142.668 39.2673 142.423 39.3998 141.99C39.5478 141.553 39.7095 141.012 39.8851 140.369C40.0331 139.932 40.1569 139.559 40.2566 139.251C40.3675 138.923 40.4642 138.665 40.5464 138.477C40.4935 138.094 40.4509 137.749 40.4187 137.443C40.4019 137.133 40.3847 136.914 40.367 136.786C40.5255 136.511 40.6855 136.336 40.8472 136.259C41.0048 136.167 41.1667 136.215 41.3328 136.403C41.5038 136.423 41.6235 136.499 41.6916 136.629C41.7711 136.741 41.8181 136.885 41.8327 137.064C41.8288 137.297 41.8228 137.522 41.8148 137.739C41.8222 137.953 41.824 138.176 41.8201 138.409C41.8162 138.642 41.8629 139.002 41.9602 139.489C42.073 139.973 42.2013 140.452 42.345 140.927C42.4846 141.386 42.6163 141.724 42.7402 141.939C42.7928 142.074 42.8887 142.123 43.0278 142.085C43.1782 142.029 43.3424 141.869 43.5204 141.605C43.6861 141.296 43.8583 140.918 44.0372 140.473C44.2274 140.008 44.3795 139.586 44.4935 139.207C44.623 138.825 44.6774 138.595 44.6567 138.518C44.6236 138.394 44.6193 138.254 44.6439 138.099C44.6644 137.927 44.7106 137.791 44.7826 137.689C44.8351 137.575 44.8566 137.47 44.8472 137.373C44.8337 137.261 44.8357 137.144 44.8531 137.024C44.8603 136.989 44.871 136.936 44.8854 136.866C44.8998 136.796 44.9064 136.728 44.9053 136.662C44.83 136.566 44.8361 136.465 44.9236 136.359C45.0224 136.233 45.0748 136.119 45.0809 136.018C45.058 135.809 45.112 135.67 45.2428 135.602C45.3849 135.514 45.54 135.506 45.708 135.577C45.8874 135.628 46.0117 135.752 46.0809 135.949C46.1306 136.134 46.1412 136.421 46.1127 136.81C46.0997 137.195 46.0465 137.615 45.9532 138.07C45.8753 138.522 45.7639 138.941 45.6189 139.328C45.5902 139.468 45.5615 139.608 45.5328 139.749C45.5195 139.885 45.478 140.07 45.4081 140.304C45.3383 140.538 45.2005 140.89 44.9949 141.359C44.9353 141.508 44.8622 141.668 44.7758 141.84C44.7008 141.993 44.6159 142.14 44.5212 142.281C44.3495 142.692 44.1803 143.019 44.0136 143.262C43.8624 143.502 43.6806 143.658 43.4684 143.731ZM48.9575 142.185C48.8008 142.094 48.6667 141.964 48.5553 141.796C48.4593 141.622 48.3942 141.441 48.36 141.252C48.3258 141.062 48.323 140.897 48.3518 140.757C48.3187 140.633 48.3093 140.536 48.3236 140.466C48.3493 140.376 48.3462 140.303 48.3142 140.245C48.2822 140.187 48.2686 140.075 48.2736 139.908C48.2786 139.741 48.2857 139.582 48.2948 139.43C48.3368 139.154 48.3741 138.829 48.4067 138.456C48.4352 138.067 48.458 137.688 48.4752 137.319C48.4923 136.95 48.5064 136.632 48.5175 136.364C48.5286 136.096 48.5336 135.929 48.5325 135.863C48.4828 135.677 48.5796 135.544 48.8227 135.462C48.9916 135.35 49.1307 135.313 49.24 135.35C49.3451 135.372 49.508 135.485 49.7288 135.691C49.8855 135.782 49.9815 135.955 50.0168 136.21C50.0521 136.466 50.0344 136.802 49.9637 137.218C49.9349 137.359 49.9052 137.557 49.8746 137.814C49.8594 138.066 49.8611 138.29 49.8799 138.483C49.8511 138.624 49.8215 138.822 49.7908 139.079C49.7714 139.316 49.7577 139.543 49.7497 139.761C49.7395 139.846 49.7396 139.97 49.7501 140.133C49.7564 140.281 49.7591 140.446 49.7583 140.628C49.7533 140.795 49.7287 140.951 49.6845 141.095C49.7151 141.766 49.683 142.172 49.5883 142.314C49.5091 142.451 49.2989 142.408 48.9575 142.185ZM48.6866 132.169C48.5886 132.112 48.4901 132.023 48.3911 131.9C48.2879 131.762 48.212 131.634 48.1635 131.514C48.1108 131.379 48.1076 131.305 48.154 131.293C48.2735 131.244 48.3851 131.074 48.4889 130.781C48.5927 130.488 48.6043 130.253 48.5238 130.076C48.5072 130.014 48.5159 129.953 48.5499 129.895C48.5797 129.82 48.6234 129.767 48.6811 129.735C48.8335 129.562 49.007 129.499 49.2019 129.546C49.408 129.573 49.6214 129.69 49.8422 129.896C50.0598 130.152 50.1647 130.389 50.1566 130.607C50.1445 130.809 50.0448 131.117 49.8577 131.532C49.7086 131.903 49.5377 132.131 49.3451 132.216C49.1679 132.296 48.9484 132.281 48.6866 132.169ZM55.0127 141.182C54.8344 141.196 54.6339 141.159 54.4113 141.07C54.1999 140.961 53.9999 140.832 53.8111 140.684C53.6337 140.516 53.5012 140.361 53.4134 140.219C53.4051 140.188 53.3716 140.156 53.3128 140.122C53.2695 140.084 53.2479 140.065 53.2479 140.065C53.1736 140.035 53.0812 139.844 52.9706 139.493C52.8713 139.122 52.7849 138.706 52.7113 138.246C52.6377 137.785 52.5966 137.415 52.5881 137.136C52.5991 136.868 52.6261 136.504 52.6689 136.045C52.7076 135.571 52.7356 135.15 52.7527 134.781L53.0187 133.268L52.0232 133.262C51.9067 133.26 51.7975 133.223 51.6954 133.151C51.6087 133.075 51.5571 133.006 51.5406 132.944C51.5075 132.82 51.5377 132.655 51.6313 132.447C51.7208 132.225 51.7964 132.105 51.8582 132.088C51.9396 132.083 52.0808 132.054 52.2817 132C52.498 131.942 52.7046 131.878 52.9013 131.809C53.0981 131.739 53.2176 131.691 53.2598 131.663C53.3133 131.615 53.3648 131.56 53.4142 131.497C53.4595 131.419 53.4831 131.321 53.485 131.205C53.5168 131.014 53.545 130.841 53.5696 130.685C53.59 130.514 53.6295 130.321 53.688 130.107C53.7424 129.877 53.7819 129.684 53.8065 129.528C53.8465 129.368 53.9107 129.144 53.999 128.855C54.0474 128.726 54.0972 128.572 54.1485 128.393C54.1999 128.213 54.2806 128.051 54.3908 127.905C54.4967 127.745 54.6213 127.653 54.7646 127.631C54.9191 127.59 55.1392 127.638 55.4248 127.777C55.5898 127.899 55.6903 127.996 55.7265 128.069C55.7626 128.142 55.7401 128.306 55.6589 128.559C55.6056 128.855 55.5291 129.157 55.4295 129.466C55.3453 129.77 55.2688 130.072 55.2 130.372C55.0438 130.778 55.0492 130.984 55.2161 130.989C55.3831 130.994 55.8075 130.847 56.4894 130.548C56.9169 130.351 57.2476 130.287 57.4816 130.356C57.7115 130.411 57.877 130.565 57.9782 130.82C58.1239 131.178 58.1452 131.413 58.0423 131.523C57.9394 131.633 57.5943 131.767 57.007 131.925C56.6527 132.086 56.3462 132.21 56.0876 132.296C55.8249 132.366 55.6318 132.418 55.5081 132.451C55.3114 132.521 55.1821 132.564 55.1203 132.58C55.0584 132.597 54.9699 132.637 54.8545 132.701C54.7392 132.765 54.6609 132.844 54.6198 132.938C54.59 133.012 54.5607 133.119 54.532 133.26C54.4867 133.338 54.4374 133.525 54.3841 133.821C54.3308 134.117 54.2528 134.444 54.1501 134.803C54.1075 135.511 54.0958 136.209 54.1151 136.9C54.1302 137.575 54.172 138.227 54.2406 138.854C54.2822 139.257 54.3624 139.526 54.481 139.659C54.5955 139.778 54.8192 139.809 55.152 139.753C55.3261 139.723 55.5965 139.65 55.9633 139.535C56.3414 139.401 56.6303 139.273 56.8301 139.154C56.9794 139.031 57.1364 138.906 57.3012 138.779C57.4618 138.636 57.607 138.498 57.7367 138.364C57.8551 138.249 57.9735 138.135 58.0919 138.02C58.2062 137.89 58.2633 137.825 58.2633 137.825C58.3075 137.681 58.3821 137.619 58.4872 137.641C58.5924 137.662 58.7007 137.757 58.8121 137.926C58.8618 138.112 58.8749 138.315 58.8514 138.537C58.8279 138.759 58.6061 139.075 58.1861 139.486C57.6065 140.105 57.0355 140.54 56.4731 140.79C55.922 141.021 55.4352 141.151 55.0127 141.182ZM68.0084 137.099C67.6717 137.389 67.3385 137.536 67.0087 137.542C66.6748 137.532 66.3717 137.389 66.0994 137.115C65.8425 136.836 65.6479 136.449 65.5155 135.954C65.47 135.784 65.4249 135.523 65.3803 135.17C65.3511 134.814 65.3255 134.44 65.3034 134.048C65.2773 133.641 65.2733 133.286 65.2916 132.983C65.3007 132.831 65.3027 132.715 65.2974 132.633C65.3076 132.548 65.2819 132.513 65.22 132.53C65.1582 132.546 65.0913 132.606 65.0193 132.708C64.9627 132.806 64.9174 132.884 64.8835 132.943C64.6179 133.313 64.3535 133.748 64.0902 134.249C63.8423 134.746 63.6197 135.245 63.4223 135.745C63.2208 136.23 63.0651 136.669 62.9552 137.063C62.8608 137.453 62.8343 137.725 62.8757 137.88C62.9377 138.112 62.8652 138.305 62.6583 138.46C62.4513 138.615 62.2483 138.661 62.0494 138.598C61.7102 138.507 61.471 138.356 61.3317 138.145C61.2037 137.914 61.0863 137.507 60.9796 136.922C60.8315 136.184 60.7196 135.518 60.6438 134.925C60.568 134.333 60.5261 133.681 60.5182 132.971C60.5216 132.241 60.5398 131.35 60.5728 130.298C60.6289 129.703 60.6778 129.143 60.7196 128.618C60.7572 128.078 60.7923 127.621 60.8249 127.248C60.873 126.871 60.9021 126.639 60.9123 126.554C60.9689 126.456 61.0197 126.243 61.0648 125.917C61.1056 125.574 61.1311 125.236 61.1411 124.902C61.1665 124.564 61.1709 124.364 61.1544 124.302C61.1213 124.179 61.1155 124.064 61.137 123.959C61.1544 123.838 61.1858 123.739 61.231 123.66C61.2763 123.582 61.3159 123.513 61.3499 123.455C61.3838 123.396 61.4008 123.366 61.4008 123.366C61.4781 123.346 61.577 123.344 61.6976 123.361C61.8336 123.375 61.9681 123.413 62.1011 123.477C62.23 123.525 62.3264 123.607 62.3904 123.722C62.5565 123.91 62.6706 124.119 62.7327 124.351C62.7906 124.567 62.7934 124.857 62.7412 125.218C62.7045 125.576 62.6081 126.082 62.4521 126.737C62.3331 127.283 62.2414 127.837 62.177 128.401C62.1127 128.965 62.0622 129.55 62.0257 130.156C62.0105 130.409 61.9892 130.763 61.9618 131.217C61.9499 131.668 61.9344 132.136 61.9153 132.621C61.9116 133.102 61.911 133.533 61.9134 133.914C61.9272 134.274 61.9465 134.501 61.9713 134.594C62.0002 134.702 62.0765 134.74 62.2002 134.707C62.3197 134.658 62.4185 134.532 62.4966 134.329C62.5253 134.189 62.6153 133.999 62.7665 133.759C62.9178 133.52 63.0408 133.33 63.1354 133.188C63.2301 133.047 63.3587 132.847 63.5213 132.588C63.6839 132.329 63.8619 132.066 64.0554 131.799C64.2447 131.516 64.4289 131.276 64.608 131.079C64.783 130.866 64.9323 130.743 65.056 130.71C65.2569 130.656 65.463 130.684 65.6744 130.793C65.8816 130.886 66.0389 131.01 66.1462 131.163C66.2049 131.197 66.2679 131.247 66.3349 131.311C66.3978 131.361 66.4411 131.399 66.4649 131.426C66.5587 131.467 66.6311 131.737 66.6821 132.237C66.7444 132.717 66.7512 133.362 66.7025 134.17C66.7165 134.779 66.7309 135.297 66.7457 135.724C66.7719 136.131 66.8468 136.318 66.9704 136.285C66.9704 136.285 67.0353 136.217 67.165 136.083C67.3102 135.945 67.461 135.797 67.6175 135.639C67.987 135.225 68.3279 134.951 68.64 134.818C68.9634 134.665 69.1479 134.673 69.1934 134.843C69.2099 134.905 69.2033 134.973 69.1735 135.048C69.1395 135.106 69.1308 135.167 69.1474 135.229C69.1474 135.229 69.1495 135.236 69.1536 135.252C69.1536 135.252 69.1619 135.283 69.1784 135.344C69.1867 135.375 69.1193 135.526 68.9764 135.796C68.8292 136.051 68.661 136.32 68.4717 136.602C68.2936 136.866 68.1392 137.031 68.0084 137.099ZM72.3919 135.924C72.1518 135.955 71.9075 135.847 71.6589 135.598C71.4216 135.331 71.2544 135.077 71.1573 134.838C71.1397 134.711 71.1076 134.529 71.061 134.293C71.0298 134.053 70.9966 133.805 70.9613 133.549C70.9445 133.239 70.9344 132.861 70.9308 132.414C70.9232 131.953 70.9155 131.491 70.9078 131.029C70.9156 130.563 70.9245 130.163 70.9345 129.829C70.9445 129.495 70.9567 129.293 70.971 129.223C71.0152 129.079 71.1305 129.015 71.3171 129.031C71.5036 129.047 71.6675 129.102 71.8088 129.197C71.9346 129.296 72.028 129.428 72.089 129.594C72.1654 129.756 72.2084 130.009 72.218 130.355C72.2431 130.696 72.2477 131.208 72.2319 131.891C72.2274 132.555 72.2305 133.093 72.2412 133.504C72.2632 133.896 72.3378 134.298 72.4649 134.711C72.5438 135.253 72.5843 135.59 72.5865 135.722C72.5845 135.839 72.5197 135.906 72.3919 135.924ZM72.5816 125.958C72.5322 126.021 72.4766 126.061 72.4148 126.078C72.3643 126.075 72.2669 126.051 72.1226 126.007C72.0103 126.02 71.8526 125.988 71.6495 125.91C71.4577 125.812 71.2814 125.711 71.1205 125.605C70.971 125.479 70.8921 125.401 70.8838 125.37C70.827 125.22 70.783 125.024 70.7518 124.784C70.732 124.525 70.7591 124.285 70.8331 124.067C70.9029 123.833 71.0517 123.677 71.2793 123.599C71.3412 123.583 71.3973 123.576 71.4478 123.579C71.4983 123.582 71.6519 123.599 71.9085 123.629C72.0942 123.828 72.2881 124.057 72.4904 124.318C72.6885 124.563 72.817 124.827 72.8761 125.109C72.9309 125.376 72.8328 125.659 72.5816 125.958ZM76.5886 134.475C76.5268 134.492 76.4237 134.478 76.2794 134.434C76.1464 134.37 76.0407 134.315 75.9624 134.27C75.8211 134.176 75.7184 134.071 75.6544 133.955C75.6059 133.836 75.5237 133.56 75.4079 133.127C75.2755 132.632 75.2332 132.072 75.281 131.446C75.3247 130.805 75.4454 129.895 75.6432 128.715L75.9737 126.887C76.0025 126.747 76.0317 126.64 76.0615 126.565C76.1068 126.487 76.1443 126.411 76.1742 126.336C76.236 126.32 76.2901 126.305 76.3364 126.293C76.3828 126.281 76.406 126.274 76.406 126.274C76.5296 126.241 76.6739 126.285 76.8389 126.407C76.9998 126.513 77.1339 126.642 77.2412 126.796C77.295 126.997 77.3199 127.214 77.316 127.447C77.3276 127.675 77.229 128.05 77.0203 128.57C76.9576 128.769 76.8874 129.094 76.8095 129.545C76.7471 129.993 76.7242 130.372 76.741 130.682C76.7297 130.702 76.7174 130.779 76.7042 130.916C76.6868 131.036 76.6658 131.174 76.6412 131.33C76.6321 131.482 76.6131 131.627 76.5844 131.768L76.605 132.309L77.73 130.292C78.2618 129.371 78.7105 128.696 79.0759 128.267C79.4413 127.837 79.7616 127.611 80.0367 127.586C80.3118 127.562 80.5918 127.711 80.8765 128.032C81.0302 128.173 81.1488 128.307 81.2324 128.434C81.3273 128.541 81.4115 128.7 81.4849 128.913C81.5582 129.125 81.6296 129.454 81.6991 129.899L82.0839 131.336C82.2991 131.212 82.4701 131.108 82.5968 131.025C82.7193 130.926 82.8496 130.824 82.9876 130.721C83.1101 130.622 83.2579 130.524 83.4309 130.428C83.5998 130.317 83.8213 130.216 84.0953 130.126C84.1336 130.331 84.122 130.566 84.0604 130.831C83.9947 131.08 83.896 131.33 83.7644 131.581C83.6327 131.832 83.4675 132.05 83.2688 132.236C83.0856 132.418 82.8858 132.537 82.6694 132.595C82.4685 132.649 82.2175 132.609 81.9165 132.474C81.6155 132.34 81.3777 132.163 81.2034 131.945C81.0961 131.792 81.0078 131.617 80.9385 131.42C80.8848 131.219 80.7855 130.848 80.6407 130.307L80.4111 129.449C80.3449 129.202 80.249 129.153 80.1234 129.303C80.0091 129.433 79.916 129.549 79.844 129.651C79.6659 129.914 79.4807 130.212 79.2883 130.545C79.1114 130.874 78.9288 131.213 78.7406 131.562C78.2283 132.495 77.7802 133.203 77.3963 133.687C77.0278 134.167 76.7586 134.429 76.5886 134.475ZM93.7591 131.758C93.6468 131.771 93.5283 131.762 93.4036 131.729C93.2789 131.696 93.15 131.648 93.017 131.584C92.8994 131.516 92.784 131.456 92.6706 131.404C92.4921 131.17 92.361 130.99 92.2774 130.863C92.1938 130.736 92.1318 130.505 92.0912 130.168C92.0416 129.982 91.9991 129.762 91.9638 129.506C91.944 129.246 91.9675 129.025 92.0343 128.841C92.0597 128.503 92.1325 128.094 92.2526 127.615C92.3882 127.131 92.5392 126.643 92.7057 126.151C92.8876 125.655 93.0567 125.204 93.2129 124.798C93.3805 124.372 93.5054 124.065 93.5876 123.877C93.6997 123.615 93.7294 123.417 93.6767 123.282C93.6353 123.127 93.4043 122.883 92.9835 122.548C92.8762 122.395 92.7735 122.29 92.6756 122.233C92.5735 122.161 92.5533 122.117 92.6152 122.1C92.6152 122.1 92.5858 122.084 92.527 122.05C92.4795 121.996 92.4181 121.921 92.3428 121.826C92.0531 121.671 91.8483 121.37 91.7283 120.922C91.6238 120.47 91.6218 119.998 91.7223 119.507C91.8206 118.885 91.9793 118.395 92.1985 118.038C92.429 117.661 92.7677 117.38 93.2148 117.194C93.3889 117.163 93.6872 117.133 94.1097 117.103C94.5322 117.072 94.9722 117.045 95.4297 117.022C95.8872 116.999 96.2639 117.014 96.5597 117.067C96.7659 117.094 97.0076 117.162 97.2849 117.27C97.5777 117.373 97.8395 117.485 98.0705 117.606C98.2973 117.711 98.4308 117.807 98.4711 117.896C98.4835 117.942 98.5212 117.99 98.5841 118.039C98.6583 118.069 98.7135 118.121 98.7496 118.194C98.8879 118.339 98.988 118.527 99.0501 118.759C99.1276 118.987 99.1742 119.223 99.1899 119.467C99.2014 119.696 99.1795 119.892 99.124 120.056C98.8535 120.593 98.6492 120.913 98.5112 121.016C98.4505 121.099 98.3785 121.201 98.2951 121.322C98.2272 121.44 98.1356 121.531 98.0202 121.595C97.9719 121.724 97.9195 121.837 97.8629 121.935C97.8218 122.029 97.7703 122.084 97.7085 122.101C97.6343 122.071 97.5662 122.065 97.5044 122.081C97.4385 122.082 97.4138 122.114 97.4303 122.176C97.4386 122.206 97.349 122.305 97.1616 122.471C96.9897 122.633 96.8059 122.782 96.6102 122.917C96.4146 123.053 96.2817 123.113 96.2116 123.099C96.2116 123.099 96.1884 123.105 96.1421 123.117C96.0957 123.13 96.0344 123.179 95.9583 123.266C95.7491 123.289 95.9312 123.505 96.5045 123.915C97.0379 124.484 97.4723 125.055 97.8077 125.628C98.1545 126.181 98.2555 126.651 98.1105 127.037C97.9948 127.781 97.8249 128.414 97.6007 128.938C97.3725 129.447 97.1558 129.72 96.9508 129.759C96.9508 129.759 96.9183 129.792 96.8535 129.859C96.8041 129.922 96.7469 129.987 96.6821 130.054C96.6801 130.171 96.6292 130.259 96.5293 130.319C96.449 130.39 96.3681 130.429 96.2867 130.434C96.1311 130.409 95.9123 130.551 95.6302 130.858C95.4665 131.051 95.2539 131.216 94.9923 131.353C94.7502 131.5 94.5133 131.605 94.2815 131.667C94.0538 131.745 93.8797 131.775 93.7591 131.758ZM93.8135 130.476C93.9722 130.45 94.1762 130.346 94.4254 130.163C94.6746 129.98 94.931 129.762 95.1945 129.509C95.4694 129.237 95.7021 128.992 95.8925 128.775C96.3515 128.139 96.6214 127.569 96.7024 127.067C96.7987 126.561 96.6901 126.093 96.3764 125.664C96.234 125.503 96.0798 125.329 95.9137 125.142C95.7476 124.954 95.6094 124.809 95.499 124.706C95.3691 124.592 95.2572 124.514 95.1634 124.473C95.085 124.428 95.001 124.393 94.9113 124.367C94.9113 124.367 94.8619 124.43 94.7631 124.556C94.6756 124.662 94.616 124.811 94.5842 125.001C94.4721 125.263 94.3827 125.486 94.3159 125.67C94.2645 125.849 94.2224 126.001 94.1896 126.126C94.1104 126.263 94.0368 126.391 93.9689 126.508C93.901 126.626 93.8501 126.714 93.8161 126.773C93.8285 126.819 93.8194 126.971 93.7887 127.227C93.7539 127.469 93.7037 127.714 93.638 127.964C93.4552 128.642 93.3836 129.241 93.4233 129.761C93.4743 130.261 93.6044 130.499 93.8135 130.476ZM95.3587 121.862C95.6046 121.481 95.8393 121.244 96.0629 121.151C96.2977 121.038 96.4842 121.054 96.6225 121.2C96.6699 121.253 96.829 121.136 97.0998 120.848C97.386 120.556 97.6175 120.245 97.7945 119.916C97.8417 119.721 97.8606 119.575 97.8512 119.478C97.8419 119.382 97.7886 119.214 97.6915 118.975C97.6656 118.816 97.6171 118.696 97.5459 118.616C97.4706 118.52 97.3432 118.447 97.1639 118.396C97 118.34 96.7392 118.294 96.3816 118.258C95.3324 118.174 94.5153 118.278 93.9303 118.567C93.3452 118.857 93.0417 119.394 93.0198 120.178C93.0057 120.497 93.0297 120.772 93.0917 121.004C93.1538 121.235 93.2818 121.466 93.4758 121.696C93.6314 121.72 93.7469 121.78 93.8222 121.876C93.8934 121.956 93.929 121.997 93.929 121.997C93.9662 122.136 94.0466 122.189 94.1703 122.155C94.2218 122.224 94.3528 122.28 94.563 122.323C94.7733 122.366 95.0385 122.212 95.3587 121.862ZM109.059 128.921C109.059 128.921 109.032 128.912 108.977 128.893C108.927 128.89 108.861 128.892 108.779 128.897C108.713 128.898 108.634 128.911 108.541 128.936C108.278 128.94 108.063 128.849 107.896 128.662C107.735 128.49 107.651 128.272 107.647 128.008C107.692 127.929 107.703 127.786 107.681 127.576C107.658 127.367 107.63 127.201 107.597 127.077C107.625 126.937 107.641 126.842 107.644 126.791C107.643 126.725 107.64 126.56 107.636 126.296C107.612 126.021 107.592 125.637 107.576 125.144C107.572 124.632 107.566 124.087 107.561 123.509C107.57 122.926 107.579 122.369 107.585 121.837C107.592 121.305 107.604 120.855 107.621 120.486C107.654 120.113 107.687 119.897 107.721 119.838C107.721 119.838 107.715 119.815 107.702 119.768C107.686 119.706 107.669 119.645 107.653 119.583C107.653 119.583 107.642 119.511 107.62 119.368C107.61 119.205 107.641 119.014 107.715 118.796C107.732 118.609 107.736 118.409 107.729 118.196C107.721 117.982 107.709 117.845 107.693 117.783C107.734 117.689 107.769 117.481 107.799 117.158C107.84 116.816 107.875 116.483 107.904 116.161C107.931 115.889 107.961 115.599 107.995 115.292C108.044 114.98 108.08 114.714 108.104 114.492C108.143 114.266 108.162 114.153 108.162 114.153C108.146 114.092 108.137 114.061 108.137 114.061C108.133 114.045 108.131 114.037 108.131 114.037C108.176 113.959 108.24 113.611 108.323 112.992C108.418 112.354 108.553 111.531 108.731 110.522C108.759 110.382 108.799 110.222 108.851 110.043C108.902 109.863 108.919 109.743 108.903 109.681C108.947 109.536 109.041 109.453 109.184 109.431C109.323 109.394 109.475 109.403 109.638 109.459C109.818 109.51 109.969 109.61 110.092 109.759L110.423 110.068L110.035 111.961C109.904 112.46 109.801 112.91 109.726 113.312C109.666 113.709 109.645 113.938 109.661 114C109.661 114 109.648 114.136 109.622 114.408C109.595 114.68 109.566 115.003 109.533 115.376C109.5 115.749 109.475 116.087 109.457 116.39C109.415 116.915 109.358 117.353 109.286 117.703C109.23 118.05 109.21 118.254 109.227 118.316C109.218 118.285 109.382 118.216 109.718 118.109C110.054 118.003 110.484 117.879 111.01 117.738C111.535 117.597 112.068 117.454 112.609 117.309C113.162 117.144 113.646 117.006 114.064 116.894C114.492 116.763 114.78 116.661 114.926 116.588L116.1 116.149L116.249 113.55C116.257 113.084 116.278 112.515 116.314 111.843C116.349 111.17 116.386 110.597 116.425 110.123C116.482 109.346 116.557 108.854 116.651 108.646C116.744 108.439 116.884 108.31 117.069 108.261C117.116 108.248 117.182 108.247 117.267 108.257C117.364 108.248 117.459 108.264 117.553 108.305C117.658 108.326 117.739 108.379 117.795 108.464C118.026 108.584 118.162 108.754 118.205 108.975C118.263 109.191 118.216 109.51 118.063 109.932C117.928 110.416 117.841 110.928 117.804 111.468C117.777 111.988 117.744 112.42 117.703 112.762C117.753 112.948 117.771 113.108 117.757 113.244C117.74 113.365 117.709 113.465 117.663 113.543C117.641 113.582 117.61 113.715 117.571 113.941C117.532 114.166 117.501 114.39 117.477 114.612C117.454 114.833 117.448 114.967 117.461 115.014C117.49 115.122 117.502 115.26 117.497 115.427C117.492 115.594 117.467 115.716 117.421 115.795C117.415 115.896 117.408 116.146 117.399 116.546C117.39 116.946 117.384 117.42 117.382 117.967C117.375 118.499 117.359 119.025 117.332 119.546C117.302 120.051 117.266 120.475 117.225 120.817C117.254 120.925 117.253 121.075 117.221 121.265C117.185 121.441 117.184 121.59 117.217 121.714C117.205 121.916 117.19 122.168 117.171 122.471C117.153 122.774 117.154 122.965 117.175 123.042C117.193 123.418 117.205 123.804 117.212 124.2C117.234 124.592 117.249 124.927 117.257 125.206C117.286 125.497 117.306 125.666 117.318 125.712C117.273 125.79 117.182 125.823 117.046 125.81C116.91 125.797 116.749 125.782 116.562 125.766C116.223 125.674 115.996 125.537 115.88 125.352C115.784 125.179 115.774 124.892 115.849 124.491C115.893 124.347 115.905 124.02 115.885 123.512C115.876 122.984 115.869 122.464 115.865 121.952C115.895 121.695 115.913 121.359 115.918 120.944C115.918 120.513 115.919 120.082 115.92 119.651C115.916 119.205 115.916 118.832 115.919 118.533C115.917 118.219 115.928 118.042 115.95 118.003C115.934 117.941 115.919 117.887 115.907 117.841C115.895 117.794 115.888 117.771 115.888 117.771C115.849 117.749 115.65 117.777 115.29 117.857C114.927 117.922 114.484 118.032 113.963 118.188C113.437 118.329 112.893 118.492 112.329 118.676C111.777 118.841 111.285 119.014 110.854 119.196C110.684 119.242 110.49 119.294 110.274 119.352C110.058 119.41 109.888 119.455 109.764 119.489C109.594 119.534 109.447 119.573 109.324 119.607C109.216 119.636 109.161 119.65 109.161 119.65C109.158 119.701 109.148 119.877 109.13 120.181C109.111 120.484 109.094 120.853 109.078 121.288C109.058 121.707 109.034 122.144 109.007 122.599C108.991 123.034 108.982 123.434 108.98 123.799C108.99 124.144 108.998 124.39 109.004 124.538C109.017 124.833 109.025 125.203 109.028 125.65C109.047 126.092 109.053 126.546 109.045 127.012C109.057 127.489 109.06 127.902 109.054 128.252C109.063 128.597 109.065 128.82 109.059 128.921ZM122.417 122.903C122.216 122.957 122.043 122.962 121.899 122.918C121.77 122.87 121.602 122.799 121.395 122.705C121.018 122.475 120.731 122.237 120.533 121.992C120.331 121.732 120.218 121.464 120.194 121.189C120.207 121.052 120.192 120.932 120.147 120.828C120.114 120.705 120.097 120.643 120.097 120.643C120 120.586 119.964 120.546 119.991 120.522C120.013 120.483 120.032 120.429 120.046 120.358C120.139 120.334 120.147 120.24 120.071 120.079C120.007 119.963 119.996 119.676 120.039 119.217C120.082 118.759 120.169 118.313 120.302 117.88C120.353 117.7 120.439 117.462 120.558 117.165C120.673 116.852 120.806 116.543 120.956 116.238C121.117 115.913 121.27 115.649 121.414 115.444C121.714 115.016 121.989 114.685 122.242 114.452C122.494 114.219 122.78 114.018 123.099 113.849C123.418 113.681 123.64 113.58 123.763 113.547C123.902 113.51 124.121 113.583 124.419 113.769C124.816 113.828 125.12 113.945 125.333 114.12C125.561 114.291 125.754 114.578 125.912 114.983C126.082 115.435 126.186 115.978 126.224 116.614C126.273 117.23 126.106 118.062 125.724 119.109C125.487 119.769 125.243 120.281 124.993 120.647C124.739 120.997 124.423 121.363 124.045 121.746C123.778 122.049 123.528 122.29 123.294 122.469C123.056 122.632 122.764 122.777 122.417 122.903ZM123.984 119.849C124.244 119.332 124.432 118.859 124.549 118.43C124.681 117.997 124.771 117.468 124.819 116.842C124.836 116.655 124.818 116.436 124.768 116.185C124.713 115.918 124.641 115.68 124.552 115.472C124.474 115.245 124.385 115.128 124.284 115.122C124.07 115.063 123.837 115.092 123.587 115.209C123.333 115.311 123.086 115.534 122.847 115.88C122.476 116.41 122.193 117.024 121.999 117.723C121.801 118.405 121.633 119.171 121.496 120.019C121.413 120.638 121.479 121.101 121.693 121.407C121.919 121.695 122.236 121.734 122.644 121.525C123.063 121.297 123.51 120.738 123.984 119.849ZM134.518 119.98C134.426 120.071 134.273 120.087 134.058 120.029C133.86 119.966 133.646 119.85 133.418 119.679C133.26 119.522 133.129 119.342 133.025 119.138C132.936 118.93 132.84 118.633 132.737 118.247C132.669 117.933 132.6 117.737 132.529 117.656C132.473 117.572 132.392 117.61 132.286 117.771C132.176 117.917 131.997 118.205 131.748 118.636C131.465 119.126 131.175 119.527 130.877 119.839C130.595 120.146 130.344 120.321 130.123 120.364C130.015 120.393 129.877 120.372 129.709 120.301C129.552 120.211 129.397 120.095 129.243 119.954C129.085 119.797 128.943 119.637 128.816 119.472C128.632 119.157 128.501 118.728 128.422 118.186C128.355 117.625 128.327 117.027 128.34 116.394C128.353 115.761 128.397 115.153 128.473 114.57C128.564 113.982 128.682 113.495 128.827 113.108C128.987 112.717 129.16 112.497 129.346 112.447C129.469 112.414 129.594 112.447 129.72 112.546C129.861 112.64 130.021 112.804 130.2 113.038C130.29 113.13 130.338 113.216 130.344 113.298C130.364 113.375 130.327 113.484 130.233 113.626C130.143 113.848 130.055 114.17 129.969 114.591C129.899 115.007 129.836 115.455 129.782 115.933C129.743 116.407 129.716 116.862 129.7 117.297C129.684 117.732 129.688 118.087 129.712 118.362C129.731 118.622 129.772 118.744 129.834 118.727C130.05 118.669 130.283 118.516 130.531 118.267C130.79 117.998 131.024 117.696 131.232 117.358C131.469 116.947 131.66 116.514 131.804 116.062C131.963 115.605 132.116 115.125 132.263 114.621C132.381 114.258 132.499 113.863 132.616 113.434C132.749 113 132.825 112.698 132.845 112.527C132.954 112.067 133.044 111.753 133.115 111.585C133.182 111.402 133.286 111.266 133.428 111.178C133.506 111.157 133.575 111.139 133.637 111.122C133.714 111.101 133.753 111.091 133.753 111.091C133.85 111.082 133.977 111.122 134.133 111.213C134.274 111.241 134.36 111.284 134.392 111.342C134.419 111.384 134.444 111.444 134.464 111.521C134.444 111.693 134.406 111.951 134.349 112.298C134.304 112.625 134.269 112.866 134.245 113.021C134.129 113.765 134.011 114.5 133.891 115.228C133.783 115.937 133.756 116.64 133.81 117.337C133.837 117.562 133.898 117.819 133.992 118.109C134.097 118.379 134.197 118.567 134.292 118.674C134.363 118.755 134.446 118.848 134.541 118.955C134.647 119.043 134.757 119.113 134.871 119.165C135.035 119.221 135.085 119.315 135.021 119.448C134.973 119.577 134.889 119.699 134.771 119.813C134.648 119.912 134.564 119.968 134.518 119.98ZM137.885 118.257C137.717 118.186 137.588 118.105 137.497 118.013C137.422 117.918 137.366 117.709 137.329 117.387C137.26 116.942 137.22 116.547 137.211 116.202C137.197 115.841 137.186 115.43 137.179 114.968C137.16 114.774 137.16 114.434 137.179 113.949C137.214 113.459 137.269 112.923 137.345 112.339C137.42 111.756 137.504 111.203 137.597 110.681C137.685 110.144 137.775 109.739 137.867 109.466C137.966 109.34 138.103 109.262 138.277 109.232C138.466 109.197 138.64 109.225 138.796 109.316C139.004 109.409 139.093 109.65 139.064 110.039C139.047 110.408 138.96 111.011 138.803 111.848C138.73 112.315 138.675 112.67 138.641 112.911C138.602 113.137 138.596 113.271 138.624 113.313C138.648 113.34 138.711 113.298 138.814 113.187C138.861 112.993 138.979 112.754 139.169 112.471C139.354 112.173 139.557 111.878 139.777 111.587C139.997 111.296 140.208 111.033 140.41 110.796C140.612 110.56 140.753 110.406 140.833 110.335C140.936 110.225 141.059 110.125 141.201 110.038C141.354 109.93 141.458 109.853 141.511 109.805C141.821 109.54 142.168 109.381 142.551 109.327C142.934 109.274 143.203 109.351 143.358 109.558C143.407 109.678 143.478 109.758 143.572 109.799C143.681 109.836 143.736 109.855 143.736 109.855C143.797 109.838 143.835 109.853 143.847 109.899C143.875 109.941 143.889 109.963 143.889 109.963C143.918 110.071 143.851 110.163 143.69 110.24C143.539 110.297 143.342 110.366 143.099 110.448C142.903 110.517 142.735 110.603 142.597 110.707C142.459 110.81 142.294 110.937 142.103 111.088C141.607 111.585 141.132 112.069 140.678 112.538C140.239 113.004 139.845 113.574 139.495 114.247C139.42 114.4 139.351 114.576 139.289 114.775C139.226 114.974 139.16 115.19 139.09 115.424C139.033 115.522 139.001 115.713 138.994 115.997C138.988 116.28 138.986 116.554 138.991 116.818C139.006 117.062 139.02 117.207 139.033 117.254C139.033 117.254 139.03 117.337 139.025 117.504C139.016 117.656 138.976 117.815 138.905 117.984C138.786 118.281 138.664 118.446 138.541 118.479C138.417 118.512 138.199 118.438 137.885 118.257ZM148.161 116.147C147.783 116.281 147.406 116.358 147.03 116.376C146.67 116.39 146.341 116.337 146.044 116.218C145.758 116.079 145.532 115.883 145.365 115.63C145.199 115.442 145.105 115.31 145.085 115.233C145.06 115.14 145.093 115.048 145.185 114.957C145.308 114.924 145.427 114.934 145.54 114.986C145.665 115.019 145.823 115.051 146.013 115.083C146.299 115.222 146.606 115.255 146.935 115.184C147.279 115.108 147.573 114.971 147.819 114.773C148.064 114.574 148.177 114.378 148.158 114.185C148.141 114.123 148.089 114.021 148.002 113.879C147.914 113.737 147.816 113.589 147.709 113.435C147.135 112.96 146.67 112.463 146.316 111.945C145.974 111.408 145.753 110.954 145.653 110.583C145.579 110.304 145.585 109.988 145.673 109.633C145.756 109.263 145.915 108.93 146.151 108.635C146.35 108.267 146.589 107.921 146.867 107.598C147.145 107.275 147.431 106.983 147.726 106.722C148.036 106.457 148.319 106.248 148.577 106.096C148.747 106.05 148.977 106.014 149.268 105.985C149.558 105.957 149.766 105.959 149.891 105.992C150.077 106.008 150.285 106.135 150.514 106.372C150.739 106.593 150.886 106.835 150.957 107.098C150.986 107.206 150.992 107.353 150.976 107.54C150.959 107.726 150.913 107.954 150.836 108.223C150.819 108.41 150.793 108.591 150.757 108.766C150.717 108.926 150.706 109.037 150.722 109.099C150.69 109.29 150.605 109.404 150.466 109.441C150.338 109.459 150.188 109.424 150.016 109.338C149.855 109.232 149.711 109.097 149.584 108.932C149.46 108.717 149.388 108.537 149.366 108.394C149.34 108.235 149.358 108.057 149.421 107.857C149.545 107.642 149.599 107.503 149.583 107.441C149.566 107.38 149.473 107.371 149.303 107.417C149.195 107.446 149.013 107.569 148.756 107.787C148.511 107.986 148.255 108.236 147.989 108.54C147.733 108.824 147.521 109.113 147.351 109.407C147.132 109.764 147.008 110.012 146.979 110.152C146.966 110.288 146.995 110.488 147.065 110.751C147.123 110.967 147.242 111.225 147.421 111.525C147.616 111.82 147.782 112.008 147.919 112.087C147.919 112.087 148.003 112.181 148.169 112.368C148.331 112.54 148.52 112.721 148.736 112.911C149.449 113.78 149.756 114.46 149.655 114.951C149.555 115.442 149.057 115.84 148.161 116.147Z" fill="#CAFC01"/>
<path d="M13.4124 28.2955C22.3463 28.7304 60.8611 22.5737 70.9391 80.3886" stroke="#CAFC01" stroke-width="1.50995"/>
<path d="M74.5564 74.6259L71.0304 81.0799L64.2882 77.0996" stroke="#CAFC01" stroke-width="1.50995"/>
<path d="M11.8635 26.5111C10.8879 27.3283 10.7592 28.784 11.5765 29.7597C12.3937 30.7353 13.8494 30.8639 14.8251 30.0467C15.8007 29.2295 15.9294 27.7738 15.1121 26.7981C14.2949 25.8224 12.8392 25.6938 11.8635 26.5111Z" fill="#CAFC01"/>
</svg>
