<svg width="1903" height="1460" viewBox="0 0 1903 1460" fill="none" xmlns="http://www.w3.org/2000/svg">
<path opacity="0.15" d="M124.888 836.44H946.901H947.238C956.099 836.44 960.944 810.632 955.26 793.708L860.137 506.433C843.083 452.278 832.886 383.739 833.054 309.276C833.556 137.08 890.062 0 957.937 0H1778.28C1846.15 0 1902.33 137.08 1902.99 308.429C1903.66 481.471 1848.16 623.205 1779.78 623.205H956.099C955.93 623.205 955.93 623.205 955.762 623.205C946.901 623.205 942.056 649.013 947.74 665.937L1042.53 952.366C1059.75 1006.52 1070.11 1075.06 1069.95 1149.94C1069.61 1322.14 1013.11 1459.64 945.063 1459.64H123.216C54.8404 1459.64 -0.662729 1318.34 0.00597975 1144.87C0.841872 973.52 57.0139 836.44 124.888 836.44Z" fill="#0B0B0B"/>
</svg>
