<svg width="13" height="14" viewBox="0 0 13 14" fill="none" xmlns="http://www.w3.org/2000/svg">
<path d="M12.5369 8.79563C12.6305 8.37532 12.6789 7.93967 12.6789 7.49273C12.6789 4.14069 9.92301 1.42276 6.52256 1.42276C6.16437 1.42276 5.81262 1.45341 5.46976 1.5115C4.91955 1.17024 4.26851 0.971783 3.57067 0.971783C1.59817 0.971783 0 2.54736 0 4.49243C0 5.14187 0.179098 5.74935 0.490503 6.27293C0.409022 6.66662 0.365457 7.07484 0.365457 7.49273C0.365457 10.8456 3.12212 13.5635 6.52176 13.5635C6.90738 13.5635 7.28413 13.528 7.64959 13.4619C8.153 13.7281 8.72741 13.8798 9.33812 13.8798C11.3098 13.8798 12.908 12.3034 12.908 10.3599C12.908 9.79761 12.7741 9.26758 12.5369 8.79563ZM9.68018 10.3938C9.3954 10.7915 8.97508 11.1062 8.42891 11.3288C7.8892 11.5507 7.24299 11.6636 6.50562 11.6636C5.62143 11.6636 4.88002 11.5103 4.30078 11.207C3.88692 10.9868 3.54647 10.6891 3.2875 10.3196C3.02531 9.94848 2.89381 9.57979 2.89381 9.22321C2.89381 9.00135 2.98013 8.80854 3.15035 8.65122C3.31896 8.49391 3.53517 8.41565 3.79333 8.41565C4.0047 8.41565 4.18703 8.47777 4.33547 8.60121C4.47665 8.7198 4.59847 8.89567 4.69608 9.12075C4.805 9.36762 4.92359 9.57576 5.04863 9.73792C5.17045 9.89684 5.3439 10.0292 5.56576 10.1332C5.78923 10.2365 6.09015 10.2905 6.45964 10.2905C6.9687 10.2905 7.38659 10.1832 7.69961 9.97187C8.00698 9.76615 8.15542 9.51767 8.15542 9.21433C8.15542 8.97554 8.07717 8.78676 7.91824 8.63912C7.75043 8.48423 7.52939 8.36402 7.26155 8.28093C6.9816 8.19541 6.60162 8.10183 6.1321 8.00502C5.49235 7.87029 4.9494 7.71056 4.5186 7.52904C4.07731 7.34348 3.72073 7.08694 3.46095 6.76585C3.19634 6.43912 3.06242 6.0301 3.06242 5.54927C3.06242 5.09104 3.20279 4.67799 3.48031 4.3214C3.75542 3.96724 4.15718 3.69053 4.67592 3.50255C5.18659 3.31619 5.79407 3.2218 6.48223 3.2218C7.03162 3.2218 7.51486 3.28473 7.91905 3.40897C8.32484 3.53321 8.6669 3.70101 8.93555 3.90835C9.20662 4.1181 9.4083 4.33996 9.53416 4.5723C9.66162 4.80626 9.72697 5.03941 9.72697 5.26449C9.72697 5.48151 9.64226 5.67916 9.47446 5.85019C9.30504 6.02364 9.09206 6.11077 8.84197 6.11077C8.61446 6.11077 8.43537 6.05511 8.31193 5.94781C8.19657 5.84697 8.07636 5.68965 7.94406 5.46537C7.79077 5.17817 7.60441 4.95147 7.39143 4.79093C7.1841 4.63523 6.83881 4.55778 6.36283 4.55778C5.92234 4.55778 5.56253 4.64491 5.29631 4.81755C5.03976 4.98294 4.91471 5.17333 4.91471 5.39922C4.91471 5.53717 4.95505 5.65254 5.03815 5.75177C5.12527 5.85826 5.24871 5.94942 5.40522 6.02687C5.56657 6.10674 5.73356 6.17128 5.90056 6.21646C6.07159 6.26325 6.35799 6.33344 6.75249 6.42298C7.25106 6.52786 7.70848 6.64645 8.11347 6.77473C8.52411 6.903 8.87746 7.06193 9.16789 7.24829C9.46236 7.43787 9.69551 7.6799 9.8617 7.97033C10.0279 8.26318 10.1118 8.62218 10.1118 9.04008C10.111 9.53945 9.96577 9.99527 9.68018 10.3938Z" fill="white"/>
</svg>
