<svg xmlns="http://www.w3.org/2000/svg" width="24" height="24" fill="none" xmlns:v="https://vecta.io/nano"><path d="M12 24c6.627 0 12-5.373 12-12S18.627 0 12 0 0 5.373 0 12s5.373 12 12 12z" fill="#f0f0f0"/><path d="M2.481 4.695C1.538 5.921.827 7.334.413 8.87h6.243L2.481 4.695zM23.587 8.87a11.96 11.96 0 0 0-2.067-4.175L17.344 8.87h6.243zM.413 15.131a11.96 11.96 0 0 0 2.067 4.175l4.175-4.175H.413zm18.893-12.65A11.94 11.94 0 0 0 15.13.414v6.243l4.175-4.175zM4.694 21.52a11.95 11.95 0 0 0 4.175 2.067v-6.243L4.694 21.52zM8.869.414C7.334.827 5.92 1.538 4.694 2.481l4.175 4.175V.414zm6.261 23.173a11.96 11.96 0 0 0 4.175-2.067l-4.175-4.175v6.243zm2.214-8.456l4.175 4.175a11.97 11.97 0 0 0 2.067-4.175h-6.243z" fill="#0052b4"/><path d="M23.898 10.435H13.565h0V.102A12.12 12.12 0 0 0 12 0c-.531 0-1.053.035-1.565.102v10.333h0H.102A12.12 12.12 0 0 0 0 12c0 .531.035 1.053.102 1.565h10.333 0v10.333c.512.067 1.035.102 1.565.102a12.1 12.1 0 0 0 1.565-.102V13.565h0 10.333C23.965 13.053 24 12.53 24 12a12.12 12.12 0 0 0-.102-1.565h0zM15.13 15.13l5.355 5.355.705-.77-4.584-4.584H15.13h0zm-6.26 0h0l-5.355 5.355.77.705 4.584-4.585V15.13zm0-6.26h0L3.515 3.515l-.705.77L7.394 8.87H8.87h0zm6.26 0l5.355-5.355-.77-.705-4.584 4.585V8.87z" fill="#d80027"/></svg>