<svg xmlns="http://www.w3.org/2000/svg" width="18" height="11.47" viewBox="0 0 18 11.47">
  <defs>
    <style>
      .cls-1 {
        fill: #fff;
        fill-rule: evenodd;
      }
    </style>
  </defs>
  <path id="Arrow_2" data-name="Arrow 2" class="cls-1" d="M710.785,4694.96a0.82,0.82,0,0,0-.54-0.2,0.8,0.8,0,0,0-.54,1.41l5,4.32-5,4.32a0.8,0.8,0,0,0,.54,1.41,0.866,0.866,0,0,0,.54-0.19l6.411-5.54Zm-10.69,4.72h13.836a0.82,0.82,0,0,1,0,1.64H699.913a0.731,0.731,0,0,1-.728-0.73A0.912,0.912,0,0,1,700.1,4699.68Z" transform="translate(-699.188 -4694.75)"/>
</svg>
