<svg xmlns="http://www.w3.org/2000/svg" width="34.812" height="57.88" viewBox="0 0 34.812 57.88">
  <defs>
    <style>
      .cls-1, .cls-2 {
        fill-rule: evenodd;
      }

      .cls-2 {
        fill: #fff;
      }

      .cls-3 {
        font-size: 35px;
        text-anchor: middle;
        font-family: Poppins;
        font-weight: 700;
      }
    </style>
  </defs>
  <g id="Strike_3" data-name="Strike 3">
    <path class="cls-1" d="M793.1,3166.56h18.8a8,8,0,0,1,8,8v41.88a8,8,0,0,1-8,8H793.1a8,8,0,0,1-8-8v-41.88A8,8,0,0,1,793.1,3166.56Z" transform="translate(-785.094 -3166.56)"/>
    <path class="cls-2" d="M786.427,3171.14a3.556,3.556,0,0,1,3.881-3.23h3.737v1.62a1.274,1.274,0,0,0,1.1,1.01h14.673a1.525,1.525,0,0,0,1.141-1.01v-1.62h3.917a3.471,3.471,0,0,1,3.665,3.23v48.51a3.364,3.364,0,0,1-3.665,3.34H790.308s-3.881.13-3.881-3.34v-48.51Z" transform="translate(-785.094 -3166.56)"/>
  </g>
  <text id="J" class="cls-3" transform="matrix(1, -0.007, 0.007, 1, 18.397, 40.915)">J</text>
</svg>
