<svg xmlns="http://www.w3.org/2000/svg" width="31.625" height="52.62" viewBox="0 0 31.625 52.62">
  <defs>
    <style>
      .cls-1, .cls-2 {
        fill-rule: evenodd;
      }

      .cls-2 {
        fill: #fff;
      }

      .cls-3 {
        font-size: 35px;
        text-anchor: middle;
        font-family: Poppins;
        font-weight: 700;
      }
    </style>
  </defs>
  <g id="Strike_5" data-name="Strike 5">
    <path class="cls-1" d="M487.774,4007.2h15.64a8,8,0,0,1,8,8v36.63a8,8,0,0,1-8,8h-15.64a8,8,0,0,1-8-8V4015.2A8,8,0,0,1,487.774,4007.2Z" transform="translate(-479.781 -4007.19)"/>
    <path class="cls-2" d="M480.982,4011.37a3.235,3.235,0,0,1,3.528-2.94h3.4v1.47a1.172,1.172,0,0,0,1,.93h13.339a1.418,1.418,0,0,0,1.038-.93v-1.47h3.56a3.153,3.153,0,0,1,3.332,2.94v44.09a3.061,3.061,0,0,1-3.332,3.04H484.51s-3.528.12-3.528-3.04v-44.09Z" transform="translate(-479.781 -4007.19)"/>
  </g>
  <text id="T" class="cls-3" x="16.529" y="40.505">T</text>
</svg>
